<?xml version="1.0" encoding="UTF-8" standalone="no"?>
<!-- Created with Inkscape (http://www.inkscape.org/) -->

<svg
   xmlns:dc="http://purl.org/dc/elements/1.1/"
   xmlns:cc="http://creativecommons.org/ns#"
   xmlns:rdf="http://www.w3.org/1999/02/22-rdf-syntax-ns#"
   xmlns:svg="http://www.w3.org/2000/svg"
   xmlns="http://www.w3.org/2000/svg"
   xmlns:sodipodi="http://sodipodi.sourceforge.net/DTD/sodipodi-0.dtd"
   xmlns:inkscape="http://www.inkscape.org/namespaces/inkscape"
   width="1048"
   height="768"
   viewBox="0 0 1048 768.00002"
   id="svg2"
   version="1.1"
   inkscape:version="0.91 r13725"
   sodipodi:docname="01.svg">
  <defs
     id="defs4" />
  <sodipodi:namedview
     id="base"
     pagecolor="#ffffff"
     bordercolor="#666666"
     borderopacity="1.0"
     inkscape:pageopacity="0.0"
     inkscape:pageshadow="2"
     inkscape:zoom="0.7"
     inkscape:cx="507.83632"
     inkscape:cy="384.1914"
     inkscape:document-units="px"
     inkscape:current-layer="layer1"
     showgrid="false"
     units="px"
     inkscape:window-width="1920"
     inkscape:window-height="1014"
     inkscape:window-x="0"
     inkscape:window-y="27"
     inkscape:window-maximized="1" />
  <metadata
     id="metadata7">
    <rdf:RDF>
      <cc:Work
         rdf:about="">
        <dc:format>image/svg+xml</dc:format>
        <dc:type
           rdf:resource="http://purl.org/dc/dcmitype/StillImage" />
        <dc:title></dc:title>
      </cc:Work>
    </rdf:RDF>
  </metadata>
  <g
     inkscape:label="Layer 1"
     inkscape:groupmode="layer"
     id="layer1"
     transform="translate(0,-284.36218)">
    <g
       transform="matrix(2.2030211,0,0,2.2030211,193.5551,520.75578)"
       id="g4907">
      <path
         style="fill:#000000"
         inkscape:connector-curvature="0"
         id="path4308"
         d="m 221.53,19.734 c -21.404,0 -38.764,17.34 -38.764,38.718 0,21.378 17.36,38.718 38.764,38.718 21.404,0 38.764,-17.34 38.764,-38.718 0,-21.378 -17.36,-38.718 -38.764,-38.718 z m 0,9.7574 c 16.008,0 28.995,12.972 28.995,28.96 0,15.989 -12.987,28.96 -28.995,28.96 -16.008,0 -28.995,-12.972 -28.995,-28.96 0,-15.989 12.987,-28.96 28.995,-28.96 z" />
      <path
         style="fill:#000000"
         inkscape:connector-curvature="0"
         id="path4310"
         d="m 121.94,19.734 c -21.404,0 -38.764,17.34 -38.764,38.718 0,21.378 17.36,38.718 38.764,38.718 21.404,0 38.764,-17.34 38.764,-38.718 0,-21.378 -17.36,-38.718 -38.764,-38.718 z m 0,9.7574 c 16.008,0 28.995,12.972 28.995,28.96 0,15.989 -12.987,28.96 -28.995,28.96 -16.008,0 -28.995,-12.972 -28.995,-28.96 0,-15.989 12.987,-28.96 28.995,-28.96 z" />
      <path
         style="fill:#000000"
         inkscape:connector-curvature="0"
         id="path4312"
         d="m 65.574,0.00382 0,30.519 c -6.9644,-6.67 -16.403,-10.786 -26.81,-10.786 -21.404,0 -38.764,17.34 -38.764,38.718 0,21.378 17.36,38.718 38.764,38.718 10.407,0 19.846,-4.1162 26.81,-10.786 l 0,8.3858 12.578,0 0,-94.768 -12.578,0 z m -26.81,29.49 c 12.099,0 22.466,7.4026 26.81,17.925 l 0,22.071 c -4.3446,10.522 -14.711,17.925 -26.81,17.925 -16.008,0 -28.995,-12.972 -28.995,-28.96 0,-15.989 12.987,-28.96 28.995,-28.96 z" />
      <path
         style="fill:#000000"
         inkscape:connector-curvature="0"
         id="path4314"
         d="m 105.56,4.9838 32.326,0 c 1.3098,1.0042 1.3109,2.9916 0,4.0081 l -32.326,0 c -1.3086,-1.0148 -1.3076,-3.0079 0,-4.0081 z" />
      <path
         style="fill:#000000"
         inkscape:connector-curvature="0"
         id="path4316"
         d="m 205.43,4.9838 32.326,0 c 1.3098,1.0042 1.3109,2.9916 0,4.0081 l -32.326,0 c -1.3086,-1.0148 -1.3076,-3.0079 0,-4.0081 z" />
      <path
         style="fill:#000000"
         inkscape:connector-curvature="0"
         id="path4318"
         d="m 165.23,1.9838 9.9251,0 -2.4e-4,14.932 -9.9246,0 z" />
      <path
         style="fill:#000000"
         inkscape:connector-curvature="0"
         id="path4320"
         d="m 165.23,21.964 9.9246,0 0,72.489 c 0,7.67 -10.632,20.596 -14.076,24.461 l -6.5543,-8.3546 c 2.8819,-2.2653 10.706,-9.5032 10.706,-18.018 z" />
      <path
         style="fill:#000000"
         inkscape:connector-curvature="0"
         id="path4322"
         d="m 255.05,111.05 3.9985,0 0,22.948 -3.9985,0 z" />
      <path
         style="fill:#000000"
         inkscape:connector-curvature="0"
         id="path4324"
         d="m 281.3,118.81 4.175,0 0,15.189 -4.175,0 z" />
      <path
         style="fill:#000000"
         inkscape:connector-curvature="0"
         id="path4326"
         d="m 285.76,114 c 0,1.274 -1.0341,2.3069 -2.3098,2.3069 -1.2757,0 -2.3098,-1.0328 -2.3098,-2.3069 0,-1.2741 1.0341,-2.3069 2.3098,-2.3069 1.2757,0 2.3098,1.0328 2.3098,2.3069 z" />
      <path
         style="fill:#000000"
         inkscape:connector-curvature="0"
         id="path4328"
         d="m 265.04,111.02 0,22.944 3.995,0 0,-5.7983 0.99875,-1.0287 4.8377,6.8582 4.2447,0 -6.6167,-9.3522 5.618,-5.736 -4.1198,0 -4.9626,5.6113 0,-13.498 -3.995,0 z" />
      <path
         style="fill:#000000"
         inkscape:connector-curvature="0"
         id="path4330"
         d="m 203.09,114.75 0,3.8344 -2.9026,0 0,2.1822 2.9026,0 0,10.786 c 0,0.93429 0.16076,2.4464 4.9527,2.4464 l 2.0698,0 0,-2.3769 -1.2146,0.007 c -1.8466,0.0112 -2.7804,-1.293 -2.7804,-1.9318 l 0,-8.9313 3.9638,0 0,-2.1822 -3.9638,0 0,-3.8344 z" />
      <path
         style="fill:#000000"
         inkscape:connector-curvature="0"
         id="path4332"
         d="m 292.97,114.75 0,3.8344 -2.9026,0 0,2.1822 2.9026,0 0,10.786 c 0,0.93429 0.16076,2.4464 4.9527,2.4464 l 2.0698,0 0,-2.3769 -1.2146,0.007 c -1.8466,0.0112 -2.7804,-1.293 -2.7804,-1.9318 l 0,-8.9313 3.9638,0 0,-2.1822 -3.9638,0 0,-3.8344 z" />
      <path
         style="fill:#000000"
         inkscape:connector-curvature="0"
         id="path4334"
         d="m 222.12,117.01 c -4.4418,0 -8.0524,3.822 -8.0524,8.5105 0,4.6885 3.6106,8.4793 8.0524,8.4793 4.4418,0 8.0524,-3.7908 8.0524,-8.4793 0,-4.6885 -3.6106,-8.5105 -8.0524,-8.5105 z m 0,2.9304 c 2.2754,0 4.1198,2.4981 4.1198,5.5801 0,3.082 -1.8444,5.5801 -4.1198,5.5801 -2.2754,0 -4.1198,-2.4982 -4.1198,-5.5801 0,-3.082 1.8444,-5.5801 4.1198,-5.5801 z" />
      <path
         style="fill:#000000"
         inkscape:connector-curvature="0"
         id="path4336"
         d="m 242.1,117.01 c -4.4418,0 -8.0524,3.822 -8.0524,8.5105 0,4.6885 3.6106,8.4793 8.0524,8.4793 4.4418,0 8.0524,-3.7908 8.0524,-8.4793 0,-4.6885 -3.6106,-8.5105 -8.0524,-8.5105 z m 0,2.9304 c 2.2754,0 4.1198,2.4981 4.1198,5.5801 0,3.082 -1.8444,5.5801 -4.1198,5.5801 -2.2754,0 -4.1198,-2.4982 -4.1198,-5.5801 0,-3.082 1.8444,-5.5801 4.1198,-5.5801 z" />
    </g>
  </g>
</svg>
