<?xml version="1.0" encoding="UTF-8" standalone="no"?>
<!-- Created with Inkscape (http://www.inkscape.org/) -->

<svg
   xmlns:dc="http://purl.org/dc/elements/1.1/"
   xmlns:cc="http://creativecommons.org/ns#"
   xmlns:rdf="http://www.w3.org/1999/02/22-rdf-syntax-ns#"
   xmlns:svg="http://www.w3.org/2000/svg"
   xmlns="http://www.w3.org/2000/svg"
   xmlns:sodipodi="http://sodipodi.sourceforge.net/DTD/sodipodi-0.dtd"
   xmlns:inkscape="http://www.inkscape.org/namespaces/inkscape"
   width="1048"
   height="768"
   viewBox="0 0 1048 768.00002"
   id="svg2"
   version="1.1"
   inkscape:version="0.91 r13725"
   sodipodi:docname="02.svg">
  <defs
     id="defs4" />
  <sodipodi:namedview
     id="base"
     pagecolor="#ffffff"
     bordercolor="#666666"
     borderopacity="1.0"
     inkscape:pageopacity="0.0"
     inkscape:pageshadow="2"
     inkscape:zoom="0.49497475"
     inkscape:cx="803.25161"
     inkscape:cy="87.720681"
     inkscape:document-units="px"
     inkscape:current-layer="layer1"
     showgrid="false"
     units="px"
     inkscape:window-width="1920"
     inkscape:window-height="1014"
     inkscape:window-x="0"
     inkscape:window-y="27"
     inkscape:window-maximized="1">
    <inkscape:grid
       type="xygrid"
       id="grid5092" />
  </sodipodi:namedview>
  <metadata
     id="metadata7">
    <rdf:RDF>
      <cc:Work
         rdf:about="">
        <dc:format>image/svg+xml</dc:format>
        <dc:type
           rdf:resource="http://purl.org/dc/dcmitype/StillImage" />
        <dc:title />
      </cc:Work>
    </rdf:RDF>
  </metadata>
  <g
     inkscape:label="Layer 1"
     inkscape:groupmode="layer"
     id="layer1"
     transform="translate(0,-284.36218)">
    <g
       id="g5096"
       style="stroke:#000000;stroke-opacity:0.13725491">
      <path
         sodipodi:nodetypes="cccc"
         style="fill:none;stroke:#000000;stroke-width:2;stroke-miterlimit:4;stroke-dasharray:none;stroke-opacity:0.13725491"
         inkscape:connector-curvature="0"
         id="path4314"
         d="m 1048,684.98315 -160.37568,0 c -7.68332,-5.96677 -7.67743,-17.68568 0,-23.56659 l 160.37568,0" />
      <path
         sodipodi:nodetypes="cssccssc"
         style="fill:none;stroke:#000000;stroke-width:2;stroke-miterlimit:4;stroke-dasharray:none;stroke-opacity:0.13725491"
         inkscape:connector-curvature="0"
         id="path4310-5"
         d="m 831.89285,1052.3622 c 0,0 -17.91943,-27.8197 -17.91943,-77.36067 0,-94.01117 76.25169,-170.27726 170.24086,-170.27726 35.95322,0 63.97512,12.586 63.97512,12.586 M 1048,756.45347 c -5.3303,-1.80485 -28.2222,-9.10018 -63.78572,-9.10018 -123.15826,0 -227.59846,101.95467 -227.59846,227.65177 0,46.67814 12.59846,77.35714 12.59846,77.35714" />
      <path
         sodipodi:nodetypes="cccccssccscsccc"
         style="fill:none;stroke:#000000;stroke-width:2;stroke-miterlimit:4;stroke-dasharray:none;stroke-opacity:0.13725491"
         inkscape:connector-curvature="0"
         id="path4312-3"
         d="m 726.28747,1052.0652 0,-420.22188 -73.85031,0 0,-0.005 0,179.44378 c -40.89068,-39.21787 -96.30837,-63.41889 -157.4119,-63.41889 -125.67116,0 -227.59845,101.9547 -227.59845,227.65177 0,43.11702 13.47119,76.84722 13.47119,76.84722 m 62.532,0 c -3.31158,-3.6757 -18.64562,-42.3442 -18.64562,-76.84691 0,-94.01115 76.25172,-170.27727 170.24088,-170.27727 l 0,-0.006 c 71.03791,0 131.90658,43.52535 157.4119,105.39433 l 0,129.77175 c -0.96687,3.7062 -5.36616,11.9641 -5.36616,11.9641" />
    </g>
    <g
       transform="translate(-139.40105,91.923882)"
       style="font-style:normal;font-weight:normal;font-size:76.49583435px;line-height:125%;font-family:Sans;text-align:center;letter-spacing:0px;word-spacing:0px;text-anchor:middle;fill:#000000;fill-opacity:1;stroke:none;stroke-width:1px;stroke-linecap:butt;stroke-linejoin:miter;stroke-opacity:1"
       id="flowRoot5076">
      <path
         d="m 375.06251,358.16129 0,65.0476 13.67064,0 q 17.31241,0 25.3243,-7.84381 8.06792,-7.84381 8.06792,-24.76403 0,-16.80817 -8.06792,-24.59595 -8.01189,-7.84381 -25.3243,-7.84381 l -13.67064,0 z m -11.3175,-9.30052 23.25129,0 q 24.31582,0 35.68934,10.14092 11.37353,10.0849 11.37353,31.59936 0,21.62651 -11.42955,31.76743 -11.42956,10.14093 -35.63332,10.14093 l -23.25129,0 0,-83.64864 z"
         style="font-size:114.74375153px"
         id="path6422" />
      <path
         d="m 475.91151,376.98643 q -8.29203,0 -13.11037,6.49916 -4.81834,6.44313 -4.81834,17.7046 0,11.26147 4.76231,17.76063 4.81834,6.44313 13.1664,6.44313 8.236,0 13.05434,-6.49916 4.81834,-6.49915 4.81834,-17.7046 0,-11.14941 -4.81834,-17.64857 -4.81834,-6.55519 -13.05434,-6.55519 z m 0,-8.74024 q 13.44653,0 21.12226,8.74024 7.67573,8.74025 7.67573,24.20376 0,15.40749 -7.67573,24.20376 -7.67573,8.74025 -21.12226,8.74025 -13.50256,0 -21.17829,-8.74025 -7.6197,-8.79627 -7.6197,-24.20376 0,-15.46351 7.6197,-24.20376 7.67573,-8.74024 21.17829,-8.74024 z"
         style="font-size:114.74375153px"
         id="path6424" />
      <path
         d="m 521.74177,369.75892 10.309,0 0,63.87103 q 0,11.98983 -4.59423,17.36844 -4.5382,5.37862 -14.67913,5.37862 l -3.92191,0 0,-8.74025 2.74534,0 q 5.88286,0 8.01189,-2.74533 2.12904,-2.68931 2.12904,-11.26148 l 0,-63.87103 z m 0,-24.42787 10.309,0 0,13.05434 -10.309,0 0,-13.05434 z"
         style="font-size:114.74375153px"
         id="path6426" />
      <path
         d="m 577.88105,376.98643 q -8.29203,0 -13.11037,6.49916 -4.81834,6.44313 -4.81834,17.7046 0,11.26147 4.76231,17.76063 4.81834,6.44313 13.1664,6.44313 8.236,0 13.05434,-6.49916 4.81834,-6.49915 4.81834,-17.7046 0,-11.14941 -4.81834,-17.64857 -4.81834,-6.55519 -13.05434,-6.55519 z m 0,-8.74024 q 13.44653,0 21.12226,8.74024 7.67573,8.74025 7.67573,24.20376 0,15.40749 -7.67573,24.20376 -7.67573,8.74025 -21.12226,8.74025 -13.50256,0 -21.17829,-8.74025 -7.6197,-8.79627 -7.6197,-24.20376 0,-15.46351 7.6197,-24.20376 7.67573,-8.74024 21.17829,-8.74024 z"
         style="font-size:114.74375153px"
         id="path6428" />
      <path
         d="m 660.24106,369.75892 10.30901,0 0,62.75049 -10.30901,0 0,-62.75049 z m 0,-24.42787 10.30901,0 0,13.05434 -10.30901,0 0,-13.05434 z"
         style="font-size:114.74375153px"
         id="path6430" />
      <path
         d="m 732.06796,371.60782 0,9.74874 q -4.37013,-2.24109 -9.07641,-3.36164 -4.70629,-1.12054 -9.74874,-1.12054 -7.67573,0 -11.54161,2.35314 -3.80985,2.35314 -3.80985,7.05943 0,3.58574 2.74533,5.65875 2.74534,2.01698 11.03737,3.86588 l 3.52971,0.78438 q 10.98134,2.35314 15.57557,6.66724 4.65026,4.25807 4.65026,11.9338 0,8.74024 -6.94738,13.83872 -6.89134,5.09848 -18.99322,5.09848 -5.04245,0 -10.53312,-1.00849 -5.43464,-0.95246 -11.48558,-2.91342 l 0,-10.64517 q 5.71477,2.96944 11.26147,4.48218 5.54669,1.45671 10.98133,1.45671 7.28354,0 11.20545,-2.4652 3.9219,-2.52123 3.9219,-7.05943 0,-4.20204 -2.85738,-6.44313 -2.80137,-2.24109 -12.38202,-4.3141 l -3.58574,-0.84041 q -9.58066,-2.01698 -13.83873,-6.16299 -4.25807,-4.20204 -4.25807,-11.48558 0,-8.8523 6.27505,-13.67064 6.27505,-4.81834 17.81666,-4.81834 5.71478,0 10.75723,0.8404 5.04245,0.84041 9.30052,2.52123 z"
         style="font-size:114.74375153px"
         id="path6432" />
      <path
         d="m 816.9492,400.96608 q -12.49407,0 -17.31241,2.85739 -4.81835,2.85739 -4.81835,9.74874 0,5.49067 3.58575,8.74025 3.64177,3.19355 9.86079,3.19355 8.57216,0 13.72667,-6.05094 5.21053,-6.10697 5.21053,-16.19187 l 0,-2.29712 -10.25298,0 z m 20.56199,-4.25807 0,35.8014 -10.30901,0 0,-9.52463 q -3.52972,5.71478 -8.79628,8.46011 -5.26655,2.68931 -12.88626,2.68931 -9.63668,0 -15.35146,-5.37861 -5.65874,-5.43464 -5.65874,-14.51105 0,-10.58915 7.05943,-15.96776 7.11545,-5.37862 21.17829,-5.37862 l 14.45502,0 0,-1.00849 q 0,-7.11545 -4.70629,-10.98133 -4.65026,-3.92191 -13.11037,-3.92191 -5.37861,0 -10.47709,1.28863 -5.09848,1.28862 -9.80476,3.86588 l 0,-9.52463 q 5.65875,-2.18506 10.98133,-3.24958 5.32259,-1.12054 10.36504,-1.12054 13.61461,0 20.33788,7.05943 6.72327,7.05943 6.72327,21.40239 z"
         style="font-size:114.74375153px"
         id="path6434" />
      <path
         d="m 895.33127,369.75892 10.30901,0 0,63.87103 q 0,11.98983 -4.59423,17.36844 -4.5382,5.37862 -14.67913,5.37862 l -3.92191,0 0,-8.74025 2.74534,0 q 5.88285,0 8.01189,-2.74533 2.12903,-2.68931 2.12903,-11.26148 l 0,-63.87103 z m 0,-24.42787 10.30901,0 0,13.05434 -10.30901,0 0,-13.05434 z"
         style="font-size:114.74375153px"
         id="path6436" />
      <path
         d="m 967.1582,371.60782 0,9.74874 q -4.37013,-2.24109 -9.07641,-3.36164 -4.70629,-1.12054 -9.74874,-1.12054 -7.67573,0 -11.54161,2.35314 -3.80985,2.35314 -3.80985,7.05943 0,3.58574 2.74533,5.65875 2.74534,2.01698 11.03737,3.86588 l 3.52971,0.78438 q 10.98134,2.35314 15.57557,6.66724 4.65026,4.25807 4.65026,11.9338 0,8.74024 -6.94738,13.83872 -6.89134,5.09848 -18.99322,5.09848 -5.04245,0 -10.53312,-1.00849 -5.43464,-0.95246 -11.48558,-2.91342 l 0,-10.64517 q 5.71477,2.96944 11.26147,4.48218 5.54669,1.45671 10.98133,1.45671 7.28354,0 11.20545,-2.4652 3.9219,-2.52123 3.9219,-7.05943 0,-4.20204 -2.85738,-6.44313 -2.80136,-2.24109 -12.38202,-4.3141 l -3.58574,-0.84041 q -9.58066,-2.01698 -13.83873,-6.16299 -4.25806,-4.20204 -4.25806,-11.48558 0,-8.8523 6.27504,-13.67064 6.27505,-4.81834 17.81666,-4.81834 5.71478,0 10.75723,0.8404 5.04245,0.84041 9.30052,2.52123 z"
         style="font-size:114.74375153px"
         id="path6438" />
      <path
         d="m 397.75353,488.76074 0,8.57216 -9.86079,0 q -5.5467,0 -7.73176,2.24109 -2.12903,2.24109 -2.12903,8.06792 l 0,5.5467 16.97625,0 0,8.01189 -16.97625,0 0,54.7386 -10.36504,0 0,-54.7386 -9.86079,0 0,-8.01189 9.86079,0 0,-4.37013 q 0,-10.47709 4.87437,-15.2394 4.87437,-4.81834 15.46351,-4.81834 l 9.74874,0 z"
         style="font-style:normal;font-variant:normal;font-weight:normal;font-stretch:normal;font-size:114.74375153px;font-family:Dingbats;-inkscape-font-specification:Dingbats"
         id="path6440" />
      <path
         d="m 442.68736,522.82529 q -1.73684,-1.00849 -3.80985,-1.45671 -2.01698,-0.50424 -4.48218,-0.50424 -8.74024,0 -13.44653,5.71477 -4.65026,5.65875 -4.65026,16.30393 l 0,33.05606 -10.36504,0 0,-62.75049 10.36504,0 0,9.74874 q 3.24958,-5.71478 8.46011,-8.46012 5.21053,-2.80136 12.66215,-2.80136 1.06452,0 2.35315,0.16808 1.28862,0.11206 2.85739,0.3922 l 0.056,10.58914 z"
         style="font-style:normal;font-variant:normal;font-weight:normal;font-stretch:normal;font-size:114.74375153px;font-family:Dingbats;-inkscape-font-specification:Dingbats"
         id="path6442" />
      <path
         d="m 482.13052,544.39577 q -12.49407,0 -17.31241,2.85739 -4.81834,2.85739 -4.81834,9.74874 0,5.49066 3.58574,8.74024 3.64177,3.19355 9.86079,3.19355 8.57217,0 13.72667,-6.05094 5.21053,-6.10696 5.21053,-16.19186 l 0,-2.29712 -10.25298,0 z m 20.56199,-4.25807 0,35.8014 -10.30901,0 0,-9.52463 q -3.52971,5.71478 -8.79627,8.46011 -5.26656,2.68931 -12.88626,2.68931 -9.63668,0 -15.35146,-5.37862 -5.65875,-5.43464 -5.65875,-14.51105 0,-10.58914 7.05943,-15.96776 7.11546,-5.37861 21.17829,-5.37861 l 14.45502,0 0,-1.00849 q 0,-7.11546 -4.70628,-10.98133 -4.65026,-3.92191 -13.11037,-3.92191 -5.37862,0 -10.47709,1.28863 -5.09848,1.28862 -9.80477,3.86587 l 0,-9.52462 q 5.65875,-2.18506 10.98134,-3.24958 5.32259,-1.12055 10.36504,-1.12055 13.61461,0 20.33788,7.05943 6.72326,7.05943 6.72326,21.4024 z"
         style="font-style:normal;font-variant:normal;font-weight:normal;font-stretch:normal;font-size:114.74375153px;font-family:Dingbats;-inkscape-font-specification:Dingbats"
         id="path6444" />
      <path
         d="m 572.8386,525.23446 q 3.86588,-6.94737 9.24449,-10.25298 5.37861,-3.30561 12.66215,-3.30561 9.80477,0 15.12735,6.89135 5.32259,6.83532 5.32259,19.49748 l 0,37.8744 -10.36504,0 0,-37.53824 q 0,-9.02038 -3.19355,-13.39051 -3.19355,-4.37012 -9.74874,-4.37012 -8.01189,0 -12.66215,5.32259 -4.65026,5.32258 -4.65026,14.51105 l 0,35.46523 -10.36503,0 0,-37.53824 q 0,-9.07641 -3.19356,-13.39051 -3.19355,-4.37012 -9.86079,-4.37012 -7.89984,0 -12.55009,5.37861 -4.65026,5.32259 -4.65026,14.45503 l 0,35.46523 -10.36504,0 0,-62.75049 10.36504,0 0,9.74874 q 3.52971,-5.77081 8.46011,-8.51614 4.93039,-2.74534 11.70969,-2.74534 6.83532,0 11.59763,3.47369 4.81834,3.47369 7.11546,10.0849 z"
         style="font-style:normal;font-variant:normal;font-weight:normal;font-stretch:normal;font-size:114.74375153px;font-family:Dingbats;-inkscape-font-specification:Dingbats"
         id="path6446" />
      <path
         d="m 689.48729,541.9866 0,5.04245 -47.39903,0 q 0.67233,10.64517 6.38711,16.2479 5.7708,5.54669 16.02378,5.54669 5.93889,0 11.48558,-1.45671 5.60272,-1.45671 11.09339,-4.37012 l 0,9.74874 q -5.54669,2.35314 -11.37352,3.58574 -5.82684,1.2326 -11.82175,1.2326 -15.01529,0 -23.81157,-8.74025 -8.74024,-8.74025 -8.74024,-23.64349 0,-15.40748 8.29202,-24.42787 8.34806,-9.07641 22.46692,-9.07641 12.66215,0 20.00172,8.17998 7.39559,8.12395 7.39559,22.13075 z m -10.30901,-3.02547 q -0.11205,-8.46011 -4.76231,-13.50256 -4.59423,-5.04245 -12.21394,-5.04245 -8.62819,0 -13.83872,4.87437 -5.1545,4.87437 -5.93888,13.72667 l 36.75385,-0.056 z"
         style="font-style:normal;font-variant:normal;font-weight:normal;font-stretch:normal;font-size:114.74375153px;font-family:Dingbats;-inkscape-font-specification:Dingbats"
         id="path6448" />
      <path
         d="m 700.4126,513.18861 10.30901,0 12.88626,48.96779 12.83023,-48.96779 12.15791,0 12.88626,48.96779 12.83024,-48.96779 10.30901,0 -16.41598,62.75049 -12.15791,0 -13.50256,-51.43299 -13.55859,51.43299 -12.1579,0 -16.41598,-62.75049 z"
         style="font-style:normal;font-variant:normal;font-weight:normal;font-stretch:normal;font-size:114.74375153px;font-family:Dingbats;-inkscape-font-specification:Dingbats"
         id="path6450" />
      <path
         d="m 824.62494,520.41612 q -8.29203,0 -13.11037,6.49916 -4.81834,6.44313 -4.81834,17.7046 0,11.26147 4.76231,17.76063 4.81834,6.44313 13.1664,6.44313 8.236,0 13.05434,-6.49916 4.81834,-6.49916 4.81834,-17.7046 0,-11.14942 -4.81834,-17.64857 -4.81834,-6.55519 -13.05434,-6.55519 z m 0,-8.74025 q 13.44653,0 21.12226,8.74025 7.67573,8.74025 7.67573,24.20376 0,15.40749 -7.67573,24.20376 -7.67573,8.74025 -21.12226,8.74025 -13.50256,0 -21.17829,-8.74025 -7.6197,-8.79627 -7.6197,-24.20376 0,-15.46351 7.6197,-24.20376 7.67573,-8.74025 21.17829,-8.74025 z"
         style="font-style:normal;font-variant:normal;font-weight:normal;font-stretch:normal;font-size:114.74375153px;font-family:Dingbats;-inkscape-font-specification:Dingbats"
         id="path6452" />
      <path
         d="m 906.81688,522.82529 q -1.73685,-1.00849 -3.80985,-1.45671 -2.01698,-0.50424 -4.48218,-0.50424 -8.74025,0 -13.44653,5.71477 -4.65026,5.65875 -4.65026,16.30393 l 0,33.05606 -10.36504,0 0,-62.75049 10.36504,0 0,9.74874 q 3.24958,-5.71478 8.46011,-8.46012 5.21053,-2.80136 12.66215,-2.80136 1.06452,0 2.35314,0.16808 1.28863,0.11206 2.85739,0.3922 l 0.056,10.58914 z"
         style="font-style:normal;font-variant:normal;font-weight:normal;font-stretch:normal;font-size:114.74375153px;font-family:Dingbats;-inkscape-font-specification:Dingbats"
         id="path6454" />
      <path
         d="m 917.35001,488.76074 10.36503,0 0,51.48902 30.75895,-27.06115 13.1664,0 -33.28017,29.35826 34.68085,33.39223 -13.44654,0 -31.87949,-30.64689 0,30.64689 -10.36503,0 0,-87.17836 z"
         style="font-style:normal;font-variant:normal;font-weight:normal;font-stretch:normal;font-size:114.74375153px;font-family:Dingbats;-inkscape-font-specification:Dingbats"
         id="path6456" />
      <path
         d="m 386.77219,635.72014 77.09346,0 0,16.30392 -27.73347,0 0,67.34472 -21.57048,0 0,-67.34472 -27.78951,0 0,-16.30392 z"
         style="font-weight:bold;font-size:114.74375153px"
         id="path6458" />
      <path
         d="m 513.16961,649.839 q -9.86079,0 -15.29543,7.28354 -5.43464,7.28354 -5.43464,20.50596 0,13.1664 5.43464,20.44994 5.43464,7.28354 15.29543,7.28354 9.91682,0 15.35146,-7.28354 5.43464,-7.28354 5.43464,-20.44994 0,-13.22242 -5.43464,-20.50596 -5.43464,-7.28354 -15.35146,-7.28354 z m 0,-15.63159 q 20.1698,0 31.59935,11.5416 11.42956,11.54161 11.42956,31.87949 0,20.28186 -11.42956,31.82347 -11.42955,11.5416 -31.59935,11.5416 -20.11377,0 -31.59935,-11.5416 -11.42956,-11.54161 -11.42956,-31.82347 0,-20.33788 11.42956,-31.87949 11.48558,-11.5416 31.59935,-11.5416 z"
         style="font-weight:bold;font-size:114.74375153px"
         id="path6460" />
      <path
         d="m 610.65698,649.839 q -9.86079,0 -15.29544,7.28354 -5.43464,7.28354 -5.43464,20.50596 0,13.1664 5.43464,20.44994 5.43465,7.28354 15.29544,7.28354 9.91681,0 15.35146,-7.28354 5.43464,-7.28354 5.43464,-20.44994 0,-13.22242 -5.43464,-20.50596 -5.43465,-7.28354 -15.35146,-7.28354 z m 0,-15.63159 q 20.1698,0 31.59935,11.5416 11.42955,11.54161 11.42955,31.87949 0,20.28186 -11.42955,31.82347 -11.42955,11.5416 -31.59935,11.5416 -20.11378,0 -31.59936,-11.5416 -11.42955,-11.54161 -11.42955,-31.82347 0,-20.33788 11.42955,-31.87949 11.48558,-11.5416 31.59936,-11.5416 z"
         style="font-weight:bold;font-size:114.74375153px"
         id="path6462" />
      <path
         d="m 669.93376,635.72014 21.57048,0 0,67.34472 37.8744,0 0,16.30392 -59.44488,0 0,-83.64864 z"
         style="font-weight:bold;font-size:114.74375153px"
         id="path6464" />
      <path
         d="m 742.99327,635.72014 21.57048,0 0,30.53484 31.09511,-30.53484 25.04417,0 -40.28358,39.61125 44.42959,44.03739 -27.00512,0 -33.28017,-32.944 0,32.944 -21.57048,0 0,-83.64864 z"
         style="font-weight:bold;font-size:114.74375153px"
         id="path6466" />
      <path
         d="m 831.96452,635.72014 21.57048,0 0,83.64864 -21.57048,0 0,-83.64864 z"
         style="font-weight:bold;font-size:114.74375153px"
         id="path6468" />
      <path
         d="m 864.79646,635.72014 77.09345,0 0,16.30392 -27.73347,0 0,67.34472 -21.57048,0 0,-67.34472 -27.7895,0 0,-16.30392 z"
         style="font-weight:bold;font-size:114.74375153px"
         id="path6470" />
    </g>
    <path
       style="fill:none;fill-rule:evenodd;stroke:#000000;stroke-width:5;stroke-linecap:butt;stroke-linejoin:miter;stroke-miterlimit:4;stroke-dasharray:none;stroke-opacity:1"
       d="m 199.59894,632.3769 652.12696,0"
       id="path5094"
       inkscape:connector-curvature="0"
       sodipodi:nodetypes="cc" />
    <g
       transform="scale(0.99828007,1.0017229)"
       style="font-style:normal;font-weight:normal;font-size:132.8361969px;line-height:125%;font-family:Sans;letter-spacing:0px;word-spacing:0px;fill:none;fill-opacity:1;stroke:#000000;stroke-width:1px;stroke-linecap:butt;stroke-linejoin:miter;stroke-opacity:0.70588235"
       id="text5249">
      <path
         d="m 76.393945,368.84631 -13.947802,0 -12.60468,-58.7874 -12.294728,58.7874 -13.947801,0 -21.2833122,-75.31812 16.4274102,0 11.674827,56.4111 11.674826,-56.4111 15.290923,0 12.191411,56.51442 11.261559,-56.51442 16.42741,0 -20.870043,75.31812 z"
         style="font-style:normal;font-variant:normal;font-weight:600;font-stretch:normal;font-size:103.31704712px;font-family:FreeSans;-inkscape-font-specification:'FreeSans Semi-Bold';fill:none;stroke:#000000;stroke-width:0.67752618px;stroke-opacity:0.70588235"
         id="path7726" />
      <path
         d="m 140.55222,334.75169 q 0,-10.33171 -8.88527,-10.33171 -4.8559,0 -8.05873,3.09951 -3.09951,3.09952 -3.09951,7.8521 l 0,33.47472 -14.46438,0 0,-75.31812 14.46438,0 0,27.58565 q 5.99239,-8.98859 16.3241,-8.98859 3.30614,0 6.19902,0.92986 2.99619,0.82653 5.78575,2.89288 2.89288,1.96302 4.54595,5.99238 1.65308,4.02937 1.65308,9.50517 l 0,37.40077 -14.46439,0 0,-34.09462 z"
         style="font-style:normal;font-variant:normal;font-weight:600;font-stretch:normal;font-size:103.31704712px;font-family:FreeSans;-inkscape-font-specification:'FreeSans Semi-Bold';fill:none;stroke:#000000;stroke-width:0.67752618px;stroke-opacity:0.70588235"
         id="path7728" />
      <path
         d="m 182.75885,371.22261 q -7.64546,0 -12.29473,-4.54595 -4.64927,-4.64927 -4.64927,-12.19142 0,-14.77433 16.42742,-17.56389 l 5.78575,-1.03317 q 0.20663,0 2.06634,-0.20664 1.85971,-0.30995 2.37629,-0.41327 0.51659,-0.20663 1.96303,-0.51658 1.54975,-0.30995 2.16965,-0.72322 0.61991,-0.41327 1.44644,-1.03317 0.92986,-0.72322 1.23981,-1.54976 0.30995,-0.92985 0.30995,-2.06634 0,-5.57912 -8.36868,-5.57912 -5.37249,0 -7.54215,1.65307 -2.16965,1.65308 -2.68624,5.99239 l -13.9478,0 q 1.34312,-19.32029 23.86624,-19.32029 22.83306,0 22.83306,17.15063 l 0,30.99512 q 0,3.82273 3.30615,6.81892 l 0,1.75639 -15.70419,0 q -1.65307,-2.06634 -1.65307,-5.57912 -7.64547,7.95542 -16.944,7.95542 z m 16.84068,-24.7961 0,-3.92604 q -1.96302,0.92985 -6.09571,1.75639 l -4.95922,0.92985 q -4.54595,0.92985 -6.40565,2.68624 -1.85971,1.75639 -1.85971,4.95922 0,3.09951 2.06634,4.95922 2.16966,1.75639 5.78576,1.75639 5.4758,0 8.47199,-3.40946 2.9962,-3.40947 2.9962,-9.71181 z"
         style="font-style:normal;font-variant:normal;font-weight:600;font-stretch:normal;font-size:103.31704712px;font-family:FreeSans;-inkscape-font-specification:'FreeSans Semi-Bold';fill:none;stroke:#000000;stroke-width:0.67752618px;stroke-opacity:0.70588235"
         id="path7730" />
      <path
         d="m 252.02323,314.1916 0,9.60848 -8.05873,0 0,30.37521 q 0,3.71942 0.92986,4.95922 0.92985,1.13649 3.82273,1.13649 1.13648,0 3.30614,-0.30995 l 0,10.12507 q -3.51278,1.13649 -8.36868,1.13649 -14.15443,0 -14.15443,-13.12127 l 0,-34.30126 -7.12888,0 0,-9.60848 7.12888,0 0,-14.98098 14.46438,0 0,14.98098 8.05873,0 z"
         style="font-style:normal;font-variant:normal;font-weight:600;font-stretch:normal;font-size:103.31704712px;font-family:FreeSans;-inkscape-font-specification:'FreeSans Semi-Bold';fill:none;stroke:#000000;stroke-width:0.67752618px;stroke-opacity:0.70588235"
         id="path7732" />
      <path
         d="m 261.72374,319.15081 q 0.10332,-6.7156 1.75639,-11.77814 1.75639,-5.06253 4.236,-7.8521 2.58292,-2.89287 6.0957,-4.64926 3.51278,-1.75639 6.50898,-2.27298 3.09951,-0.6199 6.50897,-0.6199 11.36488,0 18.49375,6.61229 7.2322,6.61229 7.2322,17.15063 0,6.50898 -2.58293,10.74497 -2.58293,4.236 -9.81512,9.29854 -4.64927,3.30614 -5.78575,5.26917 -1.13649,1.96302 -1.13649,7.02556 l -12.81132,0 0,-1.44644 q 0,-5.16585 1.75639,-8.98858 1.85971,-3.92605 4.44264,-6.30234 2.58292,-2.3763 5.16585,-4.44264 2.58293,-2.06634 4.33932,-4.75258 1.8597,-2.68625 1.8597,-6.09571 0,-5.06253 -3.09951,-8.472 -3.09951,-3.40946 -7.74878,-3.40946 -4.8559,0 -8.16204,3.92605 -3.20283,3.92605 -3.20283,9.91844 l 0,0.92985 0,0.20663 -14.05112,0 z m 33.16477,34.61121 0,15.08429 -15.49756,0 0,-15.08429 15.49756,0 z"
         style="font-style:normal;font-variant:normal;font-weight:600;font-stretch:normal;font-size:103.31704712px;font-family:FreeSans;-inkscape-font-specification:'FreeSans Semi-Bold';fill:none;stroke:#000000;stroke-width:0.67752618px;stroke-opacity:0.70588235"
         id="path7734" />
    </g>
  </g>
</svg>
