<?xml version="1.0" encoding="UTF-8" standalone="no"?>
<svg
   xmlns:dc="http://purl.org/dc/elements/1.1/"
   xmlns:cc="http://creativecommons.org/ns#"
   xmlns:rdf="http://www.w3.org/1999/02/22-rdf-syntax-ns#"
   xmlns:svg="http://www.w3.org/2000/svg"
   xmlns="http://www.w3.org/2000/svg"
   xmlns:sodipodi="http://sodipodi.sourceforge.net/DTD/sodipodi-0.dtd"
   xmlns:inkscape="http://www.inkscape.org/namespaces/inkscape"
   version="1.1"
   id="svg2"
   viewBox="0 0 899.99998 674.99995"
   height="19.049999cm"
   width="25.4cm"
   inkscape:version="0.91 r13725"
   sodipodi:docname="03.svg">
  <sodipodi:namedview
     pagecolor="#ffffff"
     bordercolor="#666666"
     borderopacity="1"
     objecttolerance="10"
     gridtolerance="10"
     guidetolerance="10"
     inkscape:pageopacity="0"
     inkscape:pageshadow="2"
     inkscape:window-width="747"
     inkscape:window-height="480"
     id="namedview4822"
     showgrid="false"
     inkscape:zoom="0.34444445"
     inkscape:cx="140.80645"
     inkscape:cy="337.49999"
     inkscape:window-x="1295"
     inkscape:window-y="295"
     inkscape:window-maximized="0"
     inkscape:current-layer="svg2" />
  <defs
     id="defs4" />
  <metadata
     id="metadata7">
    <rdf:RDF>
      <cc:Work
         rdf:about="">
        <dc:format>image/svg+xml</dc:format>
        <dc:type
           rdf:resource="http://purl.org/dc/dcmitype/StillImage" />
        <dc:title />
      </cc:Work>
    </rdf:RDF>
  </metadata>
  <g
     transform="translate(0,-377.36221)"
     id="layer1">
    <g
       transform="translate(8.2530792,426.3499)"
       style="font-style:normal;font-variant:normal;font-weight:bold;font-stretch:normal;font-size:100px;line-height:125%;font-family:Sans;-inkscape-font-specification:'Sans Bold';text-align:center;letter-spacing:0px;word-spacing:0px;text-anchor:middle;fill:#000000;fill-opacity:1;stroke:none;stroke-width:1px;stroke-linecap:butt;stroke-linejoin:miter;stroke-opacity:1"
       id="flowRoot4136">
      <path
         d="m 450.28848,238.56227 q -13.68,0 -18.9,7.56 -5.04,7.38 -5.4,19.8 l -15.84,0 q 0.9,-41.22 39.96,-41.22 18.18,0 28.44,9.36 10.44,9.36 10.44,25.74 0,19.44 -17.82,26.46 11.52,3.96 16.56,11.16 5.04,7.02 5.04,19.26 0,18.18 -11.88,28.98 -11.7,10.8 -31.32,10.8 -39.24,0 -42.12,-41.22 l 15.84,0 q 0.9,13.86 7.38,20.52 6.48,6.66 19.44,6.66 12.42,0 19.44,-6.66 7.02,-6.84 7.02,-18.9 0,-23.22 -26.46,-23.22 l -6.66,0.18 -1.98,0 0,-13.5 q 17.1,-0.36 24.12,-4.32 7.2,-3.96 7.2,-15.66 0,-10.08 -6.12,-15.84 -5.94,-5.94 -16.38,-5.94 z"
         style="font-style:normal;font-variant:normal;font-weight:normal;font-stretch:normal;font-size:180px;font-family:FreeSans;-inkscape-font-specification:FreeSans"
         id="path5365" />
    </g>
  </g>
</svg>
