<?xml version="1.0" encoding="UTF-8" standalone="no"?>
<!-- Created with Inkscape (http://www.inkscape.org/) -->

<svg
   xmlns:dc="http://purl.org/dc/elements/1.1/"
   xmlns:cc="http://creativecommons.org/ns#"
   xmlns:rdf="http://www.w3.org/1999/02/22-rdf-syntax-ns#"
   xmlns:svg="http://www.w3.org/2000/svg"
   xmlns="http://www.w3.org/2000/svg"
   xmlns:sodipodi="http://sodipodi.sourceforge.net/DTD/sodipodi-0.dtd"
   xmlns:inkscape="http://www.inkscape.org/namespaces/inkscape"
   width="1048"
   height="768"
   viewBox="0 0 1048 768.00002"
   id="svg2"
   version="1.1"
   inkscape:version="0.91 r13725"
   sodipodi:docname="03.svg">
  <defs
     id="defs4" />
  <sodipodi:namedview
     id="base"
     pagecolor="#ffffff"
     bordercolor="#666666"
     borderopacity="1.0"
     inkscape:pageopacity="0.0"
     inkscape:pageshadow="2"
     inkscape:zoom="0.7"
     inkscape:cx="61.278683"
     inkscape:cy="523.82081"
     inkscape:document-units="px"
     inkscape:current-layer="layer1"
     showgrid="false"
     units="px"
     inkscape:window-width="1920"
     inkscape:window-height="1014"
     inkscape:window-x="0"
     inkscape:window-y="27"
     inkscape:window-maximized="1">
    <inkscape:grid
       type="xygrid"
       id="grid5092" />
  </sodipodi:namedview>
  <metadata
     id="metadata7">
    <rdf:RDF>
      <cc:Work
         rdf:about="">
        <dc:format>image/svg+xml</dc:format>
        <dc:type
           rdf:resource="http://purl.org/dc/dcmitype/StillImage" />
        <dc:title />
      </cc:Work>
    </rdf:RDF>
  </metadata>
  <g
     inkscape:label="Layer 1"
     inkscape:groupmode="layer"
     id="layer1"
     transform="translate(0,-284.36218)">
    <g
       id="g5096"
       style="stroke:#000000;stroke-opacity:0.13725491">
      <path
         sodipodi:nodetypes="cccc"
         style="fill:none;stroke:#000000;stroke-width:2;stroke-miterlimit:4;stroke-dasharray:none;stroke-opacity:0.13725491"
         inkscape:connector-curvature="0"
         id="path4314"
         d="m 1048,684.98315 -160.37568,0 c -7.68332,-5.96677 -7.67743,-17.68568 0,-23.56659 l 160.37568,0" />
      <path
         sodipodi:nodetypes="cssccssc"
         style="fill:none;stroke:#000000;stroke-width:2;stroke-miterlimit:4;stroke-dasharray:none;stroke-opacity:0.13725491"
         inkscape:connector-curvature="0"
         id="path4310-5"
         d="m 831.89285,1052.3622 c 0,0 -17.91943,-27.8197 -17.91943,-77.36067 0,-94.01117 76.25169,-170.27726 170.24086,-170.27726 35.95322,0 63.97512,12.586 63.97512,12.586 M 1048,756.45347 c -5.3303,-1.80485 -28.2222,-9.10018 -63.78572,-9.10018 -123.15826,0 -227.59846,101.95467 -227.59846,227.65177 0,46.67814 12.59846,77.35714 12.59846,77.35714" />
      <path
         sodipodi:nodetypes="cccccssccscsccc"
         style="fill:none;stroke:#000000;stroke-width:2;stroke-miterlimit:4;stroke-dasharray:none;stroke-opacity:0.13725491"
         inkscape:connector-curvature="0"
         id="path4312-3"
         d="m 726.28747,1052.0652 0,-420.22188 -73.85031,0 0,-0.005 0,179.44378 c -40.89068,-39.21787 -96.30837,-63.41889 -157.4119,-63.41889 -125.67116,0 -227.59845,101.9547 -227.59845,227.65177 0,43.11702 13.47119,76.84722 13.47119,76.84722 m 62.532,0 c -3.31158,-3.6757 -18.64562,-42.3442 -18.64562,-76.84691 0,-94.01115 76.25172,-170.27727 170.24088,-170.27727 l 0,-0.006 c 71.03791,0 131.90658,43.52535 157.4119,105.39433 l 0,129.77175 c -0.96687,3.7062 -5.36616,11.9641 -5.36616,11.9641" />
    </g>
    <g
       id="g5166"
       transform="translate(-11.361136,-17.524853)">
      <g
         transform="translate(-153.40105,175.92388)"
         style="font-style:normal;font-weight:normal;font-size:76.49583435px;line-height:125%;font-family:Sans;text-align:start;letter-spacing:0px;word-spacing:0px;text-anchor:start;fill:#000000;fill-opacity:1;stroke:none;stroke-width:1px;stroke-linecap:butt;stroke-linejoin:miter;stroke-opacity:1"
         id="flowRoot5076">
        <path
           d="m 311.89844,254.2112 0,5.77148 q -3.36914,-1.61132 -6.35742,-2.40234 -2.98829,-0.79102 -5.77149,-0.79102 -4.83398,0 -7.4707,1.875 -2.60742,1.875 -2.60742,5.33204 0,2.90039 1.72851,4.39453 1.75781,1.46484 6.6211,2.37304 l 3.57421,0.73243 q 6.6211,1.25976 9.75586,4.45312 3.16407,3.16406 3.16407,8.49609 0,6.35743 -4.27735,9.63868 -4.24804,3.28125 -12.48047,3.28125 -3.10547,0 -6.62109,-0.70313 -3.48633,-0.70312 -7.23633,-2.08008 l 0,-6.09375 q 3.60352,2.02149 7.06055,3.04688 3.45703,1.02539 6.79687,1.02539 5.06836,0 7.82227,-1.99219 2.75391,-1.99219 2.75391,-5.68359 0,-3.22266 -1.99219,-5.03906 -1.96289,-1.81641 -6.47461,-2.72461 l -3.60352,-0.70313 q -6.62109,-1.31836 -9.58008,-4.13086 -2.95898,-2.8125 -2.95898,-7.82226 0,-5.80079 4.07227,-9.14063 4.10156,-3.33984 11.27929,-3.33984 3.07617,0 6.26953,0.55664 3.19336,0.55664 6.53321,1.66992 z"
           style="font-style:normal;font-variant:normal;font-weight:normal;font-stretch:normal;font-size:60px;font-family:Sans;-inkscape-font-specification:Dingbats;text-align:start;text-anchor:start"
           id="path7484" />
        <path
           d="m 328.86133,254.38698 0,9.31641 11.10351,0 0,4.18945 -11.10351,0 0,17.8125 q 0,4.01367 1.08398,5.15625 1.11328,1.14258 4.48242,1.14258 l 5.53711,0 0,4.51172 -5.53711,0 q -6.24023,0 -8.61328,-2.31446 -2.37304,-2.34375 -2.37304,-8.49609 l 0,-17.8125 -3.95508,0 0,-4.18945 3.95508,0 0,-9.31641 5.41992,0 z"
           style="font-style:normal;font-variant:normal;font-weight:normal;font-stretch:normal;font-size:60px;font-family:Sans;-inkscape-font-specification:Dingbats;text-align:start;text-anchor:start"
           id="path7486" />
        <path
           d="m 361.99609,280.02175 q -6.5332,0 -9.05273,1.49414 -2.51953,1.49414 -2.51953,5.09765 0,2.8711 1.875,4.57032 1.90429,1.66992 5.15625,1.66992 4.48242,0 7.17773,-3.16406 2.72461,-3.19336 2.72461,-8.4668 l 0,-1.20117 -5.36133,0 z m 10.75196,-2.22657 0,18.72071 -5.39063,0 0,-4.98047 q -1.8457,2.98828 -4.59961,4.42383 -2.7539,1.40625 -6.73828,1.40625 -5.03906,0 -8.02734,-2.8125 -2.95899,-2.8418 -2.95899,-7.58789 0,-5.53711 3.69141,-8.34961 3.7207,-2.8125 11.07422,-2.8125 l 7.55859,0 0,-0.52735 q 0,-3.7207 -2.46094,-5.74218 -2.43164,-2.05079 -6.85546,-2.05079 -2.8125,0 -5.47852,0.67383 -2.66602,0.67383 -5.12695,2.02149 l 0,-4.98047 q 2.95898,-1.14258 5.74218,-1.69922 2.78321,-0.58594 5.41993,-0.58594 7.11914,0 10.63476,3.69141 3.51563,3.6914 3.51563,11.1914 z"
           style="font-style:normal;font-variant:normal;font-weight:normal;font-stretch:normal;font-size:60px;font-family:Sans;-inkscape-font-specification:Dingbats;text-align:start;text-anchor:start"
           id="path7488" />
        <path
           d="m 402.89453,268.74245 q -0.9082,-0.52734 -1.99219,-0.76172 -1.05468,-0.26367 -2.34375,-0.26367 -4.57031,0 -7.03125,2.98828 -2.43164,2.95898 -2.43164,8.52539 l 0,17.28516 -5.41992,0 0,-32.8125 5.41992,0 0,5.09765 q 1.69922,-2.98828 4.42383,-4.42382 2.72461,-1.46485 6.62109,-1.46485 0.55665,0 1.23047,0.0879 0.67383,0.0586 1.49414,0.20508 l 0.0293,5.53711 z"
           style="font-style:normal;font-variant:normal;font-weight:normal;font-stretch:normal;font-size:60px;font-family:Sans;-inkscape-font-specification:Dingbats;text-align:start;text-anchor:start"
           id="path7490" />
        <path
           d="m 413.93945,254.38698 0,9.31641 11.10352,0 0,4.18945 -11.10352,0 0,17.8125 q 0,4.01367 1.08399,5.15625 1.11328,1.14258 4.48242,1.14258 l 5.53711,0 0,4.51172 -5.53711,0 q -6.24024,0 -8.61328,-2.31446 -2.37305,-2.34375 -2.37305,-8.49609 l 0,-17.8125 -3.95508,0 0,-4.18945 3.95508,0 0,-9.31641 5.41992,0 z"
           style="font-style:normal;font-variant:normal;font-weight:normal;font-stretch:normal;font-size:60px;font-family:Sans;-inkscape-font-specification:Dingbats;text-align:start;text-anchor:start"
           id="path7492" />
        <path
           d="m 460.22852,278.76198 0,2.63672 -24.78516,0 q 0.35156,5.56641 3.33984,8.49609 3.01758,2.90039 8.37891,2.90039 3.10547,0 6.00586,-0.76171 2.92969,-0.76172 5.80078,-2.28516 l 0,5.09766 q -2.90039,1.23046 -5.94727,1.875 -3.04687,0.64453 -6.18164,0.64453 -7.85156,0 -12.45117,-4.57032 -4.57031,-4.57031 -4.57031,-12.36328 0,-8.05664 4.33594,-12.77343 4.36523,-4.7461 11.74804,-4.7461 6.6211,0 10.45899,4.27735 3.86719,4.24804 3.86719,11.57226 z m -5.39063,-1.58203 q -0.0586,-4.42383 -2.49023,-7.06055 -2.40235,-2.63672 -6.38672,-2.63672 -4.51172,0 -7.23633,2.54883 -2.69531,2.54883 -3.10547,7.17774 l 19.21875,-0.0293 z"
           style="font-style:normal;font-variant:normal;font-weight:normal;font-stretch:normal;font-size:60px;font-family:Sans;-inkscape-font-specification:Dingbats;text-align:start;text-anchor:start"
           id="path7494" />
        <path
           d="m 490.66797,268.68386 0,-17.75391 5.39062,0 0,45.58594 -5.39062,0 0,-4.92188 q -1.69922,2.92969 -4.30664,4.36524 -2.57813,1.40625 -6.21094,1.40625 -5.94727,0 -9.69727,-4.7461 -3.7207,-4.74609 -3.7207,-12.48047 0,-7.73437 3.7207,-12.48046 3.75,-4.7461 9.69727,-4.7461 3.63281,0 6.21094,1.43555 2.60742,1.40625 4.30664,4.33594 z m -18.36914,11.45507 q 0,5.94727 2.43164,9.34571 2.46094,3.36914 6.73828,3.36914 4.27734,0 6.73828,-3.36914 2.46094,-3.39844 2.46094,-9.34571 0,-5.94726 -2.46094,-9.3164 -2.46094,-3.39844 -6.73828,-3.39844 -4.27734,0 -6.73828,3.39844 -2.43164,3.36914 -2.43164,9.3164 z"
           style="font-style:normal;font-variant:normal;font-weight:normal;font-stretch:normal;font-size:60px;font-family:Sans;-inkscape-font-specification:Dingbats;text-align:start;text-anchor:start"
           id="path7496" />
        <path
           d="m 526.26367,263.70339 5.39063,0 0,32.8125 -5.39063,0 0,-32.8125 z m 0,-12.77344 5.39063,0 0,6.82617 -5.39063,0 0,-6.82617 z"
           style="font-style:normal;font-variant:normal;font-weight:normal;font-stretch:normal;font-size:60px;font-family:Sans;-inkscape-font-specification:Dingbats;text-align:start;text-anchor:start"
           id="path7498" />
        <path
           d="m 570.17969,276.7112 0,19.80469 -5.39063,0 0,-19.62891 q 0,-4.6582 -1.8164,-6.97266 -1.81641,-2.31445 -5.44922,-2.31445 -4.36524,0 -6.88477,2.7832 -2.51953,2.78321 -2.51953,7.5879 l 0,18.54492 -5.41992,0 0,-32.8125 5.41992,0 0,5.09765 q 1.93359,-2.95898 4.54102,-4.42382 2.63671,-1.46485 6.06445,-1.46485 5.6543,0 8.55469,3.51563 2.90039,3.48632 2.90039,10.2832 z"
           style="font-style:normal;font-variant:normal;font-weight:normal;font-stretch:normal;font-size:60px;font-family:Sans;-inkscape-font-specification:Dingbats;text-align:start;text-anchor:start"
           id="path7500" />
        <path
           d="m 605.95117,291.53542 20.6543,0 0,4.98047 -27.77344,0 0,-4.98047 q 3.36914,-3.48633 9.16992,-9.3457 5.83008,-5.88868 7.32422,-7.5879 2.8418,-3.19335 3.95508,-5.39062 1.14258,-2.22656 1.14258,-4.36523 0,-3.48633 -2.46094,-5.6836 -2.43164,-2.19726 -6.35742,-2.19726 -2.7832,0 -5.88867,0.96679 -3.07618,0.9668 -6.5918,2.92969 l 0,-5.97656 q 3.57422,-1.43555 6.67969,-2.16797 3.10547,-0.73242 5.68359,-0.73242 6.79688,0 10.83984,3.39843 4.04297,3.39844 4.04297,9.08204 0,2.69531 -1.02539,5.12695 -0.99609,2.40234 -3.66211,5.68359 -0.73242,0.84961 -4.6582,4.92188 -3.92578,4.04297 -11.07422,11.33789 z"
           style="font-style:normal;font-variant:normal;font-weight:normal;font-stretch:normal;font-size:60px;font-family:Sans;-inkscape-font-specification:Dingbats;text-align:start;text-anchor:start"
           id="path7502" />
        <path
           d="m 651.71289,256.67214 q -4.57031,0 -6.88477,4.51172 -2.28515,4.48242 -2.28515,13.50586 0,8.99414 2.28515,13.50585 2.31446,4.48243 6.88477,4.48243 4.59961,0 6.88477,-4.48243 2.31445,-4.51171 2.31445,-13.50585 0,-9.02344 -2.31445,-13.50586 -2.28516,-4.51172 -6.88477,-4.51172 z m 0,-4.6875 q 7.35352,0 11.2207,5.83008 3.89649,5.80078 3.89649,16.875 0,11.04492 -3.89649,16.875 -3.86718,5.80078 -11.2207,5.80078 -7.35352,0 -11.25,-5.80078 -3.86719,-5.83008 -3.86719,-16.875 0,-11.07422 3.86719,-16.875 3.89648,-5.83008 11.25,-5.83008 z"
           style="font-style:normal;font-variant:normal;font-weight:normal;font-stretch:normal;font-size:60px;font-family:Sans;-inkscape-font-specification:Dingbats;text-align:start;text-anchor:start"
           id="path7504" />
        <path
           d="m 689.91602,256.67214 q -4.57032,0 -6.88477,4.51172 -2.28516,4.48242 -2.28516,13.50586 0,8.99414 2.28516,13.50585 2.31445,4.48243 6.88477,4.48243 4.5996,0 6.88476,-4.48243 2.31445,-4.51171 2.31445,-13.50585 0,-9.02344 -2.31445,-13.50586 -2.28516,-4.51172 -6.88476,-4.51172 z m 0,-4.6875 q 7.35351,0 11.2207,5.83008 3.89648,5.80078 3.89648,16.875 0,11.04492 -3.89648,16.875 -3.86719,5.80078 -11.2207,5.80078 -7.35352,0 -11.25,-5.80078 -3.86719,-5.83008 -3.86719,-16.875 0,-11.07422 3.86719,-16.875 3.89648,-5.83008 11.25,-5.83008 z"
           style="font-style:normal;font-variant:normal;font-weight:normal;font-stretch:normal;font-size:60px;font-family:Sans;-inkscape-font-specification:Dingbats;text-align:start;text-anchor:start"
           id="path7506" />
        <path
           d="m 731.72266,257.9319 -14.94141,23.34961 14.94141,0 0,-23.34961 z m -1.55274,-5.15625 7.44141,0 0,28.50586 6.24023,0 0,4.92188 -6.24023,0 0,10.3125 -5.88867,0 0,-10.3125 -19.7461,0 0,-5.71289 18.19336,-27.71485 z"
           style="font-style:normal;font-variant:normal;font-weight:normal;font-stretch:normal;font-size:60px;font-family:Sans;-inkscape-font-specification:Dingbats;text-align:start;text-anchor:start"
           id="path7508" />
        <path
           d="m 784.95508,250.98854 q -3.92578,6.73828 -5.83008,13.33008 -1.9043,6.5918 -1.9043,13.35938 0,6.76757 1.9043,13.41797 1.93359,6.62109 5.83008,13.33007 l -4.6875,0 q -4.39453,-6.88476 -6.5918,-13.53515 -2.16797,-6.65039 -2.16797,-13.21289 0,-6.53321 2.16797,-13.1543 2.16797,-6.62109 6.5918,-13.53516 l 4.6875,0 z"
           style="font-style:normal;font-variant:normal;font-weight:normal;font-stretch:normal;font-size:60px;font-family:Sans;-inkscape-font-specification:Dingbats;text-align:start;text-anchor:start"
           id="path7510" />
        <path
           d="m 791.57617,263.70339 5.71289,0 10.25391,27.53906 10.2539,-27.53906 5.7129,0 -12.30469,32.8125 -7.32422,0 -12.30469,-32.8125 z"
           style="font-style:normal;font-variant:normal;font-weight:normal;font-stretch:normal;font-size:60px;font-family:Sans;-inkscape-font-specification:Dingbats;text-align:start;text-anchor:start"
           id="path7512" />
        <path
           d="m 844.36914,256.67214 q -4.57031,0 -6.88477,4.51172 -2.28515,4.48242 -2.28515,13.50586 0,8.99414 2.28515,13.50585 2.31446,4.48243 6.88477,4.48243 4.59961,0 6.88477,-4.48243 2.31445,-4.51171 2.31445,-13.50585 0,-9.02344 -2.31445,-13.50586 -2.28516,-4.51172 -6.88477,-4.51172 z m 0,-4.6875 q 7.35352,0 11.2207,5.83008 3.89649,5.80078 3.89649,16.875 0,11.04492 -3.89649,16.875 -3.86718,5.80078 -11.2207,5.80078 -7.35352,0 -11.25,-5.80078 -3.86719,-5.83008 -3.86719,-16.875 0,-11.07422 3.86719,-16.875 3.89648,-5.83008 11.25,-5.83008 z"
           style="font-style:normal;font-variant:normal;font-weight:normal;font-stretch:normal;font-size:60px;font-family:Sans;-inkscape-font-specification:Dingbats;text-align:start;text-anchor:start"
           id="path7514" />
        <path
           d="m 869.91602,289.07448 6.18164,0 0,7.44141 -6.18164,0 0,-7.44141 z"
           style="font-style:normal;font-variant:normal;font-weight:normal;font-stretch:normal;font-size:60px;font-family:Sans;-inkscape-font-specification:Dingbats;text-align:start;text-anchor:start"
           id="path7516" />
        <path
           d="m 890.04297,291.53542 9.66797,0 0,-33.36914 -10.51758,2.10937 0,-5.39062 10.45898,-2.10938 5.91797,0 0,38.75977 9.66797,0 0,4.98047 -25.19531,0 0,-4.98047 z"
           style="font-style:normal;font-variant:normal;font-weight:normal;font-stretch:normal;font-size:60px;font-family:Sans;-inkscape-font-specification:Dingbats;text-align:start;text-anchor:start"
           id="path7518" />
        <path
           d="m 951.41992,291.53542 20.6543,0 0,4.98047 -27.77344,0 0,-4.98047 q 3.36914,-3.48633 9.16992,-9.3457 5.83008,-5.88868 7.32422,-7.5879 2.8418,-3.19335 3.95508,-5.39062 1.14258,-2.22656 1.14258,-4.36523 0,-3.48633 -2.46094,-5.6836 -2.43164,-2.19726 -6.35742,-2.19726 -2.7832,0 -5.88867,0.96679 -3.07618,0.9668 -6.5918,2.92969 l 0,-5.97656 q 3.57422,-1.43555 6.67969,-2.16797 3.10547,-0.73242 5.68359,-0.73242 6.79688,0 10.83984,3.39843 4.04297,3.39844 4.04297,9.08204 0,2.69531 -1.02539,5.12695 -0.99609,2.40234 -3.66211,5.68359 -0.73242,0.84961 -4.6582,4.92188 -3.92578,4.04297 -11.07422,11.33789 z"
           style="font-style:normal;font-variant:normal;font-weight:normal;font-stretch:normal;font-size:60px;font-family:Sans;-inkscape-font-specification:Dingbats;text-align:start;text-anchor:start"
           id="path7520" />
        <path
           d="m 997.18164,256.67214 q -4.57031,0 -6.88477,4.51172 -2.28515,4.48242 -2.28515,13.50586 0,8.99414 2.28515,13.50585 2.31446,4.48243 6.88477,4.48243 4.59956,0 6.88476,-4.48243 2.3145,-4.51171 2.3145,-13.50585 0,-9.02344 -2.3145,-13.50586 -2.2852,-4.51172 -6.88476,-4.51172 z m 0,-4.6875 q 7.35356,0 11.22066,5.83008 3.8965,5.80078 3.8965,16.875 0,11.04492 -3.8965,16.875 -3.8671,5.80078 -11.22066,5.80078 -7.35352,0 -11.25,-5.80078 -3.86719,-5.83008 -3.86719,-16.875 0,-11.07422 3.86719,-16.875 3.89648,-5.83008 11.25,-5.83008 z"
           style="font-style:normal;font-variant:normal;font-weight:normal;font-stretch:normal;font-size:60px;font-family:Sans;-inkscape-font-specification:Dingbats;text-align:start;text-anchor:start"
           id="path7522" />
        <path
           d="m 1035.3848,256.67214 q -4.5703,0 -6.8848,4.51172 -2.2852,4.48242 -2.2852,13.50586 0,8.99414 2.2852,13.50585 2.3145,4.48243 6.8848,4.48243 4.5996,0 6.8847,-4.48243 2.3145,-4.51171 2.3145,-13.50585 0,-9.02344 -2.3145,-13.50586 -2.2851,-4.51172 -6.8847,-4.51172 z m 0,-4.6875 q 7.3535,0 11.2207,5.83008 3.8965,5.80078 3.8965,16.875 0,11.04492 -3.8965,16.875 -3.8672,5.80078 -11.2207,5.80078 -7.3535,0 -11.25,-5.80078 -3.8672,-5.83008 -3.8672,-16.875 0,-11.07422 3.8672,-16.875 3.8965,-5.83008 11.25,-5.83008 z"
           style="font-style:normal;font-variant:normal;font-weight:normal;font-stretch:normal;font-size:60px;font-family:Sans;-inkscape-font-specification:Dingbats;text-align:start;text-anchor:start"
           id="path7524" />
        <path
           d="m 1060.9902,252.77565 23.2325,0 0,4.98047 -17.8125,0 0,10.72266 q 1.289,-0.43946 2.5781,-0.64453 1.289,-0.23438 2.5781,-0.23438 7.3242,0 11.6016,4.01367 4.2773,4.01368 4.2773,10.86914 0,7.06055 -4.3945,10.98633 -4.3945,3.89649 -12.3926,3.89649 -2.7539,0 -5.625,-0.46875 -2.8418,-0.46875 -5.8887,-1.40625 l 0,-5.94727 q 2.6368,1.43555 5.4493,2.13867 2.8125,0.70313 5.9472,0.70313 5.0684,0 8.0274,-2.66602 2.9589,-2.66601 2.9589,-7.23633 0,-4.57031 -2.9589,-7.23632 -2.959,-2.66602 -8.0274,-2.66602 -2.373,0 -4.7461,0.52734 -2.3437,0.52735 -4.8047,1.64063 l 0,-21.97266 z"
           style="font-style:normal;font-variant:normal;font-weight:normal;font-stretch:normal;font-size:60px;font-family:Sans;-inkscape-font-specification:Dingbats;text-align:start;text-anchor:start"
           id="path7526" />
        <path
           d="m 1097.5234,250.98854 4.6875,0 q 4.3946,6.91407 6.5625,13.53516 2.1973,6.62109 2.1973,13.1543 0,6.5625 -2.1973,13.21289 -2.1679,6.65039 -6.5625,13.53515 l -4.6875,0 q 3.8965,-6.70898 5.8008,-13.33007 1.9336,-6.6504 1.9336,-13.41797 0,-6.76758 -1.9336,-13.35938 -1.9043,-6.5918 -5.8008,-13.33008 z"
           style="font-style:normal;font-variant:normal;font-weight:normal;font-stretch:normal;font-size:60px;font-family:Sans;-inkscape-font-specification:Dingbats;text-align:start;text-anchor:start"
           id="path7528" />
        <path
           d="m 306.41992,351.00807 q 1.9043,0.64454 3.69141,2.75391 1.8164,2.10938 3.63281,5.80078 l 6.00586,11.95313 -6.35742,0 -5.59571,-11.22071 q -2.16796,-4.39453 -4.21875,-5.83007 -2.02148,-1.43555 -5.5371,-1.43555 l -6.44532,0 0,18.48633 -5.91797,0 0,-43.74024 13.35938,0 q 7.5,0 11.19141,3.13477 3.6914,3.13476 3.6914,9.46289 0,4.13086 -1.93359,6.85547 -1.9043,2.72461 -5.56641,3.77929 z m -14.82422,-18.36914 0,15.52735 7.44141,0 q 4.27734,0 6.44531,-1.96289 2.19727,-1.99219 2.19727,-5.83008 0,-3.83789 -2.19727,-5.77149 -2.16797,-1.96289 -6.44531,-1.96289 l -7.44141,0 z"
           style="font-style:normal;font-variant:normal;font-weight:normal;font-stretch:normal;font-size:60px;font-family:Sans;-inkscape-font-specification:Dingbats;text-align:start;text-anchor:start"
           id="path7530" />
        <path
           d="m 323.91016,358.56667 0,-19.86328 5.39062,0 0,19.6582 q 0,4.6582 1.81641,7.00195 1.8164,2.31446 5.44922,2.31446 4.36523,0 6.88476,-2.78321 Q 346,362.11159 346,357.3069 l 0,-18.60351 5.39062,0 0,32.8125 -5.39062,0 0,-5.03907 q -1.96289,2.98829 -4.57031,4.45313 -2.57813,1.43555 -6.00586,1.43555 -5.6543,0 -8.58399,-3.51563 -2.92968,-3.51562 -2.92968,-10.2832 z m 13.56445,-20.6543 0,0 z"
           style="font-style:normal;font-variant:normal;font-weight:normal;font-stretch:normal;font-size:60px;font-family:Sans;-inkscape-font-specification:Dingbats;text-align:start;text-anchor:start"
           id="path7532" />
        <path
           d="m 389.82812,351.7112 0,19.80469 -5.39062,0 0,-19.62891 q 0,-4.6582 -1.81641,-6.97266 -1.8164,-2.31445 -5.44922,-2.31445 -4.36523,0 -6.88476,2.7832 -2.51953,2.78321 -2.51953,7.5879 l 0,18.54492 -5.41992,0 0,-32.8125 5.41992,0 0,5.09765 q 1.93359,-2.95898 4.54101,-4.42382 2.63672,-1.46485 6.06446,-1.46485 5.65429,0 8.55468,3.51563 2.90039,3.48632 2.90039,10.2832 z"
           style="font-style:normal;font-variant:normal;font-weight:normal;font-stretch:normal;font-size:60px;font-family:Sans;-inkscape-font-specification:Dingbats;text-align:start;text-anchor:start"
           id="path7534" />
        <path
           d="m 427.91406,351.7112 0,19.80469 -5.39062,0 0,-19.62891 q 0,-4.6582 -1.81641,-6.97266 -1.81641,-2.31445 -5.44922,-2.31445 -4.36523,0 -6.88476,2.7832 -2.51953,2.78321 -2.51953,7.5879 l 0,18.54492 -5.41993,0 0,-32.8125 5.41993,0 0,5.09765 q 1.93359,-2.95898 4.54101,-4.42382 2.63672,-1.46485 6.06445,-1.46485 5.6543,0 8.55469,3.51563 2.90039,3.48632 2.90039,10.2832 z"
           style="font-style:normal;font-variant:normal;font-weight:normal;font-stretch:normal;font-size:60px;font-family:Sans;-inkscape-font-specification:Dingbats;text-align:start;text-anchor:start"
           id="path7536" />
        <path
           d="m 466.79102,353.76198 0,2.63672 -24.78516,0 q 0.35156,5.56641 3.33984,8.49609 3.01758,2.90039 8.37891,2.90039 3.10547,0 6.00586,-0.76171 2.92969,-0.76172 5.80078,-2.28516 l 0,5.09766 q -2.90039,1.23046 -5.94727,1.875 -3.04687,0.64453 -6.18164,0.64453 -7.85156,0 -12.45117,-4.57032 -4.57031,-4.57031 -4.57031,-12.36328 0,-8.05664 4.33594,-12.77343 4.36523,-4.7461 11.74804,-4.7461 6.6211,0 10.45899,4.27735 3.86719,4.24804 3.86719,11.57226 z m -5.39063,-1.58203 q -0.0586,-4.42383 -2.49023,-7.06055 -2.40235,-2.63672 -6.38672,-2.63672 -4.51172,0 -7.23633,2.54883 -2.69531,2.54883 -3.10547,7.17774 l 19.21875,-0.0293 z"
           style="font-style:normal;font-variant:normal;font-weight:normal;font-stretch:normal;font-size:60px;font-family:Sans;-inkscape-font-specification:Dingbats;text-align:start;text-anchor:start"
           id="path7538" />
        <path
           d="m 497.23047,343.68386 0,-17.75391 5.39062,0 0,45.58594 -5.39062,0 0,-4.92188 q -1.69922,2.92969 -4.30664,4.36524 -2.57813,1.40625 -6.21094,1.40625 -5.94727,0 -9.69727,-4.7461 -3.7207,-4.74609 -3.7207,-12.48047 0,-7.73437 3.7207,-12.48046 3.75,-4.7461 9.69727,-4.7461 3.63281,0 6.21094,1.43555 2.60742,1.40625 4.30664,4.33594 z m -18.36914,11.45507 q 0,5.94727 2.43164,9.34571 2.46094,3.36914 6.73828,3.36914 4.27734,0 6.73828,-3.36914 2.46094,-3.39844 2.46094,-9.34571 0,-5.94726 -2.46094,-9.3164 -2.46094,-3.39844 -6.73828,-3.39844 -4.27734,0 -6.73828,3.39844 -2.43164,3.36914 -2.43164,9.3164 z"
           style="font-style:normal;font-variant:normal;font-weight:normal;font-stretch:normal;font-size:60px;font-family:Sans;-inkscape-font-specification:Dingbats;text-align:start;text-anchor:start"
           id="path7540" />
        <path
           d="m 556.38086,355.13893 q 0,-5.94726 -2.46094,-9.3164 -2.43164,-3.39844 -6.70898,-3.39844 -4.27735,0 -6.73828,3.39844 -2.43164,3.36914 -2.43164,9.3164 0,5.94727 2.43164,9.34571 2.46093,3.36914 6.73828,3.36914 4.27734,0 6.70898,-3.36914 2.46094,-3.39844 2.46094,-9.34571 z m -18.33984,-11.45507 q 1.69921,-2.92969 4.27734,-4.33594 2.60742,-1.43555 6.21094,-1.43555 5.97656,0 9.69726,4.7461 3.75,4.74609 3.75,12.48046 0,7.73438 -3.75,12.48047 -3.7207,4.7461 -9.69726,4.7461 -3.60352,0 -6.21094,-1.40625 -2.57813,-1.43555 -4.27734,-4.36524 l 0,4.92188 -5.41993,0 0,-45.58594 5.41993,0 0,17.75391 z"
           style="font-style:normal;font-variant:normal;font-weight:normal;font-stretch:normal;font-size:60px;font-family:Sans;-inkscape-font-specification:Dingbats;text-align:start;text-anchor:start"
           id="path7542" />
        <path
           d="m 584.56445,374.56276 q -2.28515,5.85938 -4.45312,7.64649 -2.16797,1.78711 -5.80078,1.78711 l -4.30664,0 0,-4.51172 3.16406,0 q 2.22656,0 3.45703,-1.05469 1.23047,-1.05469 2.72461,-4.98047 l 0.9668,-2.46094 -13.27149,-32.28515 5.71289,0 10.25391,25.66406 10.2539,-25.66406 5.7129,0 -14.41407,35.85937 z"
           style="font-style:normal;font-variant:normal;font-weight:normal;font-stretch:normal;font-size:60px;font-family:Sans;-inkscape-font-specification:Dingbats;text-align:start;text-anchor:start"
           id="path7544" />
        <path
           d="m 631.67383,332.63893 0,34.01368 7.14844,0 q 9.05273,0 13.24218,-4.10157 4.21875,-4.10156 4.21875,-12.94922 0,-8.78906 -4.21875,-12.86132 -4.18945,-4.10157 -13.24218,-4.10157 l -7.14844,0 z m -5.91797,-4.86328 12.1582,0 q 12.71485,0 18.66211,5.30274 5.94727,5.27343 5.94727,16.52343 0,11.3086 -5.97657,16.61133 -5.97656,5.30274 -18.63281,5.30274 l -12.1582,0 0,-43.74024 z"
           style="font-style:normal;font-variant:normal;font-weight:normal;font-stretch:normal;font-size:60px;font-family:Sans;-inkscape-font-specification:Dingbats;text-align:start;text-anchor:start"
           id="path7546" />
        <path
           d="m 684.4082,342.48268 q -4.33593,0 -6.85547,3.39844 -2.51953,3.36914 -2.51953,9.25781 0,5.88868 2.49024,9.28711 2.51953,3.36914 6.88476,3.36914 4.30664,0 6.82617,-3.39843 2.51954,-3.39844 2.51954,-9.25782 0,-5.83007 -2.51954,-9.22851 -2.51953,-3.42774 -6.82617,-3.42774 z m 0,-4.57031 q 7.03125,0 11.04492,4.57031 4.01368,4.57032 4.01368,12.65625 0,8.05664 -4.01368,12.65625 -4.01367,4.57032 -11.04492,4.57032 -7.06054,0 -11.07422,-4.57032 -3.98437,-4.59961 -3.98437,-12.65625 0,-8.08593 3.98437,-12.65625 4.01368,-4.57031 11.07422,-4.57031 z"
           style="font-style:normal;font-variant:normal;font-weight:normal;font-stretch:normal;font-size:60px;font-family:Sans;-inkscape-font-specification:Dingbats;text-align:start;text-anchor:start"
           id="path7548" />
        <path
           d="m 708.37305,338.70339 5.39062,0 0,33.39843 q 0,6.26954 -2.40234,9.08204 -2.37305,2.8125 -7.67578,2.8125 l -2.05078,0 0,-4.57032 1.43554,0 q 3.07617,0 4.18946,-1.43554 1.11328,-1.40625 1.11328,-5.88868 l 0,-33.39843 z m 0,-12.77344 5.39062,0 0,6.82617 -5.39062,0 0,-6.82617 z"
           style="font-style:normal;font-variant:normal;font-weight:normal;font-stretch:normal;font-size:60px;font-family:Sans;-inkscape-font-specification:Dingbats;text-align:start;text-anchor:start"
           id="path7550" />
        <path
           d="m 737.72852,342.48268 q -4.33594,0 -6.85547,3.39844 -2.51953,3.36914 -2.51953,9.25781 0,5.88868 2.49023,9.28711 2.51953,3.36914 6.88477,3.36914 4.30664,0 6.82617,-3.39843 2.51953,-3.39844 2.51953,-9.25782 0,-5.83007 -2.51953,-9.22851 -2.51953,-3.42774 -6.82617,-3.42774 z m 0,-4.57031 q 7.03125,0 11.04492,4.57031 4.01367,4.57032 4.01367,12.65625 0,8.05664 -4.01367,12.65625 -4.01367,4.57032 -11.04492,4.57032 -7.06055,0 -11.07422,-4.57032 -3.98438,-4.59961 -3.98438,-12.65625 0,-8.08593 3.98438,-12.65625 4.01367,-4.57031 11.07422,-4.57031 z"
           style="font-style:normal;font-variant:normal;font-weight:normal;font-stretch:normal;font-size:60px;font-family:Sans;-inkscape-font-specification:Dingbats;text-align:start;text-anchor:start"
           id="path7552" />
        <path
           d="m 781.0293,327.77565 25.13672,0 0,4.98047 -19.21875,0 0,12.89063 17.34375,0 0,4.98047 -17.34375,0 0,20.88867 -5.91797,0 0,-43.74024 z"
           style="font-style:normal;font-variant:normal;font-weight:normal;font-stretch:normal;font-size:60px;font-family:Sans;-inkscape-font-specification:Dingbats;text-align:start;text-anchor:start"
           id="path7554" />
        <path
           d="m 825.9707,342.48268 q -4.33593,0 -6.85547,3.39844 -2.51953,3.36914 -2.51953,9.25781 0,5.88868 2.49024,9.28711 2.51953,3.36914 6.88476,3.36914 4.30664,0 6.82617,-3.39843 2.51954,-3.39844 2.51954,-9.25782 0,-5.83007 -2.51954,-9.22851 -2.51953,-3.42774 -6.82617,-3.42774 z m 0,-4.57031 q 7.03125,0 11.04492,4.57031 4.01368,4.57032 4.01368,12.65625 0,8.05664 -4.01368,12.65625 -4.01367,4.57032 -11.04492,4.57032 -7.06054,0 -11.07422,-4.57032 -3.98437,-4.59961 -3.98437,-12.65625 0,-8.08593 3.98437,-12.65625 4.01368,-4.57031 11.07422,-4.57031 z"
           style="font-style:normal;font-variant:normal;font-weight:normal;font-stretch:normal;font-size:60px;font-family:Sans;-inkscape-font-specification:Dingbats;text-align:start;text-anchor:start"
           id="path7556" />
        <path
           d="m 849.37891,358.56667 0,-19.86328 5.39062,0 0,19.6582 q 0,4.6582 1.81641,7.00195 1.8164,2.31446 5.44922,2.31446 4.36523,0 6.88476,-2.78321 2.54883,-2.7832 2.54883,-7.58789 l 0,-18.60351 5.39062,0 0,32.8125 -5.39062,0 0,-5.03907 q -1.96289,2.98829 -4.57031,4.45313 -2.57813,1.43555 -6.00586,1.43555 -5.6543,0 -8.58399,-3.51563 -2.92968,-3.51562 -2.92968,-10.2832 z m 13.56445,-20.6543 0,0 z"
           style="font-style:normal;font-variant:normal;font-weight:normal;font-stretch:normal;font-size:60px;font-family:Sans;-inkscape-font-specification:Dingbats;text-align:start;text-anchor:start"
           id="path7558" />
        <path
           d="m 915.29687,351.7112 0,19.80469 -5.39062,0 0,-19.62891 q 0,-4.6582 -1.81641,-6.97266 -1.8164,-2.31445 -5.44922,-2.31445 -4.36523,0 -6.88476,2.7832 -2.51953,2.78321 -2.51953,7.5879 l 0,18.54492 -5.41992,0 0,-32.8125 5.41992,0 0,5.09765 q 1.93359,-2.95898 4.54101,-4.42382 2.63672,-1.46485 6.06446,-1.46485 5.65429,0 8.55468,3.51563 2.90039,3.48632 2.90039,10.2832 z"
           style="font-style:normal;font-variant:normal;font-weight:normal;font-stretch:normal;font-size:60px;font-family:Sans;-inkscape-font-specification:Dingbats;text-align:start;text-anchor:start"
           id="path7560" />
        <path
           d="m 947.69922,343.68386 0,-17.75391 5.39062,0 0,45.58594 -5.39062,0 0,-4.92188 q -1.69922,2.92969 -4.30664,4.36524 -2.57813,1.40625 -6.21094,1.40625 -5.94727,0 -9.69727,-4.7461 -3.7207,-4.74609 -3.7207,-12.48047 0,-7.73437 3.7207,-12.48046 3.75,-4.7461 9.69727,-4.7461 3.63281,0 6.21094,1.43555 2.60742,1.40625 4.30664,4.33594 z m -18.36914,11.45507 q 0,5.94727 2.43164,9.34571 2.46094,3.36914 6.73828,3.36914 4.27734,0 6.73828,-3.36914 2.46094,-3.39844 2.46094,-9.34571 0,-5.94726 -2.46094,-9.3164 -2.46094,-3.39844 -6.73828,-3.39844 -4.27734,0 -6.73828,3.39844 -2.43164,3.36914 -2.43164,9.3164 z"
           style="font-style:normal;font-variant:normal;font-weight:normal;font-stretch:normal;font-size:60px;font-family:Sans;-inkscape-font-specification:Dingbats;text-align:start;text-anchor:start"
           id="path7562" />
        <path
           d="m 979.10547,355.02175 q -6.5332,0 -9.05274,1.49414 -2.51953,1.49414 -2.51953,5.09765 0,2.8711 1.875,4.57032 1.9043,1.66992 5.15625,1.66992 4.48242,0 7.17774,-3.16406 2.72461,-3.19336 2.72461,-8.4668 l 0,-1.20117 -5.36133,0 z m 10.75195,-2.22657 0,18.72071 -5.39062,0 0,-4.98047 q -1.84571,2.98828 -4.59961,4.42383 -2.75391,1.40625 -6.73828,1.40625 -5.03907,0 -8.02735,-2.8125 -2.95898,-2.8418 -2.95898,-7.58789 0,-5.53711 3.6914,-8.34961 3.72071,-2.8125 11.07422,-2.8125 l 7.5586,0 0,-0.52735 q 0,-3.7207 -2.46094,-5.74218 -2.43164,-2.05079 -6.85547,-2.05079 -2.8125,0 -5.47852,0.67383 -2.66601,0.67383 -5.12695,2.02149 l 0,-4.98047 q 2.95899,-1.14258 5.74219,-1.69922 2.7832,-0.58594 5.41992,-0.58594 7.11914,0 10.63477,3.69141 3.51562,3.6914 3.51562,11.1914 z"
           style="font-style:normal;font-variant:normal;font-weight:normal;font-stretch:normal;font-size:60px;font-family:Sans;-inkscape-font-specification:Dingbats;text-align:start;text-anchor:start"
           id="path7564" />
        <path
           d="m 1006.3223,329.38698 0,9.31641 11.1035,0 0,4.18945 -11.1035,0 0,17.8125 q 0,4.01367 1.0839,5.15625 1.1133,1.14258 4.4825,1.14258 l 5.5371,0 0,4.51172 -5.5371,0 q -6.2403,0 -8.6133,-2.31446 -2.3731,-2.34375 -2.3731,-8.49609 l 0,-17.8125 -3.95503,0 0,-4.18945 3.95503,0 0,-9.31641 5.42,0 z"
           style="font-style:normal;font-variant:normal;font-weight:normal;font-stretch:normal;font-size:60px;font-family:Sans;-inkscape-font-specification:Dingbats;text-align:start;text-anchor:start"
           id="path7566" />
        <path
           d="m 1024.5449,338.70339 5.3906,0 0,32.8125 -5.3906,0 0,-32.8125 z m 0,-12.77344 5.3906,0 0,6.82617 -5.3906,0 0,-6.82617 z"
           style="font-style:normal;font-variant:normal;font-weight:normal;font-stretch:normal;font-size:60px;font-family:Sans;-inkscape-font-specification:Dingbats;text-align:start;text-anchor:start"
           id="path7568" />
        <path
           d="m 1053.9004,342.48268 q -4.3359,0 -6.8555,3.39844 -2.5195,3.36914 -2.5195,9.25781 0,5.88868 2.4902,9.28711 2.5196,3.36914 6.8848,3.36914 4.3066,0 6.8262,-3.39843 2.5195,-3.39844 2.5195,-9.25782 0,-5.83007 -2.5195,-9.22851 -2.5196,-3.42774 -6.8262,-3.42774 z m 0,-4.57031 q 7.0312,0 11.0449,4.57031 4.0137,4.57032 4.0137,12.65625 0,8.05664 -4.0137,12.65625 -4.0137,4.57032 -11.0449,4.57032 -7.0606,0 -11.0742,-4.57032 -3.9844,-4.59961 -3.9844,-12.65625 0,-8.08593 3.9844,-12.65625 4.0136,-4.57031 11.0742,-4.57031 z"
           style="font-style:normal;font-variant:normal;font-weight:normal;font-stretch:normal;font-size:60px;font-family:Sans;-inkscape-font-specification:Dingbats;text-align:start;text-anchor:start"
           id="path7570" />
        <path
           d="m 1105.1406,351.7112 0,19.80469 -5.3906,0 0,-19.62891 q 0,-4.6582 -1.8164,-6.97266 -1.8164,-2.31445 -5.4492,-2.31445 -4.3653,0 -6.8848,2.7832 -2.5195,2.78321 -2.5195,7.5879 l 0,18.54492 -5.4199,0 0,-32.8125 5.4199,0 0,5.09765 q 1.9336,-2.95898 4.541,-4.42382 2.6367,-1.46485 6.0644,-1.46485 5.6543,0 8.5547,3.51563 2.9004,3.48632 2.9004,10.2832 z"
           style="font-style:normal;font-variant:normal;font-weight:normal;font-stretch:normal;font-size:60px;font-family:Sans;-inkscape-font-specification:Dingbats;text-align:start;text-anchor:start"
           id="path7572" />
        <path
           d="m 291.5957,407.63893 0,34.01368 7.14844,0 q 9.05273,0 13.24219,-4.10157 4.21875,-4.10156 4.21875,-12.94922 0,-8.78906 -4.21875,-12.86132 -4.18946,-4.10157 -13.24219,-4.10157 l -7.14844,0 z m -5.91797,-4.86328 12.15821,0 q 12.71484,0 18.66211,5.30274 5.94726,5.27343 5.94726,16.52343 0,11.3086 -5.97656,16.61133 -5.97656,5.30274 -18.63281,5.30274 l -12.15821,0 0,-43.74024 z"
           style="font-style:normal;font-variant:normal;font-weight:normal;font-stretch:normal;font-size:60px;font-family:Sans;-inkscape-font-specification:Dingbats;text-align:start;text-anchor:start"
           id="path7574" />
        <path
           d="m 359.68164,428.76198 0,2.63672 -24.78516,0 q 0.35157,5.56641 3.33985,8.49609 3.01758,2.90039 8.3789,2.90039 3.10547,0 6.00586,-0.76171 2.92969,-0.76172 5.80078,-2.28516 l 0,5.09766 q -2.90039,1.23046 -5.94726,1.875 -3.04688,0.64453 -6.18164,0.64453 -7.85156,0 -12.45117,-4.57032 -4.57032,-4.57031 -4.57032,-12.36328 0,-8.05664 4.33594,-12.77343 4.36524,-4.7461 11.74805,-4.7461 6.62109,0 10.45898,4.27735 3.86719,4.24804 3.86719,11.57226 z m -5.39062,-1.58203 q -0.0586,-4.42383 -2.49024,-7.06055 -2.40234,-2.63672 -6.38672,-2.63672 -4.51172,0 -7.23633,2.54883 -2.69531,2.54883 -3.10546,7.17774 l 19.21875,-0.0293 z"
           style="font-style:normal;font-variant:normal;font-weight:normal;font-stretch:normal;font-size:60px;font-family:Sans;-inkscape-font-specification:Dingbats;text-align:start;text-anchor:start"
           id="path7576" />
        <path
           d="m 389.44727,414.67018 0,5.09766 q -2.28516,-1.17187 -4.7461,-1.75781 -2.46094,-0.58594 -5.09765,-0.58594 -4.01368,0 -6.03516,1.23047 -1.99219,1.23047 -1.99219,3.69141 0,1.875 1.43555,2.95898 1.43555,1.05469 5.77148,2.02148 l 1.84571,0.41016 q 5.74218,1.23047 8.14453,3.48633 2.43164,2.22656 2.43164,6.24023 0,4.57032 -3.63281,7.23633 -3.60352,2.66602 -9.93165,2.66602 -2.63671,0 -5.50781,-0.52735 -2.84179,-0.49804 -6.00586,-1.52343 l 0,-5.56641 q 2.98828,1.55273 5.88867,2.34375 2.9004,0.76172 5.74219,0.76172 3.8086,0 5.85938,-1.28906 2.05078,-1.31836 2.05078,-3.69141 0,-2.19727 -1.49414,-3.36914 -1.46485,-1.17188 -6.47461,-2.25586 l -1.875,-0.43945 q -5.00977,-1.05469 -7.23633,-3.22266 -2.22656,-2.19727 -2.22656,-6.00586 0,-4.62891 3.28125,-7.14844 3.28125,-2.51953 9.3164,-2.51953 2.98829,0 5.625,0.43945 2.63672,0.43946 4.86329,1.31836 z"
           style="font-style:normal;font-variant:normal;font-weight:normal;font-stretch:normal;font-size:60px;font-family:Sans;-inkscape-font-specification:Dingbats;text-align:start;text-anchor:start"
           id="path7578" />
        <path
           d="m 399.81836,413.70339 5.39062,0 0,32.8125 -5.39062,0 0,-32.8125 z m 0,-12.77344 5.39062,0 0,6.82617 -5.39062,0 0,-6.82617 z"
           style="font-style:normal;font-variant:normal;font-weight:normal;font-stretch:normal;font-size:60px;font-family:Sans;-inkscape-font-specification:Dingbats;text-align:start;text-anchor:start"
           id="path7580" />
        <path
           d="m 438.05078,429.72878 q 0,-5.85938 -2.43164,-9.08203 -2.40234,-3.22266 -6.76758,-3.22266 -4.33594,0 -6.76758,3.22266 -2.40234,3.22265 -2.40234,9.08203 0,5.83008 2.40234,9.05273 2.43164,3.22266 6.76758,3.22266 4.36524,0 6.76758,-3.22266 2.43164,-3.22265 2.43164,-9.05273 z m 5.39063,12.71484 q 0,8.37891 -3.72071,12.45117 -3.7207,4.10157 -11.39648,4.10157 -2.8418,0 -5.36133,-0.43946 -2.51953,-0.41015 -4.89258,-1.28906 l 0,-5.24414 q 2.37305,1.28906 4.6875,1.9043 2.31446,0.61523 4.7168,0.61523 5.30273,0 7.93945,-2.7832 2.63672,-2.75391 2.63672,-8.34961 l 0,-2.66602 q -1.66992,2.90039 -4.27734,4.33594 -2.60742,1.43555 -6.24024,1.43555 -6.03515,0 -9.72656,-4.59961 -3.69141,-4.59961 -3.69141,-12.1875 0,-7.61719 3.69141,-12.2168 3.69141,-4.59961 9.72656,-4.59961 3.63282,0 6.24024,1.43555 2.60742,1.43555 4.27734,4.33594 l 0,-4.98047 5.39063,0 0,28.74023 z"
           style="font-style:normal;font-variant:normal;font-weight:normal;font-stretch:normal;font-size:60px;font-family:Sans;-inkscape-font-specification:Dingbats;text-align:start;text-anchor:start"
           id="path7582" />
        <path
           d="m 481.82031,426.7112 0,19.80469 -5.39062,0 0,-19.62891 q 0,-4.6582 -1.81641,-6.97266 -1.81641,-2.31445 -5.44922,-2.31445 -4.36523,0 -6.88476,2.7832 -2.51953,2.78321 -2.51953,7.5879 l 0,18.54492 -5.41993,0 0,-32.8125 5.41993,0 0,5.09765 q 1.93359,-2.95898 4.54101,-4.42382 2.63672,-1.46485 6.06445,-1.46485 5.6543,0 8.55469,3.51563 2.90039,3.48632 2.90039,10.2832 z"
           style="font-style:normal;font-variant:normal;font-weight:normal;font-stretch:normal;font-size:60px;font-family:Sans;-inkscape-font-specification:Dingbats;text-align:start;text-anchor:start"
           id="path7584" />
        <path
           d="m 520.69727,428.76198 0,2.63672 -24.78516,0 q 0.35156,5.56641 3.33984,8.49609 3.01758,2.90039 8.37891,2.90039 3.10547,0 6.00586,-0.76171 2.92969,-0.76172 5.80078,-2.28516 l 0,5.09766 q -2.90039,1.23046 -5.94727,1.875 -3.04687,0.64453 -6.18164,0.64453 -7.85156,0 -12.45117,-4.57032 -4.57031,-4.57031 -4.57031,-12.36328 0,-8.05664 4.33594,-12.77343 4.36523,-4.7461 11.74804,-4.7461 6.6211,0 10.45899,4.27735 3.86719,4.24804 3.86719,11.57226 z m -5.39063,-1.58203 q -0.0586,-4.42383 -2.49023,-7.06055 -2.40235,-2.63672 -6.38672,-2.63672 -4.51172,0 -7.23633,2.54883 -2.69531,2.54883 -3.10547,7.17774 l 19.21875,-0.0293 z"
           style="font-style:normal;font-variant:normal;font-weight:normal;font-stretch:normal;font-size:60px;font-family:Sans;-inkscape-font-specification:Dingbats;text-align:start;text-anchor:start"
           id="path7586" />
        <path
           d="m 551.13672,418.68386 0,-17.75391 5.39062,0 0,45.58594 -5.39062,0 0,-4.92188 q -1.69922,2.92969 -4.30664,4.36524 -2.57813,1.40625 -6.21094,1.40625 -5.94727,0 -9.69727,-4.7461 -3.7207,-4.74609 -3.7207,-12.48047 0,-7.73437 3.7207,-12.48046 3.75,-4.7461 9.69727,-4.7461 3.63281,0 6.21094,1.43555 2.60742,1.40625 4.30664,4.33594 z m -18.36914,11.45507 q 0,5.94727 2.43164,9.34571 2.46094,3.36914 6.73828,3.36914 4.27734,0 6.73828,-3.36914 2.46094,-3.39844 2.46094,-9.34571 0,-5.94726 -2.46094,-9.3164 -2.46094,-3.39844 -6.73828,-3.39844 -4.27734,0 -6.73828,3.39844 -2.43164,3.36914 -2.43164,9.3164 z"
           style="font-style:normal;font-variant:normal;font-weight:normal;font-stretch:normal;font-size:60px;font-family:Sans;-inkscape-font-specification:Dingbats;text-align:start;text-anchor:start"
           id="path7588" />
        <path
           d="m 603.34375,400.92995 0,4.48242 -5.15625,0 q -2.90039,0 -4.04297,1.17188 -1.11328,1.17187 -1.11328,4.21875 l 0,2.90039 8.87695,0 0,4.18945 -8.87695,0 0,28.62305 -5.41992,0 0,-28.62305 -5.15625,0 0,-4.18945 5.15625,0 0,-2.28516 q 0,-5.47851 2.54883,-7.96875 2.54882,-2.51953 8.08593,-2.51953 l 5.09766,0 z"
           style="font-style:normal;font-variant:normal;font-weight:normal;font-stretch:normal;font-size:60px;font-family:Sans;-inkscape-font-specification:Dingbats;text-align:start;text-anchor:start"
           id="path7590" />
        <path
           d="m 620.54102,417.48268 q -4.33594,0 -6.85547,3.39844 -2.51953,3.36914 -2.51953,9.25781 0,5.88868 2.49023,9.28711 2.51953,3.36914 6.88477,3.36914 4.30664,0 6.82617,-3.39843 2.51953,-3.39844 2.51953,-9.25782 0,-5.83007 -2.51953,-9.22851 -2.51953,-3.42774 -6.82617,-3.42774 z m 0,-4.57031 q 7.03125,0 11.04492,4.57031 4.01367,4.57032 4.01367,12.65625 0,8.05664 -4.01367,12.65625 -4.01367,4.57032 -11.04492,4.57032 -7.06055,0 -11.07422,-4.57032 -3.98438,-4.59961 -3.98438,-12.65625 0,-8.08593 3.98438,-12.65625 4.01367,-4.57031 11.07422,-4.57031 z"
           style="font-style:normal;font-variant:normal;font-weight:normal;font-stretch:normal;font-size:60px;font-family:Sans;-inkscape-font-specification:Dingbats;text-align:start;text-anchor:start"
           id="path7592" />
        <path
           d="m 663.51953,418.74245 q -0.9082,-0.52734 -1.99219,-0.76172 -1.05468,-0.26367 -2.34375,-0.26367 -4.57031,0 -7.03125,2.98828 -2.43164,2.95898 -2.43164,8.52539 l 0,17.28516 -5.41992,0 0,-32.8125 5.41992,0 0,5.09765 q 1.69922,-2.98828 4.42383,-4.42382 2.72461,-1.46485 6.62109,-1.46485 0.55665,0 1.23047,0.0879 0.67383,0.0586 1.49414,0.20508 l 0.0293,5.53711 z"
           style="font-style:normal;font-variant:normal;font-weight:normal;font-stretch:normal;font-size:60px;font-family:Sans;-inkscape-font-specification:Dingbats;text-align:start;text-anchor:start"
           id="path7594" />
        <path
           d="m 688.33398,400.92995 5.39063,0 0,45.58594 -5.39063,0 0,-45.58594 z"
           style="font-style:normal;font-variant:normal;font-weight:normal;font-stretch:normal;font-size:60px;font-family:Sans;-inkscape-font-specification:Dingbats;text-align:start;text-anchor:start"
           id="path7596" />
        <path
           d="m 719.88672,430.02175 q -6.5332,0 -9.05274,1.49414 -2.51953,1.49414 -2.51953,5.09765 0,2.8711 1.875,4.57032 1.9043,1.66992 5.15625,1.66992 4.48242,0 7.17774,-3.16406 2.72461,-3.19336 2.72461,-8.4668 l 0,-1.20117 -5.36133,0 z m 10.75195,-2.22657 0,18.72071 -5.39062,0 0,-4.98047 q -1.84571,2.98828 -4.59961,4.42383 -2.75391,1.40625 -6.73828,1.40625 -5.03907,0 -8.02735,-2.8125 -2.95898,-2.8418 -2.95898,-7.58789 0,-5.53711 3.6914,-8.34961 3.72071,-2.8125 11.07422,-2.8125 l 7.5586,0 0,-0.52735 q 0,-3.7207 -2.46094,-5.74218 -2.43164,-2.05079 -6.85547,-2.05079 -2.8125,0 -5.47852,0.67383 -2.66601,0.67383 -5.12695,2.02149 l 0,-4.98047 q 2.95899,-1.14258 5.74219,-1.69922 2.7832,-0.58594 5.41992,-0.58594 7.11914,0 10.63477,3.69141 3.51562,3.6914 3.51562,11.1914 z"
           style="font-style:normal;font-variant:normal;font-weight:normal;font-stretch:normal;font-size:60px;font-family:Sans;-inkscape-font-specification:Dingbats;text-align:start;text-anchor:start"
           id="path7598" />
        <path
           d="m 760.78516,418.74245 q -0.90821,-0.52734 -1.99219,-0.76172 -1.05469,-0.26367 -2.34375,-0.26367 -4.57031,0 -7.03125,2.98828 -2.43164,2.95898 -2.43164,8.52539 l 0,17.28516 -5.41992,0 0,-32.8125 5.41992,0 0,5.09765 q 1.69922,-2.98828 4.42383,-4.42382 2.72461,-1.46485 6.62109,-1.46485 0.55664,0 1.23047,0.0879 0.67383,0.0586 1.49414,0.20508 l 0.0293,5.53711 z"
           style="font-style:normal;font-variant:normal;font-weight:normal;font-stretch:normal;font-size:60px;font-family:Sans;-inkscape-font-specification:Dingbats;text-align:start;text-anchor:start"
           id="path7600" />
        <path
           d="m 787.03516,429.72878 q 0,-5.85938 -2.43164,-9.08203 -2.40235,-3.22266 -6.76758,-3.22266 -4.33594,0 -6.76758,3.22266 -2.40234,3.22265 -2.40234,9.08203 0,5.83008 2.40234,9.05273 2.43164,3.22266 6.76758,3.22266 4.36523,0 6.76758,-3.22266 2.43164,-3.22265 2.43164,-9.05273 z m 5.39062,12.71484 q 0,8.37891 -3.7207,12.45117 -3.72071,4.10157 -11.39649,4.10157 -2.84179,0 -5.36132,-0.43946 -2.51954,-0.41015 -4.89258,-1.28906 l 0,-5.24414 q 2.37304,1.28906 4.6875,1.9043 2.31445,0.61523 4.71679,0.61523 5.30274,0 7.93946,-2.7832 2.63672,-2.75391 2.63672,-8.34961 l 0,-2.66602 q -1.66993,2.90039 -4.27735,4.33594 -2.60742,1.43555 -6.24023,1.43555 -6.03516,0 -9.72656,-4.59961 -3.69141,-4.59961 -3.69141,-12.1875 0,-7.61719 3.69141,-12.2168 3.6914,-4.59961 9.72656,-4.59961 3.63281,0 6.24023,1.43555 2.60742,1.43555 4.27735,4.33594 l 0,-4.98047 5.39062,0 0,28.74023 z"
           style="font-style:normal;font-variant:normal;font-weight:normal;font-stretch:normal;font-size:60px;font-family:Sans;-inkscape-font-specification:Dingbats;text-align:start;text-anchor:start"
           id="path7602" />
        <path
           d="m 831.5957,428.76198 0,2.63672 -24.78515,0 q 0.35156,5.56641 3.33984,8.49609 3.01758,2.90039 8.37891,2.90039 3.10547,0 6.00586,-0.76171 2.92968,-0.76172 5.80078,-2.28516 l 0,5.09766 q -2.90039,1.23046 -5.94727,1.875 -3.04687,0.64453 -6.18164,0.64453 -7.85156,0 -12.45117,-4.57032 -4.57031,-4.57031 -4.57031,-12.36328 0,-8.05664 4.33593,-12.77343 4.36524,-4.7461 11.74805,-4.7461 6.62109,0 10.45899,4.27735 3.86718,4.24804 3.86718,11.57226 z m -5.39062,-1.58203 q -0.0586,-4.42383 -2.49024,-7.06055 -2.40234,-2.63672 -6.38672,-2.63672 -4.51171,0 -7.23632,2.54883 -2.69532,2.54883 -3.10547,7.17774 l 19.21875,-0.0293 z"
           style="font-style:normal;font-variant:normal;font-weight:normal;font-stretch:normal;font-size:60px;font-family:Sans;-inkscape-font-specification:Dingbats;text-align:start;text-anchor:start"
           id="path7604" />
        <path
           d="m 837.71875,427.678 15.79102,0 0,4.80468 -15.79102,0 0,-4.80468 z"
           style="font-style:normal;font-variant:normal;font-weight:normal;font-stretch:normal;font-size:60px;font-family:Sans;-inkscape-font-specification:Dingbats;text-align:start;text-anchor:start"
           id="path7606" />
        <path
           d="m 883.04102,414.67018 0,5.09766 q -2.28516,-1.17187 -4.7461,-1.75781 -2.46094,-0.58594 -5.09765,-0.58594 -4.01368,0 -6.03516,1.23047 -1.99219,1.23047 -1.99219,3.69141 0,1.875 1.43555,2.95898 1.43555,1.05469 5.77148,2.02148 l 1.84571,0.41016 q 5.74218,1.23047 8.14453,3.48633 2.43164,2.22656 2.43164,6.24023 0,4.57032 -3.63281,7.23633 -3.60352,2.66602 -9.93165,2.66602 -2.63671,0 -5.50781,-0.52735 -2.84179,-0.49804 -6.00586,-1.52343 l 0,-5.56641 q 2.98828,1.55273 5.88867,2.34375 2.9004,0.76172 5.74219,0.76172 3.8086,0 5.85938,-1.28906 2.05078,-1.31836 2.05078,-3.69141 0,-2.19727 -1.49414,-3.36914 -1.46485,-1.17188 -6.47461,-2.25586 l -1.875,-0.43945 q -5.00977,-1.05469 -7.23633,-3.22266 -2.22656,-2.19727 -2.22656,-6.00586 0,-4.62891 3.28125,-7.14844 3.28125,-2.51953 9.3164,-2.51953 2.98829,0 5.625,0.43945 2.63672,0.43946 4.86329,1.31836 z"
           style="font-style:normal;font-variant:normal;font-weight:normal;font-stretch:normal;font-size:60px;font-family:Sans;-inkscape-font-specification:Dingbats;text-align:start;text-anchor:start"
           id="path7608" />
        <path
           d="m 917.02539,414.96315 0,5.03907 q -2.28516,-1.25977 -4.59961,-1.875 -2.28516,-0.64454 -4.62891,-0.64454 -5.24414,0 -8.14453,3.33985 -2.90039,3.31054 -2.90039,9.3164 0,6.00586 2.90039,9.34571 2.90039,3.31054 8.14453,3.31054 2.34375,0 4.62891,-0.61523 2.31445,-0.64453 4.59961,-1.9043 l 0,4.98047 q -2.25586,1.05469 -4.6875,1.58203 -2.40234,0.52735 -5.12695,0.52735 -7.41211,0 -11.77735,-4.65821 -4.36523,-4.6582 -4.36523,-12.56836 0,-8.02734 4.39453,-12.62695 4.42383,-4.59961 12.09961,-4.59961 2.49023,0 4.86328,0.52735 2.37305,0.49804 4.59961,1.52343 z"
           style="font-style:normal;font-variant:normal;font-weight:normal;font-stretch:normal;font-size:60px;font-family:Sans;-inkscape-font-specification:Dingbats;text-align:start;text-anchor:start"
           id="path7610" />
        <path
           d="m 941.37109,430.02175 q -6.5332,0 -9.05273,1.49414 -2.51953,1.49414 -2.51953,5.09765 0,2.8711 1.875,4.57032 1.90429,1.66992 5.15625,1.66992 4.48242,0 7.17773,-3.16406 2.72461,-3.19336 2.72461,-8.4668 l 0,-1.20117 -5.36133,0 z m 10.75196,-2.22657 0,18.72071 -5.39063,0 0,-4.98047 q -1.8457,2.98828 -4.59961,4.42383 -2.7539,1.40625 -6.73828,1.40625 -5.03906,0 -8.02734,-2.8125 -2.95899,-2.8418 -2.95899,-7.58789 0,-5.53711 3.69141,-8.34961 3.7207,-2.8125 11.07422,-2.8125 l 7.55859,0 0,-0.52735 q 0,-3.7207 -2.46094,-5.74218 -2.43164,-2.05079 -6.85546,-2.05079 -2.8125,0 -5.47852,0.67383 -2.66602,0.67383 -5.12695,2.02149 l 0,-4.98047 q 2.95898,-1.14258 5.74218,-1.69922 2.78321,-0.58594 5.41993,-0.58594 7.11914,0 10.63476,3.69141 3.51563,3.6914 3.51563,11.1914 z"
           style="font-style:normal;font-variant:normal;font-weight:normal;font-stretch:normal;font-size:60px;font-family:Sans;-inkscape-font-specification:Dingbats;text-align:start;text-anchor:start"
           id="path7612" />
        <path
           d="m 963.25586,400.92995 5.39062,0 0,45.58594 -5.39062,0 0,-45.58594 z"
           style="font-style:normal;font-variant:normal;font-weight:normal;font-stretch:normal;font-size:60px;font-family:Sans;-inkscape-font-specification:Dingbats;text-align:start;text-anchor:start"
           id="path7614" />
        <path
           d="m 1007.9629,428.76198 0,2.63672 -24.78517,0 q 0.35157,5.56641 3.33985,8.49609 3.01758,2.90039 8.3789,2.90039 3.10547,0 6.00582,-0.76171 2.9297,-0.76172 5.8008,-2.28516 l 0,5.09766 q -2.9004,1.23046 -5.9472,1.875 -3.04692,0.64453 -6.18168,0.64453 -7.85156,0 -12.45117,-4.57032 -4.57032,-4.57031 -4.57032,-12.36328 0,-8.05664 4.33594,-12.77343 4.36524,-4.7461 11.74805,-4.7461 6.62108,0 10.45898,4.27735 3.8672,4.24804 3.8672,11.57226 z m -5.3906,-1.58203 q -0.059,-4.42383 -2.4903,-7.06055 -2.40231,-2.63672 -6.38669,-2.63672 -4.51172,0 -7.23633,2.54883 -2.69531,2.54883 -3.10546,7.17774 l 19.21878,-0.0293 z"
           style="font-style:normal;font-variant:normal;font-weight:normal;font-stretch:normal;font-size:60px;font-family:Sans;-inkscape-font-specification:Dingbats;text-align:start;text-anchor:start"
           id="path7616" />
        <path
           d="m 309.05664,489.96315 0,5.03907 q -2.28516,-1.25977 -4.59961,-1.875 -2.28516,-0.64454 -4.62891,-0.64454 -5.24414,0 -8.14453,3.33985 -2.90039,3.31054 -2.90039,9.3164 0,6.00586 2.90039,9.34571 2.90039,3.31054 8.14453,3.31054 2.34375,0 4.62891,-0.61523 2.31445,-0.64453 4.59961,-1.9043 l 0,4.98047 q -2.25586,1.05469 -4.6875,1.58203 -2.40234,0.52735 -5.12695,0.52735 -7.41211,0 -11.77735,-4.65821 -4.36523,-4.6582 -4.36523,-12.56836 0,-8.02734 4.39453,-12.62695 4.42383,-4.59961 12.09961,-4.59961 2.49023,0 4.86328,0.52735 2.37305,0.49804 4.59961,1.52343 z"
           style="font-style:normal;font-variant:normal;font-weight:normal;font-stretch:normal;font-size:60px;font-family:Sans;-inkscape-font-specification:Dingbats;text-align:start;text-anchor:start"
           id="path7618" />
        <path
           d="m 318.49023,475.92995 5.39063,0 0,45.58594 -5.39063,0 0,-45.58594 z"
           style="font-style:normal;font-variant:normal;font-weight:normal;font-stretch:normal;font-size:60px;font-family:Sans;-inkscape-font-specification:Dingbats;text-align:start;text-anchor:start"
           id="path7620" />
        <path
           d="m 335.13086,488.70339 5.39062,0 0,32.8125 -5.39062,0 0,-32.8125 z m 0,-12.77344 5.39062,0 0,6.82617 -5.39062,0 0,-6.82617 z"
           style="font-style:normal;font-variant:normal;font-weight:normal;font-stretch:normal;font-size:60px;font-family:Sans;-inkscape-font-specification:Dingbats;text-align:start;text-anchor:start"
           id="path7622" />
        <path
           d="m 379.83789,503.76198 0,2.63672 -24.78516,0 q 0.35157,5.56641 3.33985,8.49609 3.01758,2.90039 8.3789,2.90039 3.10547,0 6.00586,-0.76171 2.92969,-0.76172 5.80078,-2.28516 l 0,5.09766 q -2.90039,1.23046 -5.94726,1.875 -3.04688,0.64453 -6.18164,0.64453 -7.85156,0 -12.45117,-4.57032 -4.57032,-4.57031 -4.57032,-12.36328 0,-8.05664 4.33594,-12.77343 4.36524,-4.7461 11.74805,-4.7461 6.62109,0 10.45898,4.27735 3.86719,4.24804 3.86719,11.57226 z m -5.39062,-1.58203 q -0.0586,-4.42383 -2.49024,-7.06055 -2.40234,-2.63672 -6.38672,-2.63672 -4.51172,0 -7.23633,2.54883 -2.69531,2.54883 -3.10546,7.17774 l 19.21875,-0.0293 z"
           style="font-style:normal;font-variant:normal;font-weight:normal;font-stretch:normal;font-size:60px;font-family:Sans;-inkscape-font-specification:Dingbats;text-align:start;text-anchor:start"
           id="path7624" />
        <path
           d="m 415.96094,501.7112 0,19.80469 -5.39063,0 0,-19.62891 q 0,-4.6582 -1.8164,-6.97266 -1.81641,-2.31445 -5.44922,-2.31445 -4.36524,0 -6.88477,2.7832 -2.51953,2.78321 -2.51953,7.5879 l 0,18.54492 -5.41992,0 0,-32.8125 5.41992,0 0,5.09765 q 1.93359,-2.95898 4.54102,-4.42382 2.63671,-1.46485 6.06445,-1.46485 5.6543,0 8.55469,3.51563 2.90039,3.48632 2.90039,10.2832 z"
           style="font-style:normal;font-variant:normal;font-weight:normal;font-stretch:normal;font-size:60px;font-family:Sans;-inkscape-font-specification:Dingbats;text-align:start;text-anchor:start"
           id="path7626" />
        <path
           d="m 432.10352,479.38698 0,9.31641 11.10351,0 0,4.18945 -11.10351,0 0,17.8125 q 0,4.01367 1.08398,5.15625 1.11328,1.14258 4.48242,1.14258 l 5.53711,0 0,4.51172 -5.53711,0 q -6.24023,0 -8.61328,-2.31446 -2.37305,-2.34375 -2.37305,-8.49609 l 0,-17.8125 -3.95507,0 0,-4.18945 3.95507,0 0,-9.31641 5.41993,0 z"
           style="font-style:normal;font-variant:normal;font-weight:normal;font-stretch:normal;font-size:60px;font-family:Sans;-inkscape-font-specification:Dingbats;text-align:start;text-anchor:start"
           id="path7628" />
        <path
           d="m 447.60156,502.678 15.79102,0 0,4.80468 -15.79102,0 0,-4.80468 z"
           style="font-style:normal;font-variant:normal;font-weight:normal;font-stretch:normal;font-size:60px;font-family:Sans;-inkscape-font-specification:Dingbats;text-align:start;text-anchor:start"
           id="path7630" />
        <path
           d="m 492.92383,489.67018 0,5.09766 q -2.28516,-1.17187 -4.7461,-1.75781 -2.46093,-0.58594 -5.09765,-0.58594 -4.01367,0 -6.03516,1.23047 -1.99219,1.23047 -1.99219,3.69141 0,1.875 1.43555,2.95898 1.43555,1.05469 5.77149,2.02148 l 1.8457,0.41016 q 5.74219,1.23047 8.14453,3.48633 2.43164,2.22656 2.43164,6.24023 0,4.57032 -3.63281,7.23633 -3.60352,2.66602 -9.93164,2.66602 -2.63672,0 -5.50782,-0.52735 -2.84179,-0.49804 -6.00585,-1.52343 l 0,-5.56641 q 2.98828,1.55273 5.88867,2.34375 2.90039,0.76172 5.74218,0.76172 3.8086,0 5.85938,-1.28906 2.05078,-1.31836 2.05078,-3.69141 0,-2.19727 -1.49414,-3.36914 -1.46484,-1.17188 -6.47461,-2.25586 l -1.875,-0.43945 q -5.00976,-1.05469 -7.23633,-3.22266 -2.22656,-2.19727 -2.22656,-6.00586 0,-4.62891 3.28125,-7.14844 3.28125,-2.51953 9.31641,-2.51953 2.98828,0 5.625,0.43945 2.63672,0.43946 4.86328,1.31836 z"
           style="font-style:normal;font-variant:normal;font-weight:normal;font-stretch:normal;font-size:60px;font-family:Sans;-inkscape-font-specification:Dingbats;text-align:start;text-anchor:start"
           id="path7632" />
        <path
           d="m 503.29492,488.70339 5.39063,0 0,32.8125 -5.39063,0 0,-32.8125 z m 0,-12.77344 5.39063,0 0,6.82617 -5.39063,0 0,-6.82617 z"
           style="font-style:normal;font-variant:normal;font-weight:normal;font-stretch:normal;font-size:60px;font-family:Sans;-inkscape-font-specification:Dingbats;text-align:start;text-anchor:start"
           id="path7634" />
        <path
           d="m 541.52734,493.68386 0,-17.75391 5.39063,0 0,45.58594 -5.39063,0 0,-4.92188 q -1.69922,2.92969 -4.30664,4.36524 -2.57812,1.40625 -6.21093,1.40625 -5.94727,0 -9.69727,-4.7461 -3.7207,-4.74609 -3.7207,-12.48047 0,-7.73437 3.7207,-12.48046 3.75,-4.7461 9.69727,-4.7461 3.63281,0 6.21093,1.43555 2.60742,1.40625 4.30664,4.33594 z m -18.36914,11.45507 q 0,5.94727 2.43164,9.34571 2.46094,3.36914 6.73828,3.36914 4.27735,0 6.73829,-3.36914 2.46093,-3.39844 2.46093,-9.34571 0,-5.94726 -2.46093,-9.3164 -2.46094,-3.39844 -6.73829,-3.39844 -4.27734,0 -6.73828,3.39844 -2.43164,3.36914 -2.43164,9.3164 z"
           style="font-style:normal;font-variant:normal;font-weight:normal;font-stretch:normal;font-size:60px;font-family:Sans;-inkscape-font-specification:Dingbats;text-align:start;text-anchor:start"
           id="path7636" />
        <path
           d="m 586.08789,503.76198 0,2.63672 -24.78516,0 q 0.35157,5.56641 3.33985,8.49609 3.01758,2.90039 8.3789,2.90039 3.10547,0 6.00586,-0.76171 2.92969,-0.76172 5.80078,-2.28516 l 0,5.09766 q -2.90039,1.23046 -5.94726,1.875 -3.04688,0.64453 -6.18164,0.64453 -7.85156,0 -12.45117,-4.57032 -4.57032,-4.57031 -4.57032,-12.36328 0,-8.05664 4.33594,-12.77343 4.36524,-4.7461 11.74805,-4.7461 6.62109,0 10.45898,4.27735 3.86719,4.24804 3.86719,11.57226 z m -5.39062,-1.58203 q -0.0586,-4.42383 -2.49024,-7.06055 -2.40234,-2.63672 -6.38672,-2.63672 -4.51172,0 -7.23633,2.54883 -2.69531,2.54883 -3.10546,7.17774 l 19.21875,-0.0293 z"
           style="font-style:normal;font-variant:normal;font-weight:normal;font-stretch:normal;font-size:60px;font-family:Sans;-inkscape-font-specification:Dingbats;text-align:start;text-anchor:start"
           id="path7638" />
        <path
           d="m 610.90234,488.70339 5.39063,0 6.73828,25.60547 6.70898,-25.60547 6.35743,0 6.73828,25.60547 6.70898,-25.60547 5.39063,0 -8.58399,32.8125 -6.35742,0 -7.06055,-26.89453 -7.08984,26.89453 -6.35742,0 -8.58399,-32.8125 z"
           style="font-style:normal;font-variant:normal;font-weight:normal;font-stretch:normal;font-size:60px;font-family:Sans;-inkscape-font-specification:Dingbats;text-align:start;text-anchor:start"
           id="path7640" />
        <path
           d="m 691.20508,503.76198 0,2.63672 -24.78516,0 q 0.35156,5.56641 3.33985,8.49609 3.01757,2.90039 8.3789,2.90039 3.10547,0 6.00586,-0.76171 2.92969,-0.76172 5.80078,-2.28516 l 0,5.09766 q -2.90039,1.23046 -5.94726,1.875 -3.04688,0.64453 -6.18164,0.64453 -7.85157,0 -12.45118,-4.57032 -4.57031,-4.57031 -4.57031,-12.36328 0,-8.05664 4.33594,-12.77343 4.36523,-4.7461 11.74805,-4.7461 6.62109,0 10.45898,4.27735 3.86719,4.24804 3.86719,11.57226 z m -5.39063,-1.58203 q -0.0586,-4.42383 -2.49023,-7.06055 -2.40235,-2.63672 -6.38672,-2.63672 -4.51172,0 -7.23633,2.54883 -2.69531,2.54883 -3.10547,7.17774 l 19.21875,-0.0293 z"
           style="font-style:normal;font-variant:normal;font-weight:normal;font-stretch:normal;font-size:60px;font-family:Sans;-inkscape-font-specification:Dingbats;text-align:start;text-anchor:start"
           id="path7642" />
        <path
           d="m 723.60742,505.13893 q 0,-5.94726 -2.46094,-9.3164 -2.43164,-3.39844 -6.70898,-3.39844 -4.27734,0 -6.73828,3.39844 -2.43164,3.36914 -2.43164,9.3164 0,5.94727 2.43164,9.34571 2.46094,3.36914 6.73828,3.36914 4.27734,0 6.70898,-3.36914 2.46094,-3.39844 2.46094,-9.34571 z m -18.33984,-11.45507 q 1.69922,-2.92969 4.27734,-4.33594 2.60742,-1.43555 6.21094,-1.43555 5.97656,0 9.69726,4.7461 3.75,4.74609 3.75,12.48046 0,7.73438 -3.75,12.48047 -3.7207,4.7461 -9.69726,4.7461 -3.60352,0 -6.21094,-1.40625 -2.57812,-1.43555 -4.27734,-4.36524 l 0,4.92188 -5.41992,0 0,-45.58594 5.41992,0 0,17.75391 z"
           style="font-style:normal;font-variant:normal;font-weight:normal;font-stretch:normal;font-size:60px;font-family:Sans;-inkscape-font-specification:Dingbats;text-align:start;text-anchor:start"
           id="path7644" />
        <path
           d="m 778.83203,493.68386 0,-17.75391 5.39063,0 0,45.58594 -5.39063,0 0,-4.92188 q -1.69922,2.92969 -4.30664,4.36524 -2.57812,1.40625 -6.21094,1.40625 -5.94726,0 -9.69726,-4.7461 -3.72071,-4.74609 -3.72071,-12.48047 0,-7.73437 3.72071,-12.48046 3.75,-4.7461 9.69726,-4.7461 3.63282,0 6.21094,1.43555 2.60742,1.40625 4.30664,4.33594 z m -18.36914,11.45507 q 0,5.94727 2.43164,9.34571 2.46094,3.36914 6.73828,3.36914 4.27735,0 6.73828,-3.36914 2.46094,-3.39844 2.46094,-9.34571 0,-5.94726 -2.46094,-9.3164 -2.46093,-3.39844 -6.73828,-3.39844 -4.27734,0 -6.73828,3.39844 -2.43164,3.36914 -2.43164,9.3164 z"
           style="font-style:normal;font-variant:normal;font-weight:normal;font-stretch:normal;font-size:60px;font-family:Sans;-inkscape-font-specification:Dingbats;text-align:start;text-anchor:start"
           id="path7646" />
        <path
           d="m 823.39258,503.76198 0,2.63672 -24.78516,0 q 0.35156,5.56641 3.33985,8.49609 3.01757,2.90039 8.3789,2.90039 3.10547,0 6.00586,-0.76171 2.92969,-0.76172 5.80078,-2.28516 l 0,5.09766 q -2.90039,1.23046 -5.94726,1.875 -3.04688,0.64453 -6.18164,0.64453 -7.85157,0 -12.45118,-4.57032 -4.57031,-4.57031 -4.57031,-12.36328 0,-8.05664 4.33594,-12.77343 4.36523,-4.7461 11.74805,-4.7461 6.62109,0 10.45898,4.27735 3.86719,4.24804 3.86719,11.57226 z m -5.39063,-1.58203 q -0.0586,-4.42383 -2.49023,-7.06055 -2.40235,-2.63672 -6.38672,-2.63672 -4.51172,0 -7.23633,2.54883 -2.69531,2.54883 -3.10547,7.17774 l 19.21875,-0.0293 z"
           style="font-style:normal;font-variant:normal;font-weight:normal;font-stretch:normal;font-size:60px;font-family:Sans;-inkscape-font-specification:Dingbats;text-align:start;text-anchor:start"
           id="path7648" />
        <path
           d="m 828.37305,488.70339 5.71289,0 10.2539,27.53906 10.25391,-27.53906 5.71289,0 -12.30469,32.8125 -7.32422,0 -12.30468,-32.8125 z"
           style="font-style:normal;font-variant:normal;font-weight:normal;font-stretch:normal;font-size:60px;font-family:Sans;-inkscape-font-specification:Dingbats;text-align:start;text-anchor:start"
           id="path7650" />
        <path
           d="m 895.81445,503.76198 0,2.63672 -24.78515,0 q 0.35156,5.56641 3.33984,8.49609 3.01758,2.90039 8.37891,2.90039 3.10547,0 6.00586,-0.76171 2.92968,-0.76172 5.80078,-2.28516 l 0,5.09766 q -2.90039,1.23046 -5.94727,1.875 -3.04687,0.64453 -6.18164,0.64453 -7.85156,0 -12.45117,-4.57032 -4.57031,-4.57031 -4.57031,-12.36328 0,-8.05664 4.33593,-12.77343 4.36524,-4.7461 11.74805,-4.7461 6.62109,0 10.45899,4.27735 3.86718,4.24804 3.86718,11.57226 z m -5.39062,-1.58203 q -0.0586,-4.42383 -2.49024,-7.06055 -2.40234,-2.63672 -6.38672,-2.63672 -4.51171,0 -7.23632,2.54883 -2.69532,2.54883 -3.10547,7.17774 l 19.21875,-0.0293 z"
           style="font-style:normal;font-variant:normal;font-weight:normal;font-stretch:normal;font-size:60px;font-family:Sans;-inkscape-font-specification:Dingbats;text-align:start;text-anchor:start"
           id="path7652" />
        <path
           d="m 904.66211,475.92995 5.39062,0 0,45.58594 -5.39062,0 0,-45.58594 z"
           style="font-style:normal;font-variant:normal;font-weight:normal;font-stretch:normal;font-size:60px;font-family:Sans;-inkscape-font-specification:Dingbats;text-align:start;text-anchor:start"
           id="path7654" />
        <path
           d="m 934.01758,492.48268 q -4.33594,0 -6.85547,3.39844 -2.51953,3.36914 -2.51953,9.25781 0,5.88868 2.49023,9.28711 2.51953,3.36914 6.88477,3.36914 4.30664,0 6.82617,-3.39843 2.51953,-3.39844 2.51953,-9.25782 0,-5.83007 -2.51953,-9.22851 -2.51953,-3.42774 -6.82617,-3.42774 z m 0,-4.57031 q 7.03125,0 11.04492,4.57031 4.01367,4.57032 4.01367,12.65625 0,8.05664 -4.01367,12.65625 -4.01367,4.57032 -11.04492,4.57032 -7.06055,0 -11.07422,-4.57032 -3.98438,-4.59961 -3.98438,-12.65625 0,-8.08593 3.98438,-12.65625 4.01367,-4.57031 11.07422,-4.57031 z"
           style="font-style:normal;font-variant:normal;font-weight:normal;font-stretch:normal;font-size:60px;font-family:Sans;-inkscape-font-specification:Dingbats;text-align:start;text-anchor:start"
           id="path7656" />
        <path
           d="m 963.19727,516.59401 0,17.40235 -5.41993,0 0,-45.29297 5.41993,0 0,4.98047 q 1.69921,-2.92969 4.27734,-4.33594 2.60742,-1.43555 6.21094,-1.43555 5.97656,0 9.69726,4.7461 3.75,4.74609 3.75,12.48046 0,7.73438 -3.75,12.48047 -3.7207,4.7461 -9.69726,4.7461 -3.60352,0 -6.21094,-1.40625 -2.57813,-1.43555 -4.27734,-4.36524 z m 18.33984,-11.45508 q 0,-5.94726 -2.46094,-9.3164 -2.43164,-3.39844 -6.70898,-3.39844 -4.27735,0 -6.73828,3.39844 -2.43164,3.36914 -2.43164,9.3164 0,5.94727 2.43164,9.34571 2.46093,3.36914 6.73828,3.36914 4.27734,0 6.70898,-3.36914 2.46094,-3.39844 2.46094,-9.34571 z"
           style="font-style:normal;font-variant:normal;font-weight:normal;font-stretch:normal;font-size:60px;font-family:Sans;-inkscape-font-specification:Dingbats;text-align:start;text-anchor:start"
           id="path7658" />
        <path
           d="m 1021.6152,495.00222 q 2.0215,-3.63282 4.834,-5.36133 2.8125,-1.72852 6.6211,-1.72852 5.127,0 7.9102,3.60352 2.7832,3.57422 2.7832,10.19531 l 0,19.80469 -5.4199,0 0,-19.62891 q 0,-4.7168 -1.67,-7.00195 -1.6699,-2.28516 -5.0976,-2.28516 -4.1895,0 -6.6211,2.7832 -2.4317,2.78321 -2.4317,7.5879 l 0,18.54492 -5.4199,0 0,-19.62891 q 0,-4.74609 -1.6699,-7.00195 -1.6699,-2.28516 -5.1563,-2.28516 -4.1308,0 -6.5625,2.8125 -2.4316,2.7832 -2.4316,7.5586 l 0,18.54492 -5.41992,0 0,-32.8125 5.41992,0 0,5.09765 q 1.8457,-3.01757 4.4238,-4.45312 2.5782,-1.43555 6.1231,-1.43555 3.5742,0 6.0644,1.81641 2.5196,1.8164 3.7207,5.27344 z"
           style="font-style:normal;font-variant:normal;font-weight:normal;font-stretch:normal;font-size:60px;font-family:Sans;-inkscape-font-specification:Dingbats;text-align:start;text-anchor:start"
           id="path7660" />
        <path
           d="m 1082.6113,503.76198 0,2.63672 -24.7851,0 q 0.3515,5.56641 3.3398,8.49609 3.0176,2.90039 8.3789,2.90039 3.1055,0 6.0059,-0.76171 2.9297,-0.76172 5.8008,-2.28516 l 0,5.09766 q -2.9004,1.23046 -5.9473,1.875 -3.0469,0.64453 -6.1816,0.64453 -7.8516,0 -12.4512,-4.57032 -4.5703,-4.57031 -4.5703,-12.36328 0,-8.05664 4.3359,-12.77343 4.3652,-4.7461 11.7481,-4.7461 6.6211,0 10.4589,4.27735 3.8672,4.24804 3.8672,11.57226 z m -5.3906,-1.58203 q -0.059,-4.42383 -2.4902,-7.06055 -2.4024,-2.63672 -6.3867,-2.63672 -4.5118,0 -7.2364,2.54883 -2.6953,2.54883 -3.1054,7.17774 l 19.2187,-0.0293 z"
           style="font-style:normal;font-variant:normal;font-weight:normal;font-stretch:normal;font-size:60px;font-family:Sans;-inkscape-font-specification:Dingbats;text-align:start;text-anchor:start"
           id="path7662" />
        <path
           d="m 1118.7344,501.7112 0,19.80469 -5.3906,0 0,-19.62891 q 0,-4.6582 -1.8165,-6.97266 -1.8164,-2.31445 -5.4492,-2.31445 -4.3652,0 -6.8847,2.7832 -2.5196,2.78321 -2.5196,7.5879 l 0,18.54492 -5.4199,0 0,-32.8125 5.4199,0 0,5.09765 q 1.9336,-2.95898 4.541,-4.42382 2.6368,-1.46485 6.0645,-1.46485 5.6543,0 8.5547,3.51563 2.9004,3.48632 2.9004,10.2832 z"
           style="font-style:normal;font-variant:normal;font-weight:normal;font-stretch:normal;font-size:60px;font-family:Sans;-inkscape-font-specification:Dingbats;text-align:start;text-anchor:start"
           id="path7664" />
        <path
           d="m 1134.877,479.38698 0,9.31641 11.1035,0 0,4.18945 -11.1035,0 0,17.8125 q 0,4.01367 1.0839,5.15625 1.1133,1.14258 4.4825,1.14258 l 5.5371,0 0,4.51172 -5.5371,0 q -6.2403,0 -8.6133,-2.31446 -2.3731,-2.34375 -2.3731,-8.49609 l 0,-17.8125 -3.955,0 0,-4.18945 3.955,0 0,-9.31641 5.42,0 z"
           style="font-style:normal;font-variant:normal;font-weight:normal;font-stretch:normal;font-size:60px;font-family:Sans;-inkscape-font-specification:Dingbats;text-align:start;text-anchor:start"
           id="path7666" />
        <path
           d="m 296.95703,596.51589 -16.69922,-43.74024 6.18164,0 13.85742,36.82617 13.88672,-36.82617 6.15235,0 -16.66992,43.74024 -6.70899,0 z"
           style="font-style:normal;font-variant:normal;font-weight:normal;font-stretch:normal;font-size:60px;font-family:Sans;-inkscape-font-specification:Dingbats;text-align:start;text-anchor:start"
           id="path7668" />
        <path
           d="m 349.83789,578.76198 0,2.63672 -24.78516,0 q 0.35157,5.56641 3.33985,8.49609 3.01758,2.90039 8.3789,2.90039 3.10547,0 6.00586,-0.76171 2.92969,-0.76172 5.80078,-2.28516 l 0,5.09766 q -2.90039,1.23046 -5.94726,1.875 -3.04688,0.64453 -6.18164,0.64453 -7.85156,0 -12.45117,-4.57032 -4.57032,-4.57031 -4.57032,-12.36328 0,-8.05664 4.33594,-12.77343 4.36524,-4.7461 11.74805,-4.7461 6.62109,0 10.45898,4.27735 3.86719,4.24804 3.86719,11.57226 z m -5.39062,-1.58203 q -0.0586,-4.42383 -2.49024,-7.06055 -2.40234,-2.63672 -6.38672,-2.63672 -4.51172,0 -7.23633,2.54883 -2.69531,2.54883 -3.10546,7.17774 l 19.21875,-0.0293 z"
           style="font-style:normal;font-variant:normal;font-weight:normal;font-stretch:normal;font-size:60px;font-family:Sans;-inkscape-font-specification:Dingbats;text-align:start;text-anchor:start"
           id="path7670" />
        <path
           d="m 377.69922,568.74245 q -0.9082,-0.52734 -1.99219,-0.76172 -1.05469,-0.26367 -2.34375,-0.26367 -4.57031,0 -7.03125,2.98828 -2.43164,2.95898 -2.43164,8.52539 l 0,17.28516 -5.41992,0 0,-32.8125 5.41992,0 0,5.09765 q 1.69922,-2.98828 4.42383,-4.42382 2.72461,-1.46485 6.62109,-1.46485 0.55664,0 1.23047,0.0879 0.67383,0.0586 1.49414,0.20508 l 0.0293,5.53711 z"
           style="font-style:normal;font-variant:normal;font-weight:normal;font-stretch:normal;font-size:60px;font-family:Sans;-inkscape-font-specification:Dingbats;text-align:start;text-anchor:start"
           id="path7672" />
        <path
           d="m 397.06445,599.56276 q -2.28515,5.85938 -4.45312,7.64649 -2.16797,1.78711 -5.80078,1.78711 l -4.30664,0 0,-4.51172 3.16406,0 q 2.22656,0 3.45703,-1.05469 1.23047,-1.05469 2.72461,-4.98047 l 0.9668,-2.46094 -13.27149,-32.28515 5.71289,0 10.25391,25.66406 10.2539,-25.66406 5.7129,0 -14.41407,35.85937 z"
           style="font-style:normal;font-variant:normal;font-weight:normal;font-stretch:normal;font-size:60px;font-family:Sans;-inkscape-font-specification:Dingbats;text-align:start;text-anchor:start"
           id="path7674" />
        <path
           d="m 463.56836,570.00222 q 2.02148,-3.63282 4.83398,-5.36133 2.8125,-1.72852 6.6211,-1.72852 5.12695,0 7.91015,3.60352 2.78321,3.57422 2.78321,10.19531 l 0,19.80469 -5.41993,0 0,-19.62891 q 0,-4.7168 -1.66992,-7.00195 -1.66992,-2.28516 -5.09765,-2.28516 -4.18946,0 -6.6211,2.7832 -2.43164,2.78321 -2.43164,7.5879 l 0,18.54492 -5.41992,0 0,-19.62891 q 0,-4.74609 -1.66992,-7.00195 -1.66992,-2.28516 -5.15625,-2.28516 -4.13086,0 -6.5625,2.8125 -2.43164,2.7832 -2.43164,7.5586 l 0,18.54492 -5.41992,0 0,-32.8125 5.41992,0 0,5.09765 q 1.8457,-3.01757 4.42383,-4.45312 2.57812,-1.43555 6.12304,-1.43555 3.57422,0 6.06446,1.81641 2.51953,1.8164 3.7207,5.27344 z"
           style="font-style:normal;font-variant:normal;font-weight:normal;font-stretch:normal;font-size:60px;font-family:Sans;-inkscape-font-specification:Dingbats;text-align:start;text-anchor:start"
           id="path7676" />
        <path
           d="m 511.41016,580.02175 q -6.53321,0 -9.05274,1.49414 -2.51953,1.49414 -2.51953,5.09765 0,2.8711 1.875,4.57032 1.9043,1.66992 5.15625,1.66992 4.48242,0 7.17773,-3.16406 2.72461,-3.19336 2.72461,-8.4668 l 0,-1.20117 -5.36132,0 z m 10.75195,-2.22657 0,18.72071 -5.39063,0 0,-4.98047 q -1.8457,2.98828 -4.59961,4.42383 -2.7539,1.40625 -6.73828,1.40625 -5.03906,0 -8.02734,-2.8125 -2.95898,-2.8418 -2.95898,-7.58789 0,-5.53711 3.6914,-8.34961 3.7207,-2.8125 11.07422,-2.8125 l 7.55859,0 0,-0.52735 q 0,-3.7207 -2.46093,-5.74218 -2.43164,-2.05079 -6.85547,-2.05079 -2.8125,0 -5.47852,0.67383 -2.66601,0.67383 -5.12695,2.02149 l 0,-4.98047 q 2.95898,-1.14258 5.74219,-1.69922 2.7832,-0.58594 5.41992,-0.58594 7.11914,0 10.63476,3.69141 3.51563,3.6914 3.51563,11.1914 z"
           style="font-style:normal;font-variant:normal;font-weight:normal;font-stretch:normal;font-size:60px;font-family:Sans;-inkscape-font-specification:Dingbats;text-align:start;text-anchor:start"
           id="path7678" />
        <path
           d="m 538.62695,554.38698 0,9.31641 11.10352,0 0,4.18945 -11.10352,0 0,17.8125 q 0,4.01367 1.08399,5.15625 1.11328,1.14258 4.48242,1.14258 l 5.53711,0 0,4.51172 -5.53711,0 q -6.24024,0 -8.61328,-2.31446 -2.37305,-2.34375 -2.37305,-8.49609 l 0,-17.8125 -3.95508,0 0,-4.18945 3.95508,0 0,-9.31641 5.41992,0 z"
           style="font-style:normal;font-variant:normal;font-weight:normal;font-stretch:normal;font-size:60px;font-family:Sans;-inkscape-font-specification:Dingbats;text-align:start;text-anchor:start"
           id="path7680" />
        <path
           d="m 556.29297,583.56667 0,-19.86328 5.39062,0 0,19.6582 q 0,4.6582 1.81641,7.00195 1.81641,2.31446 5.44922,2.31446 4.36523,0 6.88476,-2.78321 2.54883,-2.7832 2.54883,-7.58789 l 0,-18.60351 5.39063,0 0,32.8125 -5.39063,0 0,-5.03907 q -1.96289,2.98829 -4.57031,4.45313 -2.57813,1.43555 -6.00586,1.43555 -5.6543,0 -8.58398,-3.51563 -2.92969,-3.51562 -2.92969,-10.2832 z m 13.56445,-20.6543 0,0 z"
           style="font-style:normal;font-variant:normal;font-weight:normal;font-stretch:normal;font-size:60px;font-family:Sans;-inkscape-font-specification:Dingbats;text-align:start;text-anchor:start"
           id="path7682" />
        <path
           d="m 613.94922,568.74245 q -0.9082,-0.52734 -1.99219,-0.76172 -1.05469,-0.26367 -2.34375,-0.26367 -4.57031,0 -7.03125,2.98828 -2.43164,2.95898 -2.43164,8.52539 l 0,17.28516 -5.41992,0 0,-32.8125 5.41992,0 0,5.09765 q 1.69922,-2.98828 4.42383,-4.42382 2.72461,-1.46485 6.62109,-1.46485 0.55664,0 1.23047,0.0879 0.67383,0.0586 1.49414,0.20508 l 0.0293,5.53711 z"
           style="font-style:normal;font-variant:normal;font-weight:normal;font-stretch:normal;font-size:60px;font-family:Sans;-inkscape-font-specification:Dingbats;text-align:start;text-anchor:start"
           id="path7684" />
        <path
           d="m 646.43945,578.76198 0,2.63672 -24.78515,0 q 0.35156,5.56641 3.33984,8.49609 3.01758,2.90039 8.37891,2.90039 3.10547,0 6.00586,-0.76171 2.92968,-0.76172 5.80078,-2.28516 l 0,5.09766 q -2.90039,1.23046 -5.94727,1.875 -3.04687,0.64453 -6.18164,0.64453 -7.85156,0 -12.45117,-4.57032 -4.57031,-4.57031 -4.57031,-12.36328 0,-8.05664 4.33593,-12.77343 4.36524,-4.7461 11.74805,-4.7461 6.62109,0 10.45899,4.27735 3.86718,4.24804 3.86718,11.57226 z m -5.39062,-1.58203 q -0.0586,-4.42383 -2.49024,-7.06055 -2.40234,-2.63672 -6.38672,-2.63672 -4.51171,0 -7.23632,2.54883 -2.69532,2.54883 -3.10547,7.17774 l 19.21875,-0.0293 z"
           style="font-style:normal;font-variant:normal;font-weight:normal;font-stretch:normal;font-size:60px;font-family:Sans;-inkscape-font-specification:Dingbats;text-align:start;text-anchor:start"
           id="path7686" />
        <path
           d="m 689.30078,580.02175 q -6.5332,0 -9.05273,1.49414 -2.51953,1.49414 -2.51953,5.09765 0,2.8711 1.875,4.57032 1.90429,1.66992 5.15625,1.66992 4.48242,0 7.17773,-3.16406 2.72461,-3.19336 2.72461,-8.4668 l 0,-1.20117 -5.36133,0 z m 10.75195,-2.22657 0,18.72071 -5.39062,0 0,-4.98047 q -1.8457,2.98828 -4.59961,4.42383 -2.75391,1.40625 -6.73828,1.40625 -5.03906,0 -8.02735,-2.8125 -2.95898,-2.8418 -2.95898,-7.58789 0,-5.53711 3.69141,-8.34961 3.7207,-2.8125 11.07422,-2.8125 l 7.55859,0 0,-0.52735 q 0,-3.7207 -2.46094,-5.74218 -2.43164,-2.05079 -6.85547,-2.05079 -2.8125,0 -5.47851,0.67383 -2.66602,0.67383 -5.12696,2.02149 l 0,-4.98047 q 2.95899,-1.14258 5.74219,-1.69922 2.7832,-0.58594 5.41992,-0.58594 7.11914,0 10.63477,3.69141 3.51562,3.6914 3.51562,11.1914 z"
           style="font-style:normal;font-variant:normal;font-weight:normal;font-stretch:normal;font-size:60px;font-family:Sans;-inkscape-font-specification:Dingbats;text-align:start;text-anchor:start"
           id="path7688" />
        <path
           d="m 738.46094,576.7112 0,19.80469 -5.39063,0 0,-19.62891 q 0,-4.6582 -1.8164,-6.97266 -1.81641,-2.31445 -5.44922,-2.31445 -4.36524,0 -6.88477,2.7832 -2.51953,2.78321 -2.51953,7.5879 l 0,18.54492 -5.41992,0 0,-32.8125 5.41992,0 0,5.09765 q 1.93359,-2.95898 4.54102,-4.42382 2.63671,-1.46485 6.06445,-1.46485 5.6543,0 8.55469,3.51563 2.90039,3.48632 2.90039,10.2832 z"
           style="font-style:normal;font-variant:normal;font-weight:normal;font-stretch:normal;font-size:60px;font-family:Sans;-inkscape-font-specification:Dingbats;text-align:start;text-anchor:start"
           id="path7690" />
        <path
           d="m 770.86328,568.68386 0,-17.75391 5.39063,0 0,45.58594 -5.39063,0 0,-4.92188 q -1.69922,2.92969 -4.30664,4.36524 -2.57812,1.40625 -6.21094,1.40625 -5.94726,0 -9.69726,-4.7461 -3.72071,-4.74609 -3.72071,-12.48047 0,-7.73437 3.72071,-12.48046 3.75,-4.7461 9.69726,-4.7461 3.63282,0 6.21094,1.43555 2.60742,1.40625 4.30664,4.33594 z m -18.36914,11.45507 q 0,5.94727 2.43164,9.34571 2.46094,3.36914 6.73828,3.36914 4.27735,0 6.73828,-3.36914 2.46094,-3.39844 2.46094,-9.34571 0,-5.94726 -2.46094,-9.3164 -2.46093,-3.39844 -6.73828,-3.39844 -4.27734,0 -6.73828,3.39844 -2.43164,3.36914 -2.43164,9.3164 z"
           style="font-style:normal;font-variant:normal;font-weight:normal;font-stretch:normal;font-size:60px;font-family:Sans;-inkscape-font-specification:Dingbats;text-align:start;text-anchor:start"
           id="path7692" />
        <path
           d="m 827.37695,564.67018 0,5.09766 q -2.28515,-1.17187 -4.74609,-1.75781 -2.46094,-0.58594 -5.09766,-0.58594 -4.01367,0 -6.03515,1.23047 -1.99219,1.23047 -1.99219,3.69141 0,1.875 1.43555,2.95898 1.43554,1.05469 5.77148,2.02148 l 1.8457,0.41016 q 5.74219,1.23047 8.14453,3.48633 2.43165,2.22656 2.43165,6.24023 0,4.57032 -3.63282,7.23633 -3.60351,2.66602 -9.93164,2.66602 -2.63672,0 -5.50781,-0.52735 -2.8418,-0.49804 -6.00586,-1.52343 l 0,-5.56641 q 2.98828,1.55273 5.88867,2.34375 2.90039,0.76172 5.74219,0.76172 3.80859,0 5.85937,-1.28906 2.05079,-1.31836 2.05079,-3.69141 0,-2.19727 -1.49414,-3.36914 -1.46485,-1.17188 -6.47461,-2.25586 l -1.875,-0.43945 q -5.00977,-1.05469 -7.23633,-3.22266 -2.22656,-2.19727 -2.22656,-6.00586 0,-4.62891 3.28125,-7.14844 3.28125,-2.51953 9.3164,-2.51953 2.98828,0 5.625,0.43945 2.63672,0.43946 4.86328,1.31836 z"
           style="font-style:normal;font-variant:normal;font-weight:normal;font-stretch:normal;font-size:60px;font-family:Sans;-inkscape-font-specification:Dingbats;text-align:start;text-anchor:start"
           id="path7694" />
        <path
           d="m 843.08008,554.38698 0,9.31641 11.10351,0 0,4.18945 -11.10351,0 0,17.8125 q 0,4.01367 1.08398,5.15625 1.11328,1.14258 4.48242,1.14258 l 5.53711,0 0,4.51172 -5.53711,0 q -6.24023,0 -8.61328,-2.31446 -2.37304,-2.34375 -2.37304,-8.49609 l 0,-17.8125 -3.95508,0 0,-4.18945 3.95508,0 0,-9.31641 5.41992,0 z"
           style="font-style:normal;font-variant:normal;font-weight:normal;font-stretch:normal;font-size:60px;font-family:Sans;-inkscape-font-specification:Dingbats;text-align:start;text-anchor:start"
           id="path7696" />
        <path
           d="m 876.21484,580.02175 q -6.5332,0 -9.05273,1.49414 -2.51953,1.49414 -2.51953,5.09765 0,2.8711 1.875,4.57032 1.90429,1.66992 5.15625,1.66992 4.48242,0 7.17773,-3.16406 2.72461,-3.19336 2.72461,-8.4668 l 0,-1.20117 -5.36133,0 z m 10.75196,-2.22657 0,18.72071 -5.39063,0 0,-4.98047 q -1.8457,2.98828 -4.59961,4.42383 -2.7539,1.40625 -6.73828,1.40625 -5.03906,0 -8.02734,-2.8125 -2.95899,-2.8418 -2.95899,-7.58789 0,-5.53711 3.69141,-8.34961 3.7207,-2.8125 11.07422,-2.8125 l 7.55859,0 0,-0.52735 q 0,-3.7207 -2.46094,-5.74218 -2.43164,-2.05079 -6.85546,-2.05079 -2.8125,0 -5.47852,0.67383 -2.66602,0.67383 -5.12695,2.02149 l 0,-4.98047 q 2.95898,-1.14258 5.74218,-1.69922 2.78321,-0.58594 5.41993,-0.58594 7.11914,0 10.63476,3.69141 3.51563,3.6914 3.51563,11.1914 z"
           style="font-style:normal;font-variant:normal;font-weight:normal;font-stretch:normal;font-size:60px;font-family:Sans;-inkscape-font-specification:Dingbats;text-align:start;text-anchor:start"
           id="path7698" />
        <path
           d="m 921.6543,580.13893 q 0,-5.94726 -2.46094,-9.3164 -2.43164,-3.39844 -6.70899,-3.39844 -4.27734,0 -6.73828,3.39844 -2.43164,3.36914 -2.43164,9.3164 0,5.94727 2.43164,9.34571 2.46094,3.36914 6.73828,3.36914 4.27735,0 6.70899,-3.36914 2.46094,-3.39844 2.46094,-9.34571 z m -18.33985,-11.45507 q 1.69922,-2.92969 4.27735,-4.33594 2.60742,-1.43555 6.21093,-1.43555 5.97657,0 9.69727,4.7461 3.75,4.74609 3.75,12.48046 0,7.73438 -3.75,12.48047 -3.7207,4.7461 -9.69727,4.7461 -3.60351,0 -6.21093,-1.40625 -2.57813,-1.43555 -4.27735,-4.36524 l 0,4.92188 -5.41992,0 0,-45.58594 5.41992,0 0,17.75391 z"
           style="font-style:normal;font-variant:normal;font-weight:normal;font-stretch:normal;font-size:60px;font-family:Sans;-inkscape-font-specification:Dingbats;text-align:start;text-anchor:start"
           id="path7700" />
        <path
           d="m 936.18555,550.92995 5.39062,0 0,45.58594 -5.39062,0 0,-45.58594 z"
           style="font-style:normal;font-variant:normal;font-weight:normal;font-stretch:normal;font-size:60px;font-family:Sans;-inkscape-font-specification:Dingbats;text-align:start;text-anchor:start"
           id="path7702" />
        <path
           d="m 980.89258,578.76198 0,2.63672 -24.78516,0 q 0.35156,5.56641 3.33985,8.49609 3.01757,2.90039 8.3789,2.90039 3.10547,0 6.00586,-0.76171 2.92969,-0.76172 5.80078,-2.28516 l 0,5.09766 q -2.90039,1.23046 -5.94726,1.875 -3.04688,0.64453 -6.18164,0.64453 -7.85157,0 -12.45118,-4.57032 -4.57031,-4.57031 -4.57031,-12.36328 0,-8.05664 4.33594,-12.77343 4.36523,-4.7461 11.74805,-4.7461 6.62109,0 10.45898,4.27735 3.86719,4.24804 3.86719,11.57226 z m -5.39063,-1.58203 q -0.0586,-4.42383 -2.49023,-7.06055 -2.40235,-2.63672 -6.38672,-2.63672 -4.51172,0 -7.23633,2.54883 -2.69531,2.54883 -3.10547,7.17774 l 19.21875,-0.0293 z"
           style="font-style:normal;font-variant:normal;font-weight:normal;font-stretch:normal;font-size:60px;font-family:Sans;-inkscape-font-specification:Dingbats;text-align:start;text-anchor:start"
           id="path7704" />
      </g>
      <path
         style="fill:none;fill-opacity:1;stroke:#000000;stroke-width:1.99999988;stroke-miterlimit:4;stroke-dasharray:none;stroke-opacity:1"
         d="m 105.14285,450.79074 a 13,13 0 0 1 -12.999997,13 13,13 0 0 1 -13,-13 13,13 0 0 1 13,-13 13,13 0 0 1 12.999997,13 z"
         id="path5137" />
      <path
         style="fill:none;fill-opacity:1;stroke:#000000;stroke-width:1.99999988;stroke-miterlimit:4;stroke-dasharray:none;stroke-opacity:1"
         d="m 105.14285,526.20972 a 13,13 0 0 1 -12.999997,13 13,13 0 0 1 -13,-13 13,13 0 0 1 13,-13 13,13 0 0 1 12.999997,13 z"
         id="path5137-8" />
      <path
         style="fill:none;fill-opacity:1;stroke:#000000;stroke-width:1.99999988;stroke-miterlimit:4;stroke-dasharray:none;stroke-opacity:1"
         d="m 105.14285,600.98132 a 13,13 0 0 1 -12.999997,13 13,13 0 0 1 -13,-13 13,13 0 0 1 13,-13 13,13 0 0 1 12.999997,13 z"
         id="path5137-0" />
      <path
         style="fill:none;fill-opacity:1;stroke:#000000;stroke-width:1.99999988;stroke-miterlimit:4;stroke-dasharray:none;stroke-opacity:1"
         d="m 105.14285,752.94836 a 13,13 0 0 1 -12.999997,13 13,13 0 0 1 -13,-13 13,13 0 0 1 13,-13 13,13 0 0 1 12.999997,13 z"
         id="path5137-3" />
    </g>
    <g
       transform="scale(0.99828007,1.0017229)"
       style="font-style:normal;font-weight:normal;font-size:132.8361969px;line-height:125%;font-family:Sans;letter-spacing:0px;word-spacing:0px;fill:none;fill-opacity:1;stroke:#000000;stroke-width:1px;stroke-linecap:butt;stroke-linejoin:miter;stroke-opacity:0.70588235"
       id="text5249">
      <path
         d="m 53.870828,334.36373 -29.858626,0 0,34.19795 -15.4975574,0 0,-75.31813 15.4975574,0 0,28.20555 29.755309,0 0,-28.20555 15.600874,0 0,75.31813 -15.497557,0 0,-34.19795 z"
         style="font-style:normal;font-variant:normal;font-weight:600;font-stretch:normal;font-size:103.31704712px;font-family:FreeSans;-inkscape-font-specification:'FreeSans Semi-Bold';fill:none;stroke:#000000;stroke-width:0.67752618px;stroke-opacity:0.70588235"
         id="path7711" />
      <path
         d="m 99.231856,312.77047 0,55.79121 -14.464386,0 0,-55.79121 14.464386,0 z m 0,-19.52692 0,12.91463 -14.464386,0 0,-12.91463 14.464386,0 z"
         style="font-style:normal;font-variant:normal;font-weight:600;font-stretch:normal;font-size:103.31704712px;font-family:FreeSans;-inkscape-font-specification:'FreeSans Semi-Bold';fill:none;stroke:#000000;stroke-width:0.67752618px;stroke-opacity:0.70588235"
         id="path7713" />
      <path
         d="m 123.64535,352.3409 q 0.72322,3.51278 2.89288,5.37249 2.27297,1.8597 8.47199,1.8597 5.06254,0 7.8521,-1.44644 2.89288,-1.44643 2.89288,-4.02936 0,-1.65307 -1.13649,-2.68624 -1.03317,-1.03317 -3.71942,-1.85971 l -17.25394,-5.37249 q -0.10332,0 -1.23981,-0.30995 -1.13648,-0.41327 -1.65307,-0.6199 -0.41327,-0.20663 -1.65307,-0.6199 -1.23981,-0.51659 -1.96303,-1.03317 -0.6199,-0.51659 -1.65307,-1.23981 -1.03317,-0.82653 -1.65307,-1.75639 -0.51659,-0.92985 -1.13649,-2.06634 -0.6199,-1.2398 -0.92985,-2.78956 -0.30995,-1.54975 -0.30995,-3.30614 0,-8.57532 6.0957,-13.53454 6.19903,-5.06253 16.84068,-5.06253 11.26156,0 17.66722,5.06253 6.40565,4.95922 6.61229,13.84449 l -13.9478,0 q -0.10332,-7.54215 -10.43503,-7.54215 -3.82273,0 -6.0957,1.44644 -2.27298,1.34312 -2.27298,3.71941 0,1.65308 1.03317,2.58293 1.03317,0.82654 4.02937,1.75639 l 18.28712,5.26917 q 10.9516,3.20283 10.9516,14.05112 0,3.20283 -1.13648,6.30234 -1.13649,2.99619 -3.71942,5.99239 -2.47961,2.99619 -7.54214,4.75258 -5.06254,1.85971 -11.98478,1.85971 -25.72595,0 -26.34585,-18.59707 l 14.15444,0 z"
         style="font-style:normal;font-variant:normal;font-weight:600;font-stretch:normal;font-size:103.31704712px;font-family:FreeSans;-inkscape-font-specification:'FreeSans Semi-Bold';fill:none;stroke:#000000;stroke-width:0.67752618px;stroke-opacity:0.70588235"
         id="path7715" />
      <path
         d="m 195.72352,313.90696 0,9.60848 -8.05873,0 0,30.37522 q 0,3.71941 0.92985,4.95921 0.92986,1.13649 3.82273,1.13649 1.13649,0 3.30615,-0.30995 l 0,10.12507 q -3.51278,1.13649 -8.36868,1.13649 -14.15444,0 -14.15444,-13.12127 l 0,-34.30126 -7.12887,0 0,-9.60848 7.12887,0 0,-14.98097 14.46439,0 0,14.98097 8.05873,0 z"
         style="font-style:normal;font-variant:normal;font-weight:600;font-stretch:normal;font-size:103.31704712px;font-family:FreeSans;-inkscape-font-specification:'FreeSans Semi-Bold';fill:none;stroke:#000000;stroke-width:0.67752618px;stroke-opacity:0.70588235"
         id="path7717" />
      <path
         d="m 230.42675,311.84062 q 13.12127,0 20.35346,7.95541 7.33551,7.8521 7.33551,22.00653 0,13.43122 -7.43883,21.28331 -7.43882,7.8521 -20.14682,7.8521 -12.91463,0 -20.25014,-7.8521 -7.33551,-7.95541 -7.33551,-21.69658 0,-13.74116 7.33551,-21.59326 7.33551,-7.95541 20.14682,-7.95541 z m 0.10332,11.67482 q -5.88907,0 -9.50517,4.95922 -3.6161,4.95922 -3.6161,12.91463 0,7.95542 3.6161,12.91463 3.6161,4.95922 9.50517,4.95922 5.78575,0 9.40185,-4.8559 3.71941,-4.95922 3.71941,-12.81131 0,-8.26537 -3.61609,-13.12127 -3.51278,-4.95922 -9.50517,-4.95922 z"
         style="font-style:normal;font-variant:normal;font-weight:600;font-stretch:normal;font-size:103.31704712px;font-family:FreeSans;-inkscape-font-specification:'FreeSans Semi-Bold';fill:none;stroke:#000000;stroke-width:0.67752618px;stroke-opacity:0.70588235"
         id="path7719" />
      <path
         d="m 268.88975,312.77047 14.46439,0 0,10.95161 q 2.27298,-5.68244 6.40566,-8.78195 4.13268,-3.09951 9.0919,-3.09951 0.92985,0 1.75639,0.10331 l 0,14.67102 q -2.58293,-0.41326 -4.54595,-0.41326 -12.708,0 -12.708,12.70799 l 0,29.652 -14.46439,0 0,-55.79121 z"
         style="font-style:normal;font-variant:normal;font-weight:600;font-stretch:normal;font-size:103.31704712px;font-family:FreeSans;-inkscape-font-specification:'FreeSans Semi-Bold';fill:none;stroke:#000000;stroke-width:0.67752618px;stroke-opacity:0.70588235"
         id="path7721" />
      <path
         d="m 324.53404,371.24792 0,-0.41327 -20.76673,-58.06418 15.91083,0 12.29473,40.6036 11.57151,-40.6036 14.87765,0 -22.93638,66.01959 q 0,0.10332 -0.41327,1.34313 -0.41327,1.34312 -0.72322,1.75639 -0.20663,0.51658 -0.82654,1.75638 -0.51658,1.34313 -1.13648,1.85971 -0.61991,0.6199 -1.65308,1.65307 -1.03317,1.13649 -2.37629,1.65308 -1.2398,0.6199 -2.89288,1.2398 -1.65307,0.6199 -3.82273,0.82654 -2.16965,0.30995 -4.75258,0.30995 -2.27298,0 -5.16585,-0.41327 l 0,-10.84829 q 2.27297,0.6199 3.82273,0.6199 3.82273,0 6.40565,-2.68624 2.58293,-2.68624 2.58293,-6.61229 z"
         style="font-style:normal;font-variant:normal;font-weight:600;font-stretch:normal;font-size:103.31704712px;font-family:FreeSans;-inkscape-font-specification:'FreeSans Semi-Bold';fill:none;stroke:#000000;stroke-width:0.67752618px;stroke-opacity:0.70588235"
         id="path7723" />
    </g>
  </g>
</svg>
