<?xml version="1.0" encoding="UTF-8" standalone="no"?>
<svg
   xmlns:dc="http://purl.org/dc/elements/1.1/"
   xmlns:cc="http://creativecommons.org/ns#"
   xmlns:rdf="http://www.w3.org/1999/02/22-rdf-syntax-ns#"
   xmlns:svg="http://www.w3.org/2000/svg"
   xmlns="http://www.w3.org/2000/svg"
   xmlns:sodipodi="http://sodipodi.sourceforge.net/DTD/sodipodi-0.dtd"
   xmlns:inkscape="http://www.inkscape.org/namespaces/inkscape"
   version="1.1"
   id="svg2"
   viewBox="0 0 899.99998 674.99995"
   height="19.049999cm"
   width="25.4cm"
   inkscape:version="0.91 r13725"
   sodipodi:docname="05.svg">
  <sodipodi:namedview
     pagecolor="#ffffff"
     bordercolor="#666666"
     borderopacity="1"
     objecttolerance="10"
     gridtolerance="10"
     guidetolerance="10"
     inkscape:pageopacity="0"
     inkscape:pageshadow="2"
     inkscape:window-width="747"
     inkscape:window-height="480"
     id="namedview6000"
     showgrid="false"
     inkscape:zoom="0.34444445"
     inkscape:cx="449.99999"
     inkscape:cy="337.49999"
     inkscape:window-x="0"
     inkscape:window-y="27"
     inkscape:window-maximized="0"
     inkscape:current-layer="svg2" />
  <defs
     id="defs4" />
  <metadata
     id="metadata7">
    <rdf:RDF>
      <cc:Work
         rdf:about="">
        <dc:format>image/svg+xml</dc:format>
        <dc:type
           rdf:resource="http://purl.org/dc/dcmitype/StillImage" />
        <dc:title />
      </cc:Work>
    </rdf:RDF>
  </metadata>
  <g
     transform="translate(0,-377.36221)"
     id="layer1">
    <g
       transform="translate(8.2530792,426.3499)"
       style="font-style:normal;font-variant:normal;font-weight:bold;font-stretch:normal;font-size:100px;line-height:125%;font-family:Sans;-inkscape-font-specification:'Sans Bold';text-align:center;letter-spacing:0px;word-spacing:0px;text-anchor:middle;fill:#000000;fill-opacity:1;stroke:none;stroke-width:1px;stroke-linecap:butt;stroke-linejoin:miter;stroke-opacity:1"
       id="flowRoot4136">
      <path
         d="m 487.36848,224.70227 0,15.66 -53.1,0 -5.04,35.64 q 10.62,-7.74 23.58,-7.74 18.36,0 29.7,11.88 11.52,11.7 11.52,30.6 0,20.16 -12.24,32.94 -12.24,12.78 -31.5,12.78 -7.38,0 -13.68,-1.62 -6.12,-1.62 -10.26,-3.78 -3.96,-2.34 -7.38,-5.94 -3.24,-3.78 -5.04,-6.48 -1.62,-2.88 -3.24,-7.02 -1.44,-4.32 -1.8,-5.94 -0.36,-1.62 -0.9,-4.68 l 15.84,0 q 5.58,21.42 26.1,21.42 12.96,0 20.34,-7.92 7.56,-7.92 7.56,-21.6 0,-14.22 -7.56,-22.32 -7.56,-8.28 -20.34,-8.28 -7.38,0 -12.6,2.7 -5.22,2.52 -10.8,9.18 l -14.58,0 9.54,-69.48 65.88,0 z"
         style="font-style:normal;font-variant:normal;font-weight:normal;font-stretch:normal;font-size:180px;font-family:FreeSans;-inkscape-font-specification:FreeSans"
         id="path6543" />
    </g>
  </g>
</svg>
