<?xml version="1.0" encoding="UTF-8" standalone="no"?>
<svg
   xmlns:dc="http://purl.org/dc/elements/1.1/"
   xmlns:cc="http://creativecommons.org/ns#"
   xmlns:rdf="http://www.w3.org/1999/02/22-rdf-syntax-ns#"
   xmlns:svg="http://www.w3.org/2000/svg"
   xmlns="http://www.w3.org/2000/svg"
   xmlns:sodipodi="http://sodipodi.sourceforge.net/DTD/sodipodi-0.dtd"
   xmlns:inkscape="http://www.inkscape.org/namespaces/inkscape"
   version="1.1"
   id="svg2"
   viewBox="0 0 899.99998 674.99995"
   height="19.049999cm"
   width="25.4cm"
   inkscape:version="0.91 r13725"
   sodipodi:docname="06.svg">
  <sodipodi:namedview
     pagecolor="#ffffff"
     bordercolor="#666666"
     borderopacity="1"
     objecttolerance="10"
     gridtolerance="10"
     guidetolerance="10"
     inkscape:pageopacity="0"
     inkscape:pageshadow="2"
     inkscape:window-width="640"
     inkscape:window-height="480"
     id="namedview6599"
     showgrid="false"
     inkscape:zoom="0.34444445"
     inkscape:cx="449.99999"
     inkscape:cy="337.49999"
     inkscape:window-x="0"
     inkscape:window-y="27"
     inkscape:window-maximized="0"
     inkscape:current-layer="svg2" />
  <defs
     id="defs4" />
  <metadata
     id="metadata7">
    <rdf:RDF>
      <cc:Work
         rdf:about="">
        <dc:format>image/svg+xml</dc:format>
        <dc:type
           rdf:resource="http://purl.org/dc/dcmitype/StillImage" />
        <dc:title />
      </cc:Work>
    </rdf:RDF>
  </metadata>
  <g
     transform="translate(0,-377.36221)"
     id="layer1">
    <g
       transform="translate(8.2530792,426.3499)"
       style="font-style:normal;font-variant:normal;font-weight:bold;font-stretch:normal;font-size:100px;line-height:125%;font-family:Sans;-inkscape-font-specification:'Sans Bold';text-align:center;letter-spacing:0px;word-spacing:0px;text-anchor:middle;fill:#000000;fill-opacity:1;stroke:none;stroke-width:1px;stroke-linecap:butt;stroke-linejoin:miter;stroke-opacity:1"
       id="flowRoot4136">
      <path
         d="m 409.42848,294.18227 q 0,-16.92 3.06,-29.7 3.06,-12.96 7.56,-20.34 4.68,-7.38 10.98,-11.88 6.48,-4.68 12.06,-6.12 5.76,-1.44 12.06,-1.44 14.58,0 24.12,8.82 9.72,8.82 12.06,24.48 l -15.84,0 q -1.98,-9.18 -7.56,-14.22 -5.58,-5.04 -13.86,-5.04 -13.68,0 -21.06,12.6 -7.2,12.42 -7.38,35.82 10.44,-14.22 29.34,-14.22 17.1,0 28.08,11.34 10.98,11.34 10.98,29.16 0,18.72 -11.88,30.96 -11.7,12.06 -29.88,12.06 -42.84,0 -42.84,-62.28 z m 43.56,-7.2 q -11.7,0 -19.08,7.56 -7.38,7.38 -7.38,19.26 0,12.24 7.38,20.52 7.38,8.1 18.54,8.1 10.98,0 18.18,-7.74 7.2,-7.92 7.2,-19.98 0,-12.78 -6.66,-20.16 -6.66,-7.56 -18.18,-7.56 z"
         style="font-style:normal;font-variant:normal;font-weight:normal;font-stretch:normal;font-size:180px;font-family:FreeSans;-inkscape-font-specification:FreeSans"
         id="path9356" />
    </g>
  </g>
</svg>
