<?xml version="1.0" encoding="UTF-8" standalone="no"?>
<!-- Created with Inkscape (http://www.inkscape.org/) -->

<svg
   xmlns:dc="http://purl.org/dc/elements/1.1/"
   xmlns:cc="http://creativecommons.org/ns#"
   xmlns:rdf="http://www.w3.org/1999/02/22-rdf-syntax-ns#"
   xmlns:svg="http://www.w3.org/2000/svg"
   xmlns="http://www.w3.org/2000/svg"
   xmlns:sodipodi="http://sodipodi.sourceforge.net/DTD/sodipodi-0.dtd"
   xmlns:inkscape="http://www.inkscape.org/namespaces/inkscape"
   width="1048"
   height="768"
   viewBox="0 0 1048 768.00002"
   id="svg2"
   version="1.1"
   inkscape:version="0.91 r13725"
   sodipodi:docname="07.svg">
  <defs
     id="defs4" />
  <sodipodi:namedview
     id="base"
     pagecolor="#ffffff"
     bordercolor="#666666"
     borderopacity="1.0"
     inkscape:pageopacity="0.0"
     inkscape:pageshadow="2"
     inkscape:zoom="0.98994949"
     inkscape:cx="500.67378"
     inkscape:cy="372.04657"
     inkscape:document-units="px"
     inkscape:current-layer="layer1"
     showgrid="false"
     units="px"
     inkscape:window-width="1920"
     inkscape:window-height="1014"
     inkscape:window-x="0"
     inkscape:window-y="27"
     inkscape:window-maximized="1">
    <inkscape:grid
       type="xygrid"
       id="grid5092" />
  </sodipodi:namedview>
  <metadata
     id="metadata7">
    <rdf:RDF>
      <cc:Work
         rdf:about="">
        <dc:format>image/svg+xml</dc:format>
        <dc:type
           rdf:resource="http://purl.org/dc/dcmitype/StillImage" />
        <dc:title></dc:title>
      </cc:Work>
    </rdf:RDF>
  </metadata>
  <g
     inkscape:label="Layer 1"
     inkscape:groupmode="layer"
     id="layer1"
     transform="translate(0,-284.36218)">
    <g
       id="g5096"
       style="stroke:#000000;stroke-opacity:0.13725491">
      <path
         sodipodi:nodetypes="cccc"
         style="fill:none;stroke:#000000;stroke-width:2;stroke-miterlimit:4;stroke-dasharray:none;stroke-opacity:0.13725491"
         inkscape:connector-curvature="0"
         id="path4314"
         d="m 1048,684.98315 -160.37568,0 c -7.68332,-5.96677 -7.67743,-17.68568 0,-23.56659 l 160.37568,0" />
      <path
         sodipodi:nodetypes="cssccssc"
         style="fill:none;stroke:#000000;stroke-width:2;stroke-miterlimit:4;stroke-dasharray:none;stroke-opacity:0.13725491"
         inkscape:connector-curvature="0"
         id="path4310-5"
         d="m 831.89285,1052.3622 c 0,0 -17.91943,-27.8197 -17.91943,-77.36067 0,-94.01117 76.25169,-170.27726 170.24086,-170.27726 35.95322,0 63.97512,12.586 63.97512,12.586 M 1048,756.45347 c -5.3303,-1.80485 -28.2222,-9.10018 -63.78572,-9.10018 -123.15826,0 -227.59846,101.95467 -227.59846,227.65177 0,46.67814 12.59846,77.35714 12.59846,77.35714" />
      <path
         sodipodi:nodetypes="cccccssccscsccc"
         style="fill:none;stroke:#000000;stroke-width:2;stroke-miterlimit:4;stroke-dasharray:none;stroke-opacity:0.13725491"
         inkscape:connector-curvature="0"
         id="path4312-3"
         d="m 726.28747,1052.0652 0,-420.22188 -73.85031,0 0,-0.005 0,179.44378 c -40.89068,-39.21787 -96.30837,-63.41889 -157.4119,-63.41889 -125.67116,0 -227.59845,101.9547 -227.59845,227.65177 0,43.11702 13.47119,76.84722 13.47119,76.84722 m 62.532,0 c -3.31158,-3.6757 -18.64562,-42.3442 -18.64562,-76.84691 0,-94.01115 76.25172,-170.27727 170.24088,-170.27727 l 0,-0.006 c 71.03791,0 131.90658,43.52535 157.4119,105.39433 l 0,129.77175 c -0.96687,3.7062 -5.36616,11.9641 -5.36616,11.9641" />
    </g>
    <g
       transform="translate(-164.76219,158.39903)"
       style="font-style:normal;font-weight:normal;font-size:76.49583435px;line-height:125%;font-family:Sans;text-align:start;letter-spacing:0px;word-spacing:0px;text-anchor:start;fill:#000000;fill-opacity:1;stroke:none;stroke-width:1px;stroke-linecap:butt;stroke-linejoin:miter;stroke-opacity:1"
       id="flowRoot5076">
      <path
         d="m 300.29687,258.60573 -8.02734,21.76758 16.08399,0 -8.05665,-21.76758 z m -3.33984,-5.83008 6.70899,0 16.66992,43.74024 -6.15235,0 -3.98437,-11.22071 -19.7168,0 -3.98437,11.22071 -6.24024,0 16.69922,-43.74024 z"
         style="font-style:normal;font-variant:normal;font-weight:normal;font-stretch:normal;font-size:60px;font-family:Sans;-inkscape-font-specification:Dingbats;text-align:start;text-anchor:start"
         id="path11312" />
      <path
         d="m 345.47266,268.74245 q -0.90821,-0.52734 -1.99219,-0.76172 -1.05469,-0.26367 -2.34375,-0.26367 -4.57031,0 -7.03125,2.98828 -2.43164,2.95898 -2.43164,8.52539 l 0,17.28516 -5.41992,0 0,-32.8125 5.41992,0 0,5.09765 q 1.69922,-2.98828 4.42383,-4.42382 2.72461,-1.46485 6.62109,-1.46485 0.55664,0 1.23047,0.0879 0.67383,0.0586 1.49414,0.20508 l 0.0293,5.53711 z"
         style="font-style:normal;font-variant:normal;font-weight:normal;font-stretch:normal;font-size:60px;font-family:Sans;-inkscape-font-specification:Dingbats;text-align:start;text-anchor:start"
         id="path11314" />
      <path
         d="m 377.96289,278.76198 0,2.63672 -24.78516,0 q 0.35157,5.56641 3.33985,8.49609 3.01758,2.90039 8.3789,2.90039 3.10547,0 6.00586,-0.76171 2.92969,-0.76172 5.80078,-2.28516 l 0,5.09766 q -2.90039,1.23046 -5.94726,1.875 -3.04688,0.64453 -6.18164,0.64453 -7.85156,0 -12.45117,-4.57032 -4.57032,-4.57031 -4.57032,-12.36328 0,-8.05664 4.33594,-12.77343 4.36524,-4.7461 11.74805,-4.7461 6.62109,0 10.45898,4.27735 3.86719,4.24804 3.86719,11.57226 z m -5.39062,-1.58203 q -0.0586,-4.42383 -2.49024,-7.06055 -2.40234,-2.63672 -6.38672,-2.63672 -4.51172,0 -7.23633,2.54883 -2.69531,2.54883 -3.10546,7.17774 l 19.21875,-0.0293 z"
         style="font-style:normal;font-variant:normal;font-weight:normal;font-stretch:normal;font-size:60px;font-family:Sans;-inkscape-font-specification:Dingbats;text-align:start;text-anchor:start"
         id="path11316" />
      <path
         d="m 427.50391,268.68386 0,-17.75391 5.39062,0 0,45.58594 -5.39062,0 0,-4.92188 q -1.69922,2.92969 -4.30664,4.36524 -2.57813,1.40625 -6.21094,1.40625 -5.94727,0 -9.69727,-4.7461 -3.7207,-4.74609 -3.7207,-12.48047 0,-7.73437 3.7207,-12.48046 3.75,-4.7461 9.69727,-4.7461 3.63281,0 6.21094,1.43555 2.60742,1.40625 4.30664,4.33594 z m -18.36914,11.45507 q 0,5.94727 2.43164,9.34571 2.46093,3.36914 6.73828,3.36914 4.27734,0 6.73828,-3.36914 2.46094,-3.39844 2.46094,-9.34571 0,-5.94726 -2.46094,-9.3164 -2.46094,-3.39844 -6.73828,-3.39844 -4.27735,0 -6.73828,3.39844 -2.43164,3.36914 -2.43164,9.3164 z"
         style="font-style:normal;font-variant:normal;font-weight:normal;font-stretch:normal;font-size:60px;font-family:Sans;-inkscape-font-specification:Dingbats;text-align:start;text-anchor:start"
         id="path11318" />
      <path
         d="m 472.06445,278.76198 0,2.63672 -24.78515,0 q 0.35156,5.56641 3.33984,8.49609 3.01758,2.90039 8.37891,2.90039 3.10547,0 6.00586,-0.76171 2.92968,-0.76172 5.80078,-2.28516 l 0,5.09766 q -2.90039,1.23046 -5.94727,1.875 -3.04687,0.64453 -6.18164,0.64453 -7.85156,0 -12.45117,-4.57032 -4.57031,-4.57031 -4.57031,-12.36328 0,-8.05664 4.33593,-12.77343 4.36524,-4.7461 11.74805,-4.7461 6.62109,0 10.45899,4.27735 3.86718,4.24804 3.86718,11.57226 z m -5.39062,-1.58203 q -0.0586,-4.42383 -2.49024,-7.06055 -2.40234,-2.63672 -6.38672,-2.63672 -4.51171,0 -7.23632,2.54883 -2.69532,2.54883 -3.10547,7.17774 l 19.21875,-0.0293 z"
         style="font-style:normal;font-variant:normal;font-weight:normal;font-stretch:normal;font-size:60px;font-family:Sans;-inkscape-font-specification:Dingbats;text-align:start;text-anchor:start"
         id="path11320" />
      <path
         d="m 507.42578,263.70339 0,32.8125 -5.41992,0 0,-28.62305 -14.79492,0 0,28.62305 -5.41992,0 0,-28.62305 -5.15625,0 0,-4.18945 5.15625,0 0,-2.28516 q 0,-5.36133 2.51953,-7.91016 2.54882,-2.57812 7.79297,-2.57812 l 5.41992,0 0,4.48242 -5.15625,0 q -2.90039,0 -4.04297,1.17188 -1.11328,1.17187 -1.11328,4.21875 l 0,2.90039 20.21484,0 z m -5.41992,-12.71485 5.41992,0 0,6.82618 -5.41992,0 0,-6.82618 z"
         style="font-style:normal;font-variant:normal;font-weight:normal;font-stretch:normal;font-size:60px;font-family:Sans;-inkscape-font-specification:Dingbats;text-align:start;text-anchor:start"
         id="path11322" />
      <path
         d="m 546.03906,276.7112 0,19.80469 -5.39062,0 0,-19.62891 q 0,-4.6582 -1.81641,-6.97266 -1.81641,-2.31445 -5.44922,-2.31445 -4.36523,0 -6.88476,2.7832 -2.51953,2.78321 -2.51953,7.5879 l 0,18.54492 -5.41993,0 0,-32.8125 5.41993,0 0,5.09765 q 1.93359,-2.95898 4.54101,-4.42382 2.63672,-1.46485 6.06445,-1.46485 5.6543,0 8.55469,3.51563 2.90039,3.48632 2.90039,10.2832 z"
         style="font-style:normal;font-variant:normal;font-weight:normal;font-stretch:normal;font-size:60px;font-family:Sans;-inkscape-font-specification:Dingbats;text-align:start;text-anchor:start"
         id="path11324" />
      <path
         d="m 584.91602,278.76198 0,2.63672 -24.78516,0 q 0.35156,5.56641 3.33984,8.49609 3.01758,2.90039 8.37891,2.90039 3.10547,0 6.00586,-0.76171 2.92969,-0.76172 5.80078,-2.28516 l 0,5.09766 q -2.90039,1.23046 -5.94727,1.875 -3.04687,0.64453 -6.18164,0.64453 -7.85156,0 -12.45117,-4.57032 -4.57031,-4.57031 -4.57031,-12.36328 0,-8.05664 4.33594,-12.77343 4.36523,-4.7461 11.74804,-4.7461 6.6211,0 10.45899,4.27735 3.86719,4.24804 3.86719,11.57226 z m -5.39063,-1.58203 q -0.0586,-4.42383 -2.49023,-7.06055 -2.40235,-2.63672 -6.38672,-2.63672 -4.51172,0 -7.23633,2.54883 -2.69531,2.54883 -3.10547,7.17774 l 19.21875,-0.0293 z"
         style="font-style:normal;font-variant:normal;font-weight:normal;font-stretch:normal;font-size:60px;font-family:Sans;-inkscape-font-specification:Dingbats;text-align:start;text-anchor:start"
         id="path11326" />
      <path
         d="m 615.35547,268.68386 0,-17.75391 5.39062,0 0,45.58594 -5.39062,0 0,-4.92188 q -1.69922,2.92969 -4.30664,4.36524 -2.57813,1.40625 -6.21094,1.40625 -5.94727,0 -9.69727,-4.7461 -3.7207,-4.74609 -3.7207,-12.48047 0,-7.73437 3.7207,-12.48046 3.75,-4.7461 9.69727,-4.7461 3.63281,0 6.21094,1.43555 2.60742,1.40625 4.30664,4.33594 z m -18.36914,11.45507 q 0,5.94727 2.43164,9.34571 2.46094,3.36914 6.73828,3.36914 4.27734,0 6.73828,-3.36914 2.46094,-3.39844 2.46094,-9.34571 0,-5.94726 -2.46094,-9.3164 -2.46094,-3.39844 -6.73828,-3.39844 -4.27734,0 -6.73828,3.39844 -2.43164,3.36914 -2.43164,9.3164 z"
         style="font-style:normal;font-variant:normal;font-weight:normal;font-stretch:normal;font-size:60px;font-family:Sans;-inkscape-font-specification:Dingbats;text-align:start;text-anchor:start"
         id="path11328" />
      <path
         d="m 665.86328,280.02175 q -6.5332,0 -9.05273,1.49414 -2.51953,1.49414 -2.51953,5.09765 0,2.8711 1.875,4.57032 1.90429,1.66992 5.15625,1.66992 4.48242,0 7.17773,-3.16406 2.72461,-3.19336 2.72461,-8.4668 l 0,-1.20117 -5.36133,0 z m 10.75195,-2.22657 0,18.72071 -5.39062,0 0,-4.98047 q -1.8457,2.98828 -4.59961,4.42383 -2.75391,1.40625 -6.73828,1.40625 -5.03906,0 -8.02735,-2.8125 -2.95898,-2.8418 -2.95898,-7.58789 0,-5.53711 3.69141,-8.34961 3.7207,-2.8125 11.07422,-2.8125 l 7.55859,0 0,-0.52735 q 0,-3.7207 -2.46094,-5.74218 -2.43164,-2.05079 -6.85547,-2.05079 -2.8125,0 -5.47851,0.67383 -2.66602,0.67383 -5.12696,2.02149 l 0,-4.98047 q 2.95899,-1.14258 5.74219,-1.69922 2.7832,-0.58594 5.41992,-0.58594 7.11914,0 10.63477,3.69141 3.51562,3.6914 3.51562,11.1914 z"
         style="font-style:normal;font-variant:normal;font-weight:normal;font-stretch:normal;font-size:60px;font-family:Sans;-inkscape-font-specification:Dingbats;text-align:start;text-anchor:start"
         id="path11330" />
      <path
         d="m 708.66602,264.67018 0,5.09766 q -2.28516,-1.17187 -4.7461,-1.75781 -2.46094,-0.58594 -5.09765,-0.58594 -4.01368,0 -6.03516,1.23047 -1.99219,1.23047 -1.99219,3.69141 0,1.875 1.43555,2.95898 1.43555,1.05469 5.77148,2.02148 l 1.84571,0.41016 q 5.74218,1.23047 8.14453,3.48633 2.43164,2.22656 2.43164,6.24023 0,4.57032 -3.63281,7.23633 -3.60352,2.66602 -9.93165,2.66602 -2.63671,0 -5.50781,-0.52735 -2.84179,-0.49804 -6.00586,-1.52343 l 0,-5.56641 q 2.98828,1.55273 5.88867,2.34375 2.9004,0.76172 5.74219,0.76172 3.8086,0 5.85938,-1.28906 2.05078,-1.31836 2.05078,-3.69141 0,-2.19727 -1.49414,-3.36914 -1.46485,-1.17188 -6.47461,-2.25586 l -1.875,-0.43945 q -5.00977,-1.05469 -7.23633,-3.22266 -2.22656,-2.19727 -2.22656,-6.00586 0,-4.62891 3.28125,-7.14844 3.28125,-2.51953 9.3164,-2.51953 2.98829,0 5.625,0.43945 2.63672,0.43946 4.86329,1.31836 z"
         style="font-style:normal;font-variant:normal;font-weight:normal;font-stretch:normal;font-size:60px;font-family:Sans;-inkscape-font-specification:Dingbats;text-align:start;text-anchor:start"
         id="path11332" />
      <path
         d="m 763.68555,270.00222 q 2.02148,-3.63282 4.83398,-5.36133 2.8125,-1.72852 6.62109,-1.72852 5.12696,0 7.91016,3.60352 2.7832,3.57422 2.7832,10.19531 l 0,19.80469 -5.41992,0 0,-19.62891 q 0,-4.7168 -1.66992,-7.00195 -1.66992,-2.28516 -5.09766,-2.28516 -4.18945,0 -6.62109,2.7832 -2.43164,2.78321 -2.43164,7.5879 l 0,18.54492 -5.41992,0 0,-19.62891 q 0,-4.74609 -1.66992,-7.00195 -1.66993,-2.28516 -5.15625,-2.28516 -4.13086,0 -6.5625,2.8125 -2.43164,2.7832 -2.43164,7.5586 l 0,18.54492 -5.41993,0 0,-32.8125 5.41993,0 0,5.09765 q 1.8457,-3.01757 4.42382,-4.45312 2.57813,-1.43555 6.12305,-1.43555 3.57422,0 6.06445,1.81641 2.51953,1.8164 3.72071,5.27344 z"
         style="font-style:normal;font-variant:normal;font-weight:normal;font-stretch:normal;font-size:60px;font-family:Sans;-inkscape-font-specification:Dingbats;text-align:start;text-anchor:start"
         id="path11334" />
      <path
         d="m 809.33008,267.48268 q -4.33594,0 -6.85547,3.39844 -2.51953,3.36914 -2.51953,9.25781 0,5.88868 2.49023,9.28711 2.51953,3.36914 6.88477,3.36914 4.30664,0 6.82617,-3.39843 2.51953,-3.39844 2.51953,-9.25782 0,-5.83007 -2.51953,-9.22851 -2.51953,-3.42774 -6.82617,-3.42774 z m 0,-4.57031 q 7.03125,0 11.04492,4.57031 4.01367,4.57032 4.01367,12.65625 0,8.05664 -4.01367,12.65625 -4.01367,4.57032 -11.04492,4.57032 -7.06055,0 -11.07422,-4.57032 -3.98438,-4.59961 -3.98438,-12.65625 0,-8.08593 3.98438,-12.65625 4.01367,-4.57031 11.07422,-4.57031 z"
         style="font-style:normal;font-variant:normal;font-weight:normal;font-stretch:normal;font-size:60px;font-family:Sans;-inkscape-font-specification:Dingbats;text-align:start;text-anchor:start"
         id="path11336" />
      <path
         d="m 854.88672,268.68386 0,-17.75391 5.39062,0 0,45.58594 -5.39062,0 0,-4.92188 q -1.69922,2.92969 -4.30664,4.36524 -2.57813,1.40625 -6.21094,1.40625 -5.94727,0 -9.69727,-4.7461 -3.7207,-4.74609 -3.7207,-12.48047 0,-7.73437 3.7207,-12.48046 3.75,-4.7461 9.69727,-4.7461 3.63281,0 6.21094,1.43555 2.60742,1.40625 4.30664,4.33594 z m -18.36914,11.45507 q 0,5.94727 2.43164,9.34571 2.46094,3.36914 6.73828,3.36914 4.27734,0 6.73828,-3.36914 2.46094,-3.39844 2.46094,-9.34571 0,-5.94726 -2.46094,-9.3164 -2.46094,-3.39844 -6.73828,-3.39844 -4.27734,0 -6.73828,3.39844 -2.43164,3.36914 -2.43164,9.3164 z"
         style="font-style:normal;font-variant:normal;font-weight:normal;font-stretch:normal;font-size:60px;font-family:Sans;-inkscape-font-specification:Dingbats;text-align:start;text-anchor:start"
         id="path11338" />
      <path
         d="m 870.82422,283.56667 0,-19.86328 5.39062,0 0,19.6582 q 0,4.6582 1.81641,7.00195 1.81641,2.31446 5.44922,2.31446 4.36523,0 6.88476,-2.78321 2.54883,-2.7832 2.54883,-7.58789 l 0,-18.60351 5.39063,0 0,32.8125 -5.39063,0 0,-5.03907 q -1.96289,2.98829 -4.57031,4.45313 -2.57813,1.43555 -6.00586,1.43555 -5.6543,0 -8.58398,-3.51563 -2.92969,-3.51562 -2.92969,-10.2832 z m 13.56445,-20.6543 0,0 z"
         style="font-style:normal;font-variant:normal;font-weight:normal;font-stretch:normal;font-size:60px;font-family:Sans;-inkscape-font-specification:Dingbats;text-align:start;text-anchor:start"
         id="path11340" />
      <path
         d="m 909.4668,250.92995 5.39062,0 0,45.58594 -5.39062,0 0,-45.58594 z"
         style="font-style:normal;font-variant:normal;font-weight:normal;font-stretch:normal;font-size:60px;font-family:Sans;-inkscape-font-specification:Dingbats;text-align:start;text-anchor:start"
         id="path11342" />
      <path
         d="m 954.17383,278.76198 0,2.63672 -24.78516,0 q 0.35156,5.56641 3.33985,8.49609 3.01757,2.90039 8.3789,2.90039 3.10547,0 6.00586,-0.76171 2.92969,-0.76172 5.80078,-2.28516 l 0,5.09766 q -2.90039,1.23046 -5.94726,1.875 -3.04688,0.64453 -6.18164,0.64453 -7.85157,0 -12.45118,-4.57032 -4.57031,-4.57031 -4.57031,-12.36328 0,-8.05664 4.33594,-12.77343 4.36523,-4.7461 11.74805,-4.7461 6.62109,0 10.45898,4.27735 3.86719,4.24804 3.86719,11.57226 z m -5.39063,-1.58203 q -0.0586,-4.42383 -2.49023,-7.06055 -2.40235,-2.63672 -6.38672,-2.63672 -4.51172,0 -7.23633,2.54883 -2.69531,2.54883 -3.10547,7.17774 l 19.21875,-0.0293 z"
         style="font-style:normal;font-variant:normal;font-weight:normal;font-stretch:normal;font-size:60px;font-family:Sans;-inkscape-font-specification:Dingbats;text-align:start;text-anchor:start"
         id="path11344" />
      <path
         d="m 983.93945,264.67018 0,5.09766 q -2.28515,-1.17187 -4.74609,-1.75781 -2.46094,-0.58594 -5.09766,-0.58594 -4.01367,0 -6.03515,1.23047 -1.99219,1.23047 -1.99219,3.69141 0,1.875 1.43555,2.95898 1.43554,1.05469 5.77148,2.02148 l 1.8457,0.41016 q 5.74219,1.23047 8.14453,3.48633 2.43165,2.22656 2.43165,6.24023 0,4.57032 -3.63282,7.23633 -3.60351,2.66602 -9.93164,2.66602 -2.63672,0 -5.50781,-0.52735 -2.8418,-0.49804 -6.00586,-1.52343 l 0,-5.56641 q 2.98828,1.55273 5.88867,2.34375 2.90039,0.76172 5.74219,0.76172 3.80859,0 5.85937,-1.28906 2.05079,-1.31836 2.05079,-3.69141 0,-2.19727 -1.49414,-3.36914 -1.46485,-1.17188 -6.47461,-2.25586 l -1.875,-0.43945 q -5.00977,-1.05469 -7.23633,-3.22266 -2.22656,-2.19727 -2.22656,-6.00586 0,-4.62891 3.28125,-7.14844 3.28125,-2.51953 9.3164,-2.51953 2.98828,0 5.625,0.43945 2.63672,0.43946 4.86328,1.31836 z"
         style="font-style:normal;font-variant:normal;font-weight:normal;font-stretch:normal;font-size:60px;font-family:Sans;-inkscape-font-specification:Dingbats;text-align:start;text-anchor:start"
         id="path11346" />
      <path
         d="m 296.95703,446.51589 -16.69922,-43.74024 6.18164,0 13.85742,36.82617 13.88672,-36.82617 6.15235,0 -16.66992,43.74024 -6.70899,0 z"
         style="font-style:normal;font-variant:normal;font-weight:normal;font-stretch:normal;font-size:60px;font-family:Sans;-inkscape-font-specification:Dingbats;text-align:start;text-anchor:start"
         id="path11348" />
      <path
         d="m 325.16992,413.70339 5.39063,0 0,32.8125 -5.39063,0 0,-32.8125 z m 0,-12.77344 5.39063,0 0,6.82617 -5.39063,0 0,-6.82617 z"
         style="font-style:normal;font-variant:normal;font-weight:normal;font-stretch:normal;font-size:60px;font-family:Sans;-inkscape-font-specification:Dingbats;text-align:start;text-anchor:start"
         id="path11350" />
      <path
         d="m 369.87695,428.76198 0,2.63672 -24.78515,0 q 0.35156,5.56641 3.33984,8.49609 3.01758,2.90039 8.37891,2.90039 3.10547,0 6.00586,-0.76171 2.92968,-0.76172 5.80078,-2.28516 l 0,5.09766 q -2.90039,1.23046 -5.94727,1.875 -3.04687,0.64453 -6.18164,0.64453 -7.85156,0 -12.45117,-4.57032 -4.57031,-4.57031 -4.57031,-12.36328 0,-8.05664 4.33593,-12.77343 4.36524,-4.7461 11.74805,-4.7461 6.62109,0 10.45899,4.27735 3.86718,4.24804 3.86718,11.57226 z m -5.39062,-1.58203 q -0.0586,-4.42383 -2.49024,-7.06055 -2.40234,-2.63672 -6.38672,-2.63672 -4.51171,0 -7.23632,2.54883 -2.69532,2.54883 -3.10547,7.17774 l 19.21875,-0.0293 z"
         style="font-style:normal;font-variant:normal;font-weight:normal;font-stretch:normal;font-size:60px;font-family:Sans;-inkscape-font-specification:Dingbats;text-align:start;text-anchor:start"
         id="path11352" />
      <path
         d="m 375.58984,413.70339 5.39063,0 6.73828,25.60547 6.70898,-25.60547 6.35743,0 6.73828,25.60547 6.70898,-25.60547 5.39063,0 -8.58399,32.8125 -6.35742,0 -7.06055,-26.89453 -7.08984,26.89453 -6.35742,0 -8.58399,-32.8125 z"
         style="font-style:normal;font-variant:normal;font-weight:normal;font-stretch:normal;font-size:60px;font-family:Sans;-inkscape-font-specification:Dingbats;text-align:start;text-anchor:start"
         id="path11354" />
      <path
         d="m 446.92773,413.70339 5.39063,0 0,32.8125 -5.39063,0 0,-32.8125 z m 0,-12.77344 5.39063,0 0,6.82617 -5.39063,0 0,-6.82617 z"
         style="font-style:normal;font-variant:normal;font-weight:normal;font-stretch:normal;font-size:60px;font-family:Sans;-inkscape-font-specification:Dingbats;text-align:start;text-anchor:start"
         id="path11356" />
      <path
         d="m 484.48633,414.67018 0,5.09766 q -2.28516,-1.17187 -4.7461,-1.75781 -2.46093,-0.58594 -5.09765,-0.58594 -4.01367,0 -6.03516,1.23047 -1.99219,1.23047 -1.99219,3.69141 0,1.875 1.43555,2.95898 1.43555,1.05469 5.77149,2.02148 l 1.8457,0.41016 q 5.74219,1.23047 8.14453,3.48633 2.43164,2.22656 2.43164,6.24023 0,4.57032 -3.63281,7.23633 -3.60352,2.66602 -9.93164,2.66602 -2.63672,0 -5.50782,-0.52735 -2.84179,-0.49804 -6.00585,-1.52343 l 0,-5.56641 q 2.98828,1.55273 5.88867,2.34375 2.90039,0.76172 5.74218,0.76172 3.8086,0 5.85938,-1.28906 2.05078,-1.31836 2.05078,-3.69141 0,-2.19727 -1.49414,-3.36914 -1.46484,-1.17188 -6.47461,-2.25586 l -1.875,-0.43945 q -5.00976,-1.05469 -7.23633,-3.22266 -2.22656,-2.19727 -2.22656,-6.00586 0,-4.62891 3.28125,-7.14844 3.28125,-2.51953 9.31641,-2.51953 2.98828,0 5.625,0.43945 2.63672,0.43946 4.86328,1.31836 z"
         style="font-style:normal;font-variant:normal;font-weight:normal;font-stretch:normal;font-size:60px;font-family:Sans;-inkscape-font-specification:Dingbats;text-align:start;text-anchor:start"
         id="path11358" />
      <path
         d="m 534.87695,414.67018 0,5.09766 q -2.28515,-1.17187 -4.74609,-1.75781 -2.46094,-0.58594 -5.09766,-0.58594 -4.01367,0 -6.03515,1.23047 -1.99219,1.23047 -1.99219,3.69141 0,1.875 1.43555,2.95898 1.43554,1.05469 5.77148,2.02148 l 1.8457,0.41016 q 5.74219,1.23047 8.14453,3.48633 2.43165,2.22656 2.43165,6.24023 0,4.57032 -3.63282,7.23633 -3.60351,2.66602 -9.93164,2.66602 -2.63672,0 -5.50781,-0.52735 -2.8418,-0.49804 -6.00586,-1.52343 l 0,-5.56641 q 2.98828,1.55273 5.88867,2.34375 2.90039,0.76172 5.74219,0.76172 3.80859,0 5.85937,-1.28906 2.05079,-1.31836 2.05079,-3.69141 0,-2.19727 -1.49414,-3.36914 -1.46485,-1.17188 -6.47461,-2.25586 l -1.875,-0.43945 q -5.00977,-1.05469 -7.23633,-3.22266 -2.22656,-2.19727 -2.22656,-6.00586 0,-4.62891 3.28125,-7.14844 3.28125,-2.51953 9.3164,-2.51953 2.98828,0 5.625,0.43945 2.63672,0.43946 4.86328,1.31836 z"
         style="font-style:normal;font-variant:normal;font-weight:normal;font-stretch:normal;font-size:60px;font-family:Sans;-inkscape-font-specification:Dingbats;text-align:start;text-anchor:start"
         id="path11360" />
      <path
         d="m 573.31445,428.76198 0,2.63672 -24.78515,0 q 0.35156,5.56641 3.33984,8.49609 3.01758,2.90039 8.37891,2.90039 3.10547,0 6.00586,-0.76171 2.92968,-0.76172 5.80078,-2.28516 l 0,5.09766 q -2.90039,1.23046 -5.94727,1.875 -3.04687,0.64453 -6.18164,0.64453 -7.85156,0 -12.45117,-4.57032 -4.57031,-4.57031 -4.57031,-12.36328 0,-8.05664 4.33593,-12.77343 4.36524,-4.7461 11.74805,-4.7461 6.62109,0 10.45899,4.27735 3.86718,4.24804 3.86718,11.57226 z m -5.39062,-1.58203 q -0.0586,-4.42383 -2.49024,-7.06055 -2.40234,-2.63672 -6.38672,-2.63672 -4.51171,0 -7.23632,2.54883 -2.69532,2.54883 -3.10547,7.17774 l 19.21875,-0.0293 z"
         style="font-style:normal;font-variant:normal;font-weight:normal;font-stretch:normal;font-size:60px;font-family:Sans;-inkscape-font-specification:Dingbats;text-align:start;text-anchor:start"
         id="path11362" />
      <path
         d="m 587.37695,441.59401 0,17.40235 -5.41992,0 0,-45.29297 5.41992,0 0,4.98047 q 1.69922,-2.92969 4.27735,-4.33594 2.60742,-1.43555 6.21093,-1.43555 5.97657,0 9.69727,4.7461 3.75,4.74609 3.75,12.48046 0,7.73438 -3.75,12.48047 -3.7207,4.7461 -9.69727,4.7461 -3.60351,0 -6.21093,-1.40625 -2.57813,-1.43555 -4.27735,-4.36524 z m 18.33985,-11.45508 q 0,-5.94726 -2.46094,-9.3164 -2.43164,-3.39844 -6.70899,-3.39844 -4.27734,0 -6.73828,3.39844 -2.43164,3.36914 -2.43164,9.3164 0,5.94727 2.43164,9.34571 2.46094,3.36914 6.73828,3.36914 4.27735,0 6.70899,-3.36914 2.46094,-3.39844 2.46094,-9.34571 z"
         style="font-style:normal;font-variant:normal;font-weight:normal;font-stretch:normal;font-size:60px;font-family:Sans;-inkscape-font-specification:Dingbats;text-align:start;text-anchor:start"
         id="path11364" />
      <path
         d="m 635.16016,430.02175 q -6.53321,0 -9.05274,1.49414 -2.51953,1.49414 -2.51953,5.09765 0,2.8711 1.875,4.57032 1.9043,1.66992 5.15625,1.66992 4.48242,0 7.17773,-3.16406 2.72461,-3.19336 2.72461,-8.4668 l 0,-1.20117 -5.36132,0 z m 10.75195,-2.22657 0,18.72071 -5.39063,0 0,-4.98047 q -1.8457,2.98828 -4.59961,4.42383 -2.7539,1.40625 -6.73828,1.40625 -5.03906,0 -8.02734,-2.8125 -2.95898,-2.8418 -2.95898,-7.58789 0,-5.53711 3.6914,-8.34961 3.7207,-2.8125 11.07422,-2.8125 l 7.55859,0 0,-0.52735 q 0,-3.7207 -2.46093,-5.74218 -2.43164,-2.05079 -6.85547,-2.05079 -2.8125,0 -5.47852,0.67383 -2.66601,0.67383 -5.12695,2.02149 l 0,-4.98047 q 2.95898,-1.14258 5.74219,-1.69922 2.7832,-0.58594 5.41992,-0.58594 7.11914,0 10.63476,3.69141 3.51563,3.6914 3.51563,11.1914 z"
         style="font-style:normal;font-variant:normal;font-weight:normal;font-stretch:normal;font-size:60px;font-family:Sans;-inkscape-font-specification:Dingbats;text-align:start;text-anchor:start"
         id="path11366" />
      <path
         d="m 676.05859,418.74245 q -0.9082,-0.52734 -1.99218,-0.76172 -1.05469,-0.26367 -2.34375,-0.26367 -4.57032,0 -7.03125,2.98828 -2.43164,2.95898 -2.43164,8.52539 l 0,17.28516 -5.41993,0 0,-32.8125 5.41993,0 0,5.09765 q 1.69921,-2.98828 4.42382,-4.42382 2.72461,-1.46485 6.6211,-1.46485 0.55664,0 1.23047,0.0879 0.67382,0.0586 1.49414,0.20508 l 0.0293,5.53711 z"
         style="font-style:normal;font-variant:normal;font-weight:normal;font-stretch:normal;font-size:60px;font-family:Sans;-inkscape-font-specification:Dingbats;text-align:start;text-anchor:start"
         id="path11368" />
      <path
         d="m 708.54883,428.76198 0,2.63672 -24.78516,0 q 0.35156,5.56641 3.33985,8.49609 3.01757,2.90039 8.3789,2.90039 3.10547,0 6.00586,-0.76171 2.92969,-0.76172 5.80078,-2.28516 l 0,5.09766 q -2.90039,1.23046 -5.94726,1.875 -3.04688,0.64453 -6.18164,0.64453 -7.85157,0 -12.45118,-4.57032 -4.57031,-4.57031 -4.57031,-12.36328 0,-8.05664 4.33594,-12.77343 4.36523,-4.7461 11.74805,-4.7461 6.62109,0 10.45898,4.27735 3.86719,4.24804 3.86719,11.57226 z m -5.39063,-1.58203 q -0.0586,-4.42383 -2.49023,-7.06055 -2.40235,-2.63672 -6.38672,-2.63672 -4.51172,0 -7.23633,2.54883 -2.69531,2.54883 -3.10547,7.17774 l 19.21875,-0.0293 z"
         style="font-style:normal;font-variant:normal;font-weight:normal;font-stretch:normal;font-size:60px;font-family:Sans;-inkscape-font-specification:Dingbats;text-align:start;text-anchor:start"
         id="path11370" />
      <path
         d="m 722.72852,404.38698 0,9.31641 11.10351,0 0,4.18945 -11.10351,0 0,17.8125 q 0,4.01367 1.08398,5.15625 1.11328,1.14258 4.48242,1.14258 l 5.53711,0 0,4.51172 -5.53711,0 q -6.24023,0 -8.61328,-2.31446 -2.37305,-2.34375 -2.37305,-8.49609 l 0,-17.8125 -3.95507,0 0,-4.18945 3.95507,0 0,-9.31641 5.41993,0 z"
         style="font-style:normal;font-variant:normal;font-weight:normal;font-stretch:normal;font-size:60px;font-family:Sans;-inkscape-font-specification:Dingbats;text-align:start;text-anchor:start"
         id="path11372" />
      <path
         d="m 769.01758,428.76198 0,2.63672 -24.78516,0 q 0.35156,5.56641 3.33985,8.49609 3.01757,2.90039 8.3789,2.90039 3.10547,0 6.00586,-0.76171 2.92969,-0.76172 5.80078,-2.28516 l 0,5.09766 q -2.90039,1.23046 -5.94726,1.875 -3.04688,0.64453 -6.18164,0.64453 -7.85157,0 -12.45118,-4.57032 -4.57031,-4.57031 -4.57031,-12.36328 0,-8.05664 4.33594,-12.77343 4.36523,-4.7461 11.74805,-4.7461 6.62109,0 10.45898,4.27735 3.86719,4.24804 3.86719,11.57226 z m -5.39063,-1.58203 q -0.0586,-4.42383 -2.49023,-7.06055 -2.40235,-2.63672 -6.38672,-2.63672 -4.51172,0 -7.23633,2.54883 -2.69531,2.54883 -3.10547,7.17774 l 19.21875,-0.0293 z"
         style="font-style:normal;font-variant:normal;font-weight:normal;font-stretch:normal;font-size:60px;font-family:Sans;-inkscape-font-specification:Dingbats;text-align:start;text-anchor:start"
         id="path11374" />
      <path
         d="m 799.45703,418.68386 0,-17.75391 5.39063,0 0,45.58594 -5.39063,0 0,-4.92188 q -1.69922,2.92969 -4.30664,4.36524 -2.57812,1.40625 -6.21094,1.40625 -5.94726,0 -9.69726,-4.7461 -3.72071,-4.74609 -3.72071,-12.48047 0,-7.73437 3.72071,-12.48046 3.75,-4.7461 9.69726,-4.7461 3.63282,0 6.21094,1.43555 2.60742,1.40625 4.30664,4.33594 z m -18.36914,11.45507 q 0,5.94727 2.43164,9.34571 2.46094,3.36914 6.73828,3.36914 4.27735,0 6.73828,-3.36914 2.46094,-3.39844 2.46094,-9.34571 0,-5.94726 -2.46094,-9.3164 -2.46093,-3.39844 -6.73828,-3.39844 -4.27734,0 -6.73828,3.39844 -2.43164,3.36914 -2.43164,9.3164 z"
         style="font-style:normal;font-variant:normal;font-weight:normal;font-stretch:normal;font-size:60px;font-family:Sans;-inkscape-font-specification:Dingbats;text-align:start;text-anchor:start"
         id="path11376" />
      <path
         d="m 851.66406,400.92995 0,4.48242 -5.15625,0 q -2.90039,0 -4.04297,1.17188 -1.11328,1.17187 -1.11328,4.21875 l 0,2.90039 8.87696,0 0,4.18945 -8.87696,0 0,28.62305 -5.41992,0 0,-28.62305 -5.15625,0 0,-4.18945 5.15625,0 0,-2.28516 q 0,-5.47851 2.54883,-7.96875 2.54883,-2.51953 8.08594,-2.51953 l 5.09765,0 z"
         style="font-style:normal;font-variant:normal;font-weight:normal;font-stretch:normal;font-size:60px;font-family:Sans;-inkscape-font-specification:Dingbats;text-align:start;text-anchor:start"
         id="path11378" />
      <path
         d="m 875.16016,418.74245 q -0.90821,-0.52734 -1.99219,-0.76172 -1.05469,-0.26367 -2.34375,-0.26367 -4.57031,0 -7.03125,2.98828 -2.43164,2.95898 -2.43164,8.52539 l 0,17.28516 -5.41992,0 0,-32.8125 5.41992,0 0,5.09765 q 1.69922,-2.98828 4.42383,-4.42382 2.72461,-1.46485 6.62109,-1.46485 0.55664,0 1.23047,0.0879 0.67383,0.0586 1.49414,0.20508 l 0.0293,5.53711 z"
         style="font-style:normal;font-variant:normal;font-weight:normal;font-stretch:normal;font-size:60px;font-family:Sans;-inkscape-font-specification:Dingbats;text-align:start;text-anchor:start"
         id="path11380" />
      <path
         d="m 892.29883,417.48268 q -4.33594,0 -6.85547,3.39844 -2.51953,3.36914 -2.51953,9.25781 0,5.88868 2.49023,9.28711 2.51953,3.36914 6.88477,3.36914 4.30664,0 6.82617,-3.39843 2.51953,-3.39844 2.51953,-9.25782 0,-5.83007 -2.51953,-9.22851 -2.51953,-3.42774 -6.82617,-3.42774 z m 0,-4.57031 q 7.03125,0 11.04492,4.57031 4.01367,4.57032 4.01367,12.65625 0,8.05664 -4.01367,12.65625 -4.01367,4.57032 -11.04492,4.57032 -7.06055,0 -11.07422,-4.57032 -3.98438,-4.59961 -3.98438,-12.65625 0,-8.08593 3.98438,-12.65625 4.01367,-4.57031 11.07422,-4.57031 z"
         style="font-style:normal;font-variant:normal;font-weight:normal;font-stretch:normal;font-size:60px;font-family:Sans;-inkscape-font-specification:Dingbats;text-align:start;text-anchor:start"
         id="path11382" />
      <path
         d="m 941.81055,420.00222 q 2.02148,-3.63282 4.83398,-5.36133 2.8125,-1.72852 6.62109,-1.72852 5.12696,0 7.91016,3.60352 2.7832,3.57422 2.7832,10.19531 l 0,19.80469 -5.41992,0 0,-19.62891 q 0,-4.7168 -1.66992,-7.00195 -1.66992,-2.28516 -5.09766,-2.28516 -4.18945,0 -6.62109,2.7832 -2.43164,2.78321 -2.43164,7.5879 l 0,18.54492 -5.41992,0 0,-19.62891 q 0,-4.74609 -1.66992,-7.00195 -1.66993,-2.28516 -5.15625,-2.28516 -4.13086,0 -6.5625,2.8125 -2.43164,2.7832 -2.43164,7.5586 l 0,18.54492 -5.41993,0 0,-32.8125 5.41993,0 0,5.09765 q 1.8457,-3.01757 4.42382,-4.45312 2.57813,-1.43555 6.12305,-1.43555 3.57422,0 6.06445,1.81641 2.51953,1.8164 3.72071,5.27344 z"
         style="font-style:normal;font-variant:normal;font-weight:normal;font-stretch:normal;font-size:60px;font-family:Sans;-inkscape-font-specification:Dingbats;text-align:start;text-anchor:start"
         id="path11384" />
      <path
         d="m 993.8418,413.70339 5.39062,0 0,33.39843 q 0,6.26954 -2.40234,9.08204 -2.37305,2.8125 -7.67578,2.8125 l -2.05078,0 0,-4.57032 1.43554,0 q 3.07617,0 4.18946,-1.43554 1.11328,-1.40625 1.11328,-5.88868 l 0,-33.39843 z m 0,-12.77344 5.39062,0 0,6.82617 -5.39062,0 0,-6.82617 z"
         style="font-style:normal;font-variant:normal;font-weight:normal;font-stretch:normal;font-size:60px;font-family:Sans;-inkscape-font-specification:Dingbats;text-align:start;text-anchor:start"
         id="path11386" />
      <path
         d="m 1031.4004,414.67018 0,5.09766 q -2.2852,-1.17187 -4.7461,-1.75781 -2.4609,-0.58594 -5.0977,-0.58594 -4.0136,0 -6.0351,1.23047 -1.9922,1.23047 -1.9922,3.69141 0,1.875 1.4355,2.95898 1.4356,1.05469 5.7715,2.02148 l 1.8457,0.41016 q 5.7422,1.23047 8.1446,3.48633 2.4316,2.22656 2.4316,6.24023 0,4.57032 -3.6328,7.23633 -3.6035,2.66602 -9.9317,2.66602 -2.6367,0 -5.5078,-0.52735 -2.8418,-0.49804 -6.0058,-1.52343 l 0,-5.56641 q 2.9883,1.55273 5.8886,2.34375 2.9004,0.76172 5.7422,0.76172 3.8086,0 5.8594,-1.28906 2.0508,-1.31836 2.0508,-3.69141 0,-2.19727 -1.4941,-3.36914 -1.4649,-1.17188 -6.4747,-2.25586 l -1.875,-0.43945 q -5.0097,-1.05469 -7.2363,-3.22266 -2.2265,-2.19727 -2.2265,-6.00586 0,-4.62891 3.2812,-7.14844 3.2813,-2.51953 9.3164,-2.51953 2.9883,0 5.625,0.43945 2.6367,0.43946 4.8633,1.31836 z"
         style="font-style:normal;font-variant:normal;font-weight:normal;font-stretch:normal;font-size:60px;font-family:Sans;-inkscape-font-specification:Dingbats;text-align:start;text-anchor:start"
         id="path11388" />
      <path
         d="m 1084.4277,430.13893 q 0,-5.94726 -2.4609,-9.3164 -2.4316,-3.39844 -6.709,-3.39844 -4.2773,0 -6.7383,3.39844 -2.4316,3.36914 -2.4316,9.3164 0,5.94727 2.4316,9.34571 2.461,3.36914 6.7383,3.36914 4.2774,0 6.709,-3.36914 2.4609,-3.39844 2.4609,-9.34571 z m -18.3398,-11.45507 q 1.6992,-2.92969 4.2773,-4.33594 2.6075,-1.43555 6.211,-1.43555 5.9765,0 9.6972,4.7461 3.75,4.74609 3.75,12.48046 0,7.73438 -3.75,12.48047 -3.7207,4.7461 -9.6972,4.7461 -3.6035,0 -6.211,-1.40625 -2.5781,-1.43555 -4.2773,-4.36524 l 0,4.92188 -5.4199,0 0,-45.58594 5.4199,0 0,17.75391 z"
         style="font-style:normal;font-variant:normal;font-weight:normal;font-stretch:normal;font-size:60px;font-family:Sans;-inkscape-font-specification:Dingbats;text-align:start;text-anchor:start"
         id="path11390" />
      <path
         d="m 1112.6113,449.56276 q -2.2851,5.85938 -4.4531,7.64649 -2.168,1.78711 -5.8008,1.78711 l -4.3066,0 0,-4.51172 3.164,0 q 2.2266,0 3.4571,-1.05469 1.2304,-1.05469 2.7246,-4.98047 l 0.9668,-2.46094 -13.2715,-32.28515 5.7129,0 10.2539,25.66406 10.2539,-25.66406 5.7129,0 -14.4141,35.85937 z"
         style="font-style:normal;font-variant:normal;font-weight:normal;font-stretch:normal;font-size:60px;font-family:Sans;-inkscape-font-specification:Dingbats;text-align:start;text-anchor:start"
         id="path11392" />
      <path
         d="m 284.88672,508.56667 0,-19.86328 5.39062,0 0,19.6582 q 0,4.6582 1.81641,7.00195 1.81641,2.31446 5.44922,2.31446 4.36523,0 6.88476,-2.78321 2.54883,-2.7832 2.54883,-7.58789 l 0,-18.60351 5.39063,0 0,32.8125 -5.39063,0 0,-5.03907 q -1.96289,2.98829 -4.57031,4.45313 -2.57813,1.43555 -6.00586,1.43555 -5.6543,0 -8.58398,-3.51563 -2.92969,-3.51562 -2.92969,-10.2832 z m 13.56445,-20.6543 0,0 z"
         style="font-style:normal;font-variant:normal;font-weight:normal;font-stretch:normal;font-size:60px;font-family:Sans;-inkscape-font-specification:Dingbats;text-align:start;text-anchor:start"
         id="path11394" />
      <path
         d="m 344.44727,489.67018 0,5.09766 q -2.28516,-1.17187 -4.7461,-1.75781 -2.46094,-0.58594 -5.09765,-0.58594 -4.01368,0 -6.03516,1.23047 -1.99219,1.23047 -1.99219,3.69141 0,1.875 1.43555,2.95898 1.43555,1.05469 5.77148,2.02148 l 1.84571,0.41016 q 5.74218,1.23047 8.14453,3.48633 2.43164,2.22656 2.43164,6.24023 0,4.57032 -3.63281,7.23633 -3.60352,2.66602 -9.93165,2.66602 -2.63671,0 -5.50781,-0.52735 -2.84179,-0.49804 -6.00586,-1.52343 l 0,-5.56641 q 2.98828,1.55273 5.88867,2.34375 2.9004,0.76172 5.74219,0.76172 3.8086,0 5.85938,-1.28906 2.05078,-1.31836 2.05078,-3.69141 0,-2.19727 -1.49414,-3.36914 -1.46485,-1.17188 -6.47461,-2.25586 l -1.875,-0.43945 q -5.00977,-1.05469 -7.23633,-3.22266 -2.22656,-2.19727 -2.22656,-6.00586 0,-4.62891 3.28125,-7.14844 3.28125,-2.51953 9.3164,-2.51953 2.98829,0 5.625,0.43945 2.63672,0.43946 4.86329,1.31836 z"
         style="font-style:normal;font-variant:normal;font-weight:normal;font-stretch:normal;font-size:60px;font-family:Sans;-inkscape-font-specification:Dingbats;text-align:start;text-anchor:start"
         id="path11396" />
      <path
         d="m 354.81836,488.70339 5.39062,0 0,32.8125 -5.39062,0 0,-32.8125 z m 0,-12.77344 5.39062,0 0,6.82617 -5.39062,0 0,-6.82617 z"
         style="font-style:normal;font-variant:normal;font-weight:normal;font-stretch:normal;font-size:60px;font-family:Sans;-inkscape-font-specification:Dingbats;text-align:start;text-anchor:start"
         id="path11398" />
      <path
         d="m 398.73437,501.7112 0,19.80469 -5.39062,0 0,-19.62891 q 0,-4.6582 -1.81641,-6.97266 -1.8164,-2.31445 -5.44922,-2.31445 -4.36523,0 -6.88476,2.7832 -2.51953,2.78321 -2.51953,7.5879 l 0,18.54492 -5.41992,0 0,-32.8125 5.41992,0 0,5.09765 q 1.93359,-2.95898 4.54101,-4.42382 2.63672,-1.46485 6.06446,-1.46485 5.65429,0 8.55468,3.51563 2.90039,3.48632 2.90039,10.2832 z"
         style="font-style:normal;font-variant:normal;font-weight:normal;font-stretch:normal;font-size:60px;font-family:Sans;-inkscape-font-specification:Dingbats;text-align:start;text-anchor:start"
         id="path11400" />
      <path
         d="m 431.13672,504.72878 q 0,-5.85938 -2.43164,-9.08203 -2.40235,-3.22266 -6.76758,-3.22266 -4.33594,0 -6.76758,3.22266 -2.40234,3.22265 -2.40234,9.08203 0,5.83008 2.40234,9.05273 2.43164,3.22266 6.76758,3.22266 4.36523,0 6.76758,-3.22266 2.43164,-3.22265 2.43164,-9.05273 z m 5.39062,12.71484 q 0,8.37891 -3.7207,12.45117 -3.7207,4.10157 -11.39648,4.10157 -2.8418,0 -5.36133,-0.43946 -2.51953,-0.41015 -4.89258,-1.28906 l 0,-5.24414 q 2.37305,1.28906 4.6875,1.9043 2.31445,0.61523 4.7168,0.61523 5.30273,0 7.93945,-2.7832 2.63672,-2.75391 2.63672,-8.34961 l 0,-2.66602 q -1.66992,2.90039 -4.27735,4.33594 -2.60742,1.43555 -6.24023,1.43555 -6.03516,0 -9.72656,-4.59961 -3.69141,-4.59961 -3.69141,-12.1875 0,-7.61719 3.69141,-12.2168 3.6914,-4.59961 9.72656,-4.59961 3.63281,0 6.24023,1.43555 2.60743,1.43555 4.27735,4.33594 l 0,-4.98047 5.39062,0 0,28.74023 z"
         style="font-style:normal;font-variant:normal;font-weight:normal;font-stretch:normal;font-size:60px;font-family:Sans;-inkscape-font-specification:Dingbats;text-align:start;text-anchor:start"
         id="path11402" />
      <path
         d="m 494.00781,501.7112 0,19.80469 -5.39062,0 0,-19.62891 q 0,-4.6582 -1.81641,-6.97266 -1.81641,-2.31445 -5.44922,-2.31445 -4.36523,0 -6.88476,2.7832 -2.51953,2.78321 -2.51953,7.5879 l 0,18.54492 -5.41993,0 0,-45.58594 5.41993,0 0,17.87109 q 1.93359,-2.95898 4.54101,-4.42382 2.63672,-1.46485 6.06445,-1.46485 5.6543,0 8.55469,3.51563 2.90039,3.48632 2.90039,10.2832 z"
         style="font-style:normal;font-variant:normal;font-weight:normal;font-stretch:normal;font-size:60px;font-family:Sans;-inkscape-font-specification:Dingbats;text-align:start;text-anchor:start"
         id="path11404" />
      <path
         d="m 510.15039,479.38698 0,9.31641 11.10352,0 0,4.18945 -11.10352,0 0,17.8125 q 0,4.01367 1.08398,5.15625 1.11329,1.14258 4.48243,1.14258 l 5.53711,0 0,4.51172 -5.53711,0 q -6.24024,0 -8.61328,-2.31446 -2.37305,-2.34375 -2.37305,-8.49609 l 0,-17.8125 -3.95508,0 0,-4.18945 3.95508,0 0,-9.31641 5.41992,0 z"
         style="font-style:normal;font-variant:normal;font-weight:normal;font-stretch:normal;font-size:60px;font-family:Sans;-inkscape-font-specification:Dingbats;text-align:start;text-anchor:start"
         id="path11406" />
      <path
         d="m 553.91992,495.00222 q 2.02149,-3.63282 4.83399,-5.36133 2.8125,-1.72852 6.62109,-1.72852 5.12695,0 7.91016,3.60352 2.7832,3.57422 2.7832,10.19531 l 0,19.80469 -5.41992,0 0,-19.62891 q 0,-4.7168 -1.66992,-7.00195 -1.66993,-2.28516 -5.09766,-2.28516 -4.18945,0 -6.62109,2.7832 -2.43165,2.78321 -2.43165,7.5879 l 0,18.54492 -5.41992,0 0,-19.62891 q 0,-4.74609 -1.66992,-7.00195 -1.66992,-2.28516 -5.15625,-2.28516 -4.13086,0 -6.5625,2.8125 -2.43164,2.7832 -2.43164,7.5586 l 0,18.54492 -5.41992,0 0,-32.8125 5.41992,0 0,5.09765 q 1.8457,-3.01757 4.42383,-4.45312 2.57812,-1.43555 6.12305,-1.43555 3.57421,0 6.06445,1.81641 2.51953,1.8164 3.7207,5.27344 z"
         style="font-style:normal;font-variant:normal;font-weight:normal;font-stretch:normal;font-size:60px;font-family:Sans;-inkscape-font-specification:Dingbats;text-align:start;text-anchor:start"
         id="path11408" />
      <path
         d="m 586.84961,475.92995 5.39062,0 0,45.58594 -5.39062,0 0,-45.58594 z"
         style="font-style:normal;font-variant:normal;font-weight:normal;font-stretch:normal;font-size:60px;font-family:Sans;-inkscape-font-specification:Dingbats;text-align:start;text-anchor:start"
         id="path11410" />
      <path
         d="m 627.92383,479.38698 0,9.31641 11.10351,0 0,4.18945 -11.10351,0 0,17.8125 q 0,4.01367 1.08398,5.15625 1.11328,1.14258 4.48242,1.14258 l 5.53711,0 0,4.51172 -5.53711,0 q -6.24023,0 -8.61328,-2.31446 -2.37304,-2.34375 -2.37304,-8.49609 l 0,-17.8125 -3.95508,0 0,-4.18945 3.95508,0 0,-9.31641 5.41992,0 z"
         style="font-style:normal;font-variant:normal;font-weight:normal;font-stretch:normal;font-size:60px;font-family:Sans;-inkscape-font-specification:Dingbats;text-align:start;text-anchor:start"
         id="path11412" />
      <path
         d="m 674.21289,503.76198 0,2.63672 -24.78516,0 q 0.35157,5.56641 3.33985,8.49609 3.01758,2.90039 8.3789,2.90039 3.10547,0 6.00586,-0.76171 2.92969,-0.76172 5.80078,-2.28516 l 0,5.09766 q -2.90039,1.23046 -5.94726,1.875 -3.04688,0.64453 -6.18164,0.64453 -7.85156,0 -12.45117,-4.57032 -4.57032,-4.57031 -4.57032,-12.36328 0,-8.05664 4.33594,-12.77343 4.36524,-4.7461 11.74805,-4.7461 6.62109,0 10.45898,4.27735 3.86719,4.24804 3.86719,11.57226 z m -5.39062,-1.58203 q -0.0586,-4.42383 -2.49024,-7.06055 -2.40234,-2.63672 -6.38672,-2.63672 -4.51172,0 -7.23633,2.54883 -2.69531,2.54883 -3.10546,7.17774 l 19.21875,-0.0293 z"
         style="font-style:normal;font-variant:normal;font-weight:normal;font-stretch:normal;font-size:60px;font-family:Sans;-inkscape-font-specification:Dingbats;text-align:start;text-anchor:start"
         id="path11414" />
      <path
         d="m 708.60742,495.00222 q 2.02149,-3.63282 4.83399,-5.36133 2.8125,-1.72852 6.62109,-1.72852 5.12695,0 7.91016,3.60352 2.7832,3.57422 2.7832,10.19531 l 0,19.80469 -5.41992,0 0,-19.62891 q 0,-4.7168 -1.66992,-7.00195 -1.66993,-2.28516 -5.09766,-2.28516 -4.18945,0 -6.62109,2.7832 -2.43165,2.78321 -2.43165,7.5879 l 0,18.54492 -5.41992,0 0,-19.62891 q 0,-4.74609 -1.66992,-7.00195 -1.66992,-2.28516 -5.15625,-2.28516 -4.13086,0 -6.5625,2.8125 -2.43164,2.7832 -2.43164,7.5586 l 0,18.54492 -5.41992,0 0,-32.8125 5.41992,0 0,5.09765 q 1.8457,-3.01757 4.42383,-4.45312 2.57812,-1.43555 6.12305,-1.43555 3.57421,0 6.06445,1.81641 2.51953,1.8164 3.7207,5.27344 z"
         style="font-style:normal;font-variant:normal;font-weight:normal;font-stretch:normal;font-size:60px;font-family:Sans;-inkscape-font-specification:Dingbats;text-align:start;text-anchor:start"
         id="path11416" />
      <path
         d="m 746.75195,516.59401 0,17.40235 -5.41992,0 0,-45.29297 5.41992,0 0,4.98047 q 1.69922,-2.92969 4.27735,-4.33594 2.60742,-1.43555 6.21093,-1.43555 5.97657,0 9.69727,4.7461 3.75,4.74609 3.75,12.48046 0,7.73438 -3.75,12.48047 -3.7207,4.7461 -9.69727,4.7461 -3.60351,0 -6.21093,-1.40625 -2.57813,-1.43555 -4.27735,-4.36524 z m 18.33985,-11.45508 q 0,-5.94726 -2.46094,-9.3164 -2.43164,-3.39844 -6.70899,-3.39844 -4.27734,0 -6.73828,3.39844 -2.43164,3.36914 -2.43164,9.3164 0,5.94727 2.43164,9.34571 2.46094,3.36914 6.73828,3.36914 4.27735,0 6.70899,-3.36914 2.46094,-3.39844 2.46094,-9.34571 z"
         style="font-style:normal;font-variant:normal;font-weight:normal;font-stretch:normal;font-size:60px;font-family:Sans;-inkscape-font-specification:Dingbats;text-align:start;text-anchor:start"
         id="path11418" />
      <path
         d="m 779.62305,475.92995 5.39062,0 0,45.58594 -5.39062,0 0,-45.58594 z"
         style="font-style:normal;font-variant:normal;font-weight:normal;font-stretch:normal;font-size:60px;font-family:Sans;-inkscape-font-specification:Dingbats;text-align:start;text-anchor:start"
         id="path11420" />
      <path
         d="m 811.17578,505.02175 q -6.5332,0 -9.05273,1.49414 -2.51953,1.49414 -2.51953,5.09765 0,2.8711 1.875,4.57032 1.90429,1.66992 5.15625,1.66992 4.48242,0 7.17773,-3.16406 2.72461,-3.19336 2.72461,-8.4668 l 0,-1.20117 -5.36133,0 z m 10.75195,-2.22657 0,18.72071 -5.39062,0 0,-4.98047 q -1.8457,2.98828 -4.59961,4.42383 -2.75391,1.40625 -6.73828,1.40625 -5.03906,0 -8.02735,-2.8125 -2.95898,-2.8418 -2.95898,-7.58789 0,-5.53711 3.69141,-8.34961 3.7207,-2.8125 11.07422,-2.8125 l 7.55859,0 0,-0.52735 q 0,-3.7207 -2.46094,-5.74218 -2.43164,-2.05079 -6.85547,-2.05079 -2.8125,0 -5.47851,0.67383 -2.66602,0.67383 -5.12696,2.02149 l 0,-4.98047 q 2.95899,-1.14258 5.74219,-1.69922 2.7832,-0.58594 5.41992,-0.58594 7.11914,0 10.63477,3.69141 3.51562,3.6914 3.51562,11.1914 z"
         style="font-style:normal;font-variant:normal;font-weight:normal;font-stretch:normal;font-size:60px;font-family:Sans;-inkscape-font-specification:Dingbats;text-align:start;text-anchor:start"
         id="path11422" />
      <path
         d="m 838.39258,479.38698 0,9.31641 11.10351,0 0,4.18945 -11.10351,0 0,17.8125 q 0,4.01367 1.08398,5.15625 1.11328,1.14258 4.48242,1.14258 l 5.53711,0 0,4.51172 -5.53711,0 q -6.24023,0 -8.61328,-2.31446 -2.37304,-2.34375 -2.37304,-8.49609 l 0,-17.8125 -3.95508,0 0,-4.18945 3.95508,0 0,-9.31641 5.41992,0 z"
         style="font-style:normal;font-variant:normal;font-weight:normal;font-stretch:normal;font-size:60px;font-family:Sans;-inkscape-font-specification:Dingbats;text-align:start;text-anchor:start"
         id="path11424" />
      <path
         d="m 884.68164,503.76198 0,2.63672 -24.78516,0 q 0.35157,5.56641 3.33985,8.49609 3.01758,2.90039 8.3789,2.90039 3.10547,0 6.00586,-0.76171 2.92969,-0.76172 5.80078,-2.28516 l 0,5.09766 q -2.90039,1.23046 -5.94726,1.875 -3.04688,0.64453 -6.18164,0.64453 -7.85156,0 -12.45117,-4.57032 -4.57032,-4.57031 -4.57032,-12.36328 0,-8.05664 4.33594,-12.77343 4.36524,-4.7461 11.74805,-4.7461 6.62109,0 10.45898,4.27735 3.86719,4.24804 3.86719,11.57226 z m -5.39062,-1.58203 q -0.0586,-4.42383 -2.49024,-7.06055 -2.40234,-2.63672 -6.38672,-2.63672 -4.51172,0 -7.23633,2.54883 -2.69531,2.54883 -3.10546,7.17774 l 19.21875,-0.0293 z"
         style="font-style:normal;font-variant:normal;font-weight:normal;font-stretch:normal;font-size:60px;font-family:Sans;-inkscape-font-specification:Dingbats;text-align:start;text-anchor:start"
         id="path11426" />
      <path
         d="m 914.44727,489.67018 0,5.09766 q -2.28516,-1.17187 -4.7461,-1.75781 -2.46094,-0.58594 -5.09765,-0.58594 -4.01368,0 -6.03516,1.23047 -1.99219,1.23047 -1.99219,3.69141 0,1.875 1.43555,2.95898 1.43555,1.05469 5.77148,2.02148 l 1.84571,0.41016 q 5.74218,1.23047 8.14453,3.48633 2.43164,2.22656 2.43164,6.24023 0,4.57032 -3.63281,7.23633 -3.60352,2.66602 -9.93165,2.66602 -2.63671,0 -5.50781,-0.52735 -2.84179,-0.49804 -6.00586,-1.52343 l 0,-5.56641 q 2.98828,1.55273 5.88867,2.34375 2.9004,0.76172 5.74219,0.76172 3.8086,0 5.85938,-1.28906 2.05078,-1.31836 2.05078,-3.69141 0,-2.19727 -1.49414,-3.36914 -1.46485,-1.17188 -6.47461,-2.25586 l -1.875,-0.43945 q -5.00977,-1.05469 -7.23633,-3.22266 -2.22656,-2.19727 -2.22656,-6.00586 0,-4.62891 3.28125,-7.14844 3.28125,-2.51953 9.3164,-2.51953 2.98829,0 5.625,0.43945 2.63672,0.43946 4.86329,1.31836 z"
         style="font-style:normal;font-variant:normal;font-weight:normal;font-stretch:normal;font-size:60px;font-family:Sans;-inkscape-font-specification:Dingbats;text-align:start;text-anchor:start"
         id="path11428" />
      <path
         d="m 307.03516,643.68386 0,-17.75391 5.39062,0 0,45.58594 -5.39062,0 0,-4.92188 q -1.69922,2.92969 -4.30664,4.36524 -2.57813,1.40625 -6.21094,1.40625 -5.94727,0 -9.69727,-4.7461 -3.7207,-4.74609 -3.7207,-12.48047 0,-7.73437 3.7207,-12.48046 3.75,-4.7461 9.69727,-4.7461 3.63281,0 6.21094,1.43555 2.60742,1.40625 4.30664,4.33594 z m -18.36914,11.45507 q 0,5.94727 2.43164,9.34571 2.46093,3.36914 6.73828,3.36914 4.27734,0 6.73828,-3.36914 2.46094,-3.39844 2.46094,-9.34571 0,-5.94726 -2.46094,-9.3164 -2.46094,-3.39844 -6.73828,-3.39844 -4.27735,0 -6.73828,3.39844 -2.43164,3.36914 -2.43164,9.3164 z"
         style="font-style:normal;font-variant:normal;font-weight:normal;font-stretch:normal;font-size:60px;font-family:Sans;-inkscape-font-specification:Dingbats;text-align:start;text-anchor:start"
         id="path11430" />
      <path
         d="m 336.24414,642.48268 q -4.33594,0 -6.85547,3.39844 -2.51953,3.36914 -2.51953,9.25781 0,5.88868 2.49023,9.28711 2.51954,3.36914 6.88477,3.36914 4.30664,0 6.82617,-3.39843 2.51953,-3.39844 2.51953,-9.25782 0,-5.83007 -2.51953,-9.22851 -2.51953,-3.42774 -6.82617,-3.42774 z m 0,-4.57031 q 7.03125,0 11.04492,4.57031 4.01367,4.57032 4.01367,12.65625 0,8.05664 -4.01367,12.65625 -4.01367,4.57032 -11.04492,4.57032 -7.06055,0 -11.07422,-4.57032 -3.98437,-4.59961 -3.98437,-12.65625 0,-8.08593 3.98437,-12.65625 4.01367,-4.57031 11.07422,-4.57031 z"
         style="font-style:normal;font-variant:normal;font-weight:normal;font-stretch:normal;font-size:60px;font-family:Sans;-inkscape-font-specification:Dingbats;text-align:start;text-anchor:start"
         id="path11432" />
      <path
         d="m 360.20898,638.70339 5.39063,0 0,33.39843 q 0,6.26954 -2.40234,9.08204 -2.37305,2.8125 -7.67579,2.8125 l -2.05078,0 0,-4.57032 1.43555,0 q 3.07617,0 4.18945,-1.43554 1.11328,-1.40625 1.11328,-5.88868 l 0,-33.39843 z m 0,-12.77344 5.39063,0 0,6.82617 -5.39063,0 0,-6.82617 z"
         style="font-style:normal;font-variant:normal;font-weight:normal;font-stretch:normal;font-size:60px;font-family:Sans;-inkscape-font-specification:Dingbats;text-align:start;text-anchor:start"
         id="path11434" />
      <path
         d="m 389.56445,642.48268 q -4.33593,0 -6.85547,3.39844 -2.51953,3.36914 -2.51953,9.25781 0,5.88868 2.49024,9.28711 2.51953,3.36914 6.88476,3.36914 4.30664,0 6.82617,-3.39843 2.51954,-3.39844 2.51954,-9.25782 0,-5.83007 -2.51954,-9.22851 -2.51953,-3.42774 -6.82617,-3.42774 z m 0,-4.57031 q 7.03125,0 11.04492,4.57031 4.01368,4.57032 4.01368,12.65625 0,8.05664 -4.01368,12.65625 -4.01367,4.57032 -11.04492,4.57032 -7.06054,0 -11.07422,-4.57032 -3.98437,-4.59961 -3.98437,-12.65625 0,-8.08593 3.98437,-12.65625 4.01368,-4.57031 11.07422,-4.57031 z"
         style="font-style:normal;font-variant:normal;font-weight:normal;font-stretch:normal;font-size:60px;font-family:Sans;-inkscape-font-specification:Dingbats;text-align:start;text-anchor:start"
         id="path11436" />
      <path
         d="m 423.10937,627.77565 4.98047,0 -15.23437,49.30664 -4.98047,0 15.23437,-49.30664 z"
         style="font-style:normal;font-variant:normal;font-weight:normal;font-stretch:normal;font-size:60px;font-family:Sans;-inkscape-font-specification:Dingbats;text-align:start;text-anchor:start"
         id="path11438" />
      <path
         d="m 439.95508,632.63893 0,16.43555 7.4414,0 q 4.13086,0 6.38672,-2.13867 2.25586,-2.13867 2.25586,-6.09375 0,-3.92578 -2.25586,-6.06445 -2.25586,-2.13868 -6.38672,-2.13868 l -7.4414,0 z m -5.91797,-4.86328 13.35937,0 q 7.35352,0 11.10352,3.33985 3.7793,3.31054 3.7793,9.72656 0,6.47461 -3.7793,9.78516 -3.75,3.31054 -11.10352,3.31054 l -7.4414,0 0,17.57813 -5.91797,0 0,-43.74024 z"
         style="font-style:normal;font-variant:normal;font-weight:normal;font-stretch:normal;font-size:60px;font-family:Sans;-inkscape-font-specification:Dingbats;text-align:start;text-anchor:start"
         id="path11440" />
      <path
         d="m 482.23047,655.02175 q -6.5332,0 -9.05274,1.49414 -2.51953,1.49414 -2.51953,5.09765 0,2.8711 1.875,4.57032 1.9043,1.66992 5.15625,1.66992 4.48242,0 7.17774,-3.16406 2.72461,-3.19336 2.72461,-8.4668 l 0,-1.20117 -5.36133,0 z m 10.75195,-2.22657 0,18.72071 -5.39062,0 0,-4.98047 q -1.84571,2.98828 -4.59961,4.42383 -2.75391,1.40625 -6.73828,1.40625 -5.03907,0 -8.02735,-2.8125 -2.95898,-2.8418 -2.95898,-7.58789 0,-5.53711 3.6914,-8.34961 3.72071,-2.8125 11.07422,-2.8125 l 7.5586,0 0,-0.52735 q 0,-3.7207 -2.46094,-5.74218 -2.43164,-2.05079 -6.85547,-2.05079 -2.8125,0 -5.47852,0.67383 -2.66601,0.67383 -5.12695,2.02149 l 0,-4.98047 q 2.95899,-1.14258 5.74219,-1.69922 2.7832,-0.58594 5.41992,-0.58594 7.11914,0 10.63477,3.69141 3.51562,3.6914 3.51562,11.1914 z"
         style="font-style:normal;font-variant:normal;font-weight:normal;font-stretch:normal;font-size:60px;font-family:Sans;-inkscape-font-specification:Dingbats;text-align:start;text-anchor:start"
         id="path11442" />
      <path
         d="m 523.12891,643.74245 q -0.90821,-0.52734 -1.99219,-0.76172 -1.05469,-0.26367 -2.34375,-0.26367 -4.57031,0 -7.03125,2.98828 -2.43164,2.95898 -2.43164,8.52539 l 0,17.28516 -5.41992,0 0,-32.8125 5.41992,0 0,5.09765 q 1.69922,-2.98828 4.42383,-4.42382 2.72461,-1.46485 6.62109,-1.46485 0.55664,0 1.23047,0.0879 0.67383,0.0586 1.49414,0.20508 l 0.0293,5.53711 z"
         style="font-style:normal;font-variant:normal;font-weight:normal;font-stretch:normal;font-size:60px;font-family:Sans;-inkscape-font-specification:Dingbats;text-align:start;text-anchor:start"
         id="path11444" />
      <path
         d="m 549.75977,639.67018 0,5.09766 q -2.28516,-1.17187 -4.7461,-1.75781 -2.46094,-0.58594 -5.09765,-0.58594 -4.01368,0 -6.03516,1.23047 -1.99219,1.23047 -1.99219,3.69141 0,1.875 1.43555,2.95898 1.43555,1.05469 5.77148,2.02148 l 1.84571,0.41016 q 5.74218,1.23047 8.14453,3.48633 2.43164,2.22656 2.43164,6.24023 0,4.57032 -3.63281,7.23633 -3.60352,2.66602 -9.93165,2.66602 -2.63671,0 -5.50781,-0.52735 -2.84179,-0.49804 -6.00586,-1.52343 l 0,-5.56641 q 2.98828,1.55273 5.88867,2.34375 2.9004,0.76172 5.74219,0.76172 3.8086,0 5.85938,-1.28906 2.05078,-1.31836 2.05078,-3.69141 0,-2.19727 -1.49414,-3.36914 -1.46485,-1.17188 -6.47461,-2.25586 l -1.875,-0.43945 q -5.00977,-1.05469 -7.23633,-3.22266 -2.22656,-2.19727 -2.22656,-6.00586 0,-4.62891 3.28125,-7.14844 3.28125,-2.51953 9.3164,-2.51953 2.98829,0 5.625,0.43945 2.63672,0.43946 4.86329,1.31836 z"
         style="font-style:normal;font-variant:normal;font-weight:normal;font-stretch:normal;font-size:60px;font-family:Sans;-inkscape-font-specification:Dingbats;text-align:start;text-anchor:start"
         id="path11446" />
      <path
         d="m 588.19727,653.76198 0,2.63672 -24.78516,0 q 0.35156,5.56641 3.33984,8.49609 3.01758,2.90039 8.37891,2.90039 3.10547,0 6.00586,-0.76171 2.92969,-0.76172 5.80078,-2.28516 l 0,5.09766 q -2.90039,1.23046 -5.94727,1.875 -3.04687,0.64453 -6.18164,0.64453 -7.85156,0 -12.45117,-4.57032 -4.57031,-4.57031 -4.57031,-12.36328 0,-8.05664 4.33594,-12.77343 4.36523,-4.7461 11.74804,-4.7461 6.6211,0 10.45899,4.27735 3.86719,4.24804 3.86719,11.57226 z m -5.39063,-1.58203 q -0.0586,-4.42383 -2.49023,-7.06055 -2.40235,-2.63672 -6.38672,-2.63672 -4.51172,0 -7.23633,2.54883 -2.69531,2.54883 -3.10547,7.17774 l 19.21875,-0.0293 z"
         style="font-style:normal;font-variant:normal;font-weight:normal;font-stretch:normal;font-size:60px;font-family:Sans;-inkscape-font-specification:Dingbats;text-align:start;text-anchor:start"
         id="path11448" />
      <path
         d="m 616.05859,643.74245 q -0.9082,-0.52734 -1.99218,-0.76172 -1.05469,-0.26367 -2.34375,-0.26367 -4.57032,0 -7.03125,2.98828 -2.43164,2.95898 -2.43164,8.52539 l 0,17.28516 -5.41993,0 0,-32.8125 5.41993,0 0,5.09765 q 1.69921,-2.98828 4.42382,-4.42382 2.72461,-1.46485 6.6211,-1.46485 0.55664,0 1.23047,0.0879 0.67382,0.0586 1.49414,0.20508 l 0.0293,5.53711 z"
         style="font-style:normal;font-variant:normal;font-weight:normal;font-stretch:normal;font-size:60px;font-family:Sans;-inkscape-font-specification:Dingbats;text-align:start;text-anchor:start"
         id="path11450" />
      <path
         d="m 638.51709,652.37526 3.14453,0 0,19.14063 -3.14453,0 0,-19.14063 z m 0,-7.45117 3.14453,0 0,3.98193 -3.14453,0 0,-3.98193 z"
         style="font-size:35px"
         id="path11452" />
      <path
         d="m 664.13477,659.96315 0,11.55274 -3.14454,0 0,-11.4502 q 0,-2.71728 -1.05957,-4.06738 -1.05957,-1.3501 -3.17871,-1.3501 -2.54638,0 -4.01611,1.62354 -1.46973,1.62353 -1.46973,4.42627 l 0,10.81787 -3.16162,0 0,-19.14063 3.16162,0 0,2.97363 q 1.12793,-1.72607 2.64893,-2.58056 1.53808,-0.85449 3.5376,-0.85449 3.29834,0 4.99023,2.05078 1.6919,2.03369 1.6919,5.99853 z"
         style="font-size:35px"
         id="path11454" />
      <path
         d="m 670.44092,652.37526 3.14453,0 0,19.14063 -3.14453,0 0,-19.14063 z m 0,-7.45117 3.14453,0 0,3.98193 -3.14453,0 0,-3.98193 z"
         style="font-size:35px"
         id="path11456" />
      <path
         d="m 683.2583,646.94069 0,5.43457 6.47705,0 0,2.44385 -6.47705,0 0,10.39062 q 0,2.34131 0.63232,3.00782 0.64942,0.6665 2.61475,0.6665 l 3.22998,0 0,2.63184 -3.22998,0 q -3.64014,0 -5.02441,-1.3501 -1.38428,-1.36719 -1.38428,-4.95606 l 0,-10.39062 -2.30713,0 0,-2.44385 2.30713,0 0,-5.43457 3.16162,0 z"
         style="font-size:35px"
         id="path11458" />
      <path
         d="m 693.88818,652.37526 3.14453,0 0,19.14063 -3.14453,0 0,-19.14063 z m 0,-7.45117 3.14453,0 0,3.98193 -3.14453,0 0,-3.98193 z"
         style="font-size:35px"
         id="path11460" />
      <path
         d="m 712.29395,661.89431 q -3.81104,0 -5.28077,0.87158 -1.46972,0.87158 -1.46972,2.97363 0,1.6748 1.09375,2.66602 1.11084,0.97412 3.00781,0.97412 2.61475,0 4.18701,-1.84571 1.58936,-1.86279 1.58936,-4.93896 l 0,-0.70068 -3.12744,0 z m 6.27197,-1.29883 0,10.92041 -3.14453,0 0,-2.90528 q -1.07666,1.74317 -2.68311,2.58057 -1.60644,0.82031 -3.93066,0.82031 -2.93946,0 -4.68262,-1.64062 -1.72607,-1.65772 -1.72607,-4.42627 0,-3.22998 2.15332,-4.87061 2.17041,-1.64062 6.45996,-1.64062 l 4.40918,0 0,-0.30762 q 0,-2.17041 -1.43555,-3.34961 -1.41846,-1.19629 -3.99902,-1.19629 -1.64063,0 -3.1958,0.39307 -1.55518,0.39306 -2.99073,1.1792 l 0,-2.90528 q 1.72608,-0.6665 3.34961,-0.99121 1.62354,-0.34179 3.16162,-0.34179 4.15284,0 6.20362,2.15332 2.05078,2.15332 2.05078,6.52832 z"
         style="font-size:35px"
         id="path11462" />
      <path
         d="m 725.06006,644.92409 3.14453,0 0,26.5918 -3.14453,0 0,-26.5918 z"
         style="font-size:35px"
         id="path11464" />
      <path
         d="m 734.76709,652.37526 3.14453,0 0,19.14063 -3.14453,0 0,-19.14063 z m 0,-7.45117 3.14453,0 0,3.98193 -3.14453,0 0,-3.98193 z"
         style="font-size:35px"
         id="path11466" />
      <path
         d="m 743.10693,652.37526 14.93653,0 0,2.8711 -11.82617,13.75732 11.82617,0 0,2.51221 -15.36377,0 0,-2.8711 11.82617,-13.75732 -11.39893,0 0,-2.51221 z"
         style="font-size:35px"
         id="path11468" />
      <path
         d="m 779.23486,661.15944 0,1.53809 -14.458,0 q 0.20507,3.24707 1.94824,4.95605 1.76025,1.6919 4.88769,1.6919 1.81153,0 3.50342,-0.44434 1.70899,-0.44433 3.38379,-1.33301 l 0,2.97364 q -1.69189,0.71777 -3.46924,1.09375 -1.77734,0.37597 -3.60596,0.37597 -4.58007,0 -7.26318,-2.66601 -2.66601,-2.66602 -2.66601,-7.21192 0,-4.6997 2.52929,-7.45117 2.54639,-2.76855 6.85303,-2.76855 3.8623,0 6.10107,2.49511 2.25586,2.47803 2.25586,6.75049 z m -3.14453,-0.92285 q -0.0342,-2.58057 -1.45263,-4.11865 -1.40137,-1.53809 -3.72559,-1.53809 -2.63184,0 -4.22119,1.48682 -1.57227,1.48681 -1.81153,4.18701 l 11.21094,-0.0171 z"
         style="font-size:35px"
         id="path11470" />
      <path
         d="m 804.2373,661.89431 q -3.81103,0 -5.28076,0.87158 -1.46972,0.87158 -1.46972,2.97363 0,1.6748 1.09375,2.66602 1.11084,0.97412 3.00781,0.97412 2.61474,0 4.18701,-1.84571 1.58936,-1.86279 1.58936,-4.93896 l 0,-0.70068 -3.12745,0 z m 6.27198,-1.29883 0,10.92041 -3.14453,0 0,-2.90528 q -1.07666,1.74317 -2.68311,2.58057 -1.60644,0.82031 -3.93066,0.82031 -2.93946,0 -4.68262,-1.64062 -1.72607,-1.65772 -1.72607,-4.42627 0,-3.22998 2.15332,-4.87061 2.17041,-1.64062 6.45996,-1.64062 l 4.40918,0 0,-0.30762 q 0,-2.17041 -1.43555,-3.34961 -1.41846,-1.19629 -3.99902,-1.19629 -1.64063,0 -3.19581,0.39307 -1.55517,0.39306 -2.99072,1.1792 l 0,-2.90528 q 1.72608,-0.6665 3.34961,-0.99121 1.62354,-0.34179 3.16162,-0.34179 4.15283,0 6.20362,2.15332 2.05078,2.15332 2.05078,6.52832 z"
         style="font-size:35px"
         id="path11472" />
      <path
         d="m 817.00342,644.92409 3.14453,0 0,26.5918 -3.14453,0 0,-26.5918 z"
         style="font-size:35px"
         id="path11474" />
      <path
         d="m 826.71045,644.92409 3.14453,0 0,26.5918 -3.14453,0 0,-26.5918 z"
         style="font-size:35px"
         id="path11476" />
      <path
         d="m 860.15527,655.28054 0,-10.35645 3.14453,0 0,26.5918 -3.14453,0 0,-2.8711 q -0.99121,1.70899 -2.5122,2.54639 -1.50391,0.82031 -3.62305,0.82031 -3.46924,0 -5.65674,-2.76855 -2.17041,-2.76856 -2.17041,-7.28028 0,-4.51171 2.17041,-7.28027 2.1875,-2.76855 5.65674,-2.76855 2.11914,0 3.62305,0.8374 1.52099,0.82031 2.5122,2.5293 z m -10.71533,6.68212 q 0,3.46924 1.41846,5.45166 1.43555,1.96534 3.93066,1.96534 2.49512,0 3.93067,-1.96534 1.43554,-1.98242 1.43554,-5.45166 0,-3.46923 -1.43554,-5.43457 -1.43555,-1.98242 -3.93067,-1.98242 -2.49511,0 -3.93066,1.98242 -1.41846,1.96534 -1.41846,5.43457 z"
         style="font-size:35px"
         id="path11478" />
      <path
         d="m 877.19385,654.57985 q -2.5293,0 -3.99903,1.98242 -1.46972,1.96534 -1.46972,5.40039 0,3.43506 1.45263,5.41748 1.46973,1.96534 4.01612,1.96534 2.5122,0 3.98193,-1.98242 1.46973,-1.98243 1.46973,-5.4004 0,-3.40087 -1.46973,-5.3833 -1.46973,-1.99951 -3.98193,-1.99951 z m 0,-2.66601 q 4.10156,0 6.44287,2.66601 2.34131,2.66602 2.34131,7.38281 0,4.69971 -2.34131,7.38282 -2.34131,2.66601 -6.44287,2.66601 -4.11865,0 -6.45996,-2.66601 -2.32422,-2.68311 -2.32422,-7.38282 0,-4.71679 2.32422,-7.38281 2.34131,-2.66601 6.45996,-2.66601 z"
         style="font-size:35px"
         id="path11480" />
      <path
         d="m 906.07568,656.04958 q 1.1792,-2.11914 2.81983,-3.12744 1.64062,-1.0083 3.8623,-1.0083 2.99073,0 4.61426,2.10205 1.62354,2.08496 1.62354,5.94726 l 0,11.55274 -3.16163,0 0,-11.4502 q 0,-2.75146 -0.97412,-4.08447 -0.97412,-1.33301 -2.97363,-1.33301 -2.44385,0 -3.8623,1.62354 -1.41846,1.62353 -1.41846,4.42627 l 0,10.81787 -3.16162,0 0,-11.4502 q 0,-2.76855 -0.97412,-4.08447 -0.97412,-1.33301 -3.00782,-1.33301 -2.40966,0 -3.82812,1.64063 -1.41846,1.62353 -1.41846,4.40918 l 0,10.81787 -3.16162,0 0,-19.14063 3.16162,0 0,2.97363 q 1.07666,-1.76025 2.58057,-2.59765 1.5039,-0.8374 3.57178,-0.8374 2.08496,0 3.53759,1.05957 1.46973,1.05957 2.17041,3.07617 z"
         style="font-size:35px"
         id="path11482" />
      <path
         d="m 952.79932,661.15944 0,1.53809 -14.45801,0 q 0.20508,3.24707 1.94824,4.95605 1.76025,1.6919 4.8877,1.6919 1.81152,0 3.50341,-0.44434 1.70899,-0.44433 3.38379,-1.33301 l 0,2.97364 q -1.69189,0.71777 -3.46924,1.09375 -1.77734,0.37597 -3.60595,0.37597 -4.58008,0 -7.26319,-2.66601 -2.66601,-2.66602 -2.66601,-7.21192 0,-4.6997 2.5293,-7.45117 2.54638,-2.76855 6.85302,-2.76855 3.86231,0 6.10108,2.49511 2.25586,2.47803 2.25586,6.75049 z m -3.14453,-0.92285 q -0.0342,-2.58057 -1.45264,-4.11865 -1.40137,-1.53809 -3.72559,-1.53809 -2.63183,0 -4.22119,1.48682 -1.57226,1.48681 -1.81152,4.18701 l 11.21094,-0.0171 z"
         style="font-size:35px"
         id="path11484" />
      <path
         d="m 957.96045,644.92409 3.14453,0 0,26.5918 -3.14453,0 0,-26.5918 z"
         style="font-size:35px"
         id="path11486" />
      <path
         d="m 984.03955,661.15944 0,1.53809 -14.45801,0 q 0.20508,3.24707 1.94825,4.95605 1.76025,1.6919 4.88769,1.6919 1.81152,0 3.50342,-0.44434 1.70898,-0.44433 3.38379,-1.33301 l 0,2.97364 q -1.6919,0.71777 -3.46924,1.09375 -1.77734,0.37597 -3.60596,0.37597 -4.58008,0 -7.26318,-2.66601 -2.66602,-2.66602 -2.66602,-7.21192 0,-4.6997 2.5293,-7.45117 2.54639,-2.76855 6.85303,-2.76855 3.8623,0 6.10107,2.49511 2.25586,2.47803 2.25586,6.75049 z m -3.14453,-0.92285 q -0.0342,-2.58057 -1.45264,-4.11865 -1.40136,-1.53809 -3.72558,-1.53809 -2.63184,0 -4.22119,1.48682 -1.57227,1.48681 -1.81153,4.18701 l 11.21094,-0.0171 z"
         style="font-size:35px"
         id="path11488" />
      <path
         d="m 1004.103,656.04958 q 1.1792,-2.11914 2.8199,-3.12744 1.6406,-1.0083 3.8623,-1.0083 2.9907,0 4.6142,2.10205 1.6235,2.08496 1.6235,5.94726 l 0,11.55274 -3.1616,0 0,-11.4502 q 0,-2.75146 -0.9741,-4.08447 -0.9741,-1.33301 -2.9736,-1.33301 -2.4439,0 -3.8623,1.62354 -1.4185,1.62353 -1.4185,4.42627 l 0,10.81787 -3.1616,0 0,-11.4502 q 0,-2.76855 -0.9741,-4.08447 -0.97415,-1.33301 -3.00784,-1.33301 -2.40967,0 -3.82813,1.64063 -1.41845,1.62353 -1.41845,4.40918 l 0,10.81787 -3.16163,0 0,-19.14063 3.16163,0 0,2.97363 q 1.07666,-1.76025 2.58056,-2.59765 1.50391,-0.8374 3.57178,-0.8374 2.08498,0 3.53758,1.05957 1.4697,1.05957 2.1704,3.07617 z"
         style="font-size:35px"
         id="path11490" />
      <path
         d="m 1039.6841,661.15944 0,1.53809 -14.458,0 q 0.2051,3.24707 1.9482,4.95605 1.7603,1.6919 4.8877,1.6919 1.8115,0 3.5034,-0.44434 1.709,-0.44433 3.3838,-1.33301 l 0,2.97364 q -1.6919,0.71777 -3.4692,1.09375 -1.7774,0.37597 -3.606,0.37597 -4.5801,0 -7.2632,-2.66601 -2.666,-2.66602 -2.666,-7.21192 0,-4.6997 2.5293,-7.45117 2.5464,-2.76855 6.853,-2.76855 3.8624,0 6.1011,2.49511 2.2559,2.47803 2.2559,6.75049 z m -3.1445,-0.92285 q -0.034,-2.58057 -1.4527,-4.11865 -1.4014,-1.53809 -3.7256,-1.53809 -2.6318,0 -4.2212,1.48682 -1.5722,1.48681 -1.8115,4.18701 l 11.211,-0.0171 z"
         style="font-size:35px"
         id="path11492" />
      <path
         d="m 1060.7559,659.96315 0,11.55274 -3.1446,0 0,-11.4502 q 0,-2.71728 -1.0595,-4.06738 -1.0596,-1.3501 -3.1788,-1.3501 -2.5463,0 -4.0161,1.62354 -1.4697,1.62353 -1.4697,4.42627 l 0,10.81787 -3.1616,0 0,-19.14063 3.1616,0 0,2.97363 q 1.1279,-1.72607 2.6489,-2.58056 1.5381,-0.85449 3.5376,-0.85449 3.2984,0 4.9903,2.05078 1.6919,2.03369 1.6919,5.99853 z"
         style="font-size:35px"
         id="path11494" />
      <path
         d="m 1070.1724,646.94069 0,5.43457 6.477,0 0,2.44385 -6.477,0 0,10.39062 q 0,2.34131 0.6323,3.00782 0.6494,0.6665 2.6147,0.6665 l 3.23,0 0,2.63184 -3.23,0 q -3.6401,0 -5.0244,-1.3501 -1.3843,-1.36719 -1.3843,-4.95606 l 0,-10.39062 -2.3071,0 0,-2.44385 2.3071,0 0,-5.43457 3.1617,0 z"
         style="font-size:35px"
         id="path11496" />
      <path
         d="m 1093.0044,652.93923 0,2.97363 q -1.333,-0.68359 -2.7686,-1.02539 -1.4355,-0.3418 -2.9736,-0.3418 -2.3413,0 -3.5205,0.71778 -1.1621,0.71777 -1.1621,2.15332 0,1.09375 0.8374,1.72607 0.8374,0.61523 3.3667,1.1792 l 1.0767,0.23926 q 3.3496,0.71777 4.7509,2.03369 1.4185,1.29883 1.4185,3.64014 0,2.66601 -2.1192,4.22119 -2.102,1.55517 -5.7934,1.55517 -1.5381,0 -3.2129,-0.30761 -1.6577,-0.29053 -3.5034,-0.88868 l 0,-3.24707 q 1.7431,0.90576 3.435,1.36719 1.6919,0.44434 3.3496,0.44434 2.2217,0 3.418,-0.75196 1.1963,-0.76904 1.1963,-2.15332 0,-1.28174 -0.8716,-1.96533 -0.8545,-0.68359 -3.7768,-1.31592 l -1.0938,-0.25634 q -2.9223,-0.61524 -4.2212,-1.87989 -1.2988,-1.28174 -1.2988,-3.50342 0,-2.70019 1.9141,-4.16992 1.914,-1.46972 5.4345,-1.46972 1.7432,0 3.2813,0.25634 1.5381,0.25635 2.8369,0.76905 z"
         style="font-size:35px"
         id="path11498" />
      <path
         d="m 1108.3682,652.37526 3.1445,0 3.9307,14.93653 3.9135,-14.93653 3.7085,0 3.9307,14.93653 3.9136,-14.93653 3.1445,0 -5.0073,19.14063 -3.7085,0 -4.1187,-15.68848 -4.1357,15.68848 -3.7085,0 -5.0073,-19.14063 z"
         style="font-size:35px"
         id="path11500" />
      <path
         d="m 1138.8394,652.37526 3.1445,0 0,19.14063 -3.1445,0 0,-19.14063 z m 0,-7.45117 3.1445,0 0,3.98193 -3.1445,0 0,-3.98193 z"
         style="font-size:35px"
         id="path11502" />
      <path
         d="m 1151.6567,646.94069 0,5.43457 6.4771,0 0,2.44385 -6.4771,0 0,10.39062 q 0,2.34131 0.6324,3.00782 0.6494,0.6665 2.6147,0.6665 l 3.23,0 0,2.63184 -3.23,0 q -3.6401,0 -5.0244,-1.3501 -1.3843,-1.36719 -1.3843,-4.95606 l 0,-10.39062 -2.3071,0 0,-2.44385 2.3071,0 0,-5.43457 3.1616,0 z"
         style="font-size:35px"
         id="path11504" />
      <path
         d="m 1178.1973,659.96315 0,11.55274 -3.1446,0 0,-11.4502 q 0,-2.71728 -1.0595,-4.06738 -1.0596,-1.3501 -3.1787,-1.3501 -2.5464,0 -4.0162,1.62354 -1.4697,1.62353 -1.4697,4.42627 l 0,10.81787 -3.1616,0 0,-26.5918 3.1616,0 0,10.4248 q 1.1279,-1.72607 2.6489,-2.58056 1.5381,-0.85449 3.5376,-0.85449 3.2984,0 4.9903,2.05078 1.6919,2.03369 1.6919,5.99853 z"
         style="font-size:35px"
         id="path11506" />
      <path
         d="m 291.78613,711.97558 q -3.81103,0 -5.28076,0.87158 -1.46973,0.87158 -1.46973,2.97363 0,1.67481 1.09375,2.66602 1.11084,0.97412 3.00782,0.97412 2.61474,0 4.18701,-1.84571 1.58935,-1.86279 1.58935,-4.93896 l 0,-0.70068 -3.12744,0 z m 6.27198,-1.29883 0,10.92041 -3.14454,0 0,-2.90528 q -1.07666,1.74317 -2.6831,2.58057 -1.60645,0.82031 -3.93067,0.82031 -2.93945,0 -4.68261,-1.64062 -1.72608,-1.65772 -1.72608,-4.42627 0,-3.22998 2.15332,-4.87061 2.17041,-1.64062 6.45996,-1.64062 l 4.40918,0 0,-0.30762 q 0,-2.17041 -1.43554,-3.34961 -1.41846,-1.19629 -3.99903,-1.19629 -1.64062,0 -3.1958,0.39307 -1.55517,0.39307 -2.99072,1.1792 l 0,-2.90527 q 1.72607,-0.66651 3.34961,-0.99122 1.62353,-0.34179 3.16162,-0.34179 4.15283,0 6.20361,2.15332 2.05079,2.15332 2.05079,6.52832 z"
         style="font-size:35px"
         id="path11508" />
      <path
         d="m 307.6626,697.02196 0,5.43457 6.47705,0 0,2.44385 -6.47705,0 0,10.39063 q 0,2.3413 0.63232,3.00781 0.64942,0.6665 2.61475,0.6665 l 3.22998,0 0,2.63184 -3.22998,0 q -3.64014,0 -5.02442,-1.3501 -1.38427,-1.36719 -1.38427,-4.95605 l 0,-10.39063 -2.30713,0 0,-2.44385 2.30713,0 0,-5.43457 3.16162,0 z"
         style="font-size:35px"
         id="path11510" />
      <path
         d="m 321.40283,697.02196 0,5.43457 6.47705,0 0,2.44385 -6.47705,0 0,10.39063 q 0,2.3413 0.63233,3.00781 0.64941,0.6665 2.61474,0.6665 l 3.22998,0 0,2.63184 -3.22998,0 q -3.64013,0 -5.02441,-1.3501 -1.38428,-1.36719 -1.38428,-4.95605 l 0,-10.39063 -2.30713,0 0,-2.44385 2.30713,0 0,-5.43457 3.16162,0 z"
         style="font-size:35px"
         id="path11512" />
      <path
         d="m 343.12402,705.39599 q -0.52978,-0.30762 -1.16211,-0.44434 -0.61523,-0.15381 -1.36718,-0.15381 -2.66602,0 -4.10157,1.74317 -1.41845,1.72607 -1.41845,4.97314 l 0,10.08301 -3.16162,0 0,-19.14063 3.16162,0 0,2.97364 q 0.99121,-1.74317 2.58056,-2.58057 1.58936,-0.85449 3.86231,-0.85449 0.32471,0 0.71777,0.0513 0.39307,0.0342 0.87158,0.11963 l 0.0171,3.22998 z"
         style="font-size:35px"
         id="path11514" />
      <path
         d="m 346.45654,702.45653 3.14453,0 0,19.14063 -3.14453,0 0,-19.14063 z m 0,-7.45117 3.14453,0 0,3.98193 -3.14453,0 0,-3.98193 z"
         style="font-size:35px"
         id="path11516" />
      <path
         d="m 369.90381,712.04394 q 0,-3.46924 -1.43555,-5.43457 -1.41846,-1.98243 -3.91357,-1.98243 -2.49512,0 -3.93067,1.98243 -1.41845,1.96533 -1.41845,5.43457 0,3.46923 1.41845,5.45166 1.43555,1.96533 3.93067,1.96533 2.49511,0 3.91357,-1.96533 1.43555,-1.98243 1.43555,-5.45166 z m -10.69824,-6.68213 q 0.99121,-1.70899 2.49511,-2.5293 1.521,-0.8374 3.62305,-0.8374 3.48633,0 5.65674,2.76855 2.1875,2.76856 2.1875,7.28028 0,4.51171 -2.1875,7.28027 -2.17041,2.76855 -5.65674,2.76855 -2.10205,0 -3.62305,-0.82031 -1.5039,-0.8374 -2.49511,-2.54639 l 0,2.8711 -3.16162,0 0,-26.5918 3.16162,0 0,10.35645 z"
         style="font-size:35px"
         id="path11518" />
      <path
         d="m 378.05566,714.04345 0,-11.58692 3.14454,0 0,11.46729 q 0,2.71728 1.05957,4.08447 1.05957,1.3501 3.17871,1.3501 2.54638,0 4.01611,-1.62354 1.48682,-1.62353 1.48682,-4.42627 l 0,-10.85205 3.14453,0 0,19.14063 -3.14453,0 0,-2.93945 q -1.14502,1.74316 -2.66602,2.59765 -1.50391,0.8374 -3.50342,0.8374 -3.29834,0 -5.00732,-2.05078 -1.70899,-2.05078 -1.70899,-5.99853 z m 7.9126,-12.04834 0,0 z"
         style="font-size:35px"
         id="path11520" />
      <path
         d="m 403.70752,697.02196 0,5.43457 6.47705,0 0,2.44385 -6.47705,0 0,10.39063 q 0,2.3413 0.63232,3.00781 0.64942,0.6665 2.61475,0.6665 l 3.22998,0 0,2.63184 -3.22998,0 q -3.64014,0 -5.02441,-1.3501 -1.38428,-1.36719 -1.38428,-4.95605 l 0,-10.39063 -2.30713,0 0,-2.44385 2.30713,0 0,-5.43457 3.16162,0 z"
         style="font-size:35px"
         id="path11522" />
      <path
         d="m 430.70947,711.24071 0,1.53809 -14.45801,0 q 0.20508,3.24707 1.94825,4.95605 1.76025,1.6919 4.88769,1.6919 1.81153,0 3.50342,-0.44434 1.70898,-0.44433 3.38379,-1.33301 l 0,2.97364 q -1.6919,0.71777 -3.46924,1.09375 -1.77734,0.37597 -3.60596,0.37597 -4.58007,0 -7.26318,-2.66601 -2.66602,-2.66602 -2.66602,-7.21192 0,-4.6997 2.5293,-7.45117 2.54639,-2.76855 6.85303,-2.76855 3.8623,0 6.10107,2.49511 2.25586,2.47803 2.25586,6.75049 z m -3.14453,-0.92285 q -0.0342,-2.58057 -1.45264,-4.11865 -1.40136,-1.53809 -3.72558,-1.53809 -2.63184,0 -4.22119,1.48682 -1.57227,1.48682 -1.81153,4.18701 l 11.21094,-0.0171 z"
         style="font-size:35px"
         id="path11524" />
      <path
         d="m 449.98682,696.08202 0,9.48486 -2.90528,0 0,-9.48486 2.90528,0 z"
         style="font-size:35px"
         id="path11526" />
      <path
         d="m 469.24707,705.36181 0,-10.35645 3.14453,0 0,26.5918 -3.14453,0 0,-2.8711 q -0.99121,1.70899 -2.51221,2.54639 -1.5039,0.82031 -3.62304,0.82031 -3.46924,0 -5.65674,-2.76855 -2.17041,-2.76856 -2.17041,-7.28027 0,-4.51172 2.17041,-7.28028 2.1875,-2.76855 5.65674,-2.76855 2.11914,0 3.62304,0.8374 1.521,0.82031 2.51221,2.5293 z m -10.71533,6.68213 q 0,3.46923 1.41846,5.45166 1.43554,1.96533 3.93066,1.96533 2.49512,0 3.93066,-1.96533 1.43555,-1.98243 1.43555,-5.45166 0,-3.46924 -1.43555,-5.43457 -1.43554,-1.98243 -3.93066,-1.98243 -2.49512,0 -3.93066,1.98243 -1.41846,1.96533 -1.41846,5.43457 z"
         style="font-size:35px"
         id="path11528" />
      <path
         d="m 487.56738,711.97558 q -3.81103,0 -5.28076,0.87158 -1.46973,0.87158 -1.46973,2.97363 0,1.67481 1.09375,2.66602 1.11084,0.97412 3.00782,0.97412 2.61474,0 4.18701,-1.84571 1.58935,-1.86279 1.58935,-4.93896 l 0,-0.70068 -3.12744,0 z m 6.27198,-1.29883 0,10.92041 -3.14454,0 0,-2.90528 q -1.07666,1.74317 -2.6831,2.58057 -1.60645,0.82031 -3.93067,0.82031 -2.93945,0 -4.68261,-1.64062 -1.72608,-1.65772 -1.72608,-4.42627 0,-3.22998 2.15332,-4.87061 2.17041,-1.64062 6.45996,-1.64062 l 4.40918,0 0,-0.30762 q 0,-2.17041 -1.43554,-3.34961 -1.41846,-1.19629 -3.99903,-1.19629 -1.64062,0 -3.1958,0.39307 -1.55517,0.39307 -2.99072,1.1792 l 0,-2.90527 q 1.72607,-0.66651 3.34961,-0.99122 1.62353,-0.34179 3.16162,-0.34179 4.15283,0 6.20361,2.15332 2.05079,2.15332 2.05079,6.52832 z"
         style="font-size:35px"
         id="path11530" />
      <path
         d="m 503.44385,697.02196 0,5.43457 6.47705,0 0,2.44385 -6.47705,0 0,10.39063 q 0,2.3413 0.63232,3.00781 0.64942,0.6665 2.61475,0.6665 l 3.22998,0 0,2.63184 -3.22998,0 q -3.64014,0 -5.02442,-1.3501 -1.38427,-1.36719 -1.38427,-4.95605 l 0,-10.39063 -2.30713,0 0,-2.44385 2.30713,0 0,-5.43457 3.16162,0 z"
         style="font-size:35px"
         id="path11532" />
      <path
         d="m 522.77246,711.97558 q -3.81103,0 -5.28076,0.87158 -1.46973,0.87158 -1.46973,2.97363 0,1.67481 1.09375,2.66602 1.11084,0.97412 3.00782,0.97412 2.61474,0 4.18701,-1.84571 1.58935,-1.86279 1.58935,-4.93896 l 0,-0.70068 -3.12744,0 z m 6.27197,-1.29883 0,10.92041 -3.14453,0 0,-2.90528 q -1.07666,1.74317 -2.6831,2.58057 -1.60645,0.82031 -3.93067,0.82031 -2.93945,0 -4.68261,-1.64062 -1.72608,-1.65772 -1.72608,-4.42627 0,-3.22998 2.15332,-4.87061 2.17041,-1.64062 6.45996,-1.64062 l 4.40918,0 0,-0.30762 q 0,-2.17041 -1.43554,-3.34961 -1.41846,-1.19629 -3.99903,-1.19629 -1.64062,0 -3.1958,0.39307 -1.55517,0.39307 -2.99072,1.1792 l 0,-2.90527 q 1.72607,-0.66651 3.34961,-0.99122 1.62353,-0.34179 3.16162,-0.34179 4.15283,0 6.20361,2.15332 2.05078,2.15332 2.05078,6.52832 z"
         style="font-size:35px"
         id="path11534" />
      <path
         d="m 533.94922,710.60839 9.21142,0 0,2.80273 -9.21142,0 0,-2.80273 z"
         style="font-size:35px"
         id="path11536" />
      <path
         d="m 560.78027,705.36181 0,-10.35645 3.14453,0 0,26.5918 -3.14453,0 0,-2.8711 q -0.99121,1.70899 -2.5122,2.54639 -1.50391,0.82031 -3.62305,0.82031 -3.46924,0 -5.65674,-2.76855 -2.17041,-2.76856 -2.17041,-7.28027 0,-4.51172 2.17041,-7.28028 2.1875,-2.76855 5.65674,-2.76855 2.11914,0 3.62305,0.8374 1.52099,0.82031 2.5122,2.5293 z m -10.71533,6.68213 q 0,3.46923 1.41846,5.45166 1.43555,1.96533 3.93066,1.96533 2.49512,0 3.93067,-1.96533 1.43554,-1.98243 1.43554,-5.45166 0,-3.46924 -1.43554,-5.43457 -1.43555,-1.98243 -3.93067,-1.98243 -2.49511,0 -3.93066,1.98243 -1.41846,1.96533 -1.41846,5.43457 z"
         style="font-size:35px"
         id="path11538" />
      <path
         d="m 577.81885,704.66112 q -2.5293,0 -3.99903,1.98242 -1.46972,1.96534 -1.46972,5.4004 0,3.43505 1.45263,5.41748 1.46973,1.96533 4.01612,1.96533 2.5122,0 3.98193,-1.98242 1.46973,-1.98243 1.46973,-5.40039 0,-3.40088 -1.46973,-5.38331 -1.46973,-1.99951 -3.98193,-1.99951 z m 0,-2.66601 q 4.10156,0 6.44287,2.66601 2.34131,2.66602 2.34131,7.38282 0,4.6997 -2.34131,7.38281 -2.34131,2.66601 -6.44287,2.66601 -4.11865,0 -6.45996,-2.66601 -2.32422,-2.68311 -2.32422,-7.38281 0,-4.7168 2.32422,-7.38282 2.34131,-2.66601 6.45996,-2.66601 z"
         style="font-size:35px"
         id="path11540" />
      <path
         d="m 591.79834,702.45653 3.14453,0 0,19.48243 q 0,3.65722 -1.40137,5.29785 -1.38427,1.64062 -4.47754,1.64062 l -1.19628,0 0,-2.66601 0.8374,0 q 1.79443,0 2.44385,-0.83741 0.64941,-0.82031 0.64941,-3.43505 l 0,-19.48243 z m 0,-7.45117 3.14453,0 0,3.98193 -3.14453,0 0,-3.98193 z"
         style="font-size:35px"
         id="path11542" />
      <path
         d="m 608.92236,704.66112 q -2.52929,0 -3.99902,1.98242 -1.46973,1.96534 -1.46973,5.4004 0,3.43505 1.45264,5.41748 1.46973,1.96533 4.01611,1.96533 2.51221,0 3.98194,-1.98242 1.46972,-1.98243 1.46972,-5.40039 0,-3.40088 -1.46972,-5.38331 -1.46973,-1.99951 -3.98194,-1.99951 z m 0,-2.66601 q 4.10157,0 6.44287,2.66601 2.34131,2.66602 2.34131,7.38282 0,4.6997 -2.34131,7.38281 -2.3413,2.66601 -6.44287,2.66601 -4.11865,0 -6.45996,-2.66601 -2.32422,-2.68311 -2.32422,-7.38281 0,-4.7168 2.32422,-7.38282 2.34131,-2.66601 6.45996,-2.66601 z"
         style="font-size:35px"
         id="path11544" />
      <path
         d="m 621.99609,710.60839 9.21143,0 0,2.80273 -9.21143,0 0,-2.80273 z"
         style="font-size:35px"
         id="path11546" />
      <path
         d="m 639.34229,697.02196 0,5.43457 6.47705,0 0,2.44385 -6.47705,0 0,10.39063 q 0,2.3413 0.63232,3.00781 0.64941,0.6665 2.61475,0.6665 l 3.22998,0 0,2.63184 -3.22998,0 q -3.64014,0 -5.02442,-1.3501 -1.38428,-1.36719 -1.38428,-4.95605 l 0,-10.39063 -2.30712,0 0,-2.44385 2.30712,0 0,-5.43457 3.16163,0 z"
         style="font-size:35px"
         id="path11548" />
      <path
         d="m 657.93604,723.3745 q -1.33301,3.41797 -2.59766,4.46045 -1.26465,1.04248 -3.38379,1.04248 l -2.51221,0 0,-2.63183 1.84571,0 q 1.29882,0 2.0166,-0.61524 0.71777,-0.61523 1.58935,-2.90527 l 0.56397,-1.43555 -7.7417,-18.83301 3.33252,0 5.98144,14.97071 5.98145,-14.97071 3.33252,0 -8.4082,20.91797 z"
         style="font-size:35px"
         id="path11550" />
      <path
         d="m 673.72705,718.72606 0,10.15137 -3.16162,0 0,-26.4209 3.16162,0 0,2.90528 q 0.99121,-1.70899 2.49512,-2.5293 1.52099,-0.8374 3.62304,-0.8374 3.48633,0 5.65674,2.76855 2.1875,2.76856 2.1875,7.28028 0,4.51171 -2.1875,7.28027 -2.17041,2.76855 -5.65674,2.76855 -2.10205,0 -3.62304,-0.82031 -1.50391,-0.8374 -2.49512,-2.54639 z m 10.69824,-6.68212 q 0,-3.46924 -1.43554,-5.43457 -1.41846,-1.98243 -3.91358,-1.98243 -2.49512,0 -3.93066,1.98243 -1.41846,1.96533 -1.41846,5.43457 0,3.46923 1.41846,5.45166 1.43554,1.96533 3.93066,1.96533 2.49512,0 3.91358,-1.96533 1.43554,-1.98243 1.43554,-5.45166 z"
         style="font-size:35px"
         id="path11552" />
      <path
         d="m 709.27393,711.24071 0,1.53809 -14.45801,0 q 0.20508,3.24707 1.94824,4.95605 1.76025,1.6919 4.8877,1.6919 1.81152,0 3.50341,-0.44434 1.70899,-0.44433 3.38379,-1.33301 l 0,2.97364 q -1.69189,0.71777 -3.46924,1.09375 -1.77734,0.37597 -3.60595,0.37597 -4.58008,0 -7.26319,-2.66601 -2.66601,-2.66602 -2.66601,-7.21192 0,-4.6997 2.52929,-7.45117 2.54639,-2.76855 6.85303,-2.76855 3.86231,0 6.10108,2.49511 2.25586,2.47803 2.25586,6.75049 z m -3.14454,-0.92285 q -0.0342,-2.58057 -1.45263,-4.11865 -1.40137,-1.53809 -3.72559,-1.53809 -2.63183,0 -4.22119,1.48682 -1.57227,1.48682 -1.81152,4.18701 l 11.21093,-0.0171 z"
         style="font-size:35px"
         id="path11554" />
      <path
         d="m 717.40869,696.08202 0,9.48486 -2.90527,0 0,-9.48486 2.90527,0 z"
         style="font-size:35px"
         id="path11556" />
    </g>
    <circle
       style="fill:none;fill-opacity:1;stroke:#000000;stroke-width:1.99999988;stroke-miterlimit:4;stroke-dasharray:none;stroke-opacity:1"
       id="path5137"
       cx="80.781715"
       cy="437.2659"
       r="13" />
    <circle
       style="fill:none;fill-opacity:1;stroke:#000000;stroke-width:1.99999988;stroke-miterlimit:4;stroke-dasharray:none;stroke-opacity:1"
       id="path5137-0"
       cx="80.781715"
       cy="585.45648"
       r="13" />
    <flowRoot
       xml:space="preserve"
       id="flowRoot5233"
       style="fill:black;stroke:none;stroke-opacity:1;stroke-width:1px;stroke-linejoin:miter;stroke-linecap:butt;fill-opacity:1;font-family:Sans;font-style:normal;font-weight:normal;font-size:40px;line-height:125%;letter-spacing:0px;word-spacing:0px"><flowRegion
         id="flowRegion5235"><rect
           id="rect5237"
           width="628.57141"
           height="87.14286"
           x="7.1428571"
           y="6.5714283" /></flowRegion><flowPara
         id="flowPara5239" /></flowRoot>    <flowRoot
       xml:space="preserve"
       id="flowRoot5241"
       style="fill:black;stroke:none;stroke-opacity:1;stroke-width:1px;stroke-linejoin:miter;stroke-linecap:butt;fill-opacity:1;font-family:Carlito;font-style:normal;font-weight:normal;font-size:40px;line-height:125%;letter-spacing:0px;word-spacing:0px;-inkscape-font-specification:Carlito;font-stretch:normal;font-variant:normal;"><flowRegion
         id="flowRegion5243"><rect
           id="rect5245"
           width="641.42859"
           height="85.714287"
           x="-2.8571429"
           y="3.7142854"
           style="-inkscape-font-specification:Carlito;font-family:Carlito;font-weight:normal;font-style:normal;font-stretch:normal;font-variant:normal;" /></flowRegion><flowPara
         id="flowPara5247" /></flowRoot>    <g
       transform="scale(0.99828008,1.0017229)"
       style="font-style:normal;font-weight:normal;font-size:132.8361969px;line-height:125%;font-family:Sans;letter-spacing:0px;word-spacing:0px;fill:none;fill-opacity:1;stroke:#000000;stroke-width:1px;stroke-linecap:butt;stroke-linejoin:miter;stroke-opacity:0.70588235"
       id="text5249">
      <path
         d="m 76.393944,365.79272 -13.947801,0 -12.60468,-58.7874 -12.294728,58.7874 -13.947802,0 -21.2833114,-75.31812 16.4274104,0 11.674826,56.4111 11.674827,-56.4111 15.290923,0 12.191411,56.51442 11.261558,-56.51442 16.427411,0 -20.870044,75.31812 z"
         style="font-style:normal;font-variant:normal;font-weight:600;font-stretch:normal;font-size:103.31704712px;font-family:FreeSans;-inkscape-font-specification:'FreeSans Semi-Bold';fill:none;stroke:#000000;stroke-width:0.67752618px;stroke-opacity:0.70588235"
         id="path11297" />
      <path
         d="m 121.0253,310.00152 0,55.7912 -14.46439,0 0,-55.7912 14.46439,0 z m 0,-19.52692 0,12.91463 -14.46439,0 0,-12.91463 14.46439,0 z"
         style="font-style:normal;font-variant:normal;font-weight:600;font-stretch:normal;font-size:103.31704712px;font-family:FreeSans;-inkscape-font-specification:'FreeSans Semi-Bold';fill:none;stroke:#000000;stroke-width:0.67752618px;stroke-opacity:0.70588235"
         id="path11299" />
      <path
         d="m 155.77049,368.16902 q -10.3317,0 -16.94399,-8.472 -6.50898,-8.472 -6.50898,-20.97336 0,-12.60468 6.71561,-21.07668 6.71561,-8.57531 16.73736,-8.57531 10.12507,0 15.39424,8.16204 l 0,-26.75911 14.46439,0 0,75.31812 -14.46439,0 0,-5.68243 q -5.37248,8.05873 -15.39424,8.05873 z m 3.20283,-47.00926 q -5.37248,0 -8.78195,4.95922 -3.40946,4.8559 -3.40946,12.60468 0,7.64546 3.40946,12.50136 3.40947,4.8559 8.78195,4.8559 5.37249,0 8.78195,-4.75258 3.40946,-4.75259 3.40946,-12.39805 0,-7.95541 -3.40946,-12.81131 -3.30614,-4.95922 -8.78195,-4.95922 z"
         style="font-style:normal;font-variant:normal;font-weight:600;font-stretch:normal;font-size:103.31704712px;font-family:FreeSans;-inkscape-font-specification:'FreeSans Semi-Bold';fill:none;stroke:#000000;stroke-width:0.67752618px;stroke-opacity:0.70588235"
         id="path11301" />
      <path
         d="m 235.12767,310.00152 13.74117,0 0,57.65091 q 0,9.81512 -7.02556,15.18761 -6.92224,5.4758 -19.52692,5.4758 -11.15824,0 -17.87385,-4.33932 -6.71561,-4.23599 -6.81893,-11.46819 l 14.98097,0 q 1.75639,6.50898 10.22839,6.50898 5.47581,0 8.88527,-3.20283 3.40946,-3.09951 3.40946,-8.16205 l 0,-7.54214 q -4.02936,4.54595 -7.54214,6.30234 -3.40947,1.75639 -8.26537,1.75639 -10.3317,0 -16.63404,-7.95542 -6.19902,-7.95541 -6.19902,-20.97336 0,-12.91463 6.61229,-21.48994 6.61229,-8.67863 16.53072,-8.67863 9.29854,0 15.49756,9.50516 l 0,-8.57531 z m -12.39804,11.15824 q -5.26917,0 -8.57532,4.95922 -3.20283,4.95922 -3.20283,12.91463 0,7.54214 3.20283,12.29473 3.20283,4.75258 8.36868,4.75258 5.68244,0 9.19522,-4.75258 3.6161,-4.75259 3.6161,-12.29473 0,-7.74878 -3.6161,-12.81131 -3.51278,-5.06254 -8.98858,-5.06254 z"
         style="font-style:normal;font-variant:normal;font-weight:600;font-stretch:normal;font-size:103.31704712px;font-family:FreeSans;-inkscape-font-specification:'FreeSans Semi-Bold';fill:none;stroke:#000000;stroke-width:0.67752618px;stroke-opacity:0.70588235"
         id="path11303" />
      <path
         d="m 285.47697,309.07167 q 3.6161,0 7.02556,0.82653 3.40946,0.82654 6.92224,2.9962 3.6161,2.16965 6.19903,5.57912 2.68624,3.30614 4.33931,8.88526 1.65307,5.47581 1.65307,12.60468 0,1.23981 -0.10331,2.47961 l -37.40077,0 q 0.10331,3.20283 0.51658,5.57912 0.51659,2.27298 1.65307,4.54595 1.23981,2.16966 3.51278,3.40947 2.3763,1.13648 5.88908,1.13648 8.26536,0 11.05492,-7.02556 l 14.25775,0 q -2.37629,8.26537 -9.40185,13.22459 -7.02556,4.8559 -16.42741,4.8559 -11.88146,0 -18.70039,-7.64546 -6.81892,-7.74878 -6.81892,-21.18 0,-14.05112 6.92224,-22.10985 6.92224,-8.16204 18.90702,-8.16204 z m 11.05493,23.76292 q -0.51659,-6.09571 -3.40947,-9.40185 -2.78956,-3.30615 -7.85209,-3.30615 -9.50517,0 -10.95161,12.708 l 22.21317,0 z"
         style="font-style:normal;font-variant:normal;font-weight:600;font-stretch:normal;font-size:103.31704712px;font-family:FreeSans;-inkscape-font-specification:'FreeSans Semi-Bold';fill:none;stroke:#000000;stroke-width:0.67752618px;stroke-opacity:0.70588235"
         id="path11305" />
      <path
         d="m 347.47044,311.13801 0,9.60848 -8.05873,0 0,30.37521 q 0,3.71942 0.92985,4.95922 0.92985,1.13649 3.82273,1.13649 1.13649,0 3.30615,-0.30995 l 0,10.12507 q -3.51278,1.13649 -8.36868,1.13649 -14.15444,0 -14.15444,-13.12127 l 0,-34.30126 -7.12888,0 0,-9.60848 7.12888,0 0,-14.98098 14.46439,0 0,14.98098 8.05873,0 z"
         style="font-style:normal;font-variant:normal;font-weight:600;font-stretch:normal;font-size:103.31704712px;font-family:FreeSans;-inkscape-font-specification:'FreeSans Semi-Bold';fill:none;stroke:#000000;stroke-width:0.67752618px;stroke-opacity:0.70588235"
         id="path11307" />
      <path
         d="m 367.81258,349.57195 q 0.72322,3.51278 2.89288,5.37248 2.27298,1.85971 8.472,1.85971 5.06253,0 7.85209,-1.44644 2.89288,-1.44644 2.89288,-4.02936 0,-1.65307 -1.13649,-2.68625 -1.03317,-1.03317 -3.71941,-1.8597 l -17.25395,-5.37249 q -0.10331,0 -1.2398,-0.30995 -1.13649,-0.41327 -1.65307,-0.6199 -0.41327,-0.20664 -1.65308,-0.6199 -1.2398,-0.51659 -1.96302,-1.03317 -0.6199,-0.51659 -1.65307,-1.23981 -1.03317,-0.82654 -1.65308,-1.75639 -0.51658,-0.92985 -1.13648,-2.06634 -0.61991,-1.2398 -0.92986,-2.78956 -0.30995,-1.54976 -0.30995,-3.30615 0,-8.57531 6.09571,-13.53453 6.19902,-5.06253 16.84068,-5.06253 11.26156,0 17.66721,5.06253 6.40566,4.95922 6.61229,13.84449 l -13.9478,0 q -0.10332,-7.54215 -10.43502,-7.54215 -3.82273,0 -6.09571,1.44644 -2.27297,1.34312 -2.27297,3.71941 0,1.65308 1.03317,2.58293 1.03317,0.82654 4.02936,1.75639 l 18.28712,5.26917 q 10.95161,3.20283 10.95161,14.05112 0,3.20283 -1.13649,6.30234 -1.13649,2.99619 -3.71941,5.99239 -2.47961,2.99619 -7.54215,4.75258 -5.06253,1.85971 -11.98477,1.85971 -25.72595,0 -26.34585,-18.59707 l 14.15443,0 z"
         style="font-style:normal;font-variant:normal;font-weight:600;font-stretch:normal;font-size:103.31704712px;font-family:FreeSans;-inkscape-font-specification:'FreeSans Semi-Bold';fill:none;stroke:#000000;stroke-width:0.67752618px;stroke-opacity:0.70588235"
         id="path11309" />
    </g>
    <circle
       style="fill:none;fill-opacity:1;stroke:#000000;stroke-width:1.99999988;stroke-miterlimit:4;stroke-dasharray:none;stroke-opacity:1"
       id="path5137-0-5"
       cx="80.781715"
       cy="812.78339"
       r="13" />
  </g>
</svg>
