<?xml version="1.0" encoding="UTF-8" standalone="no"?>
<svg
   xmlns:dc="http://purl.org/dc/elements/1.1/"
   xmlns:cc="http://creativecommons.org/ns#"
   xmlns:rdf="http://www.w3.org/1999/02/22-rdf-syntax-ns#"
   xmlns:svg="http://www.w3.org/2000/svg"
   xmlns="http://www.w3.org/2000/svg"
   xmlns:sodipodi="http://sodipodi.sourceforge.net/DTD/sodipodi-0.dtd"
   xmlns:inkscape="http://www.inkscape.org/namespaces/inkscape"
   version="1.1"
   id="svg2"
   viewBox="0 0 899.99998 674.99995"
   height="19.049999cm"
   width="25.4cm"
   inkscape:version="0.91 r13725"
   sodipodi:docname="08.svg">
  <sodipodi:namedview
     pagecolor="#ffffff"
     bordercolor="#666666"
     borderopacity="1"
     objecttolerance="10"
     gridtolerance="10"
     guidetolerance="10"
     inkscape:pageopacity="0"
     inkscape:pageshadow="2"
     inkscape:window-width="640"
     inkscape:window-height="480"
     id="namedview6619"
     showgrid="false"
     inkscape:zoom="0.34444445"
     inkscape:cx="449.99999"
     inkscape:cy="337.49999"
     inkscape:window-x="0"
     inkscape:window-y="27"
     inkscape:window-maximized="0"
     inkscape:current-layer="svg2" />
  <defs
     id="defs4" />
  <metadata
     id="metadata7">
    <rdf:RDF>
      <cc:Work
         rdf:about="">
        <dc:format>image/svg+xml</dc:format>
        <dc:type
           rdf:resource="http://purl.org/dc/dcmitype/StillImage" />
        <dc:title />
      </cc:Work>
    </rdf:RDF>
  </metadata>
  <g
     transform="translate(0,-377.36221)"
     id="layer1">
    <g
       transform="translate(8.2530792,426.3499)"
       style="font-style:normal;font-variant:normal;font-weight:bold;font-stretch:normal;font-size:100px;line-height:125%;font-family:Sans;-inkscape-font-specification:'Sans Bold';text-align:center;letter-spacing:0px;word-spacing:0px;text-anchor:middle;fill:#000000;fill-opacity:1;stroke:none;stroke-width:1px;stroke-linecap:butt;stroke-linejoin:miter;stroke-opacity:1"
       id="flowRoot4136">
      <path
         d="m 472.06848,285.18227 q 21.96,10.44 21.96,31.86 0,17.46 -12.06,28.44 -11.88,10.98 -30.78,10.98 -18.9,0 -30.96,-10.98 -11.88,-11.16 -11.88,-28.62 0,-21.24 21.78,-31.68 -9.72,-6.12 -13.5,-11.88 -3.78,-5.76 -3.78,-14.58 0,-14.94 10.62,-24.48 10.8,-9.54 27.72,-9.54 16.92,0 27.54,9.54 10.8,9.54 10.8,24.48 0,9 -3.78,14.76 -3.78,5.76 -13.68,11.7 z m -4.86,-40.86 q -5.94,-5.58 -16.02,-5.58 -10.08,0 -16.2,5.58 -5.94,5.4 -5.94,14.58 0,9 5.94,14.58 6.12,5.4 16.2,5.4 9.9,0 16.02,-5.4 6.12,-5.4 6.12,-14.4 0,-9.36 -6.12,-14.76 z m 3.24,54.9 q -7.38,-7.02 -19.26,-7.02 -11.88,0 -19.26,7.02 -7.38,6.84 -7.38,18 0,11.16 7.2,18.18 7.38,7.02 19.08,7.02 12.06,0 19.44,-6.84 7.56,-7.02 7.56,-18.36 0,-11.16 -7.38,-18 z"
         style="font-style:normal;font-variant:normal;font-weight:normal;font-stretch:normal;font-size:180px;font-family:FreeSans;-inkscape-font-specification:FreeSans"
         id="path9350" />
    </g>
  </g>
</svg>
