<?xml version="1.0" encoding="UTF-8" standalone="no"?>
<!-- Created with Inkscape (http://www.inkscape.org/) -->

<svg
   xmlns:dc="http://purl.org/dc/elements/1.1/"
   xmlns:cc="http://creativecommons.org/ns#"
   xmlns:rdf="http://www.w3.org/1999/02/22-rdf-syntax-ns#"
   xmlns:svg="http://www.w3.org/2000/svg"
   xmlns="http://www.w3.org/2000/svg"
   xmlns:sodipodi="http://sodipodi.sourceforge.net/DTD/sodipodi-0.dtd"
   xmlns:inkscape="http://www.inkscape.org/namespaces/inkscape"
   width="1048"
   height="768"
   viewBox="0 0 1048 768.00002"
   id="svg2"
   version="1.1"
   inkscape:version="0.91 r13725"
   sodipodi:docname="10.svg">
  <defs
     id="defs4" />
  <sodipodi:namedview
     id="base"
     pagecolor="#ffffff"
     bordercolor="#666666"
     borderopacity="1.0"
     inkscape:pageopacity="0.0"
     inkscape:pageshadow="2"
     inkscape:zoom="0.7"
     inkscape:cx="461.89844"
     inkscape:cy="465.62228"
     inkscape:document-units="px"
     inkscape:current-layer="layer1"
     showgrid="false"
     units="px"
     inkscape:window-width="1920"
     inkscape:window-height="1014"
     inkscape:window-x="0"
     inkscape:window-y="27"
     inkscape:window-maximized="1">
    <inkscape:grid
       type="xygrid"
       id="grid5092" />
  </sodipodi:namedview>
  <metadata
     id="metadata7">
    <rdf:RDF>
      <cc:Work
         rdf:about="">
        <dc:format>image/svg+xml</dc:format>
        <dc:type
           rdf:resource="http://purl.org/dc/dcmitype/StillImage" />
        <dc:title></dc:title>
      </cc:Work>
    </rdf:RDF>
  </metadata>
  <g
     inkscape:label="Layer 1"
     inkscape:groupmode="layer"
     id="layer1"
     transform="translate(0,-284.36218)">
    <g
       id="g5096"
       style="stroke:#000000;stroke-opacity:0.13725491">
      <path
         sodipodi:nodetypes="cccc"
         style="fill:none;stroke:#000000;stroke-width:2;stroke-miterlimit:4;stroke-dasharray:none;stroke-opacity:0.13725491"
         inkscape:connector-curvature="0"
         id="path4314"
         d="m 1048,684.98315 -160.37568,0 c -7.68332,-5.96677 -7.67743,-17.68568 0,-23.56659 l 160.37568,0" />
      <path
         sodipodi:nodetypes="cssccssc"
         style="fill:none;stroke:#000000;stroke-width:2;stroke-miterlimit:4;stroke-dasharray:none;stroke-opacity:0.13725491"
         inkscape:connector-curvature="0"
         id="path4310-5"
         d="m 831.89285,1052.3622 c 0,0 -17.91943,-27.8197 -17.91943,-77.36067 0,-94.01117 76.25169,-170.27726 170.24086,-170.27726 35.95322,0 63.97512,12.586 63.97512,12.586 M 1048,756.45347 c -5.3303,-1.80485 -28.2222,-9.10018 -63.78572,-9.10018 -123.15826,0 -227.59846,101.95467 -227.59846,227.65177 0,46.67814 12.59846,77.35714 12.59846,77.35714" />
      <path
         sodipodi:nodetypes="cccccssccscsccc"
         style="fill:none;stroke:#000000;stroke-width:2;stroke-miterlimit:4;stroke-dasharray:none;stroke-opacity:0.13725491"
         inkscape:connector-curvature="0"
         id="path4312-3"
         d="m 726.28747,1052.0652 0,-420.22188 -73.85031,0 0,-0.005 0,179.44378 c -40.89068,-39.21787 -96.30837,-63.41889 -157.4119,-63.41889 -125.67116,0 -227.59845,101.9547 -227.59845,227.65177 0,43.11702 13.47119,76.84722 13.47119,76.84722 m 62.532,0 c -3.31158,-3.6757 -18.64562,-42.3442 -18.64562,-76.84691 0,-94.01115 76.25172,-170.27727 170.24088,-170.27727 l 0,-0.006 c 71.03791,0 131.90658,43.52535 157.4119,105.39433 l 0,129.77175 c -0.96687,3.7062 -5.36616,11.9641 -5.36616,11.9641" />
    </g>
    <g
       transform="translate(-164.76219,158.39903)"
       style="font-style:normal;font-weight:normal;font-size:76.49583435px;line-height:125%;font-family:Sans;text-align:start;letter-spacing:0px;word-spacing:0px;text-anchor:start;fill:#000000;fill-opacity:1;stroke:none;stroke-width:1px;stroke-linecap:butt;stroke-linejoin:miter;stroke-opacity:1"
       id="flowRoot5076">
      <path
         d="m 291.5957,257.63893 0,34.01368 7.14844,0 q 9.05273,0 13.24219,-4.10157 4.21875,-4.10156 4.21875,-12.94922 0,-8.78906 -4.21875,-12.86132 -4.18946,-4.10157 -13.24219,-4.10157 l -7.14844,0 z m -5.91797,-4.86328 12.15821,0 q 12.71484,0 18.66211,5.30274 5.94726,5.27343 5.94726,16.52343 0,11.3086 -5.97656,16.61133 -5.97656,5.30274 -18.63281,5.30274 l -12.15821,0 0,-43.74024 z"
         style="font-style:normal;font-variant:normal;font-weight:normal;font-stretch:normal;font-size:60px;font-family:Sans;-inkscape-font-specification:Dingbats;text-align:start;text-anchor:start"
         id="path6912" />
      <path
         d="m 359.68164,278.76198 0,2.63672 -24.78516,0 q 0.35157,5.56641 3.33985,8.49609 3.01758,2.90039 8.3789,2.90039 3.10547,0 6.00586,-0.76171 2.92969,-0.76172 5.80078,-2.28516 l 0,5.09766 q -2.90039,1.23046 -5.94726,1.875 -3.04688,0.64453 -6.18164,0.64453 -7.85156,0 -12.45117,-4.57032 -4.57032,-4.57031 -4.57032,-12.36328 0,-8.05664 4.33594,-12.77343 4.36524,-4.7461 11.74805,-4.7461 6.62109,0 10.45898,4.27735 3.86719,4.24804 3.86719,11.57226 z m -5.39062,-1.58203 q -0.0586,-4.42383 -2.49024,-7.06055 -2.40234,-2.63672 -6.38672,-2.63672 -4.51172,0 -7.23633,2.54883 -2.69531,2.54883 -3.10546,7.17774 l 19.21875,-0.0293 z"
         style="font-style:normal;font-variant:normal;font-weight:normal;font-stretch:normal;font-size:60px;font-family:Sans;-inkscape-font-specification:Dingbats;text-align:start;text-anchor:start"
         id="path6914" />
      <path
         d="m 389.44727,264.67018 0,5.09766 q -2.28516,-1.17187 -4.7461,-1.75781 -2.46094,-0.58594 -5.09765,-0.58594 -4.01368,0 -6.03516,1.23047 -1.99219,1.23047 -1.99219,3.69141 0,1.875 1.43555,2.95898 1.43555,1.05469 5.77148,2.02148 l 1.84571,0.41016 q 5.74218,1.23047 8.14453,3.48633 2.43164,2.22656 2.43164,6.24023 0,4.57032 -3.63281,7.23633 -3.60352,2.66602 -9.93165,2.66602 -2.63671,0 -5.50781,-0.52735 -2.84179,-0.49804 -6.00586,-1.52343 l 0,-5.56641 q 2.98828,1.55273 5.88867,2.34375 2.9004,0.76172 5.74219,0.76172 3.8086,0 5.85938,-1.28906 2.05078,-1.31836 2.05078,-3.69141 0,-2.19727 -1.49414,-3.36914 -1.46485,-1.17188 -6.47461,-2.25586 l -1.875,-0.43945 q -5.00977,-1.05469 -7.23633,-3.22266 -2.22656,-2.19727 -2.22656,-6.00586 0,-4.62891 3.28125,-7.14844 3.28125,-2.51953 9.3164,-2.51953 2.98829,0 5.625,0.43945 2.63672,0.43946 4.86329,1.31836 z"
         style="font-style:normal;font-variant:normal;font-weight:normal;font-stretch:normal;font-size:60px;font-family:Sans;-inkscape-font-specification:Dingbats;text-align:start;text-anchor:start"
         id="path6916" />
      <path
         d="m 399.81836,263.70339 5.39062,0 0,32.8125 -5.39062,0 0,-32.8125 z m 0,-12.77344 5.39062,0 0,6.82617 -5.39062,0 0,-6.82617 z"
         style="font-style:normal;font-variant:normal;font-weight:normal;font-stretch:normal;font-size:60px;font-family:Sans;-inkscape-font-specification:Dingbats;text-align:start;text-anchor:start"
         id="path6918" />
      <path
         d="m 438.05078,279.72878 q 0,-5.85938 -2.43164,-9.08203 -2.40234,-3.22266 -6.76758,-3.22266 -4.33594,0 -6.76758,3.22266 -2.40234,3.22265 -2.40234,9.08203 0,5.83008 2.40234,9.05273 2.43164,3.22266 6.76758,3.22266 4.36524,0 6.76758,-3.22266 2.43164,-3.22265 2.43164,-9.05273 z m 5.39063,12.71484 q 0,8.37891 -3.72071,12.45117 -3.7207,4.10157 -11.39648,4.10157 -2.8418,0 -5.36133,-0.43946 -2.51953,-0.41015 -4.89258,-1.28906 l 0,-5.24414 q 2.37305,1.28906 4.6875,1.9043 2.31446,0.61523 4.7168,0.61523 5.30273,0 7.93945,-2.7832 2.63672,-2.75391 2.63672,-8.34961 l 0,-2.66602 q -1.66992,2.90039 -4.27734,4.33594 -2.60742,1.43555 -6.24024,1.43555 -6.03515,0 -9.72656,-4.59961 -3.69141,-4.59961 -3.69141,-12.1875 0,-7.61719 3.69141,-12.2168 3.69141,-4.59961 9.72656,-4.59961 3.63282,0 6.24024,1.43555 2.60742,1.43555 4.27734,4.33594 l 0,-4.98047 5.39063,0 0,28.74023 z"
         style="font-style:normal;font-variant:normal;font-weight:normal;font-stretch:normal;font-size:60px;font-family:Sans;-inkscape-font-specification:Dingbats;text-align:start;text-anchor:start"
         id="path6920" />
      <path
         d="m 481.82031,276.7112 0,19.80469 -5.39062,0 0,-19.62891 q 0,-4.6582 -1.81641,-6.97266 -1.81641,-2.31445 -5.44922,-2.31445 -4.36523,0 -6.88476,2.7832 -2.51953,2.78321 -2.51953,7.5879 l 0,18.54492 -5.41993,0 0,-32.8125 5.41993,0 0,5.09765 q 1.93359,-2.95898 4.54101,-4.42382 2.63672,-1.46485 6.06445,-1.46485 5.6543,0 8.55469,3.51563 2.90039,3.48632 2.90039,10.2832 z"
         style="font-style:normal;font-variant:normal;font-weight:normal;font-stretch:normal;font-size:60px;font-family:Sans;-inkscape-font-specification:Dingbats;text-align:start;text-anchor:start"
         id="path6922" />
      <path
         d="m 520.69727,278.76198 0,2.63672 -24.78516,0 q 0.35156,5.56641 3.33984,8.49609 3.01758,2.90039 8.37891,2.90039 3.10547,0 6.00586,-0.76171 2.92969,-0.76172 5.80078,-2.28516 l 0,5.09766 q -2.90039,1.23046 -5.94727,1.875 -3.04687,0.64453 -6.18164,0.64453 -7.85156,0 -12.45117,-4.57032 -4.57031,-4.57031 -4.57031,-12.36328 0,-8.05664 4.33594,-12.77343 4.36523,-4.7461 11.74804,-4.7461 6.6211,0 10.45899,4.27735 3.86719,4.24804 3.86719,11.57226 z m -5.39063,-1.58203 q -0.0586,-4.42383 -2.49023,-7.06055 -2.40235,-2.63672 -6.38672,-2.63672 -4.51172,0 -7.23633,2.54883 -2.69531,2.54883 -3.10547,7.17774 l 19.21875,-0.0293 z"
         style="font-style:normal;font-variant:normal;font-weight:normal;font-stretch:normal;font-size:60px;font-family:Sans;-inkscape-font-specification:Dingbats;text-align:start;text-anchor:start"
         id="path6924" />
      <path
         d="m 551.13672,268.68386 0,-17.75391 5.39062,0 0,45.58594 -5.39062,0 0,-4.92188 q -1.69922,2.92969 -4.30664,4.36524 -2.57813,1.40625 -6.21094,1.40625 -5.94727,0 -9.69727,-4.7461 -3.7207,-4.74609 -3.7207,-12.48047 0,-7.73437 3.7207,-12.48046 3.75,-4.7461 9.69727,-4.7461 3.63281,0 6.21094,1.43555 2.60742,1.40625 4.30664,4.33594 z m -18.36914,11.45507 q 0,5.94727 2.43164,9.34571 2.46094,3.36914 6.73828,3.36914 4.27734,0 6.73828,-3.36914 2.46094,-3.39844 2.46094,-9.34571 0,-5.94726 -2.46094,-9.3164 -2.46094,-3.39844 -6.73828,-3.39844 -4.27734,0 -6.73828,3.39844 -2.43164,3.36914 -2.43164,9.3164 z"
         style="font-style:normal;font-variant:normal;font-weight:normal;font-stretch:normal;font-size:60px;font-family:Sans;-inkscape-font-specification:Dingbats;text-align:start;text-anchor:start"
         id="path6926" />
      <path
         d="m 592.06445,254.38698 0,9.31641 11.10352,0 0,4.18945 -11.10352,0 0,17.8125 q 0,4.01367 1.08399,5.15625 1.11328,1.14258 4.48242,1.14258 l 5.53711,0 0,4.51172 -5.53711,0 q -6.24024,0 -8.61328,-2.31446 -2.37305,-2.34375 -2.37305,-8.49609 l 0,-17.8125 -3.95508,0 0,-4.18945 3.95508,0 0,-9.31641 5.41992,0 z"
         style="font-style:normal;font-variant:normal;font-weight:normal;font-stretch:normal;font-size:60px;font-family:Sans;-inkscape-font-specification:Dingbats;text-align:start;text-anchor:start"
         id="path6928" />
      <path
         d="m 623.00195,267.48268 q -4.33593,0 -6.85547,3.39844 -2.51953,3.36914 -2.51953,9.25781 0,5.88868 2.49024,9.28711 2.51953,3.36914 6.88476,3.36914 4.30664,0 6.82617,-3.39843 2.51954,-3.39844 2.51954,-9.25782 0,-5.83007 -2.51954,-9.22851 -2.51953,-3.42774 -6.82617,-3.42774 z m 0,-4.57031 q 7.03125,0 11.04492,4.57031 4.01368,4.57032 4.01368,12.65625 0,8.05664 -4.01368,12.65625 -4.01367,4.57032 -11.04492,4.57032 -7.06054,0 -11.07422,-4.57032 -3.98437,-4.59961 -3.98437,-12.65625 0,-8.08593 3.98437,-12.65625 4.01368,-4.57031 11.07422,-4.57031 z"
         style="font-style:normal;font-variant:normal;font-weight:normal;font-stretch:normal;font-size:60px;font-family:Sans;-inkscape-font-specification:Dingbats;text-align:start;text-anchor:start"
         id="path6930" />
      <path
         d="m 689.62305,280.13893 q 0,-5.94726 -2.46094,-9.3164 -2.43164,-3.39844 -6.70899,-3.39844 -4.27734,0 -6.73828,3.39844 -2.43164,3.36914 -2.43164,9.3164 0,5.94727 2.43164,9.34571 2.46094,3.36914 6.73828,3.36914 4.27735,0 6.70899,-3.36914 2.46094,-3.39844 2.46094,-9.34571 z M 671.2832,268.68386 q 1.69922,-2.92969 4.27735,-4.33594 2.60742,-1.43555 6.21093,-1.43555 5.97657,0 9.69727,4.7461 3.75,4.74609 3.75,12.48046 0,7.73438 -3.75,12.48047 -3.7207,4.7461 -9.69727,4.7461 -3.60351,0 -6.21093,-1.40625 -2.57813,-1.43555 -4.27735,-4.36524 l 0,4.92188 -5.41992,0 0,-45.58594 5.41992,0 0,17.75391 z"
         style="font-style:normal;font-variant:normal;font-weight:normal;font-stretch:normal;font-size:60px;font-family:Sans;-inkscape-font-specification:Dingbats;text-align:start;text-anchor:start"
         id="path6932" />
      <path
         d="m 732.2207,278.76198 0,2.63672 -24.78515,0 q 0.35156,5.56641 3.33984,8.49609 3.01758,2.90039 8.37891,2.90039 3.10547,0 6.00586,-0.76171 2.92968,-0.76172 5.80078,-2.28516 l 0,5.09766 q -2.90039,1.23046 -5.94727,1.875 -3.04687,0.64453 -6.18164,0.64453 -7.85156,0 -12.45117,-4.57032 -4.57031,-4.57031 -4.57031,-12.36328 0,-8.05664 4.33593,-12.77343 4.36524,-4.7461 11.74805,-4.7461 6.62109,0 10.45899,4.27735 3.86718,4.24804 3.86718,11.57226 z m -5.39062,-1.58203 q -0.0586,-4.42383 -2.49024,-7.06055 -2.40234,-2.63672 -6.38672,-2.63672 -4.51171,0 -7.23632,2.54883 -2.69532,2.54883 -3.10547,7.17774 l 19.21875,-0.0293 z"
         style="font-style:normal;font-variant:normal;font-weight:normal;font-stretch:normal;font-size:60px;font-family:Sans;-inkscape-font-specification:Dingbats;text-align:start;text-anchor:start"
         id="path6934" />
      <path
         d="m 756.30273,263.70339 5.71289,0 10.25391,27.53906 10.25391,-27.53906 5.71289,0 -12.30469,32.8125 -7.32422,0 -12.30469,-32.8125 z"
         style="font-style:normal;font-variant:normal;font-weight:normal;font-stretch:normal;font-size:60px;font-family:Sans;-inkscape-font-specification:Dingbats;text-align:start;text-anchor:start"
         id="path6936" />
      <path
         d="m 823.74414,278.76198 0,2.63672 -24.78516,0 q 0.35157,5.56641 3.33985,8.49609 3.01758,2.90039 8.3789,2.90039 3.10547,0 6.00586,-0.76171 2.92969,-0.76172 5.80078,-2.28516 l 0,5.09766 q -2.90039,1.23046 -5.94726,1.875 -3.04688,0.64453 -6.18164,0.64453 -7.85156,0 -12.45117,-4.57032 -4.57032,-4.57031 -4.57032,-12.36328 0,-8.05664 4.33594,-12.77343 4.36524,-4.7461 11.74805,-4.7461 6.62109,0 10.45898,4.27735 3.86719,4.24804 3.86719,11.57226 z m -5.39062,-1.58203 q -0.0586,-4.42383 -2.49024,-7.06055 -2.40234,-2.63672 -6.38672,-2.63672 -4.51172,0 -7.23633,2.54883 -2.69531,2.54883 -3.10546,7.17774 l 19.21875,-0.0293 z"
         style="font-style:normal;font-variant:normal;font-weight:normal;font-stretch:normal;font-size:60px;font-family:Sans;-inkscape-font-specification:Dingbats;text-align:start;text-anchor:start"
         id="path6938" />
      <path
         d="m 851.60547,268.74245 q -0.9082,-0.52734 -1.99219,-0.76172 -1.05469,-0.26367 -2.34375,-0.26367 -4.57031,0 -7.03125,2.98828 -2.43164,2.95898 -2.43164,8.52539 l 0,17.28516 -5.41992,0 0,-32.8125 5.41992,0 0,5.09765 q 1.69922,-2.98828 4.42383,-4.42382 2.72461,-1.46485 6.62109,-1.46485 0.55664,0 1.23047,0.0879 0.67383,0.0586 1.49414,0.20508 l 0.0293,5.53711 z"
         style="font-style:normal;font-variant:normal;font-weight:normal;font-stretch:normal;font-size:60px;font-family:Sans;-inkscape-font-specification:Dingbats;text-align:start;text-anchor:start"
         id="path6940" />
      <path
         d="m 870.9707,299.56276 q -2.28515,5.85938 -4.45312,7.64649 -2.16797,1.78711 -5.80078,1.78711 l -4.30664,0 0,-4.51172 3.16406,0 q 2.22656,0 3.45703,-1.05469 1.23047,-1.05469 2.72461,-4.98047 l 0.9668,-2.46094 -13.27149,-32.28515 5.71289,0 10.25391,25.66406 10.2539,-25.66406 5.7129,0 -14.41407,35.85937 z"
         style="font-style:normal;font-variant:normal;font-weight:normal;font-stretch:normal;font-size:60px;font-family:Sans;-inkscape-font-specification:Dingbats;text-align:start;text-anchor:start"
         id="path6942" />
      <path
         d="m 937.47461,270.00222 q 2.02148,-3.63282 4.83398,-5.36133 2.8125,-1.72852 6.6211,-1.72852 5.12695,0 7.91015,3.60352 2.78321,3.57422 2.78321,10.19531 l 0,19.80469 -5.41993,0 0,-19.62891 q 0,-4.7168 -1.66992,-7.00195 -1.66992,-2.28516 -5.09765,-2.28516 -4.18946,0 -6.6211,2.7832 -2.43164,2.78321 -2.43164,7.5879 l 0,18.54492 -5.41992,0 0,-19.62891 q 0,-4.74609 -1.66992,-7.00195 -1.66992,-2.28516 -5.15625,-2.28516 -4.13086,0 -6.5625,2.8125 -2.43164,2.7832 -2.43164,7.5586 l 0,18.54492 -5.41992,0 0,-32.8125 5.41992,0 0,5.09765 q 1.8457,-3.01757 4.42383,-4.45312 2.57812,-1.43555 6.12304,-1.43555 3.57422,0 6.06446,1.81641 2.51953,1.8164 3.7207,5.27344 z"
         style="font-style:normal;font-variant:normal;font-weight:normal;font-stretch:normal;font-size:60px;font-family:Sans;-inkscape-font-specification:Dingbats;text-align:start;text-anchor:start"
         id="path6944" />
      <path
         d="m 983.11914,267.48268 q -4.33594,0 -6.85547,3.39844 -2.51953,3.36914 -2.51953,9.25781 0,5.88868 2.49023,9.28711 2.51954,3.36914 6.88477,3.36914 4.30664,0 6.82617,-3.39843 2.51953,-3.39844 2.51953,-9.25782 0,-5.83007 -2.51953,-9.22851 -2.51953,-3.42774 -6.82617,-3.42774 z m 0,-4.57031 q 7.03125,0 11.04492,4.57031 4.01367,4.57032 4.01367,12.65625 0,8.05664 -4.01367,12.65625 -4.01367,4.57032 -11.04492,4.57032 -7.06055,0 -11.07422,-4.57032 -3.98437,-4.59961 -3.98437,-12.65625 0,-8.08593 3.98437,-12.65625 4.01367,-4.57031 11.07422,-4.57031 z"
         style="font-style:normal;font-variant:normal;font-weight:normal;font-stretch:normal;font-size:60px;font-family:Sans;-inkscape-font-specification:Dingbats;text-align:start;text-anchor:start"
         id="path6946" />
      <path
         d="m 1028.6758,268.68386 0,-17.75391 5.3906,0 0,45.58594 -5.3906,0 0,-4.92188 q -1.6992,2.92969 -4.3067,4.36524 -2.5781,1.40625 -6.2109,1.40625 -5.9473,0 -9.6973,-4.7461 -3.7207,-4.74609 -3.7207,-12.48047 0,-7.73437 3.7207,-12.48046 3.75,-4.7461 9.6973,-4.7461 3.6328,0 6.2109,1.43555 2.6075,1.40625 4.3067,4.33594 z m -18.3692,11.45507 q 0,5.94727 2.4317,9.34571 2.4609,3.36914 6.7383,3.36914 4.2773,0 6.7382,-3.36914 2.461,-3.39844 2.461,-9.34571 0,-5.94726 -2.461,-9.3164 -2.4609,-3.39844 -6.7382,-3.39844 -4.2774,0 -6.7383,3.39844 -2.4317,3.36914 -2.4317,9.3164 z"
         style="font-style:normal;font-variant:normal;font-weight:normal;font-stretch:normal;font-size:60px;font-family:Sans;-inkscape-font-specification:Dingbats;text-align:start;text-anchor:start"
         id="path6948" />
      <path
         d="m 1044.6133,283.56667 0,-19.86328 5.3906,0 0,19.6582 q 0,4.6582 1.8164,7.00195 1.8164,2.31446 5.4492,2.31446 4.3653,0 6.8848,-2.78321 2.5488,-2.7832 2.5488,-7.58789 l 0,-18.60351 5.3907,0 0,32.8125 -5.3907,0 0,-5.03907 q -1.9629,2.98829 -4.5703,4.45313 -2.5781,1.43555 -6.0058,1.43555 -5.6543,0 -8.584,-3.51563 -2.9297,-3.51562 -2.9297,-10.2832 z m 13.5644,-20.6543 0,0 z"
         style="font-style:normal;font-variant:normal;font-weight:normal;font-stretch:normal;font-size:60px;font-family:Sans;-inkscape-font-specification:Dingbats;text-align:start;text-anchor:start"
         id="path6950" />
      <path
         d="m 1083.2559,250.92995 5.3906,0 0,45.58594 -5.3906,0 0,-45.58594 z"
         style="font-style:normal;font-variant:normal;font-weight:normal;font-stretch:normal;font-size:60px;font-family:Sans;-inkscape-font-specification:Dingbats;text-align:start;text-anchor:start"
         id="path6952" />
      <path
         d="m 1114.8086,280.02175 q -6.5332,0 -9.0527,1.49414 -2.5196,1.49414 -2.5196,5.09765 0,2.8711 1.875,4.57032 1.9043,1.66992 5.1563,1.66992 4.4824,0 7.1777,-3.16406 2.7246,-3.19336 2.7246,-8.4668 l 0,-1.20117 -5.3613,0 z m 10.7519,-2.22657 0,18.72071 -5.3906,0 0,-4.98047 q -1.8457,2.98828 -4.5996,4.42383 -2.7539,1.40625 -6.7383,1.40625 -5.039,0 -8.0273,-2.8125 -2.959,-2.8418 -2.959,-7.58789 0,-5.53711 3.6914,-8.34961 3.7207,-2.8125 11.0742,-2.8125 l 7.5586,0 0,-0.52735 q 0,-3.7207 -2.4609,-5.74218 -2.4317,-2.05079 -6.8555,-2.05079 -2.8125,0 -5.4785,0.67383 -2.666,0.67383 -5.127,2.02149 l 0,-4.98047 q 2.959,-1.14258 5.7422,-1.69922 2.7832,-0.58594 5.42,-0.58594 7.1191,0 10.6347,3.69141 3.5156,3.6914 3.5156,11.1914 z"
         style="font-style:normal;font-variant:normal;font-weight:normal;font-stretch:normal;font-size:60px;font-family:Sans;-inkscape-font-specification:Dingbats;text-align:start;text-anchor:start"
         id="path6954" />
      <path
         d="m 1155.707,268.74245 q -0.9082,-0.52734 -1.9922,-0.76172 -1.0546,-0.26367 -2.3437,-0.26367 -4.5703,0 -7.0313,2.98828 -2.4316,2.95898 -2.4316,8.52539 l 0,17.28516 -5.4199,0 0,-32.8125 5.4199,0 0,5.09765 q 1.6992,-2.98828 4.4238,-4.42382 2.7246,-1.46485 6.6211,-1.46485 0.5567,0 1.2305,0.0879 0.6738,0.0586 1.4941,0.20508 l 0.029,5.53711 z"
         style="font-style:normal;font-variant:normal;font-weight:normal;font-stretch:normal;font-size:60px;font-family:Sans;-inkscape-font-specification:Dingbats;text-align:start;text-anchor:start"
         id="path6956" />
      <path
         d="m 300.35547,355.02175 q -6.5332,0 -9.05274,1.49414 -2.51953,1.49414 -2.51953,5.09765 0,2.8711 1.875,4.57032 1.9043,1.66992 5.15625,1.66992 4.48242,0 7.17774,-3.16406 2.72461,-3.19336 2.72461,-8.4668 l 0,-1.20117 -5.36133,0 z m 10.75195,-2.22657 0,18.72071 -5.39062,0 0,-4.98047 q -1.84571,2.98828 -4.59961,4.42383 -2.75391,1.40625 -6.73828,1.40625 -5.03907,0 -8.02735,-2.8125 -2.95898,-2.8418 -2.95898,-7.58789 0,-5.53711 3.6914,-8.34961 3.72071,-2.8125 11.07422,-2.8125 l 7.5586,0 0,-0.52735 q 0,-3.7207 -2.46094,-5.74218 -2.43164,-2.05079 -6.85547,-2.05079 -2.8125,0 -5.47852,0.67383 -2.66601,0.67383 -5.12695,2.02149 l 0,-4.98047 q 2.95899,-1.14258 5.74219,-1.69922 2.7832,-0.58594 5.41992,-0.58594 7.11914,0 10.63477,3.69141 3.51562,3.6914 3.51562,11.1914 z"
         style="font-style:normal;font-variant:normal;font-weight:normal;font-stretch:normal;font-size:60px;font-family:Sans;-inkscape-font-specification:Dingbats;text-align:start;text-anchor:start"
         id="path6958" />
      <path
         d="m 349.51562,351.7112 0,19.80469 -5.39062,0 0,-19.62891 q 0,-4.6582 -1.81641,-6.97266 -1.8164,-2.31445 -5.44922,-2.31445 -4.36523,0 -6.88476,2.7832 -2.51953,2.78321 -2.51953,7.5879 l 0,18.54492 -5.41992,0 0,-32.8125 5.41992,0 0,5.09765 q 1.93359,-2.95898 4.54101,-4.42382 2.63672,-1.46485 6.06446,-1.46485 5.65429,0 8.55468,3.51563 2.90039,3.48632 2.90039,10.2832 z"
         style="font-style:normal;font-variant:normal;font-weight:normal;font-stretch:normal;font-size:60px;font-family:Sans;-inkscape-font-specification:Dingbats;text-align:start;text-anchor:start"
         id="path6960" />
      <path
         d="m 381.91797,343.68386 0,-17.75391 5.39062,0 0,45.58594 -5.39062,0 0,-4.92188 q -1.69922,2.92969 -4.30664,4.36524 -2.57813,1.40625 -6.21094,1.40625 -5.94727,0 -9.69727,-4.7461 -3.7207,-4.74609 -3.7207,-12.48047 0,-7.73437 3.7207,-12.48046 3.75,-4.7461 9.69727,-4.7461 3.63281,0 6.21094,1.43555 2.60742,1.40625 4.30664,4.33594 z m -18.36914,11.45507 q 0,5.94727 2.43164,9.34571 2.46094,3.36914 6.73828,3.36914 4.27734,0 6.73828,-3.36914 2.46094,-3.39844 2.46094,-9.34571 0,-5.94726 -2.46094,-9.3164 -2.46094,-3.39844 -6.73828,-3.39844 -4.27734,0 -6.73828,3.39844 -2.43164,3.36914 -2.43164,9.3164 z"
         style="font-style:normal;font-variant:normal;font-weight:normal;font-stretch:normal;font-size:60px;font-family:Sans;-inkscape-font-specification:Dingbats;text-align:start;text-anchor:start"
         id="path6962" />
      <path
         d="m 438.43164,339.67018 0,5.09766 q -2.28516,-1.17187 -4.74609,-1.75781 -2.46094,-0.58594 -5.09766,-0.58594 -4.01367,0 -6.03516,1.23047 -1.99218,1.23047 -1.99218,3.69141 0,1.875 1.43554,2.95898 1.43555,1.05469 5.77149,2.02148 l 1.8457,0.41016 q 5.74219,1.23047 8.14453,3.48633 2.43164,2.22656 2.43164,6.24023 0,4.57032 -3.63281,7.23633 -3.60352,2.66602 -9.93164,2.66602 -2.63672,0 -5.50781,-0.52735 -2.8418,-0.49804 -6.00586,-1.52343 l 0,-5.56641 q 2.98828,1.55273 5.88867,2.34375 2.90039,0.76172 5.74219,0.76172 3.80859,0 5.85937,-1.28906 2.05078,-1.31836 2.05078,-3.69141 0,-2.19727 -1.49414,-3.36914 -1.46484,-1.17188 -6.47461,-2.25586 l -1.875,-0.43945 q -5.00976,-1.05469 -7.23632,-3.22266 -2.22657,-2.19727 -2.22657,-6.00586 0,-4.62891 3.28125,-7.14844 3.28125,-2.51953 9.31641,-2.51953 2.98828,0 5.625,0.43945 2.63672,0.43946 4.86328,1.31836 z"
         style="font-style:normal;font-variant:normal;font-weight:normal;font-stretch:normal;font-size:60px;font-family:Sans;-inkscape-font-specification:Dingbats;text-align:start;text-anchor:start"
         id="path6964" />
      <path
         d="m 454.13477,329.38698 0,9.31641 11.10351,0 0,4.18945 -11.10351,0 0,17.8125 q 0,4.01367 1.08398,5.15625 1.11328,1.14258 4.48242,1.14258 l 5.53711,0 0,4.51172 -5.53711,0 q -6.24023,0 -8.61328,-2.31446 -2.37305,-2.34375 -2.37305,-8.49609 l 0,-17.8125 -3.95507,0 0,-4.18945 3.95507,0 0,-9.31641 5.41993,0 z"
         style="font-style:normal;font-variant:normal;font-weight:normal;font-stretch:normal;font-size:60px;font-family:Sans;-inkscape-font-specification:Dingbats;text-align:start;text-anchor:start"
         id="path6966" />
      <path
         d="m 491.37109,343.74245 q -0.9082,-0.52734 -1.99218,-0.76172 -1.05469,-0.26367 -2.34375,-0.26367 -4.57032,0 -7.03125,2.98828 -2.43164,2.95898 -2.43164,8.52539 l 0,17.28516 -5.41993,0 0,-32.8125 5.41993,0 0,5.09765 q 1.69921,-2.98828 4.42382,-4.42382 2.72461,-1.46485 6.6211,-1.46485 0.55664,0 1.23047,0.0879 0.67382,0.0586 1.49414,0.20508 l 0.0293,5.53711 z"
         style="font-style:normal;font-variant:normal;font-weight:normal;font-stretch:normal;font-size:60px;font-family:Sans;-inkscape-font-specification:Dingbats;text-align:start;text-anchor:start"
         id="path6968" />
      <path
         d="m 496.52734,358.56667 0,-19.86328 5.39063,0 0,19.6582 q 0,4.6582 1.8164,7.00195 1.81641,2.31446 5.44922,2.31446 4.36524,0 6.88477,-2.78321 2.54883,-2.7832 2.54883,-7.58789 l 0,-18.60351 5.39062,0 0,32.8125 -5.39062,0 0,-5.03907 q -1.96289,2.98829 -4.57032,4.45313 -2.57812,1.43555 -6.00585,1.43555 -5.6543,0 -8.58399,-3.51563 -2.92969,-3.51562 -2.92969,-10.2832 z m 13.56446,-20.6543 0,0 z"
         style="font-style:normal;font-variant:normal;font-weight:normal;font-stretch:normal;font-size:60px;font-family:Sans;-inkscape-font-specification:Dingbats;text-align:start;text-anchor:start"
         id="path6970" />
      <path
         d="m 558.7832,339.96315 0,5.03907 q -2.28515,-1.25977 -4.59961,-1.875 -2.28515,-0.64454 -4.6289,-0.64454 -5.24414,0 -8.14453,3.33985 -2.90039,3.31054 -2.90039,9.3164 0,6.00586 2.90039,9.34571 2.90039,3.31054 8.14453,3.31054 2.34375,0 4.6289,-0.61523 2.31446,-0.64453 4.59961,-1.9043 l 0,4.98047 q -2.25586,1.05469 -4.6875,1.58203 -2.40234,0.52735 -5.12695,0.52735 -7.41211,0 -11.77734,-4.65821 -4.36524,-4.6582 -4.36524,-12.56836 0,-8.02734 4.39453,-12.62695 4.42383,-4.59961 12.09961,-4.59961 2.49024,0 4.86328,0.52735 2.37305,0.49804 4.59961,1.52343 z"
         style="font-style:normal;font-variant:normal;font-weight:normal;font-stretch:normal;font-size:60px;font-family:Sans;-inkscape-font-specification:Dingbats;text-align:start;text-anchor:start"
         id="path6972" />
      <path
         d="m 573.54883,329.38698 0,9.31641 11.10351,0 0,4.18945 -11.10351,0 0,17.8125 q 0,4.01367 1.08398,5.15625 1.11328,1.14258 4.48242,1.14258 l 5.53711,0 0,4.51172 -5.53711,0 q -6.24023,0 -8.61328,-2.31446 -2.37304,-2.34375 -2.37304,-8.49609 l 0,-17.8125 -3.95508,0 0,-4.18945 3.95508,0 0,-9.31641 5.41992,0 z"
         style="font-style:normal;font-variant:normal;font-weight:normal;font-stretch:normal;font-size:60px;font-family:Sans;-inkscape-font-specification:Dingbats;text-align:start;text-anchor:start"
         id="path6974" />
      <path
         d="m 591.21484,358.56667 0,-19.86328 5.39063,0 0,19.6582 q 0,4.6582 1.8164,7.00195 1.81641,2.31446 5.44922,2.31446 4.36524,0 6.88477,-2.78321 2.54883,-2.7832 2.54883,-7.58789 l 0,-18.60351 5.39062,0 0,32.8125 -5.39062,0 0,-5.03907 q -1.96289,2.98829 -4.57032,4.45313 -2.57812,1.43555 -6.00585,1.43555 -5.6543,0 -8.58399,-3.51563 -2.92969,-3.51562 -2.92969,-10.2832 z m 13.56446,-20.6543 0,0 z"
         style="font-style:normal;font-variant:normal;font-weight:normal;font-stretch:normal;font-size:60px;font-family:Sans;-inkscape-font-specification:Dingbats;text-align:start;text-anchor:start"
         id="path6976" />
      <path
         d="m 648.87109,343.74245 q -0.9082,-0.52734 -1.99218,-0.76172 -1.05469,-0.26367 -2.34375,-0.26367 -4.57032,0 -7.03125,2.98828 -2.43164,2.95898 -2.43164,8.52539 l 0,17.28516 -5.41993,0 0,-32.8125 5.41993,0 0,5.09765 q 1.69921,-2.98828 4.42382,-4.42382 2.72461,-1.46485 6.6211,-1.46485 0.55664,0 1.23047,0.0879 0.67382,0.0586 1.49414,0.20508 l 0.0293,5.53711 z"
         style="font-style:normal;font-variant:normal;font-weight:normal;font-stretch:normal;font-size:60px;font-family:Sans;-inkscape-font-specification:Dingbats;text-align:start;text-anchor:start"
         id="path6978" />
      <path
         d="m 681.36133,353.76198 0,2.63672 -24.78516,0 q 0.35156,5.56641 3.33985,8.49609 3.01757,2.90039 8.3789,2.90039 3.10547,0 6.00586,-0.76171 2.92969,-0.76172 5.80078,-2.28516 l 0,5.09766 q -2.90039,1.23046 -5.94726,1.875 -3.04688,0.64453 -6.18164,0.64453 -7.85157,0 -12.45118,-4.57032 -4.57031,-4.57031 -4.57031,-12.36328 0,-8.05664 4.33594,-12.77343 4.36523,-4.7461 11.74805,-4.7461 6.62109,0 10.45898,4.27735 3.86719,4.24804 3.86719,11.57226 z m -5.39063,-1.58203 q -0.0586,-4.42383 -2.49023,-7.06055 -2.40235,-2.63672 -6.38672,-2.63672 -4.51172,0 -7.23633,2.54883 -2.69531,2.54883 -3.10547,7.17774 l 19.21875,-0.0293 z"
         style="font-style:normal;font-variant:normal;font-weight:normal;font-stretch:normal;font-size:60px;font-family:Sans;-inkscape-font-specification:Dingbats;text-align:start;text-anchor:start"
         id="path6980" />
      <path
         d="m 711.80078,343.68386 0,-17.75391 5.39063,0 0,45.58594 -5.39063,0 0,-4.92188 q -1.69922,2.92969 -4.30664,4.36524 -2.57812,1.40625 -6.21094,1.40625 -5.94726,0 -9.69726,-4.7461 -3.72071,-4.74609 -3.72071,-12.48047 0,-7.73437 3.72071,-12.48046 3.75,-4.7461 9.69726,-4.7461 3.63282,0 6.21094,1.43555 2.60742,1.40625 4.30664,4.33594 z m -18.36914,11.45507 q 0,5.94727 2.43164,9.34571 2.46094,3.36914 6.73828,3.36914 4.27735,0 6.73828,-3.36914 2.46094,-3.39844 2.46094,-9.34571 0,-5.94726 -2.46094,-9.3164 -2.46093,-3.39844 -6.73828,-3.39844 -4.27734,0 -6.73828,3.39844 -2.43164,3.36914 -2.43164,9.3164 z"
         style="font-style:normal;font-variant:normal;font-weight:normal;font-stretch:normal;font-size:60px;font-family:Sans;-inkscape-font-specification:Dingbats;text-align:start;text-anchor:start"
         id="path6982" />
      <path
         d="m 285.00391,477.77565 5.94726,0 0,26.57227 q 0,7.03125 2.54883,10.13672 2.54883,3.07617 8.26172,3.07617 5.68359,0 8.23242,-3.07617 2.54883,-3.10547 2.54883,-10.13672 l 0,-26.57227 5.94726,0 0,27.30469 q 0,8.55469 -4.24804,12.91992 -4.21875,4.36524 -12.48047,4.36524 -8.29102,0 -12.53906,-4.36524 -4.21875,-4.36523 -4.21875,-12.91992 l 0,-27.30469 z"
         style="font-style:normal;font-variant:normal;font-weight:normal;font-stretch:normal;font-size:60px;font-family:Sans;-inkscape-font-specification:Dingbats;text-align:start;text-anchor:start"
         id="path6984" />
      <path
         d="m 350.30664,489.67018 0,5.09766 q -2.28516,-1.17187 -4.74609,-1.75781 -2.46094,-0.58594 -5.09766,-0.58594 -4.01367,0 -6.03516,1.23047 -1.99218,1.23047 -1.99218,3.69141 0,1.875 1.43554,2.95898 1.43555,1.05469 5.77149,2.02148 l 1.8457,0.41016 q 5.74219,1.23047 8.14453,3.48633 2.43164,2.22656 2.43164,6.24023 0,4.57032 -3.63281,7.23633 -3.60352,2.66602 -9.93164,2.66602 -2.63672,0 -5.50781,-0.52735 -2.8418,-0.49804 -6.00586,-1.52343 l 0,-5.56641 q 2.98828,1.55273 5.88867,2.34375 2.90039,0.76172 5.74219,0.76172 3.80859,0 5.85937,-1.28906 2.05078,-1.31836 2.05078,-3.69141 0,-2.19727 -1.49414,-3.36914 -1.46484,-1.17188 -6.47461,-2.25586 l -1.875,-0.43945 q -5.00976,-1.05469 -7.23632,-3.22266 -2.22657,-2.19727 -2.22657,-6.00586 0,-4.62891 3.28125,-7.14844 3.28125,-2.51953 9.31641,-2.51953 2.98828,0 5.625,0.43945 2.63672,0.43946 4.86328,1.31836 z"
         style="font-style:normal;font-variant:normal;font-weight:normal;font-stretch:normal;font-size:60px;font-family:Sans;-inkscape-font-specification:Dingbats;text-align:start;text-anchor:start"
         id="path6986" />
      <path
         d="m 388.74414,503.76198 0,2.63672 -24.78516,0 q 0.35157,5.56641 3.33985,8.49609 3.01758,2.90039 8.3789,2.90039 3.10547,0 6.00586,-0.76171 2.92969,-0.76172 5.80078,-2.28516 l 0,5.09766 q -2.90039,1.23046 -5.94726,1.875 -3.04688,0.64453 -6.18164,0.64453 -7.85156,0 -12.45117,-4.57032 -4.57032,-4.57031 -4.57032,-12.36328 0,-8.05664 4.33594,-12.77343 4.36524,-4.7461 11.74805,-4.7461 6.62109,0 10.45898,4.27735 3.86719,4.24804 3.86719,11.57226 z m -5.39062,-1.58203 q -0.0586,-4.42383 -2.49024,-7.06055 -2.40234,-2.63672 -6.38672,-2.63672 -4.51172,0 -7.23633,2.54883 -2.69531,2.54883 -3.10546,7.17774 l 19.21875,-0.0293 z"
         style="font-style:normal;font-variant:normal;font-weight:normal;font-stretch:normal;font-size:60px;font-family:Sans;-inkscape-font-specification:Dingbats;text-align:start;text-anchor:start"
         id="path6988" />
      <path
         d="m 418.50977,489.67018 0,5.09766 q -2.28516,-1.17187 -4.7461,-1.75781 -2.46094,-0.58594 -5.09765,-0.58594 -4.01368,0 -6.03516,1.23047 -1.99219,1.23047 -1.99219,3.69141 0,1.875 1.43555,2.95898 1.43555,1.05469 5.77148,2.02148 l 1.84571,0.41016 q 5.74218,1.23047 8.14453,3.48633 2.43164,2.22656 2.43164,6.24023 0,4.57032 -3.63281,7.23633 -3.60352,2.66602 -9.93165,2.66602 -2.63671,0 -5.50781,-0.52735 -2.84179,-0.49804 -6.00586,-1.52343 l 0,-5.56641 q 2.98828,1.55273 5.88867,2.34375 2.9004,0.76172 5.74219,0.76172 3.8086,0 5.85938,-1.28906 2.05078,-1.31836 2.05078,-3.69141 0,-2.19727 -1.49414,-3.36914 -1.46485,-1.17188 -6.47461,-2.25586 l -1.875,-0.43945 q -5.00977,-1.05469 -7.23633,-3.22266 -2.22656,-2.19727 -2.22656,-6.00586 0,-4.62891 3.28125,-7.14844 3.28125,-2.51953 9.3164,-2.51953 2.98829,0 5.625,0.43945 2.63672,0.43946 4.86329,1.31836 z"
         style="font-style:normal;font-variant:normal;font-weight:normal;font-stretch:normal;font-size:60px;font-family:Sans;-inkscape-font-specification:Dingbats;text-align:start;text-anchor:start"
         id="path6990" />
      <path
         d="m 473.5293,495.00222 q 2.02148,-3.63282 4.83398,-5.36133 2.8125,-1.72852 6.62109,-1.72852 5.12696,0 7.91016,3.60352 2.7832,3.57422 2.7832,10.19531 l 0,19.80469 -5.41992,0 0,-19.62891 q 0,-4.7168 -1.66992,-7.00195 -1.66992,-2.28516 -5.09766,-2.28516 -4.18945,0 -6.62109,2.7832 -2.43164,2.78321 -2.43164,7.5879 l 0,18.54492 -5.41992,0 0,-19.62891 q 0,-4.74609 -1.66992,-7.00195 -1.66993,-2.28516 -5.15625,-2.28516 -4.13086,0 -6.5625,2.8125 -2.43164,2.7832 -2.43164,7.5586 l 0,18.54492 -5.41993,0 0,-32.8125 5.41993,0 0,5.09765 q 1.8457,-3.01757 4.42382,-4.45312 2.57813,-1.43555 6.12305,-1.43555 3.57422,0 6.06445,1.81641 2.51953,1.8164 3.72071,5.27344 z"
         style="font-style:normal;font-variant:normal;font-weight:normal;font-stretch:normal;font-size:60px;font-family:Sans;-inkscape-font-specification:Dingbats;text-align:start;text-anchor:start"
         id="path6992" />
      <path
         d="m 521.37109,505.02175 q -6.5332,0 -9.05273,1.49414 -2.51953,1.49414 -2.51953,5.09765 0,2.8711 1.875,4.57032 1.90429,1.66992 5.15625,1.66992 4.48242,0 7.17773,-3.16406 2.72461,-3.19336 2.72461,-8.4668 l 0,-1.20117 -5.36133,0 z m 10.75196,-2.22657 0,18.72071 -5.39063,0 0,-4.98047 q -1.8457,2.98828 -4.59961,4.42383 -2.7539,1.40625 -6.73828,1.40625 -5.03906,0 -8.02734,-2.8125 -2.95899,-2.8418 -2.95899,-7.58789 0,-5.53711 3.69141,-8.34961 3.7207,-2.8125 11.07422,-2.8125 l 7.55859,0 0,-0.52735 q 0,-3.7207 -2.46094,-5.74218 -2.43164,-2.05079 -6.85546,-2.05079 -2.8125,0 -5.47852,0.67383 -2.66602,0.67383 -5.12695,2.02149 l 0,-4.98047 q 2.95898,-1.14258 5.74218,-1.69922 2.78321,-0.58594 5.41993,-0.58594 7.11914,0 10.63476,3.69141 3.51563,3.6914 3.51563,11.1914 z"
         style="font-style:normal;font-variant:normal;font-weight:normal;font-stretch:normal;font-size:60px;font-family:Sans;-inkscape-font-specification:Dingbats;text-align:start;text-anchor:start"
         id="path6994" />
      <path
         d="m 570.53125,501.7112 0,19.80469 -5.39063,0 0,-19.62891 q 0,-4.6582 -1.8164,-6.97266 -1.81641,-2.31445 -5.44922,-2.31445 -4.36523,0 -6.88477,2.7832 -2.51953,2.78321 -2.51953,7.5879 l 0,18.54492 -5.41992,0 0,-32.8125 5.41992,0 0,5.09765 q 1.9336,-2.95898 4.54102,-4.42382 2.63672,-1.46485 6.06445,-1.46485 5.6543,0 8.55469,3.51563 2.90039,3.48632 2.90039,10.2832 z"
         style="font-style:normal;font-variant:normal;font-weight:normal;font-stretch:normal;font-size:60px;font-family:Sans;-inkscape-font-specification:Dingbats;text-align:start;text-anchor:start"
         id="path6996" />
      <path
         d="m 594.99414,524.56276 q -2.28516,5.85938 -4.45312,7.64649 -2.16797,1.78711 -5.80079,1.78711 l -4.30664,0 0,-4.51172 3.16407,0 q 2.22656,0 3.45703,-1.05469 1.23047,-1.05469 2.72461,-4.98047 l 0.96679,-2.46094 -13.27148,-32.28515 5.71289,0 10.25391,25.66406 10.2539,-25.66406 5.71289,0 -14.41406,35.85937 z"
         style="font-style:normal;font-variant:normal;font-weight:normal;font-stretch:normal;font-size:60px;font-family:Sans;-inkscape-font-specification:Dingbats;text-align:start;text-anchor:start"
         id="path6998" />
      <path
         d="m 641.16602,516.59401 0,17.40235 -5.41993,0 0,-45.29297 5.41993,0 0,4.98047 q 1.69921,-2.92969 4.27734,-4.33594 2.60742,-1.43555 6.21094,-1.43555 5.97656,0 9.69726,4.7461 3.75,4.74609 3.75,12.48046 0,7.73438 -3.75,12.48047 -3.7207,4.7461 -9.69726,4.7461 -3.60352,0 -6.21094,-1.40625 -2.57813,-1.43555 -4.27734,-4.36524 z m 18.33984,-11.45508 q 0,-5.94726 -2.46094,-9.3164 -2.43164,-3.39844 -6.70898,-3.39844 -4.27735,0 -6.73828,3.39844 -2.43164,3.36914 -2.43164,9.3164 0,5.94727 2.43164,9.34571 2.46093,3.36914 6.73828,3.36914 4.27734,0 6.70898,-3.36914 2.46094,-3.39844 2.46094,-9.34571 z"
         style="font-style:normal;font-variant:normal;font-weight:normal;font-stretch:normal;font-size:60px;font-family:Sans;-inkscape-font-specification:Dingbats;text-align:start;text-anchor:start"
         id="path7000" />
      <path
         d="m 693.05078,493.74245 q -0.9082,-0.52734 -1.99219,-0.76172 -1.05468,-0.26367 -2.34375,-0.26367 -4.57031,0 -7.03125,2.98828 -2.43164,2.95898 -2.43164,8.52539 l 0,17.28516 -5.41992,0 0,-32.8125 5.41992,0 0,5.09765 q 1.69922,-2.98828 4.42383,-4.42382 2.72461,-1.46485 6.62109,-1.46485 0.55665,0 1.23047,0.0879 0.67383,0.0586 1.49414,0.20508 l 0.0293,5.53711 z"
         style="font-style:normal;font-variant:normal;font-weight:normal;font-stretch:normal;font-size:60px;font-family:Sans;-inkscape-font-specification:Dingbats;text-align:start;text-anchor:start"
         id="path7002" />
      <path
         d="m 710.18945,492.48268 q -4.33593,0 -6.85547,3.39844 -2.51953,3.36914 -2.51953,9.25781 0,5.88868 2.49024,9.28711 2.51953,3.36914 6.88476,3.36914 4.30664,0 6.82617,-3.39843 2.51954,-3.39844 2.51954,-9.25782 0,-5.83007 -2.51954,-9.22851 -2.51953,-3.42774 -6.82617,-3.42774 z m 0,-4.57031 q 7.03125,0 11.04492,4.57031 4.01368,4.57032 4.01368,12.65625 0,8.05664 -4.01368,12.65625 -4.01367,4.57032 -11.04492,4.57032 -7.06054,0 -11.07422,-4.57032 -3.98437,-4.59961 -3.98437,-12.65625 0,-8.08593 3.98437,-12.65625 4.01368,-4.57031 11.07422,-4.57031 z"
         style="font-style:normal;font-variant:normal;font-weight:normal;font-stretch:normal;font-size:60px;font-family:Sans;-inkscape-font-specification:Dingbats;text-align:start;text-anchor:start"
         id="path7004" />
      <path
         d="m 755.74609,504.72878 q 0,-5.85938 -2.43164,-9.08203 -2.40234,-3.22266 -6.76758,-3.22266 -4.33593,0 -6.76757,3.22266 -2.40235,3.22265 -2.40235,9.08203 0,5.83008 2.40235,9.05273 2.43164,3.22266 6.76757,3.22266 4.36524,0 6.76758,-3.22266 2.43164,-3.22265 2.43164,-9.05273 z m 5.39063,12.71484 q 0,8.37891 -3.7207,12.45117 -3.72071,4.10157 -11.39649,4.10157 -2.8418,0 -5.36133,-0.43946 -2.51953,-0.41015 -4.89258,-1.28906 l 0,-5.24414 q 2.37305,1.28906 4.6875,1.9043 2.31446,0.61523 4.7168,0.61523 5.30274,0 7.93945,-2.7832 2.63672,-2.75391 2.63672,-8.34961 l 0,-2.66602 q -1.66992,2.90039 -4.27734,4.33594 -2.60742,1.43555 -6.24023,1.43555 -6.03516,0 -9.72657,-4.59961 -3.6914,-4.59961 -3.6914,-12.1875 0,-7.61719 3.6914,-12.2168 3.69141,-4.59961 9.72657,-4.59961 3.63281,0 6.24023,1.43555 2.60742,1.43555 4.27734,4.33594 l 0,-4.98047 5.39063,0 0,28.74023 z"
         style="font-style:normal;font-variant:normal;font-weight:normal;font-stretch:normal;font-size:60px;font-family:Sans;-inkscape-font-specification:Dingbats;text-align:start;text-anchor:start"
         id="path7006" />
      <path
         d="m 791.25391,493.74245 q -0.90821,-0.52734 -1.99219,-0.76172 -1.05469,-0.26367 -2.34375,-0.26367 -4.57031,0 -7.03125,2.98828 -2.43164,2.95898 -2.43164,8.52539 l 0,17.28516 -5.41992,0 0,-32.8125 5.41992,0 0,5.09765 q 1.69922,-2.98828 4.42383,-4.42382 2.72461,-1.46485 6.62109,-1.46485 0.55664,0 1.23047,0.0879 0.67383,0.0586 1.49414,0.20508 l 0.0293,5.53711 z"
         style="font-style:normal;font-variant:normal;font-weight:normal;font-stretch:normal;font-size:60px;font-family:Sans;-inkscape-font-specification:Dingbats;text-align:start;text-anchor:start"
         id="path7008" />
      <path
         d="m 811.87891,505.02175 q -6.53321,0 -9.05274,1.49414 -2.51953,1.49414 -2.51953,5.09765 0,2.8711 1.875,4.57032 1.9043,1.66992 5.15625,1.66992 4.48242,0 7.17773,-3.16406 2.72461,-3.19336 2.72461,-8.4668 l 0,-1.20117 -5.36132,0 z m 10.75195,-2.22657 0,18.72071 -5.39063,0 0,-4.98047 q -1.8457,2.98828 -4.59961,4.42383 -2.7539,1.40625 -6.73828,1.40625 -5.03906,0 -8.02734,-2.8125 -2.95898,-2.8418 -2.95898,-7.58789 0,-5.53711 3.6914,-8.34961 3.7207,-2.8125 11.07422,-2.8125 l 7.55859,0 0,-0.52735 q 0,-3.7207 -2.46093,-5.74218 -2.43164,-2.05079 -6.85547,-2.05079 -2.8125,0 -5.47852,0.67383 -2.66601,0.67383 -5.12695,2.02149 l 0,-4.98047 q 2.95898,-1.14258 5.74219,-1.69922 2.7832,-0.58594 5.41992,-0.58594 7.11914,0 10.63476,3.69141 3.51563,3.6914 3.51563,11.1914 z"
         style="font-style:normal;font-variant:normal;font-weight:normal;font-stretch:normal;font-size:60px;font-family:Sans;-inkscape-font-specification:Dingbats;text-align:start;text-anchor:start"
         id="path7010" />
      <path
         d="m 859.31055,495.00222 q 2.02148,-3.63282 4.83398,-5.36133 2.8125,-1.72852 6.62109,-1.72852 5.12696,0 7.91016,3.60352 2.7832,3.57422 2.7832,10.19531 l 0,19.80469 -5.41992,0 0,-19.62891 q 0,-4.7168 -1.66992,-7.00195 -1.66992,-2.28516 -5.09766,-2.28516 -4.18945,0 -6.62109,2.7832 -2.43164,2.78321 -2.43164,7.5879 l 0,18.54492 -5.41992,0 0,-19.62891 q 0,-4.74609 -1.66992,-7.00195 -1.66993,-2.28516 -5.15625,-2.28516 -4.13086,0 -6.5625,2.8125 -2.43164,2.7832 -2.43164,7.5586 l 0,18.54492 -5.41993,0 0,-32.8125 5.41993,0 0,5.09765 q 1.8457,-3.01757 4.42382,-4.45312 2.57813,-1.43555 6.12305,-1.43555 3.57422,0 6.06445,1.81641 2.51953,1.8164 3.72071,5.27344 z"
         style="font-style:normal;font-variant:normal;font-weight:normal;font-stretch:normal;font-size:60px;font-family:Sans;-inkscape-font-specification:Dingbats;text-align:start;text-anchor:start"
         id="path7012" />
      <path
         d="m 917.78711,495.00222 q 2.02148,-3.63282 4.83398,-5.36133 2.8125,-1.72852 6.6211,-1.72852 5.12695,0 7.91015,3.60352 2.78321,3.57422 2.78321,10.19531 l 0,19.80469 -5.41993,0 0,-19.62891 q 0,-4.7168 -1.66992,-7.00195 -1.66992,-2.28516 -5.09765,-2.28516 -4.18946,0 -6.6211,2.7832 -2.43164,2.78321 -2.43164,7.5879 l 0,18.54492 -5.41992,0 0,-19.62891 q 0,-4.74609 -1.66992,-7.00195 -1.66992,-2.28516 -5.15625,-2.28516 -4.13086,0 -6.5625,2.8125 -2.43164,2.7832 -2.43164,7.5586 l 0,18.54492 -5.41992,0 0,-32.8125 5.41992,0 0,5.09765 q 1.8457,-3.01757 4.42383,-4.45312 2.57812,-1.43555 6.12304,-1.43555 3.57422,0 6.06446,1.81641 2.51953,1.8164 3.7207,5.27344 z"
         style="font-style:normal;font-variant:normal;font-weight:normal;font-stretch:normal;font-size:60px;font-family:Sans;-inkscape-font-specification:Dingbats;text-align:start;text-anchor:start"
         id="path7014" />
      <path
         d="m 950.7168,488.70339 5.39062,0 0,32.8125 -5.39062,0 0,-32.8125 z m 0,-12.77344 5.39062,0 0,6.82617 -5.39062,0 0,-6.82617 z"
         style="font-style:normal;font-variant:normal;font-weight:normal;font-stretch:normal;font-size:60px;font-family:Sans;-inkscape-font-specification:Dingbats;text-align:start;text-anchor:start"
         id="path7016" />
      <path
         d="m 994.63281,501.7112 0,19.80469 -5.39062,0 0,-19.62891 q 0,-4.6582 -1.81641,-6.97266 -1.81641,-2.31445 -5.44922,-2.31445 -4.36523,0 -6.88476,2.7832 -2.51953,2.78321 -2.51953,7.5879 l 0,18.54492 -5.41993,0 0,-32.8125 5.41993,0 0,5.09765 q 1.93359,-2.95898 4.54101,-4.42382 2.63672,-1.46485 6.06445,-1.46485 5.6543,0 8.55469,3.51563 2.90039,3.48632 2.90039,10.2832 z"
         style="font-style:normal;font-variant:normal;font-weight:normal;font-stretch:normal;font-size:60px;font-family:Sans;-inkscape-font-specification:Dingbats;text-align:start;text-anchor:start"
         id="path7018" />
      <path
         d="m 1027.0352,504.72878 q 0,-5.85938 -2.4317,-9.08203 -2.4023,-3.22266 -6.7676,-3.22266 -4.3359,0 -6.7675,3.22266 -2.4024,3.22265 -2.4024,9.08203 0,5.83008 2.4024,9.05273 2.4316,3.22266 6.7675,3.22266 4.3653,0 6.7676,-3.22266 2.4317,-3.22265 2.4317,-9.05273 z m 5.3906,12.71484 q 0,8.37891 -3.7207,12.45117 -3.7207,4.10157 -11.3965,4.10157 -2.8418,0 -5.3613,-0.43946 -2.5196,-0.41015 -4.8926,-1.28906 l 0,-5.24414 q 2.373,1.28906 4.6875,1.9043 2.3144,0.61523 4.7168,0.61523 5.3027,0 7.9394,-2.7832 2.6368,-2.75391 2.6368,-8.34961 l 0,-2.66602 q -1.67,2.90039 -4.2774,4.33594 -2.6074,1.43555 -6.2402,1.43555 -6.0352,0 -9.7266,-4.59961 -3.6914,-4.59961 -3.6914,-12.1875 0,-7.61719 3.6914,-12.2168 3.6914,-4.59961 9.7266,-4.59961 3.6328,0 6.2402,1.43555 2.6074,1.43555 4.2774,4.33594 l 0,-4.98047 5.3906,0 0,28.74023 z"
         style="font-style:normal;font-variant:normal;font-weight:normal;font-stretch:normal;font-size:60px;font-family:Sans;-inkscape-font-specification:Dingbats;text-align:start;text-anchor:start"
         id="path7020" />
      <path
         d="m 1086.1855,505.13893 q 0,-5.94726 -2.4609,-9.3164 -2.4316,-3.39844 -6.709,-3.39844 -4.2773,0 -6.7383,3.39844 -2.4316,3.36914 -2.4316,9.3164 0,5.94727 2.4316,9.34571 2.461,3.36914 6.7383,3.36914 4.2774,0 6.709,-3.36914 2.4609,-3.39844 2.4609,-9.34571 z m -18.3398,-11.45507 q 1.6992,-2.92969 4.2773,-4.33594 2.6075,-1.43555 6.211,-1.43555 5.9765,0 9.6973,4.7461 3.75,4.74609 3.75,12.48046 0,7.73438 -3.75,12.48047 -3.7208,4.7461 -9.6973,4.7461 -3.6035,0 -6.211,-1.40625 -2.5781,-1.43555 -4.2773,-4.36524 l 0,4.92188 -5.4199,0 0,-45.58594 5.4199,0 0,17.75391 z"
         style="font-style:normal;font-variant:normal;font-weight:normal;font-stretch:normal;font-size:60px;font-family:Sans;-inkscape-font-specification:Dingbats;text-align:start;text-anchor:start"
         id="path7022" />
      <path
         d="m 1128.7832,503.76198 0,2.63672 -24.7852,0 q 0.3516,5.56641 3.3399,8.49609 3.0176,2.90039 8.3789,2.90039 3.1055,0 6.0059,-0.76171 2.9296,-0.76172 5.8007,-2.28516 l 0,5.09766 q -2.9004,1.23046 -5.9472,1.875 -3.0469,0.64453 -6.1817,0.64453 -7.8515,0 -12.4511,-4.57032 -4.5704,-4.57031 -4.5704,-12.36328 0,-8.05664 4.336,-12.77343 4.3652,-4.7461 11.748,-4.7461 6.6211,0 10.459,4.27735 3.8672,4.24804 3.8672,11.57226 z m -5.3906,-1.58203 q -0.059,-4.42383 -2.4903,-7.06055 -2.4023,-2.63672 -6.3867,-2.63672 -4.5117,0 -7.2363,2.54883 -2.6953,2.54883 -3.1055,7.17774 l 19.2188,-0.0293 z"
         style="font-style:normal;font-variant:normal;font-weight:normal;font-stretch:normal;font-size:60px;font-family:Sans;-inkscape-font-specification:Dingbats;text-align:start;text-anchor:start"
         id="path7024" />
      <path
         d="m 1158.5488,489.67018 0,5.09766 q -2.2851,-1.17187 -4.7461,-1.75781 -2.4609,-0.58594 -5.0976,-0.58594 -4.0137,0 -6.0352,1.23047 -1.9922,1.23047 -1.9922,3.69141 0,1.875 1.4356,2.95898 1.4355,1.05469 5.7715,2.02148 l 1.8457,0.41016 q 5.7422,1.23047 8.1445,3.48633 2.4316,2.22656 2.4316,6.24023 0,4.57032 -3.6328,7.23633 -3.6035,2.66602 -9.9316,2.66602 -2.6367,0 -5.5078,-0.52735 -2.8418,-0.49804 -6.0059,-1.52343 l 0,-5.56641 q 2.9883,1.55273 5.8887,2.34375 2.9004,0.76172 5.7422,0.76172 3.8086,0 5.8594,-1.28906 2.0507,-1.31836 2.0507,-3.69141 0,-2.19727 -1.4941,-3.36914 -1.4649,-1.17188 -6.4746,-2.25586 l -1.875,-0.43945 q -5.0098,-1.05469 -7.2363,-3.22266 -2.2266,-2.19727 -2.2266,-6.00586 0,-4.62891 3.2812,-7.14844 3.2813,-2.51953 9.3164,-2.51953 2.9883,0 5.625,0.43945 2.6368,0.43946 4.8633,1.31836 z"
         style="font-style:normal;font-variant:normal;font-weight:normal;font-stretch:normal;font-size:60px;font-family:Sans;-inkscape-font-specification:Dingbats;text-align:start;text-anchor:start"
         id="path7026" />
      <path
         d="m 1174.252,479.38698 0,9.31641 11.1035,0 0,4.18945 -11.1035,0 0,17.8125 q 0,4.01367 1.0839,5.15625 1.1133,1.14258 4.4825,1.14258 l 5.5371,0 0,4.51172 -5.5371,0 q -6.2403,0 -8.6133,-2.31446 -2.3731,-2.34375 -2.3731,-8.49609 l 0,-17.8125 -3.955,0 0,-4.18945 3.955,0 0,-9.31641 5.42,0 z"
         style="font-style:normal;font-variant:normal;font-weight:normal;font-stretch:normal;font-size:60px;font-family:Sans;-inkscape-font-specification:Dingbats;text-align:start;text-anchor:start"
         id="path7028" />
      <path
         d="m 290.6582,591.59401 0,17.40235 -5.41992,0 0,-45.29297 5.41992,0 0,4.98047 q 1.69922,-2.92969 4.27735,-4.33594 2.60742,-1.43555 6.21093,-1.43555 5.97657,0 9.69727,4.7461 3.75,4.74609 3.75,12.48046 0,7.73438 -3.75,12.48047 -3.7207,4.7461 -9.69727,4.7461 -3.60351,0 -6.21093,-1.40625 -2.57813,-1.43555 -4.27735,-4.36524 z m 18.33985,-11.45508 q 0,-5.94726 -2.46094,-9.3164 -2.43164,-3.39844 -6.70899,-3.39844 -4.27734,0 -6.73828,3.39844 -2.43164,3.36914 -2.43164,9.3164 0,5.94727 2.43164,9.34571 2.46094,3.36914 6.73828,3.36914 4.27735,0 6.70899,-3.36914 2.46094,-3.39844 2.46094,-9.34571 z"
         style="font-style:normal;font-variant:normal;font-weight:normal;font-stretch:normal;font-size:60px;font-family:Sans;-inkscape-font-specification:Dingbats;text-align:start;text-anchor:start"
         id="path7030" />
      <path
         d="m 342.54297,568.74245 q -0.9082,-0.52734 -1.99219,-0.76172 -1.05469,-0.26367 -2.34375,-0.26367 -4.57031,0 -7.03125,2.98828 -2.43164,2.95898 -2.43164,8.52539 l 0,17.28516 -5.41992,0 0,-32.8125 5.41992,0 0,5.09765 q 1.69922,-2.98828 4.42383,-4.42382 2.72461,-1.46485 6.62109,-1.46485 0.55664,0 1.23047,0.0879 0.67383,0.0586 1.49414,0.20508 l 0.0293,5.53711 z"
         style="font-style:normal;font-variant:normal;font-weight:normal;font-stretch:normal;font-size:60px;font-family:Sans;-inkscape-font-specification:Dingbats;text-align:start;text-anchor:start"
         id="path7032" />
      <path
         d="m 363.16797,580.02175 q -6.5332,0 -9.05274,1.49414 -2.51953,1.49414 -2.51953,5.09765 0,2.8711 1.875,4.57032 1.9043,1.66992 5.15625,1.66992 4.48242,0 7.17774,-3.16406 2.72461,-3.19336 2.72461,-8.4668 l 0,-1.20117 -5.36133,0 z m 10.75195,-2.22657 0,18.72071 -5.39062,0 0,-4.98047 q -1.84571,2.98828 -4.59961,4.42383 -2.75391,1.40625 -6.73828,1.40625 -5.03907,0 -8.02735,-2.8125 -2.95898,-2.8418 -2.95898,-7.58789 0,-5.53711 3.6914,-8.34961 3.72071,-2.8125 11.07422,-2.8125 l 7.5586,0 0,-0.52735 q 0,-3.7207 -2.46094,-5.74218 -2.43164,-2.05079 -6.85547,-2.05079 -2.8125,0 -5.47852,0.67383 -2.66601,0.67383 -5.12695,2.02149 l 0,-4.98047 q 2.95899,-1.14258 5.74219,-1.69922 2.7832,-0.58594 5.41992,-0.58594 7.11914,0 10.63477,3.69141 3.51562,3.6914 3.51562,11.1914 z"
         style="font-style:normal;font-variant:normal;font-weight:normal;font-stretch:normal;font-size:60px;font-family:Sans;-inkscape-font-specification:Dingbats;text-align:start;text-anchor:start"
         id="path7034" />
      <path
         d="m 408.66602,564.96315 0,5.03907 q -2.28516,-1.25977 -4.59961,-1.875 -2.28516,-0.64454 -4.62891,-0.64454 -5.24414,0 -8.14453,3.33985 -2.90039,3.31054 -2.90039,9.3164 0,6.00586 2.90039,9.34571 2.90039,3.31054 8.14453,3.31054 2.34375,0 4.62891,-0.61523 2.31445,-0.64453 4.59961,-1.9043 l 0,4.98047 q -2.25586,1.05469 -4.6875,1.58203 -2.40235,0.52735 -5.12696,0.52735 -7.41211,0 -11.77734,-4.65821 -4.36524,-4.6582 -4.36524,-12.56836 0,-8.02734 4.39454,-12.62695 4.42382,-4.59961 12.0996,-4.59961 2.49024,0 4.86329,0.52735 2.37304,0.49804 4.59961,1.52343 z"
         style="font-style:normal;font-variant:normal;font-weight:normal;font-stretch:normal;font-size:60px;font-family:Sans;-inkscape-font-specification:Dingbats;text-align:start;text-anchor:start"
         id="path7036" />
      <path
         d="m 423.43164,554.38698 0,9.31641 11.10352,0 0,4.18945 -11.10352,0 0,17.8125 q 0,4.01367 1.08398,5.15625 1.11329,1.14258 4.48243,1.14258 l 5.53711,0 0,4.51172 -5.53711,0 q -6.24024,0 -8.61328,-2.31446 -2.37305,-2.34375 -2.37305,-8.49609 l 0,-17.8125 -3.95508,0 0,-4.18945 3.95508,0 0,-9.31641 5.41992,0 z"
         style="font-style:normal;font-variant:normal;font-weight:normal;font-stretch:normal;font-size:60px;font-family:Sans;-inkscape-font-specification:Dingbats;text-align:start;text-anchor:start"
         id="path7038" />
      <path
         d="m 441.6543,563.70339 5.39062,0 0,32.8125 -5.39062,0 0,-32.8125 z m 0,-12.77344 5.39062,0 0,6.82617 -5.39062,0 0,-6.82617 z"
         style="font-style:normal;font-variant:normal;font-weight:normal;font-stretch:normal;font-size:60px;font-family:Sans;-inkscape-font-specification:Dingbats;text-align:start;text-anchor:start"
         id="path7040" />
      <path
         d="m 481.9082,564.96315 0,5.03907 q -2.28515,-1.25977 -4.59961,-1.875 -2.28515,-0.64454 -4.6289,-0.64454 -5.24414,0 -8.14453,3.33985 -2.90039,3.31054 -2.90039,9.3164 0,6.00586 2.90039,9.34571 2.90039,3.31054 8.14453,3.31054 2.34375,0 4.6289,-0.61523 2.31446,-0.64453 4.59961,-1.9043 l 0,4.98047 q -2.25586,1.05469 -4.6875,1.58203 -2.40234,0.52735 -5.12695,0.52735 -7.41211,0 -11.77734,-4.65821 -4.36524,-4.6582 -4.36524,-12.56836 0,-8.02734 4.39453,-12.62695 4.42383,-4.59961 12.09961,-4.59961 2.49024,0 4.86328,0.52735 2.37305,0.49804 4.59961,1.52343 z"
         style="font-style:normal;font-variant:normal;font-weight:normal;font-stretch:normal;font-size:60px;font-family:Sans;-inkscape-font-specification:Dingbats;text-align:start;text-anchor:start"
         id="path7042" />
      <path
         d="m 519.4082,578.76198 0,2.63672 -24.78515,0 q 0.35156,5.56641 3.33984,8.49609 3.01758,2.90039 8.37891,2.90039 3.10547,0 6.00586,-0.76171 2.92968,-0.76172 5.80078,-2.28516 l 0,5.09766 q -2.90039,1.23046 -5.94727,1.875 -3.04687,0.64453 -6.18164,0.64453 -7.85156,0 -12.45117,-4.57032 -4.57031,-4.57031 -4.57031,-12.36328 0,-8.05664 4.33593,-12.77343 4.36524,-4.7461 11.74805,-4.7461 6.62109,0 10.45899,4.27735 3.86718,4.24804 3.86718,11.57226 z m -5.39062,-1.58203 q -0.0586,-4.42383 -2.49024,-7.06055 -2.40234,-2.63672 -6.38672,-2.63672 -4.51171,0 -7.23632,2.54883 -2.69532,2.54883 -3.10547,7.17774 l 19.21875,-0.0293 z"
         style="font-style:normal;font-variant:normal;font-weight:normal;font-stretch:normal;font-size:60px;font-family:Sans;-inkscape-font-specification:Dingbats;text-align:start;text-anchor:start"
         id="path7044" />
      <path
         d="m 549.17383,564.67018 0,5.09766 q -2.28516,-1.17187 -4.7461,-1.75781 -2.46093,-0.58594 -5.09765,-0.58594 -4.01367,0 -6.03516,1.23047 -1.99219,1.23047 -1.99219,3.69141 0,1.875 1.43555,2.95898 1.43555,1.05469 5.77149,2.02148 l 1.8457,0.41016 q 5.74219,1.23047 8.14453,3.48633 2.43164,2.22656 2.43164,6.24023 0,4.57032 -3.63281,7.23633 -3.60352,2.66602 -9.93164,2.66602 -2.63672,0 -5.50782,-0.52735 -2.84179,-0.49804 -6.00585,-1.52343 l 0,-5.56641 q 2.98828,1.55273 5.88867,2.34375 2.90039,0.76172 5.74218,0.76172 3.8086,0 5.85938,-1.28906 2.05078,-1.31836 2.05078,-3.69141 0,-2.19727 -1.49414,-3.36914 -1.46484,-1.17188 -6.47461,-2.25586 l -1.875,-0.43945 q -5.00976,-1.05469 -7.23633,-3.22266 -2.22656,-2.19727 -2.22656,-6.00586 0,-4.62891 3.28125,-7.14844 3.28125,-2.51953 9.31641,-2.51953 2.98828,0 5.625,0.43945 2.63672,0.43946 4.86328,1.31836 z"
         style="font-style:normal;font-variant:normal;font-weight:normal;font-stretch:normal;font-size:60px;font-family:Sans;-inkscape-font-specification:Dingbats;text-align:start;text-anchor:start"
         id="path7046" />
      <path
         d="m 296.95703,746.51589 -16.69922,-43.74024 6.18164,0 13.85742,36.82617 13.88672,-36.82617 6.15235,0 -16.66992,43.74024 -6.70899,0 z"
         style="font-style:normal;font-variant:normal;font-weight:normal;font-stretch:normal;font-size:60px;font-family:Sans;-inkscape-font-specification:Dingbats;text-align:start;text-anchor:start"
         id="path7048" />
      <path
         d="m 349.83789,728.76198 0,2.63672 -24.78516,0 q 0.35157,5.56641 3.33985,8.49609 3.01758,2.90039 8.3789,2.90039 3.10547,0 6.00586,-0.76171 2.92969,-0.76172 5.80078,-2.28516 l 0,5.09766 q -2.90039,1.23046 -5.94726,1.875 -3.04688,0.64453 -6.18164,0.64453 -7.85156,0 -12.45117,-4.57032 -4.57032,-4.57031 -4.57032,-12.36328 0,-8.05664 4.33594,-12.77343 4.36524,-4.7461 11.74805,-4.7461 6.62109,0 10.45898,4.27735 3.86719,4.24804 3.86719,11.57226 z m -5.39062,-1.58203 q -0.0586,-4.42383 -2.49024,-7.06055 -2.40234,-2.63672 -6.38672,-2.63672 -4.51172,0 -7.23633,2.54883 -2.69531,2.54883 -3.10546,7.17774 l 19.21875,-0.0293 z"
         style="font-style:normal;font-variant:normal;font-weight:normal;font-stretch:normal;font-size:60px;font-family:Sans;-inkscape-font-specification:Dingbats;text-align:start;text-anchor:start"
         id="path7050" />
      <path
         d="m 377.69922,718.74245 q -0.9082,-0.52734 -1.99219,-0.76172 -1.05469,-0.26367 -2.34375,-0.26367 -4.57031,0 -7.03125,2.98828 -2.43164,2.95898 -2.43164,8.52539 l 0,17.28516 -5.41992,0 0,-32.8125 5.41992,0 0,5.09765 q 1.69922,-2.98828 4.42383,-4.42382 2.72461,-1.46485 6.62109,-1.46485 0.55664,0 1.23047,0.0879 0.67383,0.0586 1.49414,0.20508 l 0.0293,5.53711 z"
         style="font-style:normal;font-variant:normal;font-weight:normal;font-stretch:normal;font-size:60px;font-family:Sans;-inkscape-font-specification:Dingbats;text-align:start;text-anchor:start"
         id="path7052" />
      <path
         d="m 397.06445,749.56276 q -2.28515,5.85938 -4.45312,7.64649 -2.16797,1.78711 -5.80078,1.78711 l -4.30664,0 0,-4.51172 3.16406,0 q 2.22656,0 3.45703,-1.05469 1.23047,-1.05469 2.72461,-4.98047 l 0.9668,-2.46094 -13.27149,-32.28515 5.71289,0 10.25391,25.66406 10.2539,-25.66406 5.7129,0 -14.41407,35.85937 z"
         style="font-style:normal;font-variant:normal;font-weight:normal;font-stretch:normal;font-size:60px;font-family:Sans;-inkscape-font-specification:Dingbats;text-align:start;text-anchor:start"
         id="path7054" />
      <path
         d="m 466.08789,728.76198 0,2.63672 -24.78516,0 q 0.35157,5.56641 3.33985,8.49609 3.01758,2.90039 8.3789,2.90039 3.10547,0 6.00586,-0.76171 2.92969,-0.76172 5.80078,-2.28516 l 0,5.09766 q -2.90039,1.23046 -5.94726,1.875 -3.04688,0.64453 -6.18164,0.64453 -7.85156,0 -12.45117,-4.57032 -4.57032,-4.57031 -4.57032,-12.36328 0,-8.05664 4.33594,-12.77343 4.36524,-4.7461 11.74805,-4.7461 6.62109,0 10.45898,4.27735 3.86719,4.24804 3.86719,11.57226 z m -5.39062,-1.58203 q -0.0586,-4.42383 -2.49024,-7.06055 -2.40234,-2.63672 -6.38672,-2.63672 -4.51172,0 -7.23633,2.54883 -2.69531,2.54883 -3.10546,7.17774 l 19.21875,-0.0293 z"
         style="font-style:normal;font-variant:normal;font-weight:normal;font-stretch:normal;font-size:60px;font-family:Sans;-inkscape-font-specification:Dingbats;text-align:start;text-anchor:start"
         id="path7056" />
      <path
         d="m 501.15625,713.70339 -11.86523,15.96679 12.48046,16.84571 -6.35742,0 -9.55078,-12.89063 -9.55078,12.89063 -6.35742,0 12.74414,-17.16797 -11.66016,-15.64453 6.35742,0 8.70118,11.68945 8.70117,-11.68945 6.35742,0 z"
         style="font-style:normal;font-variant:normal;font-weight:normal;font-stretch:normal;font-size:60px;font-family:Sans;-inkscape-font-specification:Dingbats;text-align:start;text-anchor:start"
         id="path7058" />
      <path
         d="m 514.7207,704.38698 0,9.31641 11.10352,0 0,4.18945 -11.10352,0 0,17.8125 q 0,4.01367 1.08399,5.15625 1.11328,1.14258 4.48242,1.14258 l 5.53711,0 0,4.51172 -5.53711,0 q -6.24024,0 -8.61328,-2.31446 -2.37305,-2.34375 -2.37305,-8.49609 l 0,-17.8125 -3.95508,0 0,-4.18945 3.95508,0 0,-9.31641 5.41992,0 z"
         style="font-style:normal;font-variant:normal;font-weight:normal;font-stretch:normal;font-size:60px;font-family:Sans;-inkscape-font-specification:Dingbats;text-align:start;text-anchor:start"
         id="path7060" />
      <path
         d="m 561.00977,728.76198 0,2.63672 -24.78516,0 q 0.35156,5.56641 3.33984,8.49609 3.01758,2.90039 8.37891,2.90039 3.10547,0 6.00586,-0.76171 2.92969,-0.76172 5.80078,-2.28516 l 0,5.09766 q -2.90039,1.23046 -5.94727,1.875 -3.04687,0.64453 -6.18164,0.64453 -7.85156,0 -12.45117,-4.57032 -4.57031,-4.57031 -4.57031,-12.36328 0,-8.05664 4.33594,-12.77343 4.36523,-4.7461 11.74804,-4.7461 6.6211,0 10.45899,4.27735 3.86719,4.24804 3.86719,11.57226 z m -5.39063,-1.58203 q -0.0586,-4.42383 -2.49023,-7.06055 -2.40235,-2.63672 -6.38672,-2.63672 -4.51172,0 -7.23633,2.54883 -2.69531,2.54883 -3.10547,7.17774 l 19.21875,-0.0293 z"
         style="font-style:normal;font-variant:normal;font-weight:normal;font-stretch:normal;font-size:60px;font-family:Sans;-inkscape-font-specification:Dingbats;text-align:start;text-anchor:start"
         id="path7062" />
      <path
         d="m 597.13281,726.7112 0,19.80469 -5.39062,0 0,-19.62891 q 0,-4.6582 -1.81641,-6.97266 -1.81641,-2.31445 -5.44922,-2.31445 -4.36523,0 -6.88476,2.7832 -2.51953,2.78321 -2.51953,7.5879 l 0,18.54492 -5.41993,0 0,-32.8125 5.41993,0 0,5.09765 q 1.93359,-2.95898 4.54101,-4.42382 2.63672,-1.46485 6.06445,-1.46485 5.6543,0 8.55469,3.51563 2.90039,3.48632 2.90039,10.2832 z"
         style="font-style:normal;font-variant:normal;font-weight:normal;font-stretch:normal;font-size:60px;font-family:Sans;-inkscape-font-specification:Dingbats;text-align:start;text-anchor:start"
         id="path7064" />
      <path
         d="m 628.86133,714.67018 0,5.09766 q -2.28516,-1.17187 -4.7461,-1.75781 -2.46093,-0.58594 -5.09765,-0.58594 -4.01367,0 -6.03516,1.23047 -1.99219,1.23047 -1.99219,3.69141 0,1.875 1.43555,2.95898 1.43555,1.05469 5.77149,2.02148 l 1.8457,0.41016 q 5.74219,1.23047 8.14453,3.48633 2.43164,2.22656 2.43164,6.24023 0,4.57032 -3.63281,7.23633 -3.60352,2.66602 -9.93164,2.66602 -2.63672,0 -5.50782,-0.52735 -2.84179,-0.49804 -6.00585,-1.52343 l 0,-5.56641 q 2.98828,1.55273 5.88867,2.34375 2.90039,0.76172 5.74218,0.76172 3.8086,0 5.85938,-1.28906 2.05078,-1.31836 2.05078,-3.69141 0,-2.19727 -1.49414,-3.36914 -1.46484,-1.17188 -6.47461,-2.25586 l -1.875,-0.43945 q -5.00976,-1.05469 -7.23633,-3.22266 -2.22656,-2.19727 -2.22656,-6.00586 0,-4.62891 3.28125,-7.14844 3.28125,-2.51953 9.31641,-2.51953 2.98828,0 5.625,0.43945 2.63672,0.43946 4.86328,1.31836 z"
         style="font-style:normal;font-variant:normal;font-weight:normal;font-stretch:normal;font-size:60px;font-family:Sans;-inkscape-font-specification:Dingbats;text-align:start;text-anchor:start"
         id="path7066" />
      <path
         d="m 639.23242,713.70339 5.39063,0 0,32.8125 -5.39063,0 0,-32.8125 z m 0,-12.77344 5.39063,0 0,6.82617 -5.39063,0 0,-6.82617 z"
         style="font-style:normal;font-variant:normal;font-weight:normal;font-stretch:normal;font-size:60px;font-family:Sans;-inkscape-font-specification:Dingbats;text-align:start;text-anchor:start"
         id="path7068" />
      <path
         d="m 652.00586,713.70339 5.71289,0 10.25391,27.53906 10.2539,-27.53906 5.71289,0 -12.30468,32.8125 -7.32422,0 -12.30469,-32.8125 z"
         style="font-style:normal;font-variant:normal;font-weight:normal;font-stretch:normal;font-size:60px;font-family:Sans;-inkscape-font-specification:Dingbats;text-align:start;text-anchor:start"
         id="path7070" />
      <path
         d="m 719.44727,728.76198 0,2.63672 -24.78516,0 q 0.35156,5.56641 3.33984,8.49609 3.01758,2.90039 8.37891,2.90039 3.10547,0 6.00586,-0.76171 2.92969,-0.76172 5.80078,-2.28516 l 0,5.09766 q -2.90039,1.23046 -5.94727,1.875 -3.04687,0.64453 -6.18164,0.64453 -7.85156,0 -12.45117,-4.57032 -4.57031,-4.57031 -4.57031,-12.36328 0,-8.05664 4.33594,-12.77343 4.36523,-4.7461 11.74804,-4.7461 6.6211,0 10.45899,4.27735 3.86719,4.24804 3.86719,11.57226 z m -5.39063,-1.58203 q -0.0586,-4.42383 -2.49023,-7.06055 -2.40235,-2.63672 -6.38672,-2.63672 -4.51172,0 -7.23633,2.54883 -2.69531,2.54883 -3.10547,7.17774 l 19.21875,-0.0293 z"
         style="font-style:normal;font-variant:normal;font-weight:normal;font-stretch:normal;font-size:60px;font-family:Sans;-inkscape-font-specification:Dingbats;text-align:start;text-anchor:start"
         id="path7072" />
    </g>
    <circle
       style="fill:none;fill-opacity:1;stroke:#000000;stroke-width:1.99999988;stroke-miterlimit:4;stroke-dasharray:none;stroke-opacity:1"
       id="path5137"
       cx="80.781715"
       cy="439.2659"
       r="13" />
    <circle
       style="fill:none;fill-opacity:1;stroke:#000000;stroke-width:1.99999988;stroke-miterlimit:4;stroke-dasharray:none;stroke-opacity:1"
       id="path5137-8"
       cx="80.781715"
       cy="659.54199"
       r="13" />
    <circle
       style="fill:none;fill-opacity:1;stroke:#000000;stroke-width:1.99999988;stroke-miterlimit:4;stroke-dasharray:none;stroke-opacity:1"
       id="path5137-0"
       cx="80.781715"
       cy="884.88507"
       r="13" />
    <flowRoot
       xml:space="preserve"
       id="flowRoot5233"
       style="fill:black;stroke:none;stroke-opacity:1;stroke-width:1px;stroke-linejoin:miter;stroke-linecap:butt;fill-opacity:1;font-family:Sans;font-style:normal;font-weight:normal;font-size:40px;line-height:125%;letter-spacing:0px;word-spacing:0px"><flowRegion
         id="flowRegion5235"><rect
           id="rect5237"
           width="628.57141"
           height="87.14286"
           x="7.1428571"
           y="6.5714283" /></flowRegion><flowPara
         id="flowPara5239" /></flowRoot>    <flowRoot
       xml:space="preserve"
       id="flowRoot5241"
       style="fill:black;stroke:none;stroke-opacity:1;stroke-width:1px;stroke-linejoin:miter;stroke-linecap:butt;fill-opacity:1;font-family:Carlito;font-style:normal;font-weight:normal;font-size:40px;line-height:125%;letter-spacing:0px;word-spacing:0px;-inkscape-font-specification:Carlito;font-stretch:normal;font-variant:normal;"><flowRegion
         id="flowRegion5243"><rect
           id="rect5245"
           width="641.42859"
           height="85.714287"
           x="-2.8571429"
           y="3.7142854"
           style="-inkscape-font-specification:Carlito;font-family:Carlito;font-weight:normal;font-style:normal;font-stretch:normal;font-variant:normal;" /></flowRegion><flowPara
         id="flowPara5247" /></flowRoot>    <g
       transform="scale(0.99828007,1.0017229)"
       style="font-style:normal;font-weight:normal;font-size:132.8361969px;line-height:125%;font-family:Sans;letter-spacing:0px;word-spacing:0px;fill:none;fill-opacity:1;stroke:#000000;stroke-width:1px;stroke-linecap:butt;stroke-linejoin:miter;stroke-opacity:0.70588235"
       id="text5249">
      <path
         d="m 63.066046,314.34084 q -4.132682,-12.0881 -17.977167,-12.0881 -9.815119,0 -15.497557,6.92224 -5.57912,6.92224 -5.57912,19.11366 0,11.57151 5.992388,19.01033 6.095706,7.43883 15.497558,7.43883 1.446438,0 3.306145,-0.30995 1.963024,-0.41327 4.649267,-1.44644 2.686243,-1.13649 4.959218,-2.89288 2.272975,-1.75639 4.029365,-4.8559 1.75639,-3.20283 2.169658,-7.23219 l -17.15063,0 0,-12.91463 30.168578,0 0,40.70691 -9.298534,0 -1.859707,-9.91843 q -4.339316,6.30234 -9.711802,9.19522 -5.372487,2.89287 -13.017948,2.89287 -15.290923,0 -25.312677,-11.15824 -9.9184363,-11.15824 -9.9184363,-28.30887 0,-17.5639 10.1250703,-28.5155 10.125071,-10.95161 26.345847,-10.95161 13.637851,0 22.4198,6.81892 8.781949,6.81893 10.228387,18.49376 l -14.567703,0 z"
         style="font-style:normal;font-variant:normal;font-weight:600;font-stretch:normal;font-size:103.31704712px;font-family:FreeSans;-inkscape-font-specification:'FreeSans Semi-Bold';fill:none;stroke:#000000;stroke-width:0.67752618px;stroke-opacity:0.70588235"
         id="path6903" />
      <path
         d="m 115.50268,309.07167 q 13.12126,0 20.35346,7.95541 7.33551,7.85209 7.33551,22.00653 0,13.43122 -7.43883,21.28331 -7.43883,7.8521 -20.14682,7.8521 -12.91464,0 -20.250146,-7.8521 -7.33551,-7.95541 -7.33551,-21.69658 0,-13.74117 7.33551,-21.59326 7.335506,-7.95541 20.146826,-7.95541 z m 0.10332,11.67482 q -5.88908,0 -9.50517,4.95922 -3.6161,4.95922 -3.6161,12.91463 0,7.95541 3.6161,12.91463 3.61609,4.95922 9.50517,4.95922 5.78575,0 9.40185,-4.8559 3.71941,-4.95922 3.71941,-12.81131 0,-8.26537 -3.6161,-13.12127 -3.51278,-4.95922 -9.50516,-4.95922 z"
         style="font-style:normal;font-variant:normal;font-weight:600;font-stretch:normal;font-size:103.31704712px;font-family:FreeSans;-inkscape-font-specification:'FreeSans Semi-Bold';fill:none;stroke:#000000;stroke-width:0.67752618px;stroke-opacity:0.70588235"
         id="path6905" />
      <path
         d="m 178.86508,309.07167 q 13.12127,0 20.35346,7.95541 7.33551,7.85209 7.33551,22.00653 0,13.43122 -7.43883,21.28331 -7.43882,7.8521 -20.14682,7.8521 -12.91463,0 -20.25014,-7.8521 -7.33551,-7.95541 -7.33551,-21.69658 0,-13.74117 7.33551,-21.59326 7.33551,-7.95541 20.14682,-7.95541 z m 0.10332,11.67482 q -5.88907,0 -9.50517,4.95922 -3.6161,4.95922 -3.6161,12.91463 0,7.95541 3.6161,12.91463 3.6161,4.95922 9.50517,4.95922 5.78575,0 9.40185,-4.8559 3.71941,-4.95922 3.71941,-12.81131 0,-8.26537 -3.61609,-13.12127 -3.51278,-4.95922 -9.50517,-4.95922 z"
         style="font-style:normal;font-variant:normal;font-weight:600;font-stretch:normal;font-size:103.31704712px;font-family:FreeSans;-inkscape-font-specification:'FreeSans Semi-Bold';fill:none;stroke:#000000;stroke-width:0.67752618px;stroke-opacity:0.70588235"
         id="path6907" />
      <path
         d="m 238.19813,368.16902 q -10.33171,0 -16.944,-8.472 -6.50897,-8.472 -6.50897,-20.97336 0,-12.60468 6.71561,-21.07668 6.71561,-8.57531 16.73736,-8.57531 10.12507,0 15.39424,8.16204 l 0,-26.75911 14.46439,0 0,75.31812 -14.46439,0 0,-5.68243 q -5.37249,8.05873 -15.39424,8.05873 z m 3.20283,-47.00926 q -5.37249,0 -8.78195,4.95922 -3.40946,4.8559 -3.40946,12.60468 0,7.64546 3.40946,12.50136 3.40946,4.8559 8.78195,4.8559 5.37248,0 8.78195,-4.75258 3.40946,-4.75259 3.40946,-12.39805 0,-7.95541 -3.40946,-12.81131 -3.30615,-4.95922 -8.78195,-4.95922 z"
         style="font-style:normal;font-variant:normal;font-weight:600;font-stretch:normal;font-size:103.31704712px;font-family:FreeSans;-inkscape-font-specification:'FreeSans Semi-Bold';fill:none;stroke:#000000;stroke-width:0.67752618px;stroke-opacity:0.70588235"
         id="path6909" />
    </g>
  </g>
</svg>
