<?xml version="1.0" encoding="UTF-8" standalone="no"?>
<!-- Created with Inkscape (http://www.inkscape.org/) -->

<svg
   xmlns:dc="http://purl.org/dc/elements/1.1/"
   xmlns:cc="http://creativecommons.org/ns#"
   xmlns:rdf="http://www.w3.org/1999/02/22-rdf-syntax-ns#"
   xmlns:svg="http://www.w3.org/2000/svg"
   xmlns="http://www.w3.org/2000/svg"
   xmlns:sodipodi="http://sodipodi.sourceforge.net/DTD/sodipodi-0.dtd"
   xmlns:inkscape="http://www.inkscape.org/namespaces/inkscape"
   width="1048"
   height="768"
   viewBox="0 0 1048 768.00002"
   id="svg2"
   version="1.1"
   inkscape:version="0.91 r13725"
   sodipodi:docname="11.svg">
  <defs
     id="defs4" />
  <sodipodi:namedview
     id="base"
     pagecolor="#ffffff"
     bordercolor="#666666"
     borderopacity="1.0"
     inkscape:pageopacity="0.0"
     inkscape:pageshadow="2"
     inkscape:zoom="0.7"
     inkscape:cx="461.89844"
     inkscape:cy="465.62228"
     inkscape:document-units="px"
     inkscape:current-layer="layer1"
     showgrid="false"
     units="px"
     inkscape:window-width="1920"
     inkscape:window-height="1014"
     inkscape:window-x="0"
     inkscape:window-y="27"
     inkscape:window-maximized="1">
    <inkscape:grid
       type="xygrid"
       id="grid5092" />
  </sodipodi:namedview>
  <metadata
     id="metadata7">
    <rdf:RDF>
      <cc:Work
         rdf:about="">
        <dc:format>image/svg+xml</dc:format>
        <dc:type
           rdf:resource="http://purl.org/dc/dcmitype/StillImage" />
        <dc:title></dc:title>
      </cc:Work>
    </rdf:RDF>
  </metadata>
  <g
     inkscape:label="Layer 1"
     inkscape:groupmode="layer"
     id="layer1"
     transform="translate(0,-284.36218)">
    <g
       id="g5096"
       style="stroke:#000000;stroke-opacity:0.13725491">
      <path
         sodipodi:nodetypes="cccc"
         style="fill:none;stroke:#000000;stroke-width:2;stroke-miterlimit:4;stroke-dasharray:none;stroke-opacity:0.13725491"
         inkscape:connector-curvature="0"
         id="path4314"
         d="m 1048,684.98315 -160.37568,0 c -7.68332,-5.96677 -7.67743,-17.68568 0,-23.56659 l 160.37568,0" />
      <path
         sodipodi:nodetypes="cssccssc"
         style="fill:none;stroke:#000000;stroke-width:2;stroke-miterlimit:4;stroke-dasharray:none;stroke-opacity:0.13725491"
         inkscape:connector-curvature="0"
         id="path4310-5"
         d="m 831.89285,1052.3622 c 0,0 -17.91943,-27.8197 -17.91943,-77.36067 0,-94.01117 76.25169,-170.27726 170.24086,-170.27726 35.95322,0 63.97512,12.586 63.97512,12.586 M 1048,756.45347 c -5.3303,-1.80485 -28.2222,-9.10018 -63.78572,-9.10018 -123.15826,0 -227.59846,101.95467 -227.59846,227.65177 0,46.67814 12.59846,77.35714 12.59846,77.35714" />
      <path
         sodipodi:nodetypes="cccccssccscsccc"
         style="fill:none;stroke:#000000;stroke-width:2;stroke-miterlimit:4;stroke-dasharray:none;stroke-opacity:0.13725491"
         inkscape:connector-curvature="0"
         id="path4312-3"
         d="m 726.28747,1052.0652 0,-420.22188 -73.85031,0 0,-0.005 0,179.44378 c -40.89068,-39.21787 -96.30837,-63.41889 -157.4119,-63.41889 -125.67116,0 -227.59845,101.9547 -227.59845,227.65177 0,43.11702 13.47119,76.84722 13.47119,76.84722 m 62.532,0 c -3.31158,-3.6757 -18.64562,-42.3442 -18.64562,-76.84691 0,-94.01115 76.25172,-170.27727 170.24088,-170.27727 l 0,-0.006 c 71.03791,0 131.90658,43.52535 157.4119,105.39433 l 0,129.77175 c -0.96687,3.7062 -5.36616,11.9641 -5.36616,11.9641" />
    </g>
    <g
       transform="translate(-164.76219,158.39903)"
       style="font-style:normal;font-weight:normal;font-size:76.49583435px;line-height:125%;font-family:Sans;text-align:start;letter-spacing:0px;word-spacing:0px;text-anchor:start;fill:#000000;fill-opacity:1;stroke:none;stroke-width:1px;stroke-linecap:butt;stroke-linejoin:miter;stroke-opacity:1"
       id="flowRoot5076">
      <path
         d="m 311.89844,254.2112 0,5.77148 q -3.36914,-1.61132 -6.35742,-2.40234 -2.98829,-0.79102 -5.77149,-0.79102 -4.83398,0 -7.4707,1.875 -2.60742,1.875 -2.60742,5.33204 0,2.90039 1.72851,4.39453 1.75781,1.46484 6.6211,2.37304 l 3.57421,0.73243 q 6.6211,1.25976 9.75586,4.45312 3.16407,3.16406 3.16407,8.49609 0,6.35743 -4.27735,9.63868 -4.24804,3.28125 -12.48047,3.28125 -3.10547,0 -6.62109,-0.70313 -3.48633,-0.70312 -7.23633,-2.08008 l 0,-6.09375 q 3.60352,2.02149 7.06055,3.04688 3.45703,1.02539 6.79687,1.02539 5.06836,0 7.82227,-1.99219 2.75391,-1.99219 2.75391,-5.68359 0,-3.22266 -1.99219,-5.03906 -1.96289,-1.81641 -6.47461,-2.72461 l -3.60352,-0.70313 q -6.62109,-1.31836 -9.58008,-4.13086 -2.95898,-2.8125 -2.95898,-7.82226 0,-5.80079 4.07227,-9.14063 4.10156,-3.33984 11.27929,-3.33984 3.07617,0 6.26953,0.55664 3.19336,0.55664 6.53321,1.66992 z"
         style="font-style:normal;font-variant:normal;font-weight:normal;font-stretch:normal;font-size:60px;font-family:Sans;-inkscape-font-specification:Dingbats;text-align:start;text-anchor:start"
         id="path7195" />
      <path
         d="m 328.86133,254.38698 0,9.31641 11.10351,0 0,4.18945 -11.10351,0 0,17.8125 q 0,4.01367 1.08398,5.15625 1.11328,1.14258 4.48242,1.14258 l 5.53711,0 0,4.51172 -5.53711,0 q -6.24023,0 -8.61328,-2.31446 -2.37304,-2.34375 -2.37304,-8.49609 l 0,-17.8125 -3.95508,0 0,-4.18945 3.95508,0 0,-9.31641 5.41992,0 z"
         style="font-style:normal;font-variant:normal;font-weight:normal;font-stretch:normal;font-size:60px;font-family:Sans;-inkscape-font-specification:Dingbats;text-align:start;text-anchor:start"
         id="path7197" />
      <path
         d="m 375.15039,278.76198 0,2.63672 -24.78516,0 q 0.35157,5.56641 3.33985,8.49609 3.01758,2.90039 8.3789,2.90039 3.10547,0 6.00586,-0.76171 2.92969,-0.76172 5.80078,-2.28516 l 0,5.09766 q -2.90039,1.23046 -5.94726,1.875 -3.04688,0.64453 -6.18164,0.64453 -7.85156,0 -12.45117,-4.57032 -4.57032,-4.57031 -4.57032,-12.36328 0,-8.05664 4.33594,-12.77343 4.36524,-4.7461 11.74805,-4.7461 6.62109,0 10.45898,4.27735 3.86719,4.24804 3.86719,11.57226 z m -5.39062,-1.58203 q -0.0586,-4.42383 -2.49024,-7.06055 -2.40234,-2.63672 -6.38672,-2.63672 -4.51172,0 -7.23633,2.54883 -2.69531,2.54883 -3.10546,7.17774 l 19.21875,-0.0293 z"
         style="font-style:normal;font-variant:normal;font-weight:normal;font-stretch:normal;font-size:60px;font-family:Sans;-inkscape-font-specification:Dingbats;text-align:start;text-anchor:start"
         id="path7199" />
      <path
         d="m 398.91016,280.02175 q -6.53321,0 -9.05274,1.49414 -2.51953,1.49414 -2.51953,5.09765 0,2.8711 1.875,4.57032 1.9043,1.66992 5.15625,1.66992 4.48242,0 7.17773,-3.16406 2.72461,-3.19336 2.72461,-8.4668 l 0,-1.20117 -5.36132,0 z m 10.75195,-2.22657 0,18.72071 -5.39063,0 0,-4.98047 q -1.8457,2.98828 -4.59961,4.42383 -2.7539,1.40625 -6.73828,1.40625 -5.03906,0 -8.02734,-2.8125 -2.95898,-2.8418 -2.95898,-7.58789 0,-5.53711 3.6914,-8.34961 3.7207,-2.8125 11.07422,-2.8125 l 7.55859,0 0,-0.52735 q 0,-3.7207 -2.46093,-5.74218 -2.43164,-2.05079 -6.85547,-2.05079 -2.8125,0 -5.47852,0.67383 -2.66601,0.67383 -5.12695,2.02149 l 0,-4.98047 q 2.95898,-1.14258 5.74219,-1.69922 2.7832,-0.58594 5.41992,-0.58594 7.11914,0 10.63476,3.69141 3.51563,3.6914 3.51563,11.1914 z"
         style="font-style:normal;font-variant:normal;font-weight:normal;font-stretch:normal;font-size:60px;font-family:Sans;-inkscape-font-specification:Dingbats;text-align:start;text-anchor:start"
         id="path7201" />
      <path
         d="m 426.00977,291.59401 0,17.40235 -5.41993,0 0,-45.29297 5.41993,0 0,4.98047 q 1.69921,-2.92969 4.27734,-4.33594 2.60742,-1.43555 6.21094,-1.43555 5.97656,0 9.69726,4.7461 3.75,4.74609 3.75,12.48046 0,7.73438 -3.75,12.48047 -3.7207,4.7461 -9.69726,4.7461 -3.60352,0 -6.21094,-1.40625 -2.57813,-1.43555 -4.27734,-4.36524 z m 18.33984,-11.45508 q 0,-5.94726 -2.46094,-9.3164 -2.43164,-3.39844 -6.70898,-3.39844 -4.27735,0 -6.73828,3.39844 -2.43164,3.36914 -2.43164,9.3164 0,5.94727 2.43164,9.34571 2.46093,3.36914 6.73828,3.36914 4.27734,0 6.70898,-3.36914 2.46094,-3.39844 2.46094,-9.34571 z"
         style="font-style:normal;font-variant:normal;font-weight:normal;font-stretch:normal;font-size:60px;font-family:Sans;-inkscape-font-specification:Dingbats;text-align:start;text-anchor:start"
         id="path7203" />
      <path
         d="m 477.98242,250.92995 5.39063,0 0,45.58594 -5.39063,0 0,-45.58594 z"
         style="font-style:normal;font-variant:normal;font-weight:normal;font-stretch:normal;font-size:60px;font-family:Sans;-inkscape-font-specification:Dingbats;text-align:start;text-anchor:start"
         id="path7205" />
      <path
         d="m 522.68945,278.76198 0,2.63672 -24.78515,0 q 0.35156,5.56641 3.33984,8.49609 3.01758,2.90039 8.37891,2.90039 3.10547,0 6.00586,-0.76171 2.92968,-0.76172 5.80078,-2.28516 l 0,5.09766 q -2.90039,1.23046 -5.94727,1.875 -3.04687,0.64453 -6.18164,0.64453 -7.85156,0 -12.45117,-4.57032 -4.57031,-4.57031 -4.57031,-12.36328 0,-8.05664 4.33593,-12.77343 4.36524,-4.7461 11.74805,-4.7461 6.62109,0 10.45899,4.27735 3.86718,4.24804 3.86718,11.57226 z m -5.39062,-1.58203 q -0.0586,-4.42383 -2.49024,-7.06055 -2.40234,-2.63672 -6.38672,-2.63672 -4.51171,0 -7.23632,2.54883 -2.69532,2.54883 -3.10547,7.17774 l 19.21875,-0.0293 z"
         style="font-style:normal;font-variant:normal;font-weight:normal;font-stretch:normal;font-size:60px;font-family:Sans;-inkscape-font-specification:Dingbats;text-align:start;text-anchor:start"
         id="path7207" />
      <path
         d="m 546.44922,280.02175 q -6.5332,0 -9.05274,1.49414 -2.51953,1.49414 -2.51953,5.09765 0,2.8711 1.875,4.57032 1.9043,1.66992 5.15625,1.66992 4.48242,0 7.17774,-3.16406 2.72461,-3.19336 2.72461,-8.4668 l 0,-1.20117 -5.36133,0 z m 10.75195,-2.22657 0,18.72071 -5.39062,0 0,-4.98047 q -1.84571,2.98828 -4.59961,4.42383 -2.75391,1.40625 -6.73828,1.40625 -5.03907,0 -8.02735,-2.8125 -2.95898,-2.8418 -2.95898,-7.58789 0,-5.53711 3.6914,-8.34961 3.72071,-2.8125 11.07422,-2.8125 l 7.5586,0 0,-0.52735 q 0,-3.7207 -2.46094,-5.74218 -2.43164,-2.05079 -6.85547,-2.05079 -2.8125,0 -5.47852,0.67383 -2.66601,0.67383 -5.12695,2.02149 l 0,-4.98047 q 2.95899,-1.14258 5.74219,-1.69922 2.7832,-0.58594 5.41992,-0.58594 7.11914,0 10.63477,3.69141 3.51562,3.6914 3.51562,11.1914 z"
         style="font-style:normal;font-variant:normal;font-weight:normal;font-stretch:normal;font-size:60px;font-family:Sans;-inkscape-font-specification:Dingbats;text-align:start;text-anchor:start"
         id="path7209" />
      <path
         d="m 587.34766,268.74245 q -0.90821,-0.52734 -1.99219,-0.76172 -1.05469,-0.26367 -2.34375,-0.26367 -4.57031,0 -7.03125,2.98828 -2.43164,2.95898 -2.43164,8.52539 l 0,17.28516 -5.41992,0 0,-32.8125 5.41992,0 0,5.09765 q 1.69922,-2.98828 4.42383,-4.42382 2.72461,-1.46485 6.62109,-1.46485 0.55664,0 1.23047,0.0879 0.67383,0.0586 1.49414,0.20508 l 0.0293,5.53711 z"
         style="font-style:normal;font-variant:normal;font-weight:normal;font-stretch:normal;font-size:60px;font-family:Sans;-inkscape-font-specification:Dingbats;text-align:start;text-anchor:start"
         id="path7211" />
      <path
         d="m 619.28125,276.7112 0,19.80469 -5.39063,0 0,-19.62891 q 0,-4.6582 -1.8164,-6.97266 -1.81641,-2.31445 -5.44922,-2.31445 -4.36523,0 -6.88477,2.7832 -2.51953,2.78321 -2.51953,7.5879 l 0,18.54492 -5.41992,0 0,-32.8125 5.41992,0 0,5.09765 q 1.9336,-2.95898 4.54102,-4.42382 2.63672,-1.46485 6.06445,-1.46485 5.6543,0 8.55469,3.51563 2.90039,3.48632 2.90039,10.2832 z"
         style="font-style:normal;font-variant:normal;font-weight:normal;font-stretch:normal;font-size:60px;font-family:Sans;-inkscape-font-specification:Dingbats;text-align:start;text-anchor:start"
         id="path7213" />
      <path
         d="m 630.0918,263.70339 5.39062,0 0,32.8125 -5.39062,0 0,-32.8125 z m 0,-12.77344 5.39062,0 0,6.82617 -5.39062,0 0,-6.82617 z"
         style="font-style:normal;font-variant:normal;font-weight:normal;font-stretch:normal;font-size:60px;font-family:Sans;-inkscape-font-specification:Dingbats;text-align:start;text-anchor:start"
         id="path7215" />
      <path
         d="m 674.00781,276.7112 0,19.80469 -5.39062,0 0,-19.62891 q 0,-4.6582 -1.81641,-6.97266 -1.81641,-2.31445 -5.44922,-2.31445 -4.36523,0 -6.88476,2.7832 -2.51953,2.78321 -2.51953,7.5879 l 0,18.54492 -5.41993,0 0,-32.8125 5.41993,0 0,5.09765 q 1.93359,-2.95898 4.54101,-4.42382 2.63672,-1.46485 6.06445,-1.46485 5.6543,0 8.55469,3.51563 2.90039,3.48632 2.90039,10.2832 z"
         style="font-style:normal;font-variant:normal;font-weight:normal;font-stretch:normal;font-size:60px;font-family:Sans;-inkscape-font-specification:Dingbats;text-align:start;text-anchor:start"
         id="path7217" />
      <path
         d="m 706.41016,279.72878 q 0,-5.85938 -2.43164,-9.08203 -2.40235,-3.22266 -6.76758,-3.22266 -4.33594,0 -6.76758,3.22266 -2.40234,3.22265 -2.40234,9.08203 0,5.83008 2.40234,9.05273 2.43164,3.22266 6.76758,3.22266 4.36523,0 6.76758,-3.22266 2.43164,-3.22265 2.43164,-9.05273 z m 5.39062,12.71484 q 0,8.37891 -3.7207,12.45117 -3.72071,4.10157 -11.39649,4.10157 -2.84179,0 -5.36132,-0.43946 -2.51954,-0.41015 -4.89258,-1.28906 l 0,-5.24414 q 2.37304,1.28906 4.6875,1.9043 2.31445,0.61523 4.71679,0.61523 5.30274,0 7.93946,-2.7832 2.63672,-2.75391 2.63672,-8.34961 l 0,-2.66602 q -1.66993,2.90039 -4.27735,4.33594 -2.60742,1.43555 -6.24023,1.43555 -6.03516,0 -9.72656,-4.59961 -3.69141,-4.59961 -3.69141,-12.1875 0,-7.61719 3.69141,-12.2168 3.6914,-4.59961 9.72656,-4.59961 3.63281,0 6.24023,1.43555 2.60742,1.43555 4.27735,4.33594 l 0,-4.98047 5.39062,0 0,28.74023 z"
         style="font-style:normal;font-variant:normal;font-weight:normal;font-stretch:normal;font-size:60px;font-family:Sans;-inkscape-font-specification:Dingbats;text-align:start;text-anchor:start"
         id="path7219" />
      <path
         d="m 765.61914,264.96315 0,5.03907 q -2.28516,-1.25977 -4.59961,-1.875 -2.28516,-0.64454 -4.62891,-0.64454 -5.24414,0 -8.14453,3.33985 -2.90039,3.31054 -2.90039,9.3164 0,6.00586 2.90039,9.34571 2.90039,3.31054 8.14453,3.31054 2.34375,0 4.62891,-0.61523 2.31445,-0.64453 4.59961,-1.9043 l 0,4.98047 q -2.25586,1.05469 -4.6875,1.58203 -2.40234,0.52735 -5.12695,0.52735 -7.41211,0 -11.77735,-4.65821 -4.36523,-4.6582 -4.36523,-12.56836 0,-8.02734 4.39453,-12.62695 4.42383,-4.59961 12.09961,-4.59961 2.49023,0 4.86328,0.52735 2.37305,0.49804 4.59961,1.52343 z"
         style="font-style:normal;font-variant:normal;font-weight:normal;font-stretch:normal;font-size:60px;font-family:Sans;-inkscape-font-specification:Dingbats;text-align:start;text-anchor:start"
         id="path7221" />
      <path
         d="m 774.49609,283.56667 0,-19.86328 5.39063,0 0,19.6582 q 0,4.6582 1.8164,7.00195 1.81641,2.31446 5.44922,2.31446 4.36524,0 6.88477,-2.78321 2.54883,-2.7832 2.54883,-7.58789 l 0,-18.60351 5.39062,0 0,32.8125 -5.39062,0 0,-5.03907 q -1.96289,2.98829 -4.57032,4.45313 -2.57812,1.43555 -6.00585,1.43555 -5.6543,0 -8.58399,-3.51563 -2.92969,-3.51562 -2.92969,-10.2832 z m 13.56446,-20.6543 0,0 z"
         style="font-style:normal;font-variant:normal;font-weight:normal;font-stretch:normal;font-size:60px;font-family:Sans;-inkscape-font-specification:Dingbats;text-align:start;text-anchor:start"
         id="path7223" />
      <path
         d="m 832.15234,268.74245 q -0.9082,-0.52734 -1.99218,-0.76172 -1.05469,-0.26367 -2.34375,-0.26367 -4.57032,0 -7.03125,2.98828 -2.43164,2.95898 -2.43164,8.52539 l 0,17.28516 -5.41993,0 0,-32.8125 5.41993,0 0,5.09765 q 1.69921,-2.98828 4.42382,-4.42382 2.72461,-1.46485 6.6211,-1.46485 0.55664,0 1.23047,0.0879 0.67382,0.0586 1.49414,0.20508 l 0.0293,5.53711 z"
         style="font-style:normal;font-variant:normal;font-weight:normal;font-stretch:normal;font-size:60px;font-family:Sans;-inkscape-font-specification:Dingbats;text-align:start;text-anchor:start"
         id="path7225" />
      <path
         d="m 833.99805,263.70339 5.71289,0 10.2539,27.53906 10.25391,-27.53906 5.71289,0 -12.30469,32.8125 -7.32422,0 -12.30468,-32.8125 z"
         style="font-style:normal;font-variant:normal;font-weight:normal;font-stretch:normal;font-size:60px;font-family:Sans;-inkscape-font-specification:Dingbats;text-align:start;text-anchor:start"
         id="path7227" />
      <path
         d="m 901.43945,278.76198 0,2.63672 -24.78515,0 q 0.35156,5.56641 3.33984,8.49609 3.01758,2.90039 8.37891,2.90039 3.10547,0 6.00586,-0.76171 2.92968,-0.76172 5.80078,-2.28516 l 0,5.09766 q -2.90039,1.23046 -5.94727,1.875 -3.04687,0.64453 -6.18164,0.64453 -7.85156,0 -12.45117,-4.57032 -4.57031,-4.57031 -4.57031,-12.36328 0,-8.05664 4.33593,-12.77343 4.36524,-4.7461 11.74805,-4.7461 6.62109,0 10.45899,4.27735 3.86718,4.24804 3.86718,11.57226 z m -5.39062,-1.58203 q -0.0586,-4.42383 -2.49024,-7.06055 -2.40234,-2.63672 -6.38672,-2.63672 -4.51171,0 -7.23632,2.54883 -2.69532,2.54883 -3.10547,7.17774 l 19.21875,-0.0293 z"
         style="font-style:normal;font-variant:normal;font-weight:normal;font-stretch:normal;font-size:60px;font-family:Sans;-inkscape-font-specification:Dingbats;text-align:start;text-anchor:start"
         id="path7229" />
      <path
         d="m 291.5957,407.63893 0,34.01368 7.14844,0 q 9.05273,0 13.24219,-4.10157 4.21875,-4.10156 4.21875,-12.94922 0,-8.78906 -4.21875,-12.86132 -4.18946,-4.10157 -13.24219,-4.10157 l -7.14844,0 z m -5.91797,-4.86328 12.15821,0 q 12.71484,0 18.66211,5.30274 5.94726,5.27343 5.94726,16.52343 0,11.3086 -5.97656,16.61133 -5.97656,5.30274 -18.63281,5.30274 l -12.15821,0 0,-43.74024 z"
         style="font-style:normal;font-variant:normal;font-weight:normal;font-stretch:normal;font-size:60px;font-family:Sans;-inkscape-font-specification:Dingbats;text-align:start;text-anchor:start"
         id="path7231" />
      <path
         d="m 344.33008,417.48268 q -4.33594,0 -6.85547,3.39844 -2.51953,3.36914 -2.51953,9.25781 0,5.88868 2.49023,9.28711 2.51953,3.36914 6.88477,3.36914 4.30664,0 6.82617,-3.39843 2.51953,-3.39844 2.51953,-9.25782 0,-5.83007 -2.51953,-9.22851 -2.51953,-3.42774 -6.82617,-3.42774 z m 0,-4.57031 q 7.03125,0 11.04492,4.57031 4.01367,4.57032 4.01367,12.65625 0,8.05664 -4.01367,12.65625 -4.01367,4.57032 -11.04492,4.57032 -7.06055,0 -11.07422,-4.57032 -3.98438,-4.59961 -3.98438,-12.65625 0,-8.08593 3.98438,-12.65625 4.01367,-4.57031 11.07422,-4.57031 z"
         style="font-style:normal;font-variant:normal;font-weight:normal;font-stretch:normal;font-size:60px;font-family:Sans;-inkscape-font-specification:Dingbats;text-align:start;text-anchor:start"
         id="path7233" />
      <path
         d="m 391.9082,414.96315 0,5.03907 q -2.28515,-1.25977 -4.59961,-1.875 -2.28515,-0.64454 -4.6289,-0.64454 -5.24414,0 -8.14453,3.33985 -2.90039,3.31054 -2.90039,9.3164 0,6.00586 2.90039,9.34571 2.90039,3.31054 8.14453,3.31054 2.34375,0 4.6289,-0.61523 2.31446,-0.64453 4.59961,-1.9043 l 0,4.98047 q -2.25586,1.05469 -4.6875,1.58203 -2.40234,0.52735 -5.12695,0.52735 -7.41211,0 -11.77734,-4.65821 -4.36524,-4.6582 -4.36524,-12.56836 0,-8.02734 4.39453,-12.62695 4.42383,-4.59961 12.09961,-4.59961 2.49024,0 4.86328,0.52735 2.37305,0.49804 4.59961,1.52343 z"
         style="font-style:normal;font-variant:normal;font-weight:normal;font-stretch:normal;font-size:60px;font-family:Sans;-inkscape-font-specification:Dingbats;text-align:start;text-anchor:start"
         id="path7235" />
      <path
         d="m 400.78516,433.56667 0,-19.86328 5.39062,0 0,19.6582 q 0,4.6582 1.81641,7.00195 1.8164,2.31446 5.44922,2.31446 4.36523,0 6.88476,-2.78321 2.54883,-2.7832 2.54883,-7.58789 l 0,-18.60351 5.39062,0 0,32.8125 -5.39062,0 0,-5.03907 q -1.96289,2.98829 -4.57031,4.45313 -2.57813,1.43555 -6.00586,1.43555 -5.6543,0 -8.58399,-3.51563 -2.92968,-3.51562 -2.92968,-10.2832 z m 13.56445,-20.6543 0,0 z"
         style="font-style:normal;font-variant:normal;font-weight:normal;font-stretch:normal;font-size:60px;font-family:Sans;-inkscape-font-specification:Dingbats;text-align:start;text-anchor:start"
         id="path7237" />
      <path
         d="m 464.97461,420.00222 q 2.02148,-3.63282 4.83398,-5.36133 2.8125,-1.72852 6.6211,-1.72852 5.12695,0 7.91015,3.60352 2.78321,3.57422 2.78321,10.19531 l 0,19.80469 -5.41993,0 0,-19.62891 q 0,-4.7168 -1.66992,-7.00195 -1.66992,-2.28516 -5.09765,-2.28516 -4.18946,0 -6.6211,2.7832 -2.43164,2.78321 -2.43164,7.5879 l 0,18.54492 -5.41992,0 0,-19.62891 q 0,-4.74609 -1.66992,-7.00195 -1.66992,-2.28516 -5.15625,-2.28516 -4.13086,0 -6.5625,2.8125 -2.43164,2.7832 -2.43164,7.5586 l 0,18.54492 -5.41992,0 0,-32.8125 5.41992,0 0,5.09765 q 1.8457,-3.01757 4.42383,-4.45312 2.57812,-1.43555 6.12304,-1.43555 3.57422,0 6.06446,1.81641 2.51953,1.8164 3.7207,5.27344 z"
         style="font-style:normal;font-variant:normal;font-weight:normal;font-stretch:normal;font-size:60px;font-family:Sans;-inkscape-font-specification:Dingbats;text-align:start;text-anchor:start"
         id="path7239" />
      <path
         d="m 525.9707,428.76198 0,2.63672 -24.78515,0 q 0.35156,5.56641 3.33984,8.49609 3.01758,2.90039 8.37891,2.90039 3.10547,0 6.00586,-0.76171 2.92968,-0.76172 5.80078,-2.28516 l 0,5.09766 q -2.90039,1.23046 -5.94727,1.875 -3.04687,0.64453 -6.18164,0.64453 -7.85156,0 -12.45117,-4.57032 -4.57031,-4.57031 -4.57031,-12.36328 0,-8.05664 4.33593,-12.77343 4.36524,-4.7461 11.74805,-4.7461 6.62109,0 10.45899,4.27735 3.86718,4.24804 3.86718,11.57226 z m -5.39062,-1.58203 q -0.0586,-4.42383 -2.49024,-7.06055 -2.40234,-2.63672 -6.38672,-2.63672 -4.51171,0 -7.23632,2.54883 -2.69532,2.54883 -3.10547,7.17774 l 19.21875,-0.0293 z"
         style="font-style:normal;font-variant:normal;font-weight:normal;font-stretch:normal;font-size:60px;font-family:Sans;-inkscape-font-specification:Dingbats;text-align:start;text-anchor:start"
         id="path7241" />
      <path
         d="m 562.09375,426.7112 0,19.80469 -5.39063,0 0,-19.62891 q 0,-4.6582 -1.8164,-6.97266 -1.81641,-2.31445 -5.44922,-2.31445 -4.36523,0 -6.88477,2.7832 -2.51953,2.78321 -2.51953,7.5879 l 0,18.54492 -5.41992,0 0,-32.8125 5.41992,0 0,5.09765 q 1.9336,-2.95898 4.54102,-4.42382 2.63672,-1.46485 6.06445,-1.46485 5.6543,0 8.55469,3.51563 2.90039,3.48632 2.90039,10.2832 z"
         style="font-style:normal;font-variant:normal;font-weight:normal;font-stretch:normal;font-size:60px;font-family:Sans;-inkscape-font-specification:Dingbats;text-align:start;text-anchor:start"
         id="path7243" />
      <path
         d="m 578.23633,404.38698 0,9.31641 11.10351,0 0,4.18945 -11.10351,0 0,17.8125 q 0,4.01367 1.08398,5.15625 1.11328,1.14258 4.48242,1.14258 l 5.53711,0 0,4.51172 -5.53711,0 q -6.24023,0 -8.61328,-2.31446 -2.37304,-2.34375 -2.37304,-8.49609 l 0,-17.8125 -3.95508,0 0,-4.18945 3.95508,0 0,-9.31641 5.41992,0 z"
         style="font-style:normal;font-variant:normal;font-weight:normal;font-stretch:normal;font-size:60px;font-family:Sans;-inkscape-font-specification:Dingbats;text-align:start;text-anchor:start"
         id="path7245" />
      <path
         d="m 611.37109,430.02175 q -6.5332,0 -9.05273,1.49414 -2.51953,1.49414 -2.51953,5.09765 0,2.8711 1.875,4.57032 1.90429,1.66992 5.15625,1.66992 4.48242,0 7.17773,-3.16406 2.72461,-3.19336 2.72461,-8.4668 l 0,-1.20117 -5.36133,0 z m 10.75196,-2.22657 0,18.72071 -5.39063,0 0,-4.98047 q -1.8457,2.98828 -4.59961,4.42383 -2.7539,1.40625 -6.73828,1.40625 -5.03906,0 -8.02734,-2.8125 -2.95899,-2.8418 -2.95899,-7.58789 0,-5.53711 3.69141,-8.34961 3.7207,-2.8125 11.07422,-2.8125 l 7.55859,0 0,-0.52735 q 0,-3.7207 -2.46094,-5.74218 -2.43164,-2.05079 -6.85546,-2.05079 -2.8125,0 -5.47852,0.67383 -2.66602,0.67383 -5.12695,2.02149 l 0,-4.98047 q 2.95898,-1.14258 5.74218,-1.69922 2.78321,-0.58594 5.41993,-0.58594 7.11914,0 10.63476,3.69141 3.51563,3.6914 3.51563,11.1914 z"
         style="font-style:normal;font-variant:normal;font-weight:normal;font-stretch:normal;font-size:60px;font-family:Sans;-inkscape-font-specification:Dingbats;text-align:start;text-anchor:start"
         id="path7247" />
      <path
         d="m 638.58789,404.38698 0,9.31641 11.10352,0 0,4.18945 -11.10352,0 0,17.8125 q 0,4.01367 1.08398,5.15625 1.11329,1.14258 4.48243,1.14258 l 5.53711,0 0,4.51172 -5.53711,0 q -6.24024,0 -8.61328,-2.31446 -2.37305,-2.34375 -2.37305,-8.49609 l 0,-17.8125 -3.95508,0 0,-4.18945 3.95508,0 0,-9.31641 5.41992,0 z"
         style="font-style:normal;font-variant:normal;font-weight:normal;font-stretch:normal;font-size:60px;font-family:Sans;-inkscape-font-specification:Dingbats;text-align:start;text-anchor:start"
         id="path7249" />
      <path
         d="m 656.81055,413.70339 5.39062,0 0,32.8125 -5.39062,0 0,-32.8125 z m 0,-12.77344 5.39062,0 0,6.82617 -5.39062,0 0,-6.82617 z"
         style="font-style:normal;font-variant:normal;font-weight:normal;font-stretch:normal;font-size:60px;font-family:Sans;-inkscape-font-specification:Dingbats;text-align:start;text-anchor:start"
         id="path7251" />
      <path
         d="m 686.16602,417.48268 q -4.33594,0 -6.85547,3.39844 -2.51953,3.36914 -2.51953,9.25781 0,5.88868 2.49023,9.28711 2.51953,3.36914 6.88477,3.36914 4.30664,0 6.82617,-3.39843 2.51953,-3.39844 2.51953,-9.25782 0,-5.83007 -2.51953,-9.22851 -2.51953,-3.42774 -6.82617,-3.42774 z m 0,-4.57031 q 7.03125,0 11.04492,4.57031 4.01367,4.57032 4.01367,12.65625 0,8.05664 -4.01367,12.65625 -4.01367,4.57032 -11.04492,4.57032 -7.06055,0 -11.07422,-4.57032 -3.98438,-4.59961 -3.98438,-12.65625 0,-8.08593 3.98438,-12.65625 4.01367,-4.57031 11.07422,-4.57031 z"
         style="font-style:normal;font-variant:normal;font-weight:normal;font-stretch:normal;font-size:60px;font-family:Sans;-inkscape-font-specification:Dingbats;text-align:start;text-anchor:start"
         id="path7253" />
      <path
         d="m 737.40625,426.7112 0,19.80469 -5.39063,0 0,-19.62891 q 0,-4.6582 -1.8164,-6.97266 -1.81641,-2.31445 -5.44922,-2.31445 -4.36523,0 -6.88477,2.7832 -2.51953,2.78321 -2.51953,7.5879 l 0,18.54492 -5.41992,0 0,-32.8125 5.41992,0 0,5.09765 q 1.9336,-2.95898 4.54102,-4.42382 2.63672,-1.46485 6.06445,-1.46485 5.6543,0 8.55469,3.51563 2.90039,3.48632 2.90039,10.2832 z"
         style="font-style:normal;font-variant:normal;font-weight:normal;font-stretch:normal;font-size:60px;font-family:Sans;-inkscape-font-specification:Dingbats;text-align:start;text-anchor:start"
         id="path7255" />
      <path
         d="m 285.67773,552.77565 27.65625,0 0,4.98047 -21.73828,0 0,12.94922 20.83008,0 0,4.98047 -20.83008,0 0,15.84961 22.26563,0 0,4.98047 -28.1836,0 0,-43.74024 z"
         style="font-style:normal;font-variant:normal;font-weight:normal;font-stretch:normal;font-size:60px;font-family:Sans;-inkscape-font-specification:Dingbats;text-align:start;text-anchor:start"
         id="path7257" />
      <path
         d="m 342.42578,568.74245 q -0.9082,-0.52734 -1.99219,-0.76172 -1.05468,-0.26367 -2.34375,-0.26367 -4.57031,0 -7.03125,2.98828 -2.43164,2.95898 -2.43164,8.52539 l 0,17.28516 -5.41992,0 0,-32.8125 5.41992,0 0,5.09765 q 1.69922,-2.98828 4.42383,-4.42382 2.72461,-1.46485 6.62109,-1.46485 0.55665,0 1.23047,0.0879 0.67383,0.0586 1.49414,0.20508 l 0.0293,5.53711 z"
         style="font-style:normal;font-variant:normal;font-weight:normal;font-stretch:normal;font-size:60px;font-family:Sans;-inkscape-font-specification:Dingbats;text-align:start;text-anchor:start"
         id="path7259" />
      <path
         d="m 366.09766,568.74245 q -0.90821,-0.52734 -1.99219,-0.76172 -1.05469,-0.26367 -2.34375,-0.26367 -4.57031,0 -7.03125,2.98828 -2.43164,2.95898 -2.43164,8.52539 l 0,17.28516 -5.41992,0 0,-32.8125 5.41992,0 0,5.09765 q 1.69922,-2.98828 4.42383,-4.42382 2.72461,-1.46485 6.62109,-1.46485 0.55664,0 1.23047,0.0879 0.67383,0.0586 1.49414,0.20508 l 0.0293,5.53711 z"
         style="font-style:normal;font-variant:normal;font-weight:normal;font-stretch:normal;font-size:60px;font-family:Sans;-inkscape-font-specification:Dingbats;text-align:start;text-anchor:start"
         id="path7261" />
      <path
         d="m 383.23633,567.48268 q -4.33594,0 -6.85547,3.39844 -2.51953,3.36914 -2.51953,9.25781 0,5.88868 2.49023,9.28711 2.51953,3.36914 6.88477,3.36914 4.30664,0 6.82617,-3.39843 2.51953,-3.39844 2.51953,-9.25782 0,-5.83007 -2.51953,-9.22851 -2.51953,-3.42774 -6.82617,-3.42774 z m 0,-4.57031 q 7.03125,0 11.04492,4.57031 4.01367,4.57032 4.01367,12.65625 0,8.05664 -4.01367,12.65625 -4.01367,4.57032 -11.04492,4.57032 -7.06055,0 -11.07422,-4.57032 -3.98438,-4.59961 -3.98438,-12.65625 0,-8.08593 3.98438,-12.65625 4.01367,-4.57031 11.07422,-4.57031 z"
         style="font-style:normal;font-variant:normal;font-weight:normal;font-stretch:normal;font-size:60px;font-family:Sans;-inkscape-font-specification:Dingbats;text-align:start;text-anchor:start"
         id="path7263" />
      <path
         d="m 426.21484,568.74245 q -0.9082,-0.52734 -1.99218,-0.76172 -1.05469,-0.26367 -2.34375,-0.26367 -4.57032,0 -7.03125,2.98828 -2.43164,2.95898 -2.43164,8.52539 l 0,17.28516 -5.41993,0 0,-32.8125 5.41993,0 0,5.09765 q 1.69921,-2.98828 4.42382,-4.42382 2.72461,-1.46485 6.6211,-1.46485 0.55664,0 1.23047,0.0879 0.67382,0.0586 1.49414,0.20508 l 0.0293,5.53711 z"
         style="font-style:normal;font-variant:normal;font-weight:normal;font-stretch:normal;font-size:60px;font-family:Sans;-inkscape-font-specification:Dingbats;text-align:start;text-anchor:start"
         id="path7265" />
      <path
         d="m 476.57617,570.00222 q 2.02149,-3.63282 4.83399,-5.36133 2.8125,-1.72852 6.62109,-1.72852 5.12695,0 7.91016,3.60352 2.7832,3.57422 2.7832,10.19531 l 0,19.80469 -5.41992,0 0,-19.62891 q 0,-4.7168 -1.66992,-7.00195 -1.66993,-2.28516 -5.09766,-2.28516 -4.18945,0 -6.62109,2.7832 -2.43165,2.78321 -2.43165,7.5879 l 0,18.54492 -5.41992,0 0,-19.62891 q 0,-4.74609 -1.66992,-7.00195 -1.66992,-2.28516 -5.15625,-2.28516 -4.13086,0 -6.5625,2.8125 -2.43164,2.7832 -2.43164,7.5586 l 0,18.54492 -5.41992,0 0,-32.8125 5.41992,0 0,5.09765 q 1.8457,-3.01757 4.42383,-4.45312 2.57812,-1.43555 6.12305,-1.43555 3.57421,0 6.06445,1.81641 2.51953,1.8164 3.7207,5.27344 z"
         style="font-style:normal;font-variant:normal;font-weight:normal;font-stretch:normal;font-size:60px;font-family:Sans;-inkscape-font-specification:Dingbats;text-align:start;text-anchor:start"
         id="path7267" />
      <path
         d="m 537.57227,578.76198 0,2.63672 -24.78516,0 q 0.35156,5.56641 3.33984,8.49609 3.01758,2.90039 8.37891,2.90039 3.10547,0 6.00586,-0.76171 2.92969,-0.76172 5.80078,-2.28516 l 0,5.09766 q -2.90039,1.23046 -5.94727,1.875 -3.04687,0.64453 -6.18164,0.64453 -7.85156,0 -12.45117,-4.57032 -4.57031,-4.57031 -4.57031,-12.36328 0,-8.05664 4.33594,-12.77343 4.36523,-4.7461 11.74804,-4.7461 6.6211,0 10.45899,4.27735 3.86719,4.24804 3.86719,11.57226 z m -5.39063,-1.58203 q -0.0586,-4.42383 -2.49023,-7.06055 -2.40235,-2.63672 -6.38672,-2.63672 -4.51172,0 -7.23633,2.54883 -2.69531,2.54883 -3.10547,7.17774 l 19.21875,-0.0293 z"
         style="font-style:normal;font-variant:normal;font-weight:normal;font-stretch:normal;font-size:60px;font-family:Sans;-inkscape-font-specification:Dingbats;text-align:start;text-anchor:start"
         id="path7269" />
      <path
         d="m 567.33789,564.67018 0,5.09766 q -2.28516,-1.17187 -4.74609,-1.75781 -2.46094,-0.58594 -5.09766,-0.58594 -4.01367,0 -6.03516,1.23047 -1.99218,1.23047 -1.99218,3.69141 0,1.875 1.43554,2.95898 1.43555,1.05469 5.77149,2.02148 l 1.8457,0.41016 q 5.74219,1.23047 8.14453,3.48633 2.43164,2.22656 2.43164,6.24023 0,4.57032 -3.63281,7.23633 -3.60352,2.66602 -9.93164,2.66602 -2.63672,0 -5.50781,-0.52735 -2.8418,-0.49804 -6.00586,-1.52343 l 0,-5.56641 q 2.98828,1.55273 5.88867,2.34375 2.90039,0.76172 5.74219,0.76172 3.80859,0 5.85937,-1.28906 2.05078,-1.31836 2.05078,-3.69141 0,-2.19727 -1.49414,-3.36914 -1.46484,-1.17188 -6.47461,-2.25586 l -1.875,-0.43945 q -5.00976,-1.05469 -7.23632,-3.22266 -2.22657,-2.19727 -2.22657,-6.00586 0,-4.62891 3.28125,-7.14844 3.28125,-2.51953 9.31641,-2.51953 2.98828,0 5.625,0.43945 2.63672,0.43946 4.86328,1.31836 z"
         style="font-style:normal;font-variant:normal;font-weight:normal;font-stretch:normal;font-size:60px;font-family:Sans;-inkscape-font-specification:Dingbats;text-align:start;text-anchor:start"
         id="path7271" />
      <path
         d="m 598.62695,564.67018 0,5.09766 q -2.28515,-1.17187 -4.74609,-1.75781 -2.46094,-0.58594 -5.09766,-0.58594 -4.01367,0 -6.03515,1.23047 -1.99219,1.23047 -1.99219,3.69141 0,1.875 1.43555,2.95898 1.43554,1.05469 5.77148,2.02148 l 1.8457,0.41016 q 5.74219,1.23047 8.14453,3.48633 2.43165,2.22656 2.43165,6.24023 0,4.57032 -3.63282,7.23633 -3.60351,2.66602 -9.93164,2.66602 -2.63672,0 -5.50781,-0.52735 -2.8418,-0.49804 -6.00586,-1.52343 l 0,-5.56641 q 2.98828,1.55273 5.88867,2.34375 2.90039,0.76172 5.74219,0.76172 3.80859,0 5.85937,-1.28906 2.05079,-1.31836 2.05079,-3.69141 0,-2.19727 -1.49414,-3.36914 -1.46485,-1.17188 -6.47461,-2.25586 l -1.875,-0.43945 q -5.00977,-1.05469 -7.23633,-3.22266 -2.22656,-2.19727 -2.22656,-6.00586 0,-4.62891 3.28125,-7.14844 3.28125,-2.51953 9.3164,-2.51953 2.98828,0 5.625,0.43945 2.63672,0.43946 4.86328,1.31836 z"
         style="font-style:normal;font-variant:normal;font-weight:normal;font-stretch:normal;font-size:60px;font-family:Sans;-inkscape-font-specification:Dingbats;text-align:start;text-anchor:start"
         id="path7273" />
      <path
         d="m 623.91016,580.02175 q -6.53321,0 -9.05274,1.49414 -2.51953,1.49414 -2.51953,5.09765 0,2.8711 1.875,4.57032 1.9043,1.66992 5.15625,1.66992 4.48242,0 7.17773,-3.16406 2.72461,-3.19336 2.72461,-8.4668 l 0,-1.20117 -5.36132,0 z m 10.75195,-2.22657 0,18.72071 -5.39063,0 0,-4.98047 q -1.8457,2.98828 -4.59961,4.42383 -2.7539,1.40625 -6.73828,1.40625 -5.03906,0 -8.02734,-2.8125 -2.95898,-2.8418 -2.95898,-7.58789 0,-5.53711 3.6914,-8.34961 3.7207,-2.8125 11.07422,-2.8125 l 7.55859,0 0,-0.52735 q 0,-3.7207 -2.46093,-5.74218 -2.43164,-2.05079 -6.85547,-2.05079 -2.8125,0 -5.47852,0.67383 -2.66601,0.67383 -5.12695,2.02149 l 0,-4.98047 q 2.95898,-1.14258 5.74219,-1.69922 2.7832,-0.58594 5.41992,-0.58594 7.11914,0 10.63476,3.69141 3.51563,3.6914 3.51563,11.1914 z"
         style="font-style:normal;font-variant:normal;font-weight:normal;font-stretch:normal;font-size:60px;font-family:Sans;-inkscape-font-specification:Dingbats;text-align:start;text-anchor:start"
         id="path7275" />
      <path
         d="m 667.38672,579.72878 q 0,-5.85938 -2.43164,-9.08203 -2.40235,-3.22266 -6.76758,-3.22266 -4.33594,0 -6.76758,3.22266 -2.40234,3.22265 -2.40234,9.08203 0,5.83008 2.40234,9.05273 2.43164,3.22266 6.76758,3.22266 4.36523,0 6.76758,-3.22266 2.43164,-3.22265 2.43164,-9.05273 z m 5.39062,12.71484 q 0,8.37891 -3.7207,12.45117 -3.7207,4.10157 -11.39648,4.10157 -2.8418,0 -5.36133,-0.43946 -2.51953,-0.41015 -4.89258,-1.28906 l 0,-5.24414 q 2.37305,1.28906 4.6875,1.9043 2.31445,0.61523 4.7168,0.61523 5.30273,0 7.93945,-2.7832 2.63672,-2.75391 2.63672,-8.34961 l 0,-2.66602 q -1.66992,2.90039 -4.27735,4.33594 -2.60742,1.43555 -6.24023,1.43555 -6.03516,0 -9.72656,-4.59961 -3.69141,-4.59961 -3.69141,-12.1875 0,-7.61719 3.69141,-12.2168 3.6914,-4.59961 9.72656,-4.59961 3.63281,0 6.24023,1.43555 2.60743,1.43555 4.27735,4.33594 l 0,-4.98047 5.39062,0 0,28.74023 z"
         style="font-style:normal;font-variant:normal;font-weight:normal;font-stretch:normal;font-size:60px;font-family:Sans;-inkscape-font-specification:Dingbats;text-align:start;text-anchor:start"
         id="path7277" />
      <path
         d="m 711.94727,578.76198 0,2.63672 -24.78516,0 q 0.35156,5.56641 3.33984,8.49609 3.01758,2.90039 8.37891,2.90039 3.10547,0 6.00586,-0.76171 2.92969,-0.76172 5.80078,-2.28516 l 0,5.09766 q -2.90039,1.23046 -5.94727,1.875 -3.04687,0.64453 -6.18164,0.64453 -7.85156,0 -12.45117,-4.57032 -4.57031,-4.57031 -4.57031,-12.36328 0,-8.05664 4.33594,-12.77343 4.36523,-4.7461 11.74804,-4.7461 6.6211,0 10.45899,4.27735 3.86719,4.24804 3.86719,11.57226 z m -5.39063,-1.58203 q -0.0586,-4.42383 -2.49023,-7.06055 -2.40235,-2.63672 -6.38672,-2.63672 -4.51172,0 -7.23633,2.54883 -2.69531,2.54883 -3.10547,7.17774 l 19.21875,-0.0293 z"
         style="font-style:normal;font-variant:normal;font-weight:normal;font-stretch:normal;font-size:60px;font-family:Sans;-inkscape-font-specification:Dingbats;text-align:start;text-anchor:start"
         id="path7279" />
      <path
         d="m 741.71289,564.67018 0,5.09766 q -2.28516,-1.17187 -4.74609,-1.75781 -2.46094,-0.58594 -5.09766,-0.58594 -4.01367,0 -6.03516,1.23047 -1.99218,1.23047 -1.99218,3.69141 0,1.875 1.43554,2.95898 1.43555,1.05469 5.77149,2.02148 l 1.8457,0.41016 q 5.74219,1.23047 8.14453,3.48633 2.43164,2.22656 2.43164,6.24023 0,4.57032 -3.63281,7.23633 -3.60352,2.66602 -9.93164,2.66602 -2.63672,0 -5.50781,-0.52735 -2.8418,-0.49804 -6.00586,-1.52343 l 0,-5.56641 q 2.98828,1.55273 5.88867,2.34375 2.90039,0.76172 5.74219,0.76172 3.80859,0 5.85937,-1.28906 2.05078,-1.31836 2.05078,-3.69141 0,-2.19727 -1.49414,-3.36914 -1.46484,-1.17188 -6.47461,-2.25586 l -1.875,-0.43945 q -5.00976,-1.05469 -7.23632,-3.22266 -2.22657,-2.19727 -2.22657,-6.00586 0,-4.62891 3.28125,-7.14844 3.28125,-2.51953 9.31641,-2.51953 2.98828,0 5.625,0.43945 2.63672,0.43946 4.86328,1.31836 z"
         style="font-style:normal;font-variant:normal;font-weight:normal;font-stretch:normal;font-size:60px;font-family:Sans;-inkscape-font-specification:Dingbats;text-align:start;text-anchor:start"
         id="path7281" />
      <path
         d="m 291.5957,725.62722 0,16.02539 9.49219,0 q 4.77539,0 7.06055,-1.96289 2.31445,-1.99219 2.31445,-6.06446 0,-4.10156 -2.31445,-6.03515 -2.28516,-1.96289 -7.06055,-1.96289 l -9.49219,0 z m 0,-17.98829 0,13.1836 8.75977,0 q 4.33594,0 6.44531,-1.61133 2.13867,-1.64063 2.13867,-4.98047 0,-3.31055 -2.13867,-4.95117 -2.10937,-1.64063 -6.44531,-1.64063 l -8.75977,0 z m -5.91797,-4.86328 15.11719,0 q 6.76758,0 10.42969,2.8125 3.66211,2.8125 3.66211,7.99805 0,4.01367 -1.875,6.38672 -1.875,2.37305 -5.50781,2.95898 4.36523,0.9375 6.76757,3.92578 2.43164,2.95899 2.43164,7.41211 0,5.85938 -3.98437,9.05274 -3.98438,3.19336 -11.33789,3.19336 l -15.70313,0 0,-43.74024 z"
         style="font-style:normal;font-variant:normal;font-weight:normal;font-stretch:normal;font-size:60px;font-family:Sans;-inkscape-font-specification:Dingbats;text-align:start;text-anchor:start"
         id="path7283" />
      <path
         d="m 341.48828,730.02175 q -6.5332,0 -9.05273,1.49414 -2.51953,1.49414 -2.51953,5.09765 0,2.8711 1.875,4.57032 1.90429,1.66992 5.15625,1.66992 4.48242,0 7.17773,-3.16406 2.72461,-3.19336 2.72461,-8.4668 l 0,-1.20117 -5.36133,0 z m 10.75195,-2.22657 0,18.72071 -5.39062,0 0,-4.98047 q -1.8457,2.98828 -4.59961,4.42383 -2.75391,1.40625 -6.73828,1.40625 -5.03906,0 -8.02735,-2.8125 -2.95898,-2.8418 -2.95898,-7.58789 0,-5.53711 3.69141,-8.34961 3.7207,-2.8125 11.07422,-2.8125 l 7.55859,0 0,-0.52735 q 0,-3.7207 -2.46094,-5.74218 -2.43164,-2.05079 -6.85547,-2.05079 -2.8125,0 -5.47851,0.67383 -2.66602,0.67383 -5.12696,2.02149 l 0,-4.98047 q 2.95899,-1.14258 5.74219,-1.69922 2.7832,-0.58594 5.41992,-0.58594 7.11914,0 10.63477,3.69141 3.51562,3.6914 3.51562,11.1914 z"
         style="font-style:normal;font-variant:normal;font-weight:normal;font-stretch:normal;font-size:60px;font-family:Sans;-inkscape-font-specification:Dingbats;text-align:start;text-anchor:start"
         id="path7285" />
      <path
         d="m 390.64844,726.7112 0,19.80469 -5.39063,0 0,-19.62891 q 0,-4.6582 -1.8164,-6.97266 -1.81641,-2.31445 -5.44922,-2.31445 -4.36524,0 -6.88477,2.7832 -2.51953,2.78321 -2.51953,7.5879 l 0,18.54492 -5.41992,0 0,-32.8125 5.41992,0 0,5.09765 q 1.93359,-2.95898 4.54102,-4.42382 2.63671,-1.46485 6.06445,-1.46485 5.6543,0 8.55469,3.51563 2.90039,3.48632 2.90039,10.2832 z"
         style="font-style:normal;font-variant:normal;font-weight:normal;font-stretch:normal;font-size:60px;font-family:Sans;-inkscape-font-specification:Dingbats;text-align:start;text-anchor:start"
         id="path7287" />
      <path
         d="m 416.37109,730.02175 q -6.5332,0 -9.05273,1.49414 -2.51953,1.49414 -2.51953,5.09765 0,2.8711 1.875,4.57032 1.90429,1.66992 5.15625,1.66992 4.48242,0 7.17773,-3.16406 2.72461,-3.19336 2.72461,-8.4668 l 0,-1.20117 -5.36133,0 z m 10.75196,-2.22657 0,18.72071 -5.39063,0 0,-4.98047 q -1.8457,2.98828 -4.59961,4.42383 -2.7539,1.40625 -6.73828,1.40625 -5.03906,0 -8.02734,-2.8125 -2.95899,-2.8418 -2.95899,-7.58789 0,-5.53711 3.69141,-8.34961 3.7207,-2.8125 11.07422,-2.8125 l 7.55859,0 0,-0.52735 q 0,-3.7207 -2.46094,-5.74218 -2.43164,-2.05079 -6.85546,-2.05079 -2.8125,0 -5.47852,0.67383 -2.66602,0.67383 -5.12695,2.02149 l 0,-4.98047 q 2.95898,-1.14258 5.74218,-1.69922 2.78321,-0.58594 5.41993,-0.58594 7.11914,0 10.63476,3.69141 3.51563,3.6914 3.51563,11.1914 z"
         style="font-style:normal;font-variant:normal;font-weight:normal;font-stretch:normal;font-size:60px;font-family:Sans;-inkscape-font-specification:Dingbats;text-align:start;text-anchor:start"
         id="path7289" />
      <path
         d="m 465.53125,726.7112 0,19.80469 -5.39063,0 0,-19.62891 q 0,-4.6582 -1.8164,-6.97266 -1.81641,-2.31445 -5.44922,-2.31445 -4.36523,0 -6.88477,2.7832 -2.51953,2.78321 -2.51953,7.5879 l 0,18.54492 -5.41992,0 0,-32.8125 5.41992,0 0,5.09765 q 1.9336,-2.95898 4.54102,-4.42382 2.63672,-1.46485 6.06445,-1.46485 5.6543,0 8.55469,3.51563 2.90039,3.48632 2.90039,10.2832 z"
         style="font-style:normal;font-variant:normal;font-weight:normal;font-stretch:normal;font-size:60px;font-family:Sans;-inkscape-font-specification:Dingbats;text-align:start;text-anchor:start"
         id="path7291" />
      <path
         d="m 491.25391,730.02175 q -6.53321,0 -9.05274,1.49414 -2.51953,1.49414 -2.51953,5.09765 0,2.8711 1.875,4.57032 1.9043,1.66992 5.15625,1.66992 4.48242,0 7.17773,-3.16406 2.72461,-3.19336 2.72461,-8.4668 l 0,-1.20117 -5.36132,0 z m 10.75195,-2.22657 0,18.72071 -5.39063,0 0,-4.98047 q -1.8457,2.98828 -4.59961,4.42383 -2.7539,1.40625 -6.73828,1.40625 -5.03906,0 -8.02734,-2.8125 -2.95898,-2.8418 -2.95898,-7.58789 0,-5.53711 3.6914,-8.34961 3.7207,-2.8125 11.07422,-2.8125 l 7.55859,0 0,-0.52735 q 0,-3.7207 -2.46093,-5.74218 -2.43164,-2.05079 -6.85547,-2.05079 -2.8125,0 -5.47852,0.67383 -2.66601,0.67383 -5.12695,2.02149 l 0,-4.98047 q 2.95898,-1.14258 5.74219,-1.69922 2.7832,-0.58594 5.41992,-0.58594 7.11914,0 10.63476,3.69141 3.51563,3.6914 3.51563,11.1914 z"
         style="font-style:normal;font-variant:normal;font-weight:normal;font-stretch:normal;font-size:60px;font-family:Sans;-inkscape-font-specification:Dingbats;text-align:start;text-anchor:start"
         id="path7293" />
      <path
         d="m 529.51562,727.678 15.79102,0 0,4.80468 -15.79102,0 0,-4.80468 z"
         style="font-style:normal;font-variant:normal;font-weight:normal;font-stretch:normal;font-size:60px;font-family:Sans;-inkscape-font-specification:Dingbats;text-align:start;text-anchor:start"
         id="path7295" />
      <path
         d="m 554.62305,716.98464 0,-5.33203 37.55859,13.62304 0,4.86328 -37.55859,13.62305 0,-5.33203 30.17578,-10.69336 -30.17578,-10.75195 z"
         style="font-style:normal;font-variant:normal;font-weight:normal;font-stretch:normal;font-size:60px;font-family:Sans;-inkscape-font-specification:Dingbats;text-align:start;text-anchor:start"
         id="path7297" />
      <path
         d="m 644.88672,729.72878 q 0,-5.85938 -2.43164,-9.08203 -2.40235,-3.22266 -6.76758,-3.22266 -4.33594,0 -6.76758,3.22266 -2.40234,3.22265 -2.40234,9.08203 0,5.83008 2.40234,9.05273 2.43164,3.22266 6.76758,3.22266 4.36523,0 6.76758,-3.22266 2.43164,-3.22265 2.43164,-9.05273 z m 5.39062,12.71484 q 0,8.37891 -3.7207,12.45117 -3.7207,4.10157 -11.39648,4.10157 -2.8418,0 -5.36133,-0.43946 -2.51953,-0.41015 -4.89258,-1.28906 l 0,-5.24414 q 2.37305,1.28906 4.6875,1.9043 2.31445,0.61523 4.7168,0.61523 5.30273,0 7.93945,-2.7832 2.63672,-2.75391 2.63672,-8.34961 l 0,-2.66602 q -1.66992,2.90039 -4.27735,4.33594 -2.60742,1.43555 -6.24023,1.43555 -6.03516,0 -9.72656,-4.59961 -3.69141,-4.59961 -3.69141,-12.1875 0,-7.61719 3.69141,-12.2168 3.6914,-4.59961 9.72656,-4.59961 3.63281,0 6.24023,1.43555 2.60743,1.43555 4.27735,4.33594 l 0,-4.98047 5.39062,0 0,28.74023 z"
         style="font-style:normal;font-variant:normal;font-weight:normal;font-stretch:normal;font-size:60px;font-family:Sans;-inkscape-font-specification:Dingbats;text-align:start;text-anchor:start"
         id="path7299" />
      <path
         d="m 674.0957,717.48268 q -4.33593,0 -6.85547,3.39844 -2.51953,3.36914 -2.51953,9.25781 0,5.88868 2.49024,9.28711 2.51953,3.36914 6.88476,3.36914 4.30664,0 6.82617,-3.39843 2.51954,-3.39844 2.51954,-9.25782 0,-5.83007 -2.51954,-9.22851 -2.51953,-3.42774 -6.82617,-3.42774 z m 0,-4.57031 q 7.03125,0 11.04492,4.57031 4.01368,4.57032 4.01368,12.65625 0,8.05664 -4.01368,12.65625 -4.01367,4.57032 -11.04492,4.57032 -7.06054,0 -11.07422,-4.57032 -3.98437,-4.59961 -3.98437,-12.65625 0,-8.08593 3.98437,-12.65625 4.01368,-4.57031 11.07422,-4.57031 z"
         style="font-style:normal;font-variant:normal;font-weight:normal;font-stretch:normal;font-size:60px;font-family:Sans;-inkscape-font-specification:Dingbats;text-align:start;text-anchor:start"
         id="path7301" />
      <path
         d="m 717.07422,718.74245 q -0.9082,-0.52734 -1.99219,-0.76172 -1.05469,-0.26367 -2.34375,-0.26367 -4.57031,0 -7.03125,2.98828 -2.43164,2.95898 -2.43164,8.52539 l 0,17.28516 -5.41992,0 0,-32.8125 5.41992,0 0,5.09765 q 1.69922,-2.98828 4.42383,-4.42382 2.72461,-1.46485 6.62109,-1.46485 0.55664,0 1.23047,0.0879 0.67383,0.0586 1.49414,0.20508 l 0.0293,5.53711 z"
         style="font-style:normal;font-variant:normal;font-weight:normal;font-stretch:normal;font-size:60px;font-family:Sans;-inkscape-font-specification:Dingbats;text-align:start;text-anchor:start"
         id="path7303" />
      <path
         d="m 722.78711,713.70339 5.39062,0 0,32.8125 -5.39062,0 0,-32.8125 z m 0,-12.77344 5.39062,0 0,6.82617 -5.39062,0 0,-6.82617 z"
         style="font-style:normal;font-variant:normal;font-weight:normal;font-stretch:normal;font-size:60px;font-family:Sans;-inkscape-font-specification:Dingbats;text-align:start;text-anchor:start"
         id="path7305" />
      <path
         d="m 739.42773,700.92995 5.39063,0 0,45.58594 -5.39063,0 0,-45.58594 z"
         style="font-style:normal;font-variant:normal;font-weight:normal;font-stretch:normal;font-size:60px;font-family:Sans;-inkscape-font-specification:Dingbats;text-align:start;text-anchor:start"
         id="path7307" />
      <path
         d="m 756.06836,700.92995 5.39062,0 0,45.58594 -5.39062,0 0,-45.58594 z"
         style="font-style:normal;font-variant:normal;font-weight:normal;font-stretch:normal;font-size:60px;font-family:Sans;-inkscape-font-specification:Dingbats;text-align:start;text-anchor:start"
         id="path7309" />
      <path
         d="m 787.62109,730.02175 q -6.5332,0 -9.05273,1.49414 -2.51953,1.49414 -2.51953,5.09765 0,2.8711 1.875,4.57032 1.90429,1.66992 5.15625,1.66992 4.48242,0 7.17773,-3.16406 2.72461,-3.19336 2.72461,-8.4668 l 0,-1.20117 -5.36133,0 z m 10.75196,-2.22657 0,18.72071 -5.39063,0 0,-4.98047 q -1.8457,2.98828 -4.59961,4.42383 -2.7539,1.40625 -6.73828,1.40625 -5.03906,0 -8.02734,-2.8125 -2.95899,-2.8418 -2.95899,-7.58789 0,-5.53711 3.69141,-8.34961 3.7207,-2.8125 11.07422,-2.8125 l 7.55859,0 0,-0.52735 q 0,-3.7207 -2.46094,-5.74218 -2.43164,-2.05079 -6.85546,-2.05079 -2.8125,0 -5.47852,0.67383 -2.66602,0.67383 -5.12695,2.02149 l 0,-4.98047 q 2.95898,-1.14258 5.74218,-1.69922 2.78321,-0.58594 5.41993,-0.58594 7.11914,0 10.63476,3.69141 3.51563,3.6914 3.51563,11.1914 z"
         style="font-style:normal;font-variant:normal;font-weight:normal;font-stretch:normal;font-size:60px;font-family:Sans;-inkscape-font-specification:Dingbats;text-align:start;text-anchor:start"
         id="path7311" />
      <path
         d="m 830.42383,714.67018 0,5.09766 q -2.28516,-1.17187 -4.7461,-1.75781 -2.46093,-0.58594 -5.09765,-0.58594 -4.01367,0 -6.03516,1.23047 -1.99219,1.23047 -1.99219,3.69141 0,1.875 1.43555,2.95898 1.43555,1.05469 5.77149,2.02148 l 1.8457,0.41016 q 5.74219,1.23047 8.14453,3.48633 2.43164,2.22656 2.43164,6.24023 0,4.57032 -3.63281,7.23633 -3.60352,2.66602 -9.93164,2.66602 -2.63672,0 -5.50782,-0.52735 -2.84179,-0.49804 -6.00585,-1.52343 l 0,-5.56641 q 2.98828,1.55273 5.88867,2.34375 2.90039,0.76172 5.74218,0.76172 3.8086,0 5.85938,-1.28906 2.05078,-1.31836 2.05078,-3.69141 0,-2.19727 -1.49414,-3.36914 -1.46484,-1.17188 -6.47461,-2.25586 l -1.875,-0.43945 q -5.00976,-1.05469 -7.23633,-3.22266 -2.22656,-2.19727 -2.22656,-6.00586 0,-4.62891 3.28125,-7.14844 3.28125,-2.51953 9.31641,-2.51953 2.98828,0 5.625,0.43945 2.63672,0.43946 4.86328,1.31836 z"
         style="font-style:normal;font-variant:normal;font-weight:normal;font-stretch:normal;font-size:60px;font-family:Sans;-inkscape-font-specification:Dingbats;text-align:start;text-anchor:start"
         id="path7313" />
    </g>
    <circle
       style="fill:none;fill-opacity:1;stroke:#000000;stroke-width:1.99999988;stroke-miterlimit:4;stroke-dasharray:none;stroke-opacity:1"
       id="path5137"
       cx="80.781715"
       cy="433.2659"
       r="13" />
    <circle
       style="fill:none;fill-opacity:1;stroke:#000000;stroke-width:1.99999988;stroke-miterlimit:4;stroke-dasharray:none;stroke-opacity:1"
       id="path5137-8"
       cx="80.781715"
       cy="583.54199"
       r="13" />
    <circle
       style="fill:none;fill-opacity:1;stroke:#000000;stroke-width:1.99999988;stroke-miterlimit:4;stroke-dasharray:none;stroke-opacity:1"
       id="path5137-0"
       cx="80.781715"
       cy="734.88507"
       r="13" />
    <flowRoot
       xml:space="preserve"
       id="flowRoot5233"
       style="fill:black;stroke:none;stroke-opacity:1;stroke-width:1px;stroke-linejoin:miter;stroke-linecap:butt;fill-opacity:1;font-family:Sans;font-style:normal;font-weight:normal;font-size:40px;line-height:125%;letter-spacing:0px;word-spacing:0px"><flowRegion
         id="flowRegion5235"><rect
           id="rect5237"
           width="628.57141"
           height="87.14286"
           x="7.1428571"
           y="6.5714283" /></flowRegion><flowPara
         id="flowPara5239" /></flowRoot>    <flowRoot
       xml:space="preserve"
       id="flowRoot5241"
       style="fill:black;stroke:none;stroke-opacity:1;stroke-width:1px;stroke-linejoin:miter;stroke-linecap:butt;fill-opacity:1;font-family:Carlito;font-style:normal;font-weight:normal;font-size:40px;line-height:125%;letter-spacing:0px;word-spacing:0px;-inkscape-font-specification:Carlito;font-stretch:normal;font-variant:normal;"><flowRegion
         id="flowRegion5243"><rect
           id="rect5245"
           width="641.42859"
           height="85.714287"
           x="-2.8571429"
           y="3.7142854"
           style="-inkscape-font-specification:Carlito;font-family:Carlito;font-weight:normal;font-style:normal;font-stretch:normal;font-variant:normal;" /></flowRegion><flowPara
         id="flowPara5247" /></flowRoot>    <g
       transform="scale(0.99828008,1.0017229)"
       style="font-style:normal;font-weight:normal;font-size:132.8361969px;line-height:125%;font-family:Sans;letter-spacing:0px;word-spacing:0px;fill:none;fill-opacity:1;stroke:#000000;stroke-width:1px;stroke-linecap:butt;stroke-linejoin:miter;stroke-opacity:0.70588235"
       id="text5249">
      <path
         d="m 68.8518,344.09614 q 0,3.71942 -1.239805,7.2322 -1.239804,3.51278 -4.029364,6.92224 -2.686244,3.40946 -8.162047,5.4758 -5.475804,2.06634 -13.017948,2.06634 l -33.8879916,0 0,-75.31812 33.5780406,0 q 7.025559,0 12.088094,2.06634 5.165853,2.06634 7.645462,5.37248 2.582926,3.20283 3.719413,6.30234 1.136488,3.09952 1.136488,6.09571 0,4.8559 -2.376292,8.36868 -2.376292,3.51278 -7.955413,7.12888 12.501363,7.33551 12.501363,18.28711 z m -44.839599,-40.70691 0,17.04731 16.840679,0 q 10.951607,0 10.951607,-8.472 0,-8.57531 -10.951607,-8.57531 l -16.840679,0 z m 0,29.96194 0,19.52692 18.493752,0 q 11.468192,0 11.468192,-9.7118 0,-9.81512 -11.468192,-9.81512 l -18.493752,0 z"
         style="font-style:normal;font-variant:normal;font-weight:600;font-stretch:normal;font-size:103.31704712px;font-family:FreeSans;-inkscape-font-specification:'FreeSans Semi-Bold';fill:none;stroke:#000000;stroke-width:0.67752618px;stroke-opacity:0.70588235"
         id="path7188" />
      <path
         d="m 93.970757,368.16902 q -7.645462,0 -12.294729,-4.54595 -4.649267,-4.64927 -4.649267,-12.19141 0,-14.77434 16.42741,-17.5639 l 5.785755,-1.03317 q 0.206634,0 2.066344,-0.20664 1.8597,-0.30995 2.37629,-0.41327 0.51658,-0.20663 1.96302,-0.51658 1.54976,-0.30995 2.16966,-0.72322 0.6199,-0.41327 1.44644,-1.03317 0.92985,-0.72322 1.2398,-1.54976 0.30996,-0.92985 0.30996,-2.06634 0,-5.57912 -8.36869,-5.57912 -5.372482,0 -7.54214,1.65307 -2.169658,1.65308 -2.686243,5.99239 l -13.947802,0 q 1.343122,-19.32028 23.866235,-19.32028 22.83307,0 22.83307,17.15063 l 0,30.99511 q 0,3.82273 3.30615,6.81892 l 0,1.75639 -15.70419,0 q -1.65308,-2.06634 -1.65308,-5.57912 -7.64546,7.95542 -16.943993,7.95542 z m 16.840683,-24.79609 0,-3.92605 q -1.96303,0.92985 -6.09571,1.75639 l -4.959219,0.92985 q -4.54595,0.92985 -6.405657,2.68624 -1.859707,1.75639 -1.859707,4.95922 0,3.09951 2.066341,4.95922 2.169658,1.75639 5.785755,1.75639 5.475807,0 8.471997,-3.40946 2.9962,-3.40946 2.9962,-9.7118 z"
         style="font-style:normal;font-variant:normal;font-weight:600;font-stretch:normal;font-size:103.31704712px;font-family:FreeSans;-inkscape-font-specification:'FreeSans Semi-Bold';fill:none;stroke:#000000;stroke-width:0.67752618px;stroke-opacity:0.70588235"
         id="path7190" />
      <path
         d="m 158.99915,368.16902 q -10.33171,0 -16.944,-8.472 -6.50897,-8.472 -6.50897,-20.97336 0,-12.60468 6.71561,-21.07668 6.7156,-8.57531 16.73736,-8.57531 10.12507,0 15.39424,8.16204 l 0,-26.75911 14.46438,0 0,75.31812 -14.46438,0 0,-5.68243 q -5.37249,8.05873 -15.39424,8.05873 z m 3.20283,-47.00926 q -5.37249,0 -8.78195,4.95922 -3.40947,4.8559 -3.40947,12.60468 0,7.64546 3.40947,12.50136 3.40946,4.8559 8.78195,4.8559 5.37248,0 8.78194,-4.75258 3.40947,-4.75259 3.40947,-12.39805 0,-7.95541 -3.40947,-12.81131 -3.30614,-4.95922 -8.78194,-4.95922 z"
         style="font-style:normal;font-variant:normal;font-weight:600;font-stretch:normal;font-size:103.31704712px;font-family:FreeSans;-inkscape-font-specification:'FreeSans Semi-Bold';fill:none;stroke:#000000;stroke-width:0.67752618px;stroke-opacity:0.70588235"
         id="path7192" />
    </g>
    <circle
       style="fill:none;fill-opacity:1;stroke:#000000;stroke-width:1.99999988;stroke-miterlimit:4;stroke-dasharray:none;stroke-opacity:1"
       id="path5137-0-8"
       cx="80.781715"
       cy="885.79077"
       r="13" />
  </g>
</svg>
