<?xml version="1.0" encoding="UTF-8" standalone="no"?>
<!-- Created with Inkscape (http://www.inkscape.org/) -->

<svg
   xmlns:dc="http://purl.org/dc/elements/1.1/"
   xmlns:cc="http://creativecommons.org/ns#"
   xmlns:rdf="http://www.w3.org/1999/02/22-rdf-syntax-ns#"
   xmlns:svg="http://www.w3.org/2000/svg"
   xmlns="http://www.w3.org/2000/svg"
   xmlns:sodipodi="http://sodipodi.sourceforge.net/DTD/sodipodi-0.dtd"
   xmlns:inkscape="http://www.inkscape.org/namespaces/inkscape"
   width="100%"
   viewBox="0 0 1048 768"
   preserveAspectRatio="xMidYMid meet"
   id="svg2"
   version="1.1"
   inkscape:version="0.91 r13725"
   sodipodi:docname="12.svg">
  <defs
     id="defs4" />
  <sodipodi:namedview
     id="base"
     pagecolor="#ffffff"
     bordercolor="#666666"
     borderopacity="1.0"
     inkscape:pageopacity="0.0"
     inkscape:pageshadow="2"
     inkscape:zoom="0.7"
     inkscape:cx="236.18415"
     inkscape:cy="462.76514"
     inkscape:document-units="px"
     inkscape:current-layer="g7361"
     showgrid="false"
     units="px"
     inkscape:window-width="2560"
     inkscape:window-height="1374"
     inkscape:window-x="0"
     inkscape:window-y="27"
     inkscape:window-maximized="1">
    <inkscape:grid
       type="xygrid"
       id="grid5092" />
  </sodipodi:namedview>
  <metadata
     id="metadata7">
    <rdf:RDF>
      <cc:Work
         rdf:about="">
        <dc:format>image/svg+xml</dc:format>
        <dc:type
           rdf:resource="http://purl.org/dc/dcmitype/StillImage" />
        <dc:title />
      </cc:Work>
    </rdf:RDF>
  </metadata>
  <g
     inkscape:label="Layer 1"
     inkscape:groupmode="layer"
     id="layer1"
     transform="translate(0,-284.36218)">
    <g
       id="g5096"
       style="stroke:#000000;stroke-opacity:0.13725491">
      <path
         sodipodi:nodetypes="cccc"
         style="fill:none;stroke:#000000;stroke-width:2;stroke-miterlimit:4;stroke-dasharray:none;stroke-opacity:0.13725491"
         inkscape:connector-curvature="0"
         id="path4314"
         d="m 1048,684.98315 -160.37568,0 c -7.68332,-5.96677 -7.67743,-17.68568 0,-23.56659 l 160.37568,0" />
      <path
         sodipodi:nodetypes="cssccssc"
         style="fill:none;stroke:#000000;stroke-width:2;stroke-miterlimit:4;stroke-dasharray:none;stroke-opacity:0.13725491"
         inkscape:connector-curvature="0"
         id="path4310-5"
         d="m 831.89285,1052.3622 c 0,0 -17.91943,-27.8197 -17.91943,-77.36067 0,-94.01117 76.25169,-170.27726 170.24086,-170.27726 35.95322,0 63.97512,12.586 63.97512,12.586 M 1048,756.45347 c -5.3303,-1.80485 -28.2222,-9.10018 -63.78572,-9.10018 -123.15826,0 -227.59846,101.95467 -227.59846,227.65177 0,46.67814 12.59846,77.35714 12.59846,77.35714" />
      <path
         sodipodi:nodetypes="cccccssccscsccc"
         style="fill:none;stroke:#000000;stroke-width:2;stroke-miterlimit:4;stroke-dasharray:none;stroke-opacity:0.13725491"
         inkscape:connector-curvature="0"
         id="path4312-3"
         d="m 726.28747,1052.0652 0,-420.22188 -73.85031,0 0,-0.005 0,179.44378 c -40.89068,-39.21787 -96.30837,-63.41889 -157.4119,-63.41889 -125.67116,0 -227.59845,101.9547 -227.59845,227.65177 0,43.11702 13.47119,76.84722 13.47119,76.84722 m 62.532,0 c -3.31158,-3.6757 -18.64562,-42.3442 -18.64562,-76.84691 0,-94.01115 76.25172,-170.27727 170.24088,-170.27727 l 0,-0.006 c 71.03791,0 131.90658,43.52535 157.4119,105.39433 l 0,129.77175 c -0.96687,3.7062 -5.36616,11.9641 -5.36616,11.9641" />
    </g>
    <g
       id="g7361"
       transform="translate(111.82617,0)">
      <g
         transform="translate(-164.76219,402.81643)"
         style="font-style:normal;font-weight:normal;font-size:76.49583435px;line-height:125%;font-family:Sans;text-align:start;letter-spacing:0px;word-spacing:0px;text-anchor:start;fill:#000000;fill-opacity:1;stroke:none;stroke-width:1px;stroke-linecap:butt;stroke-linejoin:miter;stroke-opacity:1"
         id="flowRoot5076">
        <path
           d="m 301.74219,263.37778 0,13.20312 -3.59375,0 0,-13.08593 q 0,-3.10547 -1.21094,-4.64844 -1.21094,-1.54297 -3.63281,-1.54297 -2.91016,0 -4.58985,1.85547 -1.67968,1.85547 -1.67968,5.05859 l 0,12.36328 -3.61329,0 0,-30.39062 3.61329,0 0,11.91406 q 1.28906,-1.97265 3.02734,-2.94922 1.75781,-0.97656 4.04297,-0.97656 3.76953,0 5.70312,2.34375 1.9336,2.32422 1.9336,6.85547 z"
           style="font-style:normal;font-variant:normal;font-weight:normal;font-stretch:normal;font-size:40px;font-family:Sans;-inkscape-font-specification:Dingbats;text-align:start;text-anchor:start"
           id="path4163" />
        <path
           d="m 312.50391,248.49497 0,6.21093 7.40234,0 0,2.79297 -7.40234,0 0,11.875 q 0,2.67578 0.72265,3.4375 0.74219,0.76172 2.98828,0.76172 l 3.69141,0 0,3.00781 -3.69141,0 q -4.16015,0 -5.74218,-1.54296 -1.58204,-1.5625 -1.58204,-5.66407 l 0,-11.875 -2.63671,0 0,-2.79297 2.63671,0 0,-6.21093 3.61329,0 z"
           style="font-style:normal;font-variant:normal;font-weight:normal;font-stretch:normal;font-size:40px;font-family:Sans;-inkscape-font-specification:Dingbats;text-align:start;text-anchor:start"
           id="path4165" />
        <path
           d="m 328.20703,248.49497 0,6.21093 7.40234,0 0,2.79297 -7.40234,0 0,11.875 q 0,2.67578 0.72266,3.4375 0.74218,0.76172 2.98828,0.76172 l 3.6914,0 0,3.00781 -3.6914,0 q -4.16016,0 -5.74219,-1.54296 -1.58203,-1.5625 -1.58203,-5.66407 l 0,-11.875 -2.63672,0 0,-2.79297 2.63672,0 0,-6.21093 3.61328,0 z"
           style="font-style:normal;font-variant:normal;font-weight:normal;font-stretch:normal;font-size:40px;font-family:Sans;-inkscape-font-specification:Dingbats;text-align:start;text-anchor:start"
           id="path4167" />
        <path
           d="m 343.83203,273.29965 0,11.60157 -3.61328,0 0,-30.19532 3.61328,0 0,3.32032 q 1.13281,-1.95313 2.85156,-2.89063 1.73828,-0.95703 4.14063,-0.95703 3.98437,0 6.46484,3.16406 2.5,3.16407 2.5,8.32032 0,5.15625 -2.5,8.32031 -2.48047,3.16406 -6.46484,3.16406 -2.40235,0 -4.14063,-0.9375 -1.71875,-0.95703 -2.85156,-2.91016 z m 12.22656,-7.63671 q 0,-3.96485 -1.64062,-6.21094 -1.6211,-2.26563 -4.47266,-2.26563 -2.85156,0 -4.49219,2.26563 -1.62109,2.24609 -1.62109,6.21094 0,3.96484 1.62109,6.23046 1.64063,2.2461 4.49219,2.2461 2.85156,0 4.47266,-2.2461 1.64062,-2.26562 1.64062,-6.23046 z"
           style="font-style:normal;font-variant:normal;font-weight:normal;font-stretch:normal;font-size:40px;font-family:Sans;-inkscape-font-specification:Dingbats;text-align:start;text-anchor:start"
           id="path4169" />
        <path
           d="m 379.69141,255.35044 0,3.39843 q -1.52344,-0.78125 -3.16407,-1.17187 -1.64062,-0.39063 -3.39843,-0.39063 -2.67579,0 -4.02344,0.82032 -1.32813,0.82031 -1.32813,2.46093 0,1.25 0.95703,1.97266 0.95704,0.70312 3.84766,1.34766 l 1.23047,0.27343 q 3.82812,0.82032 5.42969,2.32422 1.62109,1.48438 1.62109,4.16016 0,3.04687 -2.42187,4.82422 -2.40235,1.77734 -6.6211,1.77734 -1.75781,0 -3.67187,-0.35156 -1.89453,-0.33203 -4.00391,-1.01563 l 0,-3.71093 q 1.99219,1.03515 3.92578,1.5625 1.9336,0.50781 3.82813,0.50781 2.53906,0 3.90625,-0.85938 1.36718,-0.8789 1.36718,-2.46093 0,-1.46485 -0.99609,-2.2461 -0.97656,-0.78125 -4.31641,-1.5039 l -1.25,-0.29297 q -3.33984,-0.70313 -4.82421,-2.14844 -1.48438,-1.46484 -1.48438,-4.00391 0,-3.08593 2.1875,-4.76562 2.1875,-1.67969 6.21094,-1.67969 1.99219,0 3.75,0.29297 1.75781,0.29297 3.24219,0.87891 z"
           style="font-style:normal;font-variant:normal;font-weight:normal;font-stretch:normal;font-size:40px;font-family:Sans;-inkscape-font-specification:Dingbats;text-align:start;text-anchor:start"
           id="path4171" />
        <path
           d="m 387.52344,271.61997 4.12109,0 0,4.96093 -4.12109,0 0,-4.96093 z m 0,-15.72266 4.12109,0 0,4.96094 -4.12109,0 0,-4.96094 z"
           style="font-style:normal;font-variant:normal;font-weight:normal;font-stretch:normal;font-size:40px;font-family:Sans;-inkscape-font-specification:Dingbats;text-align:start;text-anchor:start"
           id="path4173" />
        <path
           d="m 406.50781,247.42075 3.32031,0 -10.15625,32.87109 -3.32031,0 10.15625,-32.87109 z"
           style="font-style:normal;font-variant:normal;font-weight:normal;font-stretch:normal;font-size:40px;font-family:Sans;-inkscape-font-specification:Dingbats;text-align:start;text-anchor:start"
           id="path4175" />
        <path
           d="m 420.02344,247.42075 3.32031,0 -10.15625,32.87109 -3.32031,0 10.15625,-32.87109 z"
           style="font-style:normal;font-variant:normal;font-weight:normal;font-stretch:normal;font-size:40px;font-family:Sans;-inkscape-font-specification:Dingbats;text-align:start;text-anchor:start"
           id="path4177" />
        <path
           d="m 441.54687,265.3895 q 0,-3.90625 -1.62109,-6.05469 -1.60156,-2.14844 -4.51172,-2.14844 -2.89062,0 -4.51172,2.14844 -1.60156,2.14844 -1.60156,6.05469 0,3.88672 1.60156,6.03515 1.6211,2.14844 4.51172,2.14844 2.91016,0 4.51172,-2.14844 1.62109,-2.14843 1.62109,-6.03515 z m 3.59375,8.47656 q 0,5.58594 -2.48046,8.30078 -2.48047,2.73438 -7.59766,2.73438 -1.89453,0 -3.57422,-0.29297 -1.67969,-0.27344 -3.26172,-0.85938 l 0,-3.49609 q 1.58203,0.85937 3.125,1.26953 1.54297,0.41016 3.14453,0.41016 3.53516,0 5.29297,-1.85547 1.75781,-1.83594 1.75781,-5.56641 l 0,-1.77734 q -1.11328,1.93359 -2.85156,2.89062 -1.73828,0.95703 -4.16015,0.95703 -4.02344,0 -6.48438,-3.0664 -2.46094,-3.06641 -2.46094,-8.125 0,-5.07813 2.46094,-8.14453 2.46094,-3.06641 6.48438,-3.06641 2.42187,0 4.16015,0.95703 1.73828,0.95703 2.85156,2.89063 l 0,-3.32032 3.59375,0 0,19.16016 z"
           style="font-style:normal;font-variant:normal;font-weight:normal;font-stretch:normal;font-size:40px;font-family:Sans;-inkscape-font-specification:Dingbats;text-align:start;text-anchor:start"
           id="path4179" />
        <path
           d="m 452.54297,254.7059 3.59375,0 0,21.875 -3.59375,0 0,-21.875 z m 0,-8.51562 3.59375,0 0,4.55078 -3.59375,0 0,-4.55078 z"
           style="font-style:normal;font-variant:normal;font-weight:normal;font-stretch:normal;font-size:40px;font-family:Sans;-inkscape-font-specification:Dingbats;text-align:start;text-anchor:start"
           id="path4181" />
        <path
           d="m 467.19141,248.49497 0,6.21093 7.40234,0 0,2.79297 -7.40234,0 0,11.875 q 0,2.67578 0.72265,3.4375 0.74219,0.76172 2.98828,0.76172 l 3.69141,0 0,3.00781 -3.69141,0 q -4.16015,0 -5.74218,-1.54296 -1.58204,-1.5625 -1.58204,-5.66407 l 0,-11.875 -2.63671,0 0,-2.79297 2.63671,0 0,-6.21093 3.61329,0 z"
           style="font-style:normal;font-variant:normal;font-weight:normal;font-stretch:normal;font-size:40px;font-family:Sans;-inkscape-font-specification:Dingbats;text-align:start;text-anchor:start"
           id="path4183" />
        <path
           d="m 497.52344,263.37778 0,13.20312 -3.59375,0 0,-13.08593 q 0,-3.10547 -1.21094,-4.64844 -1.21094,-1.54297 -3.63281,-1.54297 -2.91016,0 -4.58985,1.85547 -1.67968,1.85547 -1.67968,5.05859 l 0,12.36328 -3.61329,0 0,-30.39062 3.61329,0 0,11.91406 q 1.28906,-1.97265 3.02734,-2.94922 1.75781,-0.97656 4.04297,-0.97656 3.76953,0 5.70312,2.34375 1.9336,2.32422 1.9336,6.85547 z"
           style="font-style:normal;font-variant:normal;font-weight:normal;font-stretch:normal;font-size:40px;font-family:Sans;-inkscape-font-specification:Dingbats;text-align:start;text-anchor:start"
           id="path4185" />
        <path
           d="m 504.35937,267.94809 0,-13.24219 3.59375,0 0,13.10547 q 0,3.10547 1.21094,4.66797 1.21094,1.54297 3.63281,1.54297 2.91016,0 4.58985,-1.85547 1.69922,-1.85547 1.69922,-5.05859 l 0,-12.40235 3.59375,0 0,21.875 -3.59375,0 0,-3.35937 q -1.3086,1.99219 -3.04688,2.96875 -1.71875,0.95703 -4.0039,0.95703 -3.76954,0 -5.72266,-2.34375 -1.95313,-2.34375 -1.95313,-6.85547 z m 9.04297,-13.76953 0,0 z"
           style="font-style:normal;font-variant:normal;font-weight:normal;font-stretch:normal;font-size:40px;font-family:Sans;-inkscape-font-specification:Dingbats;text-align:start;text-anchor:start"
           id="path4187" />
        <path
           d="m 545.82422,265.66294 q 0,-3.96485 -1.64063,-6.21094 -1.62109,-2.26563 -4.47265,-2.26563 -2.85157,0 -4.49219,2.26563 -1.62109,2.24609 -1.62109,6.21094 0,3.96484 1.62109,6.23046 1.64062,2.2461 4.49219,2.2461 2.85156,0 4.47265,-2.2461 1.64063,-2.26562 1.64063,-6.23046 z m -12.22656,-7.63672 q 1.13281,-1.95313 2.85156,-2.89063 1.73828,-0.95703 4.14062,-0.95703 3.98438,0 6.46485,3.16406 2.5,3.16407 2.5,8.32032 0,5.15625 -2.5,8.32031 -2.48047,3.16406 -6.46485,3.16406 -2.40234,0 -4.14062,-0.9375 -1.71875,-0.95703 -2.85156,-2.91016 l 0,3.28125 -3.61329,0 0,-30.39062 3.61329,0 0,11.83594 z"
           style="font-style:normal;font-variant:normal;font-weight:normal;font-stretch:normal;font-size:40px;font-family:Sans;-inkscape-font-specification:Dingbats;text-align:start;text-anchor:start"
           id="path4189" />
        <path
           d="m 556.01953,271.61997 4.12109,0 0,4.96093 -4.12109,0 0,-4.96093 z"
           style="font-style:normal;font-variant:normal;font-weight:normal;font-stretch:normal;font-size:40px;font-family:Sans;-inkscape-font-specification:Dingbats;text-align:start;text-anchor:start"
           id="path4191" />
        <path
           d="m 583.98828,255.54575 0,3.35937 q -1.52344,-0.83984 -3.06641,-1.25 -1.52343,-0.42968 -3.08593,-0.42968 -3.4961,0 -5.42969,2.22656 -1.93359,2.20703 -1.93359,6.21094 0,4.0039 1.93359,6.23046 1.93359,2.20704 5.42969,2.20704 1.5625,0 3.08593,-0.41016 1.54297,-0.42969 3.06641,-1.26953 l 0,3.32031 q -1.50391,0.70313 -3.125,1.05469 -1.60156,0.35156 -3.41797,0.35156 -4.9414,0 -7.85156,-3.10547 -2.91016,-3.10547 -2.91016,-8.3789 0,-5.35157 2.92969,-8.41797 2.94922,-3.06641 8.06641,-3.06641 1.66015,0 3.24218,0.35156 1.58204,0.33203 3.06641,1.01563 z"
           style="font-style:normal;font-variant:normal;font-weight:normal;font-stretch:normal;font-size:40px;font-family:Sans;-inkscape-font-specification:Dingbats;text-align:start;text-anchor:start"
           id="path4193" />
        <path
           d="m 598.75391,257.22544 q -2.89063,0 -4.57032,2.26562 -1.67968,2.24609 -1.67968,6.17188 0,3.92578 1.66015,6.1914 1.67969,2.2461 4.58985,2.2461 2.87109,0 4.55078,-2.26563 1.67968,-2.26562 1.67968,-6.17187 0,-3.88672 -1.67968,-6.15235 -1.67969,-2.28515 -4.55078,-2.28515 z m 0,-3.04688 q 4.6875,0 7.36328,3.04688 2.67578,3.04687 2.67578,8.4375 0,5.37109 -2.67578,8.4375 -2.67578,3.04687 -7.36328,3.04687 -4.70704,0 -7.38282,-3.04687 -2.65625,-3.06641 -2.65625,-8.4375 0,-5.39063 2.65625,-8.4375 2.67578,-3.04688 7.38282,-3.04688 z"
           style="font-style:normal;font-variant:normal;font-weight:normal;font-stretch:normal;font-size:40px;font-family:Sans;-inkscape-font-specification:Dingbats;text-align:start;text-anchor:start"
           id="path4195" />
        <path
           d="m 631.76172,258.90512 q 1.34765,-2.42187 3.22265,-3.57422 1.875,-1.15234 4.41407,-1.15234 3.41797,0 5.27343,2.40234 1.85547,2.38282 1.85547,6.79688 l 0,13.20312 -3.61328,0 0,-13.08593 q 0,-3.14453 -1.11328,-4.66797 -1.11328,-1.52344 -3.39844,-1.52344 -2.79297,0 -4.41406,1.85547 -1.62109,1.85547 -1.62109,5.05859 l 0,12.36328 -3.61328,0 0,-13.08593 q 0,-3.16407 -1.11329,-4.66797 -1.11328,-1.52344 -3.4375,-1.52344 -2.7539,0 -4.375,1.875 -1.62109,1.85547 -1.62109,5.03906 l 0,12.36328 -3.61328,0 0,-21.875 3.61328,0 0,3.39844 q 1.23047,-2.01172 2.94922,-2.96875 1.71875,-0.95703 4.08203,-0.95703 2.38281,0 4.04297,1.21094 1.67969,1.21094 2.48047,3.51562 z"
           style="font-style:normal;font-variant:normal;font-weight:normal;font-stretch:normal;font-size:40px;font-family:Sans;-inkscape-font-specification:Dingbats;text-align:start;text-anchor:start"
           id="path4197" />
        <path
           d="m 660.10156,247.42075 3.32031,0 -10.15625,32.87109 -3.32031,0 10.15625,-32.87109 z"
           style="font-style:normal;font-variant:normal;font-weight:normal;font-stretch:normal;font-size:40px;font-family:Sans;-inkscape-font-specification:Dingbats;text-align:start;text-anchor:start"
           id="path4199" />
        <path
           d="m 677.17187,265.58481 q -4.35546,0 -6.03515,0.99609 -1.67969,0.9961 -1.67969,3.39844 0,1.91406 1.25,3.04688 1.26953,1.11328 3.4375,1.11328 2.98828,0 4.78516,-2.10938 1.8164,-2.1289 1.8164,-5.64453 l 0,-0.80078 -3.57422,0 z m 7.16797,-1.48437 0,12.48046 -3.59375,0 0,-3.32031 q -1.23047,1.99219 -3.0664,2.94922 -1.83594,0.9375 -4.49219,0.9375 -3.35938,0 -5.35156,-1.875 -1.97266,-1.89453 -1.97266,-5.05859 0,-3.69141 2.46094,-5.56641 2.48047,-1.875 7.38281,-1.875 l 5.03906,0 0,-0.35156 q 0,-2.48047 -1.64062,-3.82813 -1.6211,-1.36718 -4.57031,-1.36718 -1.875,0 -3.65235,0.44921 -1.77734,0.44922 -3.41797,1.34766 l 0,-3.32031 q 1.97266,-0.76172 3.82813,-1.13281 1.85547,-0.39063 3.61328,-0.39063 4.74609,0 7.08984,2.46094 2.34375,2.46094 2.34375,7.46094 z"
           style="font-style:normal;font-variant:normal;font-weight:normal;font-stretch:normal;font-size:40px;font-family:Sans;-inkscape-font-specification:Dingbats;text-align:start;text-anchor:start"
           id="path4201" />
        <path
           d="m 705.70703,255.35044 0,3.39843 q -1.52344,-0.78125 -3.16406,-1.17187 -1.64063,-0.39063 -3.39844,-0.39063 -2.67578,0 -4.02344,0.82032 -1.32812,0.82031 -1.32812,2.46093 0,1.25 0.95703,1.97266 0.95703,0.70312 3.84766,1.34766 l 1.23046,0.27343 q 3.82813,0.82032 5.42969,2.32422 1.6211,1.48438 1.6211,4.16016 0,3.04687 -2.42188,4.82422 -2.40234,1.77734 -6.62109,1.77734 -1.75782,0 -3.67188,-0.35156 -1.89453,-0.33203 -4.0039,-1.01563 l 0,-3.71093 q 1.99218,1.03515 3.92578,1.5625 1.93359,0.50781 3.82812,0.50781 2.53906,0 3.90625,-0.85938 1.36719,-0.8789 1.36719,-2.46093 0,-1.46485 -0.99609,-2.2461 -0.97657,-0.78125 -4.31641,-1.5039 l -1.25,-0.29297 q -3.33984,-0.70313 -4.82422,-2.14844 -1.48437,-1.46484 -1.48437,-4.00391 0,-3.08593 2.1875,-4.76562 2.1875,-1.67969 6.21093,-1.67969 1.99219,0 3.75,0.29297 1.75782,0.29297 3.24219,0.87891 z"
           style="font-style:normal;font-variant:normal;font-weight:normal;font-stretch:normal;font-size:40px;font-family:Sans;-inkscape-font-specification:Dingbats;text-align:start;text-anchor:start"
           id="path4203" />
        <path
           d="m 712.25,267.94809 0,-13.24219 3.59375,0 0,13.10547 q 0,3.10547 1.21094,4.66797 1.21093,1.54297 3.63281,1.54297 2.91016,0 4.58984,-1.85547 1.69922,-1.85547 1.69922,-5.05859 l 0,-12.40235 3.59375,0 0,21.875 -3.59375,0 0,-3.35937 q -1.30859,1.99219 -3.04687,2.96875 -1.71875,0.95703 -4.00391,0.95703 -3.76953,0 -5.72266,-2.34375 -1.95312,-2.34375 -1.95312,-6.85547 z m 9.04297,-13.76953 0,0 z"
           style="font-style:normal;font-variant:normal;font-weight:normal;font-stretch:normal;font-size:40px;font-family:Sans;-inkscape-font-specification:Dingbats;text-align:start;text-anchor:start"
           id="path4205" />
        <path
           d="m 737.64062,267.94809 0,-13.24219 3.59375,0 0,13.10547 q 0,3.10547 1.21094,4.66797 1.21094,1.54297 3.63281,1.54297 2.91016,0 4.58985,-1.85547 1.69922,-1.85547 1.69922,-5.05859 l 0,-12.40235 3.59375,0 0,21.875 -3.59375,0 0,-3.35937 q -1.3086,1.99219 -3.04688,2.96875 -1.71875,0.95703 -4.0039,0.95703 -3.76954,0 -5.72266,-2.34375 -1.95313,-2.34375 -1.95313,-6.85547 z m 9.04297,-13.76953 0,0 z"
           style="font-style:normal;font-variant:normal;font-weight:normal;font-stretch:normal;font-size:40px;font-family:Sans;-inkscape-font-specification:Dingbats;text-align:start;text-anchor:start"
           id="path4207" />
        <path
           d="m 776.07812,258.06528 q -0.60546,-0.35156 -1.32812,-0.50781 -0.70313,-0.17578 -1.5625,-0.17578 -3.04688,0 -4.6875,1.99218 -1.62109,1.97266 -1.62109,5.6836 l 0,11.52343 -3.61329,0 0,-21.875 3.61329,0 0,3.39844 q 1.13281,-1.99219 2.94921,-2.94922 1.81641,-0.97656 4.41407,-0.97656 0.37109,0 0.82031,0.0586 0.44922,0.0391 0.99609,0.13672 l 0.0195,3.69141 z"
           style="font-style:normal;font-variant:normal;font-weight:normal;font-stretch:normal;font-size:40px;font-family:Sans;-inkscape-font-specification:Dingbats;text-align:start;text-anchor:start"
           id="path4209" />
        <path
           d="m 779.88672,254.7059 3.59375,0 0,21.875 -3.59375,0 0,-21.875 z m 0,-8.51562 3.59375,0 0,4.55078 -3.59375,0 0,-4.55078 z"
           style="font-style:normal;font-variant:normal;font-weight:normal;font-stretch:normal;font-size:40px;font-family:Sans;-inkscape-font-specification:Dingbats;text-align:start;text-anchor:start"
           id="path4211" />
        <path
           d="m 797.36719,247.42075 3.32031,0 -10.15625,32.87109 -3.32031,0 10.15625,-32.87109 z"
           style="font-style:normal;font-variant:normal;font-weight:normal;font-stretch:normal;font-size:40px;font-family:Sans;-inkscape-font-specification:Dingbats;text-align:start;text-anchor:start"
           id="path4213" />
        <path
           d="m 818.89062,258.02622 0,-11.83594 3.59375,0 0,30.39062 -3.59375,0 0,-3.28125 q -1.13281,1.95313 -2.87109,2.91016 -1.71875,0.9375 -4.14062,0.9375 -3.96485,0 -6.46485,-3.16406 -2.48047,-3.16406 -2.48047,-8.32031 0,-5.15625 2.48047,-8.32032 2.5,-3.16406 6.46485,-3.16406 2.42187,0 4.14062,0.95703 1.73828,0.9375 2.87109,2.89063 z m -12.24609,7.63672 q 0,3.96484 1.62109,6.23046 1.64063,2.2461 4.49219,2.2461 2.85156,0 4.49219,-2.2461 1.64062,-2.26562 1.64062,-6.23046 0,-3.96485 -1.64062,-6.21094 -1.64063,-2.26563 -4.49219,-2.26563 -2.85156,0 -4.49219,2.26563 -1.62109,2.24609 -1.62109,6.21094 z"
           style="font-style:normal;font-variant:normal;font-weight:normal;font-stretch:normal;font-size:40px;font-family:Sans;-inkscape-font-specification:Dingbats;text-align:start;text-anchor:start"
           id="path4215" />
        <path
           d="m 838.36328,257.22544 q -2.89062,0 -4.57031,2.26562 -1.67969,2.24609 -1.67969,6.17188 0,3.92578 1.66016,6.1914 1.67968,2.2461 4.58984,2.2461 2.87109,0 4.55078,-2.26563 1.67969,-2.26562 1.67969,-6.17187 0,-3.88672 -1.67969,-6.15235 -1.67969,-2.28515 -4.55078,-2.28515 z m 0,-3.04688 q 4.6875,0 7.36328,3.04688 2.67578,3.04687 2.67578,8.4375 0,5.37109 -2.67578,8.4375 -2.67578,3.04687 -7.36328,3.04687 -4.70703,0 -7.38281,-3.04687 -2.65625,-3.06641 -2.65625,-8.4375 0,-5.39063 2.65625,-8.4375 2.67578,-3.04688 7.38281,-3.04688 z"
           style="font-style:normal;font-variant:normal;font-weight:normal;font-stretch:normal;font-size:40px;font-family:Sans;-inkscape-font-specification:Dingbats;text-align:start;text-anchor:start"
           id="path4217" />
        <path
           d="m 857.81641,273.29965 0,11.60157 -3.61329,0 0,-30.19532 3.61329,0 0,3.32032 q 1.13281,-1.95313 2.85156,-2.89063 1.73828,-0.95703 4.14062,-0.95703 3.98438,0 6.46485,3.16406 2.5,3.16407 2.5,8.32032 0,5.15625 -2.5,8.32031 -2.48047,3.16406 -6.46485,3.16406 -2.40234,0 -4.14062,-0.9375 -1.71875,-0.95703 -2.85156,-2.91016 z m 12.22656,-7.63671 q 0,-3.96485 -1.64063,-6.21094 -1.62109,-2.26563 -4.47265,-2.26563 -2.85157,0 -4.49219,2.26563 -1.62109,2.24609 -1.62109,6.21094 0,3.96484 1.62109,6.23046 1.64062,2.2461 4.49219,2.2461 2.85156,0 4.47265,-2.2461 1.64063,-2.26562 1.64063,-6.23046 z"
           style="font-style:normal;font-variant:normal;font-weight:normal;font-stretch:normal;font-size:40px;font-family:Sans;-inkscape-font-specification:Dingbats;text-align:start;text-anchor:start"
           id="path4219" />
        <path
           d="m 898.44141,264.74497 0,1.75781 -16.52344,0 q 0.23437,3.71094 2.22656,5.66406 2.01172,1.9336 5.58594,1.9336 2.07031,0 4.0039,-0.50782 1.95313,-0.50781 3.86719,-1.52343 l 0,3.39843 q -1.93359,0.82032 -3.96484,1.25 -2.03125,0.42969 -4.1211,0.42969 -5.23437,0 -8.30078,-3.04687 -3.04687,-3.04688 -3.04687,-8.24219 0,-5.3711 2.89062,-8.51563 2.91016,-3.16406 7.83203,-3.16406 4.41407,0 6.97266,2.85156 2.57813,2.83203 2.57813,7.71485 z m -3.59375,-1.05469 q -0.0391,-2.94922 -1.66016,-4.70703 -1.60156,-1.75781 -4.25781,-1.75781 -3.00782,0 -4.82422,1.69921 -1.79688,1.69922 -2.07031,4.78516 l 12.8125,-0.0195 z"
           style="font-style:normal;font-variant:normal;font-weight:normal;font-stretch:normal;font-size:40px;font-family:Sans;-inkscape-font-specification:Dingbats;text-align:start;text-anchor:start"
           id="path4221" />
        <path
           d="m 918.73437,258.02622 0,-11.83594 3.59375,0 0,30.39062 -3.59375,0 0,-3.28125 q -1.13281,1.95313 -2.87109,2.91016 -1.71875,0.9375 -4.14062,0.9375 -3.96485,0 -6.46485,-3.16406 -2.48047,-3.16406 -2.48047,-8.32031 0,-5.15625 2.48047,-8.32032 2.5,-3.16406 6.46485,-3.16406 2.42187,0 4.14062,0.95703 1.73828,0.9375 2.87109,2.89063 z m -12.24609,7.63672 q 0,3.96484 1.62109,6.23046 1.64063,2.2461 4.49219,2.2461 2.85156,0 4.49219,-2.2461 1.64062,-2.26562 1.64062,-6.23046 0,-3.96485 -1.64062,-6.21094 -1.64063,-2.26563 -4.49219,-2.26563 -2.85156,0 -4.49219,2.26563 -1.62109,2.24609 -1.62109,6.21094 z"
           style="font-style:normal;font-variant:normal;font-weight:normal;font-stretch:normal;font-size:40px;font-family:Sans;-inkscape-font-specification:Dingbats;text-align:start;text-anchor:start"
           id="path4223" />
      </g>
      <circle
         r="13"
         cy="668.36218"
         cx="80.781715"
         id="path5137"
         style="fill:none;fill-opacity:1;stroke:#000000;stroke-width:1.99999988;stroke-miterlimit:4;stroke-dasharray:none;stroke-opacity:1" />
      <flowRoot
         xml:space="preserve"
         id="flowRoot4154"
         style="fill:black;stroke:none;stroke-opacity:1;stroke-width:1px;stroke-linejoin:miter;stroke-linecap:butt;fill-opacity:1;font-family:Sans;font-style:normal;font-weight:normal;font-size:40px;line-height:125%;letter-spacing:0px;word-spacing:0px"><flowRegion
           id="flowRegion4156"><rect
             id="rect4158"
             width="1371.4286"
             height="694.28571"
             x="-342.85715"
             y="-7.7142859" /></flowRegion><flowPara
           id="flowPara4160"></flowPara></flowRoot>    </g>
    <flowRoot
       xml:space="preserve"
       id="flowRoot5233"
       style="fill:black;stroke:none;stroke-opacity:1;stroke-width:1px;stroke-linejoin:miter;stroke-linecap:butt;fill-opacity:1;font-family:Sans;font-style:normal;font-weight:normal;font-size:40px;line-height:125%;letter-spacing:0px;word-spacing:0px"><flowRegion
         id="flowRegion5235"><rect
           id="rect5237"
           width="628.57141"
           height="87.14286"
           x="7.1428571"
           y="6.5714283" /></flowRegion><flowPara
         id="flowPara5239" /></flowRoot>    <flowRoot
       xml:space="preserve"
       id="flowRoot5241"
       style="fill:black;stroke:none;stroke-opacity:1;stroke-width:1px;stroke-linejoin:miter;stroke-linecap:butt;fill-opacity:1;font-family:Carlito;font-style:normal;font-weight:normal;font-size:40px;line-height:125%;letter-spacing:0px;word-spacing:0px;-inkscape-font-specification:Carlito;font-stretch:normal;font-variant:normal;"><flowRegion
         id="flowRegion5243"><rect
           id="rect5245"
           width="641.42859"
           height="85.714287"
           x="-2.8571429"
           y="3.7142854"
           style="-inkscape-font-specification:Carlito;font-family:Carlito;font-weight:normal;font-style:normal;font-stretch:normal;font-variant:normal;" /></flowRegion><flowPara
         id="flowPara5247" /></flowRoot>    <text
       xml:space="preserve"
       style="font-style:normal;font-weight:normal;font-size:132.8361969px;line-height:125%;font-family:Sans;letter-spacing:0px;word-spacing:0px;fill:none;fill-opacity:1;stroke:#000000;stroke-width:1px;stroke-linecap:butt;stroke-linejoin:miter;stroke-opacity:0.70588235"
       x="4.3819628"
       y="365.79272"
       id="text5249"
       sodipodi:linespacing="125%"
       transform="scale(0.99828007,1.0017229)"><tspan
         sodipodi:role="line"
         x="4.3819628"
         y="365.79272"
         style="font-style:normal;font-variant:normal;font-weight:600;font-stretch:normal;font-size:103.31704712px;font-family:FreeSans;-inkscape-font-specification:'FreeSans Semi-Bold';fill:none;stroke:#000000;stroke-width:0.67752618px;stroke-opacity:0.70588235"
         id="tspan5253">Code</tspan></text>
  </g>
</svg>
